<svg width="360" height="390" viewBox="0 0 360 390" fill="none" xmlns="http://www.w3.org/2000/svg">
<mask id="mask0" mask-type="alpha" maskUnits="userSpaceOnUse" x="0" y="0" width="360" height="390">
<rect width="360" height="390" rx="5" fill="url(#paint0_linear)"/>
</mask>
<g mask="url(#mask0)">
<g opacity="0.7">
<path d="M147.995 35.9136C151.298 34.0079 154.093 35.5324 154.093 39.3438L154.347 129.8C154.347 133.611 151.679 138.312 148.376 140.217L31.1134 207.932C27.8103 209.838 25.0153 208.313 25.0153 204.502L24.7612 114.046C24.7612 110.235 27.4291 105.534 30.7323 103.628L90.6974 69.0722V59.5439C90.6974 56.4948 92.8572 52.8105 95.5251 51.286L138.212 26.6393C140.88 25.1148 143.04 26.3852 143.04 29.4343V38.9627L147.995 35.9136ZM86.2508 134.246C85.8697 135.135 85.9967 136.025 86.5049 136.152L91.0785 137.295C91.3326 137.295 91.5867 137.295 91.8408 137.168C92.0949 137.041 92.349 136.787 92.6031 136.406L97.1767 130.054C97.8119 129.291 97.9389 128.275 97.4308 127.767C97.1767 127.513 96.7955 127.513 96.4144 127.767C96.1603 127.894 95.9062 128.148 95.6521 128.529L93.1113 132.086L92.9842 96.0057C92.9842 95.1164 92.349 94.8623 91.7138 95.2435C90.9515 95.6246 90.4433 96.641 90.4433 97.5303L90.5704 133.611L88.0295 132.976C87.7754 132.976 87.5213 132.976 87.2672 133.103C86.8861 133.23 86.5049 133.738 86.2508 134.246ZM107.848 138.82C108.611 138.439 109.119 137.422 109.119 136.533C109.119 135.644 108.484 135.39 107.848 135.771L75.1979 154.7C74.4357 155.082 73.9275 156.098 73.9275 156.987C73.9275 157.876 74.5627 158.131 75.1979 157.749L107.848 138.82Z" stroke="#AFBAD4" stroke-miterlimit="10"/>
<path opacity="0.6" d="M131.86 25.6229C135.163 23.7173 137.958 25.2418 137.958 29.0531L138.212 119.509C138.212 123.32 135.544 128.021 132.241 129.927L14.9788 197.641C11.6756 199.547 8.88065 198.023 8.88065 194.211L8.62656 103.755C8.62656 99.9441 11.2945 95.2434 14.5977 93.3378L74.5628 58.7816V49.2532C74.5628 46.2042 76.7225 42.5199 79.3905 40.9953L121.95 16.2216C124.618 14.6971 126.778 15.9675 126.778 19.0166V28.545L131.86 25.6229ZM69.9892 123.956C69.608 124.845 69.7351 125.734 70.2432 125.861L74.8169 127.005C75.071 127.005 75.325 127.005 75.5791 126.878C75.8332 126.751 76.0873 126.496 76.3414 126.115L80.915 119.763C81.5502 119.001 81.6773 117.984 81.1691 117.476C80.915 117.222 80.5339 117.222 80.1527 117.476C79.8986 117.603 79.6446 117.857 79.3905 118.239L76.8496 121.796V85.588C76.8496 84.6987 76.2144 84.4446 75.5791 84.8258C74.8169 85.2069 74.3087 86.2233 74.3087 87.1126L74.4357 123.193L71.8948 122.558C71.6407 122.558 71.3867 122.558 71.1326 122.685C70.6244 122.939 70.2432 123.447 69.9892 123.956ZM91.7138 128.529C92.4761 128.148 92.9842 127.132 92.9842 126.242C92.9842 125.353 92.349 125.099 91.7138 125.48L59.0633 144.41C58.301 144.791 57.7929 145.807 57.7929 146.697C57.7929 147.586 58.4281 147.84 59.0633 147.459L91.7138 128.529Z" stroke="#AFBAD4" stroke-miterlimit="10"/>
<path opacity="0.3" d="M116.36 13.8078C119.664 11.9021 122.459 13.4267 122.459 17.238L122.713 107.694C122.713 111.505 120.045 116.206 116.742 118.112L-0.647764 185.953C-3.95093 187.859 -6.74591 186.335 -6.74591 182.523L-7 91.9403C-7 88.129 -4.33206 83.4283 -1.0289 81.5226L58.9362 46.9665V37.4381C58.9362 34.389 61.096 30.7047 63.7639 29.1802L106.451 4.53354C109.119 3.009 111.279 4.27945 111.279 7.32852V16.8569L116.36 13.8078ZM54.4896 112.14C54.1085 113.03 54.2355 113.919 54.7437 114.046L59.3173 115.189C59.5714 115.189 59.8255 115.189 60.0796 115.062C60.3337 114.935 60.5878 114.681 60.8419 114.3L65.4155 107.948C66.0507 107.186 66.1778 106.169 65.6696 105.661C65.4155 105.407 65.0344 105.407 64.6532 105.661C64.3991 105.788 64.145 106.042 63.8909 106.423L61.3501 109.981L61.223 73.9C61.223 73.0106 60.5878 72.7565 59.9526 73.1377C59.1903 73.5188 58.6821 74.5352 58.6821 75.4245L58.8092 111.505L56.2683 110.87C56.0142 110.87 55.7601 110.87 55.506 110.997C55.1249 111.124 54.7437 111.632 54.4896 112.14ZM76.2143 116.714C76.9766 116.333 77.4847 115.317 77.4847 114.427C77.4847 113.538 76.8495 113.284 76.2143 113.665L43.5638 132.595C42.8015 132.976 42.2933 133.992 42.2933 134.881C42.2933 135.771 42.9286 136.025 43.5638 135.644L76.2143 116.714Z" stroke="#AFBAD4" stroke-miterlimit="10"/>
<path d="M102.64 175.155L96.1604 171.343L128.811 152.541L135.29 156.225L102.64 175.155Z" fill="#B6D6F0"/>
<path d="M102.64 172.105L96.1604 168.421L128.811 149.492L135.29 153.303L102.64 172.105Z" fill="#81A1D3"/>
<path d="M130.081 150.254C130.081 149.873 129.954 149.491 129.7 149.364L136.179 153.176C136.433 153.303 136.561 153.557 136.561 154.065C136.561 154.954 135.925 155.844 135.29 156.352L128.811 152.541C129.573 152.032 130.081 151.016 130.081 150.254Z" fill="#B6D6F0"/>
<path d="M129.7 149.364L136.179 153.176C135.925 153.049 135.671 153.049 135.29 153.303L128.811 149.491C129.192 149.237 129.446 149.237 129.7 149.364Z" fill="#81A1D3"/>
<path d="M120.045 153.938L113.565 150.127L118.139 143.775L124.618 147.459L120.045 153.938Z" fill="#B6D6F0"/>
<path d="M118.393 141.488L118.266 141.361L124.745 145.172L124.872 145.299C125.254 145.68 125.126 146.697 124.618 147.586L118.139 143.774C118.647 142.885 118.774 141.869 118.393 141.488Z" fill="#B6D6F0"/>
<path d="M118.52 154.827L112.041 151.016C112.295 151.016 112.549 151.016 112.803 150.889C113.057 150.762 113.311 150.508 113.566 150.127L120.045 153.938C119.791 154.192 119.537 154.446 119.283 154.7C119.028 154.827 118.774 154.827 118.52 154.827Z" fill="#B6D6F0"/>
<path d="M118.266 141.361L124.745 145.172C124.491 145.045 124.11 145.045 123.856 145.299C123.602 145.426 123.348 145.68 123.094 146.061L116.615 142.25C116.869 141.869 117.123 141.742 117.377 141.488C117.631 141.234 118.012 141.234 118.266 141.361Z" fill="#81A1D3"/>
<path d="M120.553 149.492L114.074 145.68L116.615 142.123L123.094 145.934L120.553 149.492Z" fill="#81A1D3"/>
<path d="M173.276 49.2533L179.756 53.0646C178.612 52.4294 177.088 52.5564 175.436 53.4457L168.957 49.6344C170.608 48.618 172.133 48.491 173.276 49.2533Z" fill="#AFBAD4"/>
<path d="M95.271 171.47C95.5251 171.597 95.7792 171.597 96.1603 171.343L102.64 175.155C102.258 175.409 102.004 175.409 101.75 175.282C99.7175 174.138 97.1767 172.614 95.271 171.47Z" fill="#B6D6F0"/>
<path d="M113.947 153.684L107.467 149.873L112.041 151.016L118.52 154.827L113.947 153.684Z" fill="#B6D6F0"/>
<path d="M170.354 56.3677L163.875 52.5564L168.957 49.6344L175.436 53.4457L170.354 56.3677Z" fill="#AFBAD4"/>
<path d="M107.467 149.873C107.594 149.873 107.721 150 107.848 150.127C108.357 150.381 108.865 150.762 109.5 151.016C109.627 151.143 109.754 151.143 109.881 151.27C110.135 151.397 110.516 151.651 110.77 151.778C111.66 152.286 112.422 152.795 113.311 153.176C113.565 153.303 113.82 153.43 114.074 153.557C114.074 153.557 113.947 153.557 113.947 153.43L107.467 149.619C107.34 149.873 107.34 149.873 107.467 149.873Z" fill="#B6D6F0"/>
<path d="M115.471 150.381L108.992 146.57L111.406 147.205L117.885 151.016L115.471 150.381Z" fill="#81A1D3"/>
<path d="M135.29 153.303C136.052 152.922 136.561 153.176 136.561 154.065C136.561 154.954 135.925 155.844 135.29 156.352L102.64 175.282C101.877 175.663 101.369 175.409 101.369 174.519C101.369 173.63 102.004 172.741 102.64 172.233L135.29 153.303Z" fill="#81A1D3"/>
<path d="M101.75 175.282L95.2711 171.47C95.017 171.343 94.8899 171.089 94.8899 170.581C94.8899 169.692 95.5252 168.802 96.1604 168.294L102.64 172.105C101.877 172.487 101.369 173.503 101.369 174.392C101.369 174.773 101.496 175.155 101.75 175.282Z" fill="#81A1D3"/>
<path d="M113.693 153.557L107.213 149.746C106.832 149.491 106.705 148.729 107.086 147.84C107.34 147.332 107.721 146.824 108.103 146.569C108.357 146.442 108.611 146.315 108.865 146.442L115.344 150.254C115.09 150.254 114.836 150.254 114.582 150.381C114.201 150.635 113.82 151.016 113.565 151.651C113.184 152.541 113.311 153.303 113.693 153.557Z" fill="#81A1D3"/>
<path d="M162.478 39.979L168.957 43.7903C168.068 43.2821 166.924 43.4092 165.527 44.1714L159.048 40.3601C160.318 39.4708 161.588 39.4708 162.478 39.979Z" fill="#AFBAD4"/>
<path d="M117.885 114.808L111.406 110.997C111.406 110.108 112.041 109.218 112.676 108.71L119.155 112.521C118.393 113.03 117.885 114.046 117.885 114.808Z" fill="#81A1D3"/>
<path d="M120.553 149.492L114.074 145.68L113.947 109.599L120.426 113.284L120.553 149.492Z" fill="#B6D6F0"/>
<path d="M113.947 109.599C113.947 109.218 113.82 108.837 113.565 108.71L120.045 112.521C120.299 112.649 120.426 112.903 120.426 113.411C118.52 112.14 115.852 110.743 113.947 109.599Z" fill="#B6D6F0"/>
<path d="M117.885 151.016L111.406 147.205V111.124L117.885 114.808V151.016Z" fill="#81A1D3"/>
<path d="M113.566 108.71L120.045 112.521C119.791 112.394 119.537 112.394 119.155 112.649L112.676 108.837C113.057 108.583 113.311 108.583 113.566 108.71Z" fill="#81A1D3"/>
<path d="M119.155 112.522C119.918 112.14 120.426 112.394 120.426 113.284L120.553 149.364L123.094 145.807C123.348 145.426 123.602 145.299 123.856 145.045C124.237 144.791 124.618 144.791 124.872 145.045C125.254 145.426 125.126 146.442 124.618 147.332L120.045 153.684C119.791 153.938 119.537 154.192 119.282 154.446C119.028 154.573 118.774 154.7 118.52 154.573L113.947 153.43C113.311 153.303 113.184 152.414 113.692 151.524C113.947 151.016 114.328 150.508 114.709 150.254C114.963 150.127 115.217 150 115.471 150.127L118.012 150.762L117.885 114.808C117.885 114.046 118.393 113.03 119.155 112.522Z" fill="#81A1D3"/>
<path d="M54.1085 225.845L47.6292 222.034C46.4858 221.399 45.8506 220.001 45.8506 218.096L52.3298 221.907C52.3298 223.94 53.0921 225.337 54.1085 225.845Z" fill="#AFBAD4"/>
<path d="M118.139 86.4773L111.66 82.666L111.533 73.1376L118.012 76.9489L118.139 86.4773Z" fill="#AFBAD4"/>
<path d="M122.84 68.6911L116.36 64.8797L159.047 40.2331L165.527 44.0444L122.84 68.6911Z" fill="#AFBAD4"/>
<path d="M118.012 76.949L111.533 73.1376C111.533 70.0886 113.693 66.4043 116.36 64.8797L122.84 68.6911C120.172 70.2156 118.012 73.8999 118.012 76.949Z" fill="#AFBAD4"/>
<path d="M52.3299 222.034L45.8506 218.223L45.5965 127.767L52.0758 131.578L52.3299 222.034Z" fill="#AFBAD4"/>
<path d="M58.174 121.161L51.6947 117.349L111.66 82.666L118.139 86.4773L58.174 121.161Z" fill="#AFBAD4"/>
<path d="M52.0758 131.578L45.5965 127.767C45.5965 123.956 48.2645 119.255 51.5676 117.349L58.0469 121.161C54.7437 123.066 52.0758 127.767 52.0758 131.578Z" fill="#AFBAD4"/>
<path d="M175.436 53.4457C178.739 51.54 181.534 53.0646 181.534 56.8759L181.788 147.332C181.788 151.143 179.12 155.844 175.817 157.749L58.428 225.464C55.1248 227.37 52.3299 225.845 52.3299 222.034L52.0758 131.578C52.0758 127.767 54.7437 123.066 58.0469 121.161L118.139 86.4773V76.949C118.139 73.8999 120.299 70.2156 122.967 68.6911L165.654 44.0444C168.322 42.5199 170.481 43.7903 170.481 46.8394V56.3677L175.436 53.4457ZM113.565 151.778C113.184 152.668 113.311 153.557 113.82 153.684L118.393 154.827C118.647 154.827 118.901 154.827 119.155 154.7C119.409 154.573 119.664 154.319 119.918 153.938L124.491 147.586C125.126 146.824 125.254 145.807 124.745 145.299C124.491 145.045 124.11 145.045 123.729 145.299C123.475 145.426 123.221 145.68 122.967 146.061L120.426 149.619L120.299 113.538C120.299 112.649 119.664 112.394 119.028 112.776C118.266 113.157 117.758 114.173 117.758 115.062L117.885 151.143L115.344 150.508C115.09 150.508 114.836 150.508 114.582 150.635C114.201 150.762 113.82 151.143 113.565 151.778ZM135.29 156.225C136.052 155.844 136.561 154.827 136.561 153.938C136.561 153.049 135.925 152.795 135.29 153.176L102.64 172.105C101.877 172.487 101.369 173.503 101.369 174.392C101.369 175.282 102.004 175.536 102.64 175.155L135.29 156.225Z" fill="#034FA9"/>
<path d="M123.983 187.732L117.504 183.921L150.154 164.991L156.634 168.802L123.983 187.732Z" fill="#B6D6F0"/>
<path d="M123.983 184.683L117.504 180.872L150.154 162.069L156.634 165.753L123.983 184.683Z" fill="#81A1D3"/>
<path d="M151.552 162.831C151.552 162.45 151.425 162.069 151.171 161.942L157.65 165.753C157.904 165.88 158.031 166.134 158.031 166.643C158.031 167.532 157.396 168.421 156.761 168.929L150.281 165.118C150.917 164.61 151.552 163.593 151.552 162.831Z" fill="#B6D6F0"/>
<path d="M151.171 161.942L157.65 165.753C157.396 165.626 157.142 165.626 156.761 165.88L150.281 162.069C150.535 161.815 150.917 161.815 151.171 161.942Z" fill="#81A1D3"/>
<path d="M141.388 166.388L134.909 162.704L139.483 156.225L145.962 160.036L141.388 166.388Z" fill="#B6D6F0"/>
<path d="M139.737 154.065L139.61 153.938L146.089 157.749L146.216 157.876C146.597 158.258 146.47 159.274 145.962 160.163L139.482 156.352C139.991 155.463 140.245 154.446 139.737 154.065Z" fill="#B6D6F0"/>
<path d="M139.864 167.278L133.384 163.466C133.639 163.466 133.893 163.466 134.147 163.339C134.401 163.212 134.655 162.958 134.909 162.577L141.388 166.388C141.134 166.643 140.88 166.897 140.626 167.151C140.372 167.278 140.118 167.405 139.864 167.278Z" fill="#B6D6F0"/>
<path d="M139.61 153.938L146.089 157.749C145.835 157.622 145.454 157.622 145.2 157.876C144.945 158.004 144.691 158.258 144.437 158.639L137.958 154.827C138.212 154.446 138.466 154.319 138.72 154.065C139.101 153.811 139.356 153.811 139.61 153.938Z" fill="#81A1D3"/>
<path d="M141.896 161.942L135.417 158.258L137.958 154.7L144.437 158.512L141.896 161.942Z" fill="#81A1D3"/>
<path d="M194.62 61.7037L201.099 65.515C199.956 64.8798 198.431 65.0068 196.78 65.8961L190.3 62.0848C191.952 61.1955 193.476 61.0684 194.62 61.7037Z" fill="#AFBAD4"/>
<path d="M116.614 184.048C116.869 184.175 117.123 184.175 117.504 183.921L123.983 187.732C123.602 187.986 123.348 187.986 123.094 187.859C121.188 186.589 118.52 185.064 116.614 184.048Z" fill="#B6D6F0"/>
<path d="M135.29 166.261L128.811 162.45L133.384 163.593L139.864 167.278L135.29 166.261Z" fill="#B6D6F0"/>
<path d="M191.698 68.8182L185.219 65.0068L190.3 62.0848L196.78 65.8961L191.698 68.8182Z" fill="#AFBAD4"/>
<path d="M128.811 162.45C128.938 162.45 129.065 162.577 129.192 162.704C129.7 162.958 130.208 163.339 130.843 163.593C130.971 163.721 131.098 163.721 131.225 163.848C131.479 163.975 131.86 164.229 132.114 164.356C133.003 164.864 133.766 165.372 134.655 165.753C134.909 165.88 135.163 166.007 135.417 166.134C135.417 166.134 135.29 166.134 135.29 166.007L128.811 162.196C128.684 162.45 128.684 162.45 128.811 162.45Z" fill="#B6D6F0"/>
<path d="M136.815 162.831L130.335 159.147L132.876 159.782L139.356 163.467L136.815 162.831Z" fill="#81A1D3"/>
<path d="M156.634 165.753C157.396 165.372 157.904 165.626 157.904 166.516C157.904 167.405 157.269 168.294 156.634 168.802L123.983 187.732C123.221 188.113 122.713 187.859 122.713 186.97C122.713 186.08 123.348 185.191 123.983 184.683L156.634 165.753Z" fill="#81A1D3"/>
<path d="M123.094 187.732L116.615 183.921C116.36 183.794 116.233 183.54 116.233 183.031C116.233 182.142 116.869 181.253 117.504 180.745L123.983 184.556C123.221 184.937 122.713 185.953 122.713 186.843C122.713 187.351 122.84 187.605 123.094 187.732Z" fill="#81A1D3"/>
<path d="M135.163 166.134L128.684 162.323C128.303 162.069 128.176 161.307 128.557 160.417C128.811 159.909 129.192 159.401 129.573 159.147C129.827 159.02 130.081 158.893 130.335 159.02L136.815 162.831C136.56 162.831 136.306 162.831 136.052 162.958C135.671 163.212 135.29 163.593 135.036 164.229C134.655 165.118 134.655 165.88 135.163 166.134Z" fill="#81A1D3"/>
<path d="M183.821 52.4294L190.3 56.2407C189.411 55.7326 188.268 55.8596 186.87 56.6219L180.391 52.8105C181.788 52.0483 182.932 51.9212 183.821 52.4294Z" fill="#AFBAD4"/>
<path d="M139.228 127.386L132.749 123.574C132.749 122.685 133.384 121.796 134.02 121.288L140.499 125.099C139.737 125.48 139.228 126.496 139.228 127.386Z" fill="#81A1D3"/>
<path d="M141.896 161.942L135.417 158.258L135.29 122.05L141.769 125.861L141.896 161.942Z" fill="#B6D6F0"/>
<path d="M135.29 122.05C135.29 121.669 135.163 121.288 134.909 121.161L141.388 124.972C141.642 125.099 141.769 125.353 141.769 125.861C139.864 124.718 137.323 123.193 135.29 122.05Z" fill="#B6D6F0"/>
<path d="M139.356 163.466L132.876 159.782L132.749 123.574L139.228 127.386L139.356 163.466Z" fill="#81A1D3"/>
<path d="M134.909 121.288L141.388 125.099C141.134 124.972 140.88 124.972 140.499 125.226L134.02 121.415C134.401 121.161 134.782 121.161 134.909 121.288Z" fill="#81A1D3"/>
<path d="M140.499 125.099C141.261 124.718 141.769 124.972 141.769 125.861L141.896 161.942L144.437 158.385C144.691 158.004 144.945 157.876 145.199 157.622C145.581 157.368 145.962 157.368 146.216 157.622C146.597 158.003 146.47 159.02 145.962 159.909L141.388 166.261C141.134 166.515 140.88 166.77 140.626 167.024C140.372 167.151 140.118 167.278 139.864 167.151L135.29 166.007C134.655 165.88 134.528 164.991 135.036 164.102C135.29 163.593 135.671 163.085 136.052 162.831C136.306 162.704 136.56 162.577 136.815 162.704L139.355 163.339L139.228 127.259C139.228 126.496 139.737 125.48 140.499 125.099Z" fill="#81A1D3"/>
<path d="M75.4519 238.423L68.9726 234.612C67.8292 233.976 67.194 232.579 67.194 230.673L73.6733 234.484C73.8003 236.517 74.4356 237.788 75.4519 238.423Z" fill="#AFBAD4"/>
<path d="M139.483 99.0548L133.003 95.2434V85.7151L139.483 89.5264V99.0548Z" fill="#AFBAD4"/>
<path d="M144.183 81.2685L137.704 77.4572L180.391 52.8105L186.87 56.6219L144.183 81.2685Z" fill="#AFBAD4"/>
<path d="M139.483 89.5264L133.003 85.7151C133.003 82.666 135.163 78.9817 137.831 77.4572L144.31 81.2685C141.515 82.793 139.483 86.4773 139.483 89.5264Z" fill="#AFBAD4"/>
<path d="M73.8004 234.611L67.1941 230.8L66.94 140.344L73.4193 144.029L73.8004 234.611Z" fill="#AFBAD4"/>
<path d="M79.5175 133.611L73.0382 129.927L133.003 95.2434L139.483 99.0548L79.5175 133.611Z" fill="#AFBAD4"/>
<path d="M73.4193 144.029L66.94 140.217C66.94 136.406 69.6079 131.705 72.9111 129.8L79.3904 133.611C76.2143 135.517 73.4193 140.217 73.4193 144.029Z" fill="#AFBAD4"/>
<path d="M196.78 65.8961C200.083 63.9905 202.878 65.515 202.878 69.3263L203.132 159.782C203.132 163.594 200.464 168.294 197.161 170.2L79.7715 238.042C76.4683 239.947 73.6733 238.423 73.6733 234.612L73.4192 144.029C73.4192 140.217 76.0872 135.517 79.3903 133.611L139.355 99.0548V89.5265C139.355 86.4774 141.515 82.7931 144.183 81.2685L186.87 56.6219C189.538 55.0973 191.698 56.3678 191.698 59.4169V68.9452L196.78 65.8961ZM135.036 164.229C134.655 165.118 134.782 166.007 135.29 166.134L139.864 167.278C140.118 167.278 140.372 167.278 140.626 167.151C140.88 167.024 141.134 166.77 141.388 166.389L145.962 160.036C146.597 159.274 146.724 158.258 146.216 157.749C145.962 157.495 145.581 157.495 145.2 157.749C144.945 157.877 144.691 158.131 144.437 158.512L141.896 162.069L141.769 125.988C141.769 125.099 141.134 124.845 140.499 125.226C139.737 125.607 139.228 126.624 139.228 127.513L139.355 163.594L136.815 162.958C136.56 162.958 136.306 162.958 136.052 163.085C135.671 163.339 135.29 163.721 135.036 164.229ZM156.634 168.802C157.396 168.421 157.904 167.405 157.904 166.516C157.904 165.626 157.269 165.372 156.634 165.753L123.983 184.683C123.221 185.064 122.713 186.08 122.713 186.97C122.713 187.859 123.348 188.113 123.983 187.732L156.634 168.802Z" fill="#034FA9"/>
<path d="M146.851 199.42L140.372 195.736L173.022 176.806L179.502 180.617L146.851 199.42Z" fill="#B6D6F0"/>
<path d="M146.851 196.498L140.372 192.687L173.022 173.884L179.502 177.568L146.851 196.498Z" fill="#81A1D3"/>
<path d="M174.293 174.519C174.293 174.138 174.166 173.757 173.912 173.63L180.391 177.441C180.645 177.568 180.772 177.822 180.772 178.331C180.772 179.22 180.137 180.109 179.502 180.617L173.022 176.806C173.785 176.425 174.293 175.409 174.293 174.519Z" fill="#B6D6F0"/>
<path d="M173.912 173.757L180.391 177.568C180.137 177.441 179.883 177.441 179.502 177.695L173.022 173.884C173.403 173.63 173.658 173.63 173.912 173.757Z" fill="#81A1D3"/>
<path d="M164.256 178.204L157.777 174.519L162.351 168.04L168.83 171.851L164.256 178.204Z" fill="#B6D6F0"/>
<path d="M162.605 165.753L162.478 165.626L168.957 169.438L169.084 169.565C169.465 169.946 169.338 170.962 168.83 171.851L162.351 168.04C162.859 167.278 162.986 166.261 162.605 165.753Z" fill="#B6D6F0"/>
<path d="M162.732 179.093L156.252 175.282C156.507 175.282 156.761 175.282 157.015 175.155C157.269 175.027 157.523 174.773 157.777 174.392L164.256 178.204C164.002 178.458 163.748 178.712 163.494 178.966C163.24 179.093 162.986 179.22 162.732 179.093Z" fill="#B6D6F0"/>
<path d="M162.478 165.626L168.957 169.438C168.703 169.31 168.322 169.31 168.068 169.565C167.814 169.692 167.559 169.946 167.305 170.327L160.826 166.515C161.08 166.134 161.334 166.007 161.588 165.753C161.842 165.626 162.224 165.499 162.478 165.626Z" fill="#81A1D3"/>
<path d="M164.764 173.757L158.285 169.946L160.826 166.516L167.305 170.327L164.764 173.757Z" fill="#81A1D3"/>
<path d="M217.488 73.5188L223.967 77.3301C222.824 76.6949 221.299 76.822 219.648 77.7113L213.168 73.8999C214.82 73.0106 216.345 72.8836 217.488 73.5188Z" fill="#AFBAD4"/>
<path d="M139.482 195.736C139.737 195.863 139.991 195.863 140.372 195.609L146.851 199.42C146.47 199.674 146.216 199.674 145.962 199.547C143.929 198.404 141.388 196.879 139.482 195.736Z" fill="#B6D6F0"/>
<path d="M158.158 177.95L151.679 174.265L156.252 175.282L162.732 179.093L158.158 177.95Z" fill="#B6D6F0"/>
<path d="M214.566 80.6333L208.087 76.8219L213.168 73.8999L219.648 77.7112L214.566 80.6333Z" fill="#AFBAD4"/>
<path d="M151.679 174.265C151.806 174.265 151.933 174.392 152.06 174.519C152.568 174.773 153.076 175.155 153.712 175.409C153.839 175.536 153.966 175.536 154.093 175.663C154.347 175.79 154.728 176.044 154.982 176.171C155.871 176.679 156.634 177.187 157.523 177.568C157.777 177.695 158.031 177.822 158.285 177.949C158.285 177.949 158.158 177.95 158.158 177.822L151.679 174.011C151.552 174.138 151.552 174.265 151.679 174.265Z" fill="#B6D6F0"/>
<path d="M159.683 174.646L153.203 170.962L155.617 171.47L162.224 175.282L159.683 174.646Z" fill="#81A1D3"/>
<path d="M179.502 177.568C180.264 177.187 180.772 177.441 180.772 178.331C180.772 179.22 180.137 180.109 179.502 180.618L146.851 199.547C146.089 199.928 145.581 199.674 145.581 198.785C145.581 197.896 146.216 197.006 146.851 196.498L179.502 177.568Z" fill="#81A1D3"/>
<path d="M145.962 199.547L139.483 195.736C139.229 195.609 139.101 195.355 139.101 194.847C139.101 193.957 139.737 193.068 140.372 192.56L146.851 196.371C146.089 196.752 145.581 197.769 145.581 198.658C145.581 199.166 145.708 199.42 145.962 199.547Z" fill="#81A1D3"/>
<path d="M158.031 177.95L151.552 174.138C151.171 173.884 151.044 173.122 151.425 172.233C151.679 171.724 152.06 171.216 152.441 170.962C152.695 170.835 152.949 170.708 153.203 170.835L159.683 174.646C159.429 174.646 159.174 174.646 158.92 174.773C158.539 175.028 158.158 175.409 157.904 176.044C157.396 176.933 157.523 177.695 158.031 177.95Z" fill="#81A1D3"/>
<path d="M206.689 64.2445L213.169 68.0559C212.279 67.5477 211.136 67.6747 209.738 68.437L203.259 64.6256C204.657 63.8634 205.8 63.7363 206.689 64.2445Z" fill="#AFBAD4"/>
<path d="M162.097 139.201L155.617 135.39C155.617 134.5 156.252 133.611 156.888 133.103L163.367 136.914C162.605 137.295 162.097 138.312 162.097 139.201Z" fill="#81A1D3"/>
<path d="M164.764 173.757L158.285 169.946L158.158 133.865L164.637 137.676L164.764 173.757Z" fill="#B6D6F0"/>
<path d="M158.158 133.865C158.158 133.484 158.031 133.103 157.777 132.976L164.256 136.787C164.51 136.914 164.637 137.168 164.637 137.676C162.732 136.533 160.191 135.008 158.158 133.865Z" fill="#B6D6F0"/>
<path d="M162.224 175.282L155.617 171.47V135.39L162.097 139.201L162.224 175.282Z" fill="#81A1D3"/>
<path d="M157.777 132.976L164.256 136.787C164.002 136.66 163.748 136.66 163.367 136.914L156.888 133.103C157.269 132.976 157.523 132.849 157.777 132.976Z" fill="#81A1D3"/>
<path d="M163.367 136.914C164.129 136.533 164.637 136.787 164.637 137.676L164.764 173.757L167.305 170.2C167.559 169.819 167.813 169.692 168.068 169.438C168.449 169.183 168.83 169.183 169.084 169.438C169.465 169.819 169.338 170.835 168.83 171.724L164.256 178.077C164.002 178.331 163.748 178.585 163.494 178.839C163.24 178.966 162.986 179.093 162.732 178.966L158.158 177.823C157.523 177.695 157.396 176.806 157.904 175.917C158.158 175.409 158.539 174.901 158.92 174.646C159.174 174.519 159.429 174.392 159.683 174.519L162.223 175.155L162.096 139.074C162.096 138.312 162.605 137.295 163.367 136.914Z" fill="#81A1D3"/>
<path d="M98.32 250.238L91.8407 246.427C90.6973 245.791 90.0621 244.394 90.0621 242.488L96.5413 246.3C96.5413 248.205 97.3036 249.603 98.32 250.238Z" fill="#AFBAD4"/>
<path d="M162.351 110.87L155.871 107.059L155.744 97.5303L162.224 101.342L162.351 110.87Z" fill="#AFBAD4"/>
<path d="M167.051 93.0837L160.572 89.2723L203.259 64.6257L209.738 68.31L167.051 93.0837Z" fill="#AFBAD4"/>
<path d="M162.224 101.342L155.744 97.5303C155.744 94.4812 157.904 90.7969 160.572 89.2724L167.051 93.0837C164.383 94.6082 162.224 98.2925 162.224 101.342Z" fill="#AFBAD4"/>
<path d="M96.5414 246.3L90.0621 242.615L89.808 152.032L96.2873 155.844L96.5414 246.3Z" fill="#AFBAD4"/>
<path d="M102.386 145.426L95.9062 141.615L155.871 107.059L162.351 110.87L102.386 145.426Z" fill="#AFBAD4"/>
<path d="M96.2873 155.844L89.808 152.032C89.808 148.221 92.476 143.52 95.7792 141.615L102.258 145.426C98.9553 147.332 96.2873 152.032 96.2873 155.844Z" fill="#AFBAD4"/>
<path d="M219.648 77.7113C222.951 75.8056 225.746 77.3301 225.746 81.1415L226 171.597C226 175.409 223.332 180.109 220.029 182.015L102.767 249.73C99.4634 251.635 96.6684 250.111 96.6684 246.3L96.4143 155.844C96.4143 152.032 99.0822 147.332 102.385 145.426L162.351 110.87V101.342C162.351 98.2925 164.51 94.6082 167.178 93.0837L209.865 68.437C212.533 66.9125 214.693 68.1829 214.693 71.232V80.7603L219.648 77.7113ZM157.777 176.044C157.396 176.933 157.523 177.822 158.031 177.95L162.605 179.093C162.859 179.093 163.113 179.093 163.367 178.966C163.621 178.839 163.875 178.585 164.129 178.204L168.703 171.851C169.338 171.089 169.465 170.073 168.957 169.565C168.703 169.311 168.322 169.311 167.94 169.565C167.686 169.692 167.432 169.946 167.178 170.327L164.637 173.884L164.51 137.803C164.51 136.914 163.875 136.66 163.24 137.041C162.478 137.422 161.969 138.439 161.969 139.328L162.096 175.409L159.556 174.773C159.301 174.773 159.047 174.773 158.793 174.9C158.539 175.028 158.031 175.536 157.777 176.044ZM179.502 180.617C180.264 180.236 180.772 179.22 180.772 178.331C180.772 177.441 180.137 177.187 179.502 177.568L146.851 196.498C146.089 196.879 145.581 197.896 145.581 198.785C145.581 199.674 146.216 199.928 146.851 199.547L179.502 180.617Z" fill="#034FA9"/>
<path d="M177.342 -9.44142L188.268 -3.08919C185.473 -4.74077 181.534 -4.48668 177.215 -1.94578C174.928 -0.675338 172.768 1.10329 170.735 3.39009L159.81 -2.96214C161.969 -5.24895 164.129 -7.02757 166.289 -8.29802C170.481 -10.8389 174.42 -11.093 177.342 -9.44142Z" fill="#AFBAD4"/>
<path d="M83.2016 89.0183L72.2758 82.666C68.9726 80.7604 66.6858 77.0761 65.9235 71.8672L76.8494 78.2195C77.6117 83.4283 79.8985 87.1126 83.2016 89.0183Z" fill="#AFBAD4"/>
<path d="M109.246 24.4795L98.3199 18.1273C101.877 0.84922 114.073 -17.4452 128.43 -25.7031L139.355 -19.3509C124.999 -11.093 112.93 7.20145 109.246 24.4795Z" fill="#AFBAD4"/>
<path d="M139.482 -19.3509C156.761 -29.3874 170.862 -21.3836 170.862 -1.4376C170.862 0.086937 170.735 1.73852 170.608 3.3901C172.768 1.10329 174.928 -0.675331 177.088 -1.94578C185.727 -6.90052 192.714 -2.96214 192.714 6.94735C192.714 21.8116 182.551 39.4708 169.973 46.7123L99.4634 87.4937C88.0293 94.1 78.628 89.9075 76.8494 78.2194C76.2142 76.0597 75.9601 73.6458 75.9601 70.9779C75.9601 55.0973 87.14 35.6595 100.988 27.6556C103.91 26.0041 106.705 24.8607 109.373 24.4795C112.93 7.20144 124.999 -11.093 139.482 -19.3509Z" fill="#034FA9"/>
<path d="M76.8494 78.2194L65.9236 71.8672C65.2884 69.7075 65.0343 67.2936 65.0343 64.6257C65.0343 48.7451 76.2142 29.3072 90.0621 21.3034C92.9841 19.6518 95.7791 18.5084 98.447 18.1273L109.373 24.4795C106.705 24.9877 103.91 26.0041 100.988 27.6557C87.013 35.6595 75.8331 55.0973 75.9601 70.9779C75.9601 73.6458 76.2142 76.0597 76.8494 78.2194Z" fill="#AFBAD4"/>
<path d="M136.688 124.845L130.335 121.161L130.081 59.0357L136.433 62.72L136.688 124.845Z" fill="#81A1D3"/>
<path d="M143.421 30.3235L161.97 47.9828L149.773 54.9702L150.027 117.095L136.688 124.845L136.434 62.7199L124.872 69.4533L143.421 30.3235Z" fill="white"/>
<path d="M124.872 69.4533L118.52 65.769L137.069 26.6393L143.421 30.3236L124.872 69.4533Z" fill="#81A1D3"/>
</g>
</g>
<defs>
<linearGradient id="paint0_linear" x1="108.875" y1="-5.4748e-07" x2="76.5753" y2="433.943" gradientUnits="userSpaceOnUse">
<stop stop-color="#0073CF"/>
<stop offset="1" stop-color="#073F92"/>
</linearGradient>
</defs>
</svg>
