<svg width="360" height="390" viewBox="0 0 360 390" fill="none" xmlns="http://www.w3.org/2000/svg">
<mask id="mask1" mask-type="alpha" maskUnits="userSpaceOnUse" x="0" y="0" width="360" height="390">
<rect width="360" height="390" rx="5" fill="url(#paint0_linear)"/>
</mask>
<g mask="url(#mask1)">
<g opacity="0.7">
<path d="M84.6908 23.0484C86.3836 22.0066 88.3368 21.2253 90.0296 21.2253L155.398 19.4023C158.654 19.5325 161.258 21.2253 162.3 24.611L178.837 95.7092C179.228 99.6157 178.447 104.303 176.363 108.991L131.308 199.362C129.225 203.919 126.1 207.695 122.584 209.649C122.193 209.909 121.802 210.039 121.412 210.3L49.4021 251.839C45.756 253.662 42.1099 253.792 39.5056 252.36L-5.80974 214.206C-7.89321 211.993 -8.80472 208.347 -8.15364 203.789L7.73278 113.549C8.6443 108.861 10.9882 104.303 14.1134 100.788L79.3519 26.6944C81.0447 25.1318 82.998 24.0901 84.6908 23.0484Z" stroke="#AFBAD4" stroke-miterlimit="10"/>
<g opacity="0.6">
<path opacity="0.6" d="M54.8712 12.631C56.564 11.5893 58.5172 10.808 60.21 10.808L125.579 8.98492C128.834 9.11514 131.438 10.808 132.48 14.1936L149.018 85.2918C149.408 89.1983 148.627 93.8861 146.544 98.5739L101.489 188.944C99.4052 193.502 96.28 197.278 92.7642 199.231C92.3735 199.492 91.9829 199.622 91.5922 199.882L19.5825 241.421C15.9364 243.244 12.2903 243.375 9.68601 241.942L-35.6294 203.789C-37.7128 201.575 -38.6243 197.929 -37.9732 193.372L-22.0868 103.131C-21.1753 98.4437 -18.8314 93.8861 -15.7062 90.3703L49.5323 16.4073C51.2251 14.7145 53.1783 13.5425 54.8712 12.631Z" stroke="#AFBAD4" stroke-miterlimit="10"/>
</g>
<g opacity="0.3">
<path opacity="0.3" d="M24.9213 3.64606C26.6142 2.60433 28.5674 1.82303 30.2602 1.82303L95.6289 0C98.8843 0.130217 101.489 1.82303 102.53 5.20866L119.068 76.1767C119.459 80.0832 118.677 84.771 116.594 89.4588L71.5389 179.829C69.4554 184.387 66.3302 188.163 62.8144 190.116C62.4237 190.377 62.0331 190.507 61.6424 190.767L-10.3674 232.306C-14.0134 234.129 -17.6595 234.26 -20.2638 232.827L-65.449 194.674C-67.5324 192.46 -68.4439 188.814 -67.7929 184.256L-51.9064 94.0163C-50.9949 89.3286 -48.651 84.771 -45.5258 81.2551L19.5825 7.29213C21.2753 5.72953 23.2285 4.6878 24.9213 3.64606Z" stroke="#AFBAD4" stroke-miterlimit="10"/>
</g>
<path d="M189.775 27.8663L205.532 37.1117C204.49 36.4606 203.188 36.2002 201.886 36.07L186.129 26.8246C187.562 26.9548 188.734 27.2153 189.775 27.8663Z" fill="#AFBAD4"/>
<path d="M86.1231 268.767L70.3669 259.652L24.9213 221.498L40.8078 230.613L86.1231 268.767Z" fill="#AFBAD4"/>
<path d="M40.8078 230.614L25.0516 221.368C22.9681 219.154 22.0566 215.508 22.7077 210.951L38.4639 220.196C37.6826 224.754 38.5941 228.53 40.8078 230.614Z" fill="#AFBAD4"/>
<path d="M136.517 37.7628L120.761 28.6476L186.129 26.8246L202.016 36.07L136.517 37.7628Z" fill="#AFBAD4"/>
<path d="M131.178 39.716L115.422 30.4707C117.115 29.4289 119.068 28.6476 120.761 28.6476L136.517 37.893C134.824 37.893 132.871 38.6743 131.178 39.716Z" fill="#AFBAD4"/>
<path d="M125.839 43.2318L110.083 33.9865C111.776 32.5541 113.729 31.3821 115.422 30.3404L131.178 39.5858C129.485 40.6275 127.532 41.7995 125.839 43.2318Z" fill="#AFBAD4"/>
<path d="M38.3336 220.196L22.5774 211.081L38.4638 120.841L54.22 129.956L38.3336 220.196Z" fill="#AFBAD4"/>
<path d="M60.6007 117.195L44.8445 107.949L110.083 34.1167L125.839 43.2318L60.6007 117.195Z" fill="#AFBAD4"/>
<path d="M54.2199 129.956L38.4637 120.711C39.3753 116.023 41.7192 111.465 44.8443 107.949L60.6006 117.195C57.3451 120.711 55.0012 125.268 54.2199 129.956Z" fill="#AFBAD4"/>
<path d="M131.178 39.716C132.871 38.6743 134.824 37.893 136.517 37.893L201.886 36.0699C205.141 36.2002 207.745 37.893 208.787 41.2786L225.325 112.377C225.715 116.283 224.934 120.971 222.85 125.659L177.795 216.029C175.712 220.587 172.587 224.363 169.071 226.316C168.68 226.577 168.29 226.707 167.899 226.967L95.8893 268.506C92.2432 270.33 88.5972 270.46 85.9928 269.027L40.6775 230.874C38.594 228.66 37.6825 225.014 38.3336 220.457L54.22 130.217C55.1315 125.529 57.4754 120.971 60.6006 117.455L125.839 43.4923C127.532 41.7995 129.485 40.6275 131.178 39.716Z" fill="#034FA9"/>
<path d="M193.812 127.742C195.505 127.222 196.937 128.003 197.068 130.217C196.547 132.17 195.114 134.383 193.422 135.295C193.031 135.555 192.901 135.555 192.51 135.555C192.38 135.425 192.38 135.425 192.119 135.555C191.729 135.816 191.599 135.686 191.338 135.816C190.557 136.076 190.036 135.946 189.255 135.946C188.864 136.206 188.213 135.946 188.213 135.946C188.083 136.076 184.176 136.988 182.223 137.378C181.442 138.16 180.921 138.681 180.53 139.332L178.837 140.243C175.582 154.176 168.42 168.37 159.175 180.35L159.696 181.652C159.175 182.824 159.175 183.605 159.305 184.126C160.086 185.819 160.998 187.382 162.56 188.293C162.56 189.074 162.821 189.205 162.951 189.465C163.472 189.725 163.862 190.246 164.253 190.767C164.383 190.897 164.644 191.028 164.644 191.158C165.165 192.069 165.165 193.111 165.034 194.283C164.904 195.455 164.123 196.757 163.342 197.538C162.821 198.059 162.43 198.45 161.909 198.841C160.477 199.622 159.175 199.362 158.393 198.32C158.003 198.059 158.003 197.929 157.872 197.799C157.482 197.408 157.352 196.627 157.091 195.846L156.18 195.064C156.18 194.804 155.268 191.028 154.357 189.465C153.966 189.074 153.445 188.944 152.924 189.074L152.013 187.902C150.19 189.595 148.236 191.549 146.153 193.241C142.898 196.236 139.512 198.58 136.257 200.403C130.787 203.528 125.449 205.612 120.37 206.263L119.589 208.346C118.808 209.128 118.287 209.909 117.896 210.821C116.985 213.425 116.073 216.029 115.552 218.764L115.161 220.196C115.031 221.108 114.641 222.019 114.38 222.931C114.25 223.191 113.99 223.582 113.99 223.712C113.078 225.926 111.776 227.749 110.343 228.53C109.953 228.79 109.432 228.79 109.041 228.79C107.348 228.66 106.697 226.577 107.609 223.972C108 223.321 108 223.061 108.13 222.8C108.651 221.629 109.041 220.587 109.432 219.936C109.823 219.285 109.953 219.024 109.953 218.634C111.255 215.769 112.427 213.034 113.078 210.43C113.208 209.649 113.208 208.867 112.948 208.477L113.729 206.393C111.906 206.393 110.474 206.003 108.781 205.482C101.619 203.268 96.4103 197.669 93.6757 189.465L91.9829 190.637C91.5923 190.377 91.2016 190.377 90.811 190.637C90.6808 190.767 90.5505 190.897 90.2901 191.028C87.9462 192.59 84.3001 195.455 84.0397 195.715L84.6908 195.325C84.3001 195.585 83.9095 195.976 83.6491 196.367C83.1282 196.887 82.3469 197.669 81.6958 198.32C81.5656 198.45 81.3052 198.45 81.1749 198.58C80.5239 199.492 80.2634 199.622 80.003 199.752C78.18 200.794 76.7476 200.403 76.4872 198.841C76.0965 196.757 77.3987 193.892 79.3519 192.33C79.4821 192.069 79.4821 192.069 79.7426 191.939C80.1332 191.679 80.2634 191.418 80.3936 191.288C81.0447 190.897 81.826 190.246 82.4771 189.856C82.8678 189.465 83.2584 189.205 83.5188 189.074C85.6023 187.642 87.6858 186.079 89.639 184.256C90.1599 183.475 90.6808 182.824 90.9412 182.043L92.5038 180.48C90.811 169.542 93.1549 155.999 98.624 142.587C98.7542 142.066 99.0146 141.806 99.1448 141.285L98.1031 140.634C98.2333 139.983 97.8427 139.462 97.5822 139.201C96.1498 138.42 94.3268 138.16 92.634 137.899C92.2434 137.899 91.8527 137.899 91.5923 137.899C90.811 137.899 90.1599 137.899 89.639 137.769C89.5088 137.899 89.1182 137.639 89.1182 137.639C87.5556 136.858 87.1649 134.644 88.2066 132.04C88.7275 130.737 89.639 129.696 90.6808 129.175C91.5923 128.654 92.5038 128.524 93.1549 128.784C93.5455 129.045 93.6757 128.914 93.9362 129.045C94.457 129.305 94.8477 129.826 95.3686 130.086C95.4988 130.217 95.8894 130.217 96.0196 130.477C97.3218 131.388 98.8844 132.17 100.447 132.691C100.838 132.691 101.228 132.691 101.489 132.56C101.879 132.3 102.01 132.04 102.27 131.909L103.572 132.04C109.432 121.362 117.115 111.596 125.449 104.694C127.532 103.001 129.616 101.439 131.569 100.136L131.699 98.3135C131.699 98.053 132.871 96.3602 133.131 95.5789C133.131 93.1048 133.131 90.7609 132.61 88.6774C132.741 88.0264 132.741 87.5055 132.48 87.2451C132.35 86.4638 132.09 85.8127 131.699 85.1616V84.1199C131.699 83.9896 132.48 81.5155 133.262 80.2134C134.043 78.781 134.954 77.7392 135.996 77.0882C136.126 76.9579 136.257 76.9579 136.387 76.8277C138.21 75.9162 139.642 77.2184 139.903 79.3018V80.604C139.903 80.7342 139.382 82.5573 139.121 83.599C139.121 83.9896 138.991 84.5105 138.991 84.9012C138.6 87.8961 138.6 90.1098 138.6 92.4537C138.731 92.9746 138.991 93.4954 139.903 93.3652L139.772 94.9278C148.367 91.0213 156.831 89.9796 163.602 92.0631C165.034 92.8444 166.727 93.6257 168.16 94.407L169.592 92.7141C170.113 92.5839 170.504 92.3235 170.634 92.3235C171.024 92.0631 171.415 91.6724 171.806 91.2818C173.498 89.0681 175.061 86.4638 176.363 83.9896C176.493 83.7292 176.884 83.2083 177.145 82.6875C177.535 81.9062 178.056 80.8644 178.577 79.9529C178.707 79.8227 178.968 79.5623 179.098 79.1716C180.009 77.7392 180.921 76.8277 181.832 76.3069C182.744 75.786 183.916 75.786 184.437 76.3069C185.739 77.4788 185.348 80.2134 183.655 82.6875C183.525 83.4688 183.265 83.4688 183.134 83.8594C182.353 84.6407 181.832 85.422 181.051 86.3335C180.66 86.7242 180.27 87.1148 180.009 87.6357C178.186 89.9796 176.493 92.1933 174.931 94.7976C174.54 95.4487 174.41 96.3602 174.41 97.0113L173.368 99.0948C176.363 102.741 178.577 107.298 179.879 112.767C181.051 118.237 181.442 124.357 180.66 130.998L182.093 130.607C181.832 130.737 182.614 131.258 183.134 131.128C185.088 130.607 189.124 129.565 189.385 129.565C189.515 129.435 190.296 128.524 190.687 128.263C191.468 127.873 192.119 127.482 192.901 127.222C193.291 126.961 193.682 126.831 193.682 126.961C193.422 127.873 193.552 127.742 193.812 127.742ZM166.206 154.437C167.639 151.312 168.811 147.926 169.722 144.41L151.362 151.442C150.841 151.702 150.32 152.223 149.669 152.874C148.367 154.307 147.716 156.39 147.976 157.822L155.138 173.448C159.565 167.719 163.472 161.078 166.206 154.437ZM123.235 172.537C123.626 171.756 123.626 170.844 123.365 170.323C123.235 168.761 121.672 168.5 120.24 169.412L102.14 183.475C104.744 190.377 109.823 194.804 116.333 195.976L123.235 172.537ZM105.265 146.103C101.228 156.26 99.4053 166.287 100.056 174.881L117.766 158.734C118.547 158.083 118.808 157.692 119.198 156.781C120.24 154.697 120.11 152.744 118.808 152.093L105.265 146.103ZM143.809 185.559C145.111 184.387 146.153 183.605 147.325 182.694L138.47 169.412C137.949 169.151 137.559 168.891 137.038 168.761C136.647 168.761 136.126 168.891 135.605 169.151C134.694 169.672 133.913 170.584 133.392 171.756L124.407 195.715C128.053 194.804 132.09 193.372 135.996 191.158C138.731 189.595 141.335 187.642 143.809 185.559ZM127.532 114.721C121.151 120.06 115.292 127.222 110.474 135.295L125.709 138.941C126.23 138.811 126.621 138.811 127.141 138.55C128.834 137.639 130.267 135.295 130.267 133.342L131.178 111.726L127.532 114.721ZM171.415 133.602C171.806 128.914 171.545 124.617 170.634 120.711C169.722 116.804 168.29 113.419 166.206 110.814L152.534 133.081C152.143 133.732 152.013 134.253 151.752 135.035C151.362 137.118 152.273 138.55 153.966 138.03L171.415 133.602ZM160.737 106.257C155.268 103.131 148.106 103.262 140.033 106.908L141.205 127.482C141.205 128.133 141.335 128.393 141.726 128.654C142.247 129.175 143.158 129.175 144.07 128.654C144.59 128.263 145.241 127.873 145.762 127.222L160.737 106.257ZM133.131 144.801L129.616 151.832L130.918 157.171L135.866 157.041L140.814 151.442L142.116 144.671L138.6 141.676L133.131 144.801Z" fill="#AFBAD4"/>
</g>
</g>
<defs>
<linearGradient id="paint0_linear" x1="108.875" y1="-5.4748e-07" x2="76.5753" y2="433.943" gradientUnits="userSpaceOnUse">
<stop stop-color="#0073CF"/>
<stop offset="1" stop-color="#073F92"/>
</linearGradient>
</defs>
</svg>
