<svg width="18" height="24" viewBox="0 0 18 24" fill="none" xmlns="http://www.w3.org/2000/svg">
<path d="M0.750003 9.12947L0.750003 9.12887C0.749121 8.02681 0.96247 6.93563 1.37759 5.91786C1.7927 4.9001 2.40126 3.97606 3.16798 3.19831C3.93467 2.42059 4.84444 1.80442 5.84493 1.38452C6.8454 0.964635 7.91729 0.749112 8.99936 0.750004L9.0006 0.750003C10.0827 0.749112 11.1546 0.964635 12.155 1.38452C13.1555 1.80442 14.0653 2.42059 14.832 3.19831C15.5987 3.97607 16.2073 4.90012 16.6224 5.91786C17.0375 6.93563 17.2509 8.02681 17.25 9.12887V9.12947C17.25 10.2038 16.7588 11.6306 15.9276 13.2369C15.1083 14.8205 14.0074 16.4874 12.8939 18.0151C11.7824 19.5401 10.6692 20.9114 9.83303 21.9023C9.50728 22.2884 9.22405 22.6161 8.99998 22.872C8.77591 22.6161 8.49269 22.2884 8.16693 21.9023C7.33078 20.9114 6.2176 19.5401 5.10608 18.0151C3.99258 16.4874 2.89174 14.8205 2.07236 13.2369C1.24116 11.6306 0.750003 10.2038 0.750003 9.12947ZM6.59777 12.3219C7.30786 12.8032 8.14385 13.0607 8.99998 13.0607C9.56834 13.0607 10.1309 12.9471 10.6553 12.7268C11.1798 12.5064 11.6556 12.1837 12.056 11.7776C12.4562 11.3716 12.7732 10.8901 12.9893 10.361C13.2054 9.83181 13.3164 9.26505 13.3164 8.69297C13.3164 7.83148 13.0647 6.98848 12.5917 6.27049C12.1187 5.55239 11.4453 4.99107 10.6553 4.65917C9.8653 4.32721 8.99531 4.24016 8.15587 4.40954C7.31649 4.5789 6.547 4.99667 5.94405 5.6083C5.34121 6.2198 4.93183 6.99765 4.76609 7.84287C4.60036 8.68803 4.68531 9.56419 5.01067 10.361C5.33607 11.1578 5.88781 11.8407 6.59777 12.3219Z" stroke="#0073CF" stroke-width="1.5"/>
</svg>
