<svg width="24" height="18" viewBox="0 0 24 18" fill="none" xmlns="http://www.w3.org/2000/svg">
<mask id="path-3-inside-3_1401_1442" fill="white">
<path fill-rule="evenodd" clip-rule="evenodd" d="M13.6777 4.61876C13.9105 4.55086 14.1567 4.51446 14.4113 4.51446C15.8585 4.51446 17.0316 5.68988 17.0317 7.13987H17.0321V8.70373C17.0321 11.4652 14.7935 13.7037 12.0321 13.7037H5C2.23858 13.7037 0 11.4652 0 8.70373V7.13987V7.13978C0 5.32722 1.46645 3.85785 3.2754 3.85785C3.58476 3.85785 3.8841 3.90082 4.1678 3.98114C4.80637 2.0051 6.6581 0.576172 8.84291 0.576172C11.2565 0.576172 13.2635 2.31997 13.6777 4.61876Z"/>
</mask>
<path fill-rule="evenodd" clip-rule="evenodd" d="M13.6777 4.61876C13.9105 4.55086 14.1567 4.51446 14.4113 4.51446C15.8585 4.51446 17.0316 5.68988 17.0317 7.13987H17.0321V8.70373C17.0321 11.4652 14.7935 13.7037 12.0321 13.7037H5C2.23858 13.7037 0 11.4652 0 8.70373V7.13987V7.13978C0 5.32722 1.46645 3.85785 3.2754 3.85785C3.58476 3.85785 3.8841 3.90082 4.1678 3.98114C4.80637 2.0051 6.6581 0.576172 8.84291 0.576172C11.2565 0.576172 13.2635 2.31997 13.6777 4.61876Z" fill="#073F92"/>
<path d="M13.6777 4.61876L12.2015 4.88472L12.4971 6.52558L14.0977 6.05876L13.6777 4.61876ZM17.0317 7.13987L15.5317 7.13994L15.5317 8.63988H17.0317V7.13987ZM17.0321 7.13987H18.5321V5.63987H17.0321V7.13987ZM4.1678 3.98114L3.75922 5.42442L5.15049 5.81827L5.59512 4.44239L4.1678 3.98114ZM14.0977 6.05876C14.1955 6.03024 14.3003 6.01446 14.4113 6.01446V3.01446C14.0131 3.01446 13.6255 3.07148 13.2577 3.17875L14.0977 6.05876ZM14.4113 6.01446C15.0272 6.01446 15.5316 6.51553 15.5317 7.13994L18.5317 7.13981C18.5316 4.86423 16.6897 3.01446 14.4113 3.01446V6.01446ZM17.0317 8.63988H17.0321V5.63987H17.0317V8.63988ZM15.5321 7.13987V8.70373H18.5321V7.13987H15.5321ZM15.5321 8.70373C15.5321 10.6367 13.9651 12.2037 12.0321 12.2037V15.2037C15.622 15.2037 18.5321 12.2936 18.5321 8.70373H15.5321ZM12.0321 12.2037H5V15.2037H12.0321V12.2037ZM5 12.2037C3.067 12.2037 1.5 10.6367 1.5 8.70373H-1.5C-1.5 12.2936 1.41015 15.2037 5 15.2037V12.2037ZM1.5 8.70373V7.13987H-1.5V8.70373H1.5ZM1.5 7.13987V7.13978H-1.5V7.13987H1.5ZM1.5 7.13978C1.5 6.15283 2.29769 5.35785 3.2754 5.35785V2.35785C0.635208 2.35785 -1.5 4.50161 -1.5 7.13978H1.5ZM3.2754 5.35785C3.44524 5.35785 3.60713 5.38136 3.75922 5.42442L4.57637 2.53785C4.16107 2.42028 3.72428 2.35785 3.2754 2.35785V5.35785ZM5.59512 4.44239C6.03999 3.06577 7.32937 2.07617 8.84291 2.07617V-0.923828C5.98683 -0.923828 3.57276 0.944434 2.74048 3.51988L5.59512 4.44239ZM8.84291 2.07617C10.5157 2.07617 11.9133 3.28549 12.2015 4.88472L15.1539 4.35279C14.6137 1.35444 11.9972 -0.923828 8.84291 -0.923828V2.07617Z" fill="#0073CF" mask="url(#path-3-inside-3_1401_1442)"/>
<mask id="path-3-inside-2_1401_1442" fill="white">
<path fill-rule="evenodd" clip-rule="evenodd" d="M20.341 8.08906C20.5951 8.01493 20.8638 7.97518 21.1417 7.97518C22.7205 7.97518 24.0003 9.25754 24.0003 10.8394C24.0003 10.863 24 10.8866 23.9994 10.9101V12.9998C23.9994 15.7612 21.7608 17.9998 18.9994 17.9998H10.4189C7.65753 17.9998 5.41895 15.7612 5.41895 12.9998V10.8392V10.8392C5.41896 8.86186 7.01872 7.25893 8.99211 7.25893C9.32988 7.25893 9.6567 7.30589 9.96643 7.39365C10.6629 5.23775 12.6831 3.67871 15.0667 3.67871C17.6997 3.67871 19.8893 5.58116 20.341 8.08906Z"/>
</mask>
<path fill-rule="evenodd" clip-rule="evenodd" d="M20.341 8.08906C20.5951 8.01493 20.8638 7.97518 21.1417 7.97518C22.7205 7.97518 24.0003 9.25754 24.0003 10.8394C24.0003 10.863 24 10.8866 23.9994 10.9101V12.9998C23.9994 15.7612 21.7608 17.9998 18.9994 17.9998H10.4189C7.65753 17.9998 5.41895 15.7612 5.41895 12.9998V10.8392V10.8392C5.41896 8.86186 7.01872 7.25893 8.99211 7.25893C9.32988 7.25893 9.6567 7.30589 9.96643 7.39365C10.6629 5.23775 12.6831 3.67871 15.0667 3.67871C17.6997 3.67871 19.8893 5.58116 20.341 8.08906Z" fill="#073F92"/>
<path d="M20.341 8.08906L18.8648 8.35495L19.1604 9.99612L20.7612 9.52901L20.341 8.08906ZM23.9994 10.9101L22.4999 10.8739L22.4994 10.892V10.9101H23.9994ZM5.41895 10.8392L3.91895 10.8392V10.8392H5.41895ZM9.96643 7.39365L9.55752 8.83683L10.9491 9.23114L11.3938 7.85478L9.96643 7.39365ZM21.1417 6.47518C20.7201 6.47518 20.31 6.53556 19.9209 6.64911L20.7612 9.52901C20.8802 9.49429 21.0075 9.47518 21.1417 9.47518V6.47518ZM25.5003 10.8394C25.5003 8.43193 23.5517 6.47518 21.1417 6.47518V9.47518C21.8892 9.47518 22.5003 10.0831 22.5003 10.8394H25.5003ZM25.499 10.9462C25.4998 10.9107 25.5003 10.8751 25.5003 10.8394H22.5003C22.5003 10.8509 22.5001 10.8624 22.4999 10.8739L25.499 10.9462ZM25.4994 12.9998V10.9101H22.4994V12.9998H25.4994ZM18.9994 19.4998C22.5893 19.4998 25.4994 16.5896 25.4994 12.9998H22.4994C22.4994 14.9327 20.9324 16.4998 18.9994 16.4998V19.4998ZM10.4189 19.4998H18.9994V16.4998H10.4189V19.4998ZM3.91895 12.9998C3.91895 16.5896 6.8291 19.4998 10.4189 19.4998V16.4998C8.48595 16.4998 6.91895 14.9327 6.91895 12.9998H3.91895ZM3.91895 10.8392V12.9998H6.91895V10.8392H3.91895ZM3.91895 10.8392V10.8392H6.91895V10.8392H3.91895ZM8.99211 5.75893C6.18748 5.75893 3.91897 8.03624 3.91895 10.8392L6.91895 10.8392C6.91896 9.68748 7.84995 8.75893 8.99211 8.75893V5.75893ZM10.3753 5.95046C9.93391 5.82538 9.46953 5.75893 8.99211 5.75893V8.75893C9.19024 8.75893 9.3795 8.78639 9.55752 8.83683L10.3753 5.95046ZM11.3938 7.85478C11.8966 6.29836 13.3544 5.17871 15.0667 5.17871V2.17871C12.0118 2.17871 9.42924 4.17714 8.53907 6.93251L11.3938 7.85478ZM15.0667 5.17871C16.959 5.17871 18.5391 6.54665 18.8648 8.35495L21.8173 7.82317C21.2396 4.61568 18.4405 2.17871 15.0667 2.17871V5.17871Z" fill="#0073CF" mask="url(#path-3-inside-2_1401_1442)"/>
<path d="M12.015 10.7309L14.269 13.1121L16.9369 10.0003" stroke="#0073CF" stroke-width="1.5" stroke-linejoin="round"/>
<path d="M21.4954 5.84865C20.4943 2.61855 17.0694 0.813257 13.8457 1.81641" stroke="#0073CF" stroke-width="1.5"/>
</svg>
