<svg width="19" height="20" viewBox="0 0 19 20" fill="none" xmlns="http://www.w3.org/2000/svg">
<path d="M16.9131 0.863281H2.34995C1.1849 0.863281 0.408203 1.83595 0.408203 2.80863V17.3987C0.408203 18.5659 1.37908 19.3441 2.34995 19.3441H16.9131C18.0781 19.3441 18.8548 18.3714 18.8548 17.3987V3.00316C18.8548 1.83595 17.8839 0.863281 16.9131 0.863281ZM3.90334 4.17037C4.29169 3.97583 4.68005 3.7813 5.26257 3.7813C6.23345 3.7813 7.01015 4.3649 7.01015 5.33758C7.01015 6.11571 6.23345 6.89385 5.26257 6.89385C5.26257 6.89385 5.26258 6.89385 5.0684 6.89385C4.09753 6.89385 3.515 6.11571 3.515 5.33758C3.515 4.94851 3.70917 4.55944 3.90334 4.17037ZM6.81596 13.3135V15.8424C6.81596 16.037 6.62179 16.2315 6.42762 16.2315H3.90334C3.70917 16.2315 3.515 16.037 3.515 15.8424V7.67199C3.515 7.47745 3.70917 7.28292 3.90334 7.28292H6.42762C6.62179 7.28292 6.81596 7.47745 6.81596 7.67199V13.3135ZM16.3305 15.8424C16.3305 16.037 16.1364 16.2315 15.9422 16.2315H13.4179C13.2237 16.2315 13.0296 16.037 13.0296 15.8424V11.5627C13.0296 11.1736 13.0296 10.7845 12.8354 10.59C12.6412 10.3955 12.447 10.2009 12.0587 10.2009C11.6703 10.2009 11.4762 10.3955 11.282 10.59C11.0878 10.7845 11.0878 11.1736 11.0878 11.5627V15.8424C11.0878 16.037 10.8936 16.2315 10.6995 16.2315H8.1752C7.98102 16.2315 7.78684 16.037 7.78684 15.8424V7.67199C7.78684 7.47745 7.98102 7.28292 8.1752 7.28292H10.6995C10.8936 7.28292 11.0878 7.47745 11.0878 7.67199V7.86652C11.4762 7.47745 12.2529 7.28292 13.2237 7.28292C14.1946 7.28292 15.1655 7.67199 15.748 8.25559C16.3305 9.03373 16.7189 10.0064 16.7189 11.1736V15.8424H16.3305Z" fill="#A5B1C8"/>
</svg>
