<svg width="19" height="20" viewBox="0 0 19 20" fill="none" xmlns="http://www.w3.org/2000/svg">
<path d="M18.2142 13.2685C16.7704 12.5744 15.2448 12.0578 13.672 11.7306H13.3995C13.2859 11.7306 12.3321 11.7305 11.9687 12.3323L11.0376 13.915C10.9144 13.9443 10.7856 13.9433 10.6629 13.9122C10.5401 13.8811 10.4269 13.8208 10.3335 13.7366C9.52753 13.0991 8.7686 12.4064 8.06239 11.6637C7.3513 10.8885 6.69135 10.0695 6.08654 9.21181C5.93916 9.00313 5.86721 8.75201 5.88215 8.49852V8.3871L7.35836 7.40635C7.58767 7.17343 7.75687 6.89004 7.85169 6.57981C7.94652 6.26957 7.96427 5.94155 7.90347 5.6232C7.49467 3.95148 6.90417 2.23518 6.47266 0.897803C6.31823 0.625435 6.09023 0.400133 5.81374 0.246758C5.53726 0.0933832 5.223 0.01785 4.90559 0.0284731C4.74129 -0.00949105 4.57025 -0.00949105 4.40595 0.0284731C3.08615 0.568517 1.90084 1.3821 0.931161 2.41348C0.643014 2.71375 0.377346 3.03406 0.136261 3.37192L0 3.55028V3.77312C0.0133667 7.9984 1.68955 12.0553 4.67847 15.0963C5.98018 16.5663 7.57437 17.7596 9.36311 18.6029C11.1518 19.4462 13.0974 19.9216 15.0802 20H15.5798L15.7615 19.844C16.0862 19.5852 16.3899 19.302 16.6699 18.997C17.6779 17.9469 18.4514 16.7018 18.941 15.3415C19.0349 14.9639 19.0164 14.5679 18.8876 14.2004C18.7587 13.8329 18.525 13.5094 18.2142 13.2685ZM6.51806 6.24731L5.13272 7.18344C4.96459 7.30124 4.82184 7.45052 4.71271 7.62266C4.60357 7.7948 4.53021 7.98643 4.49681 8.1865C4.44537 8.49697 4.45699 8.81435 4.53105 9.12038C4.60511 9.42642 4.74014 9.71503 4.92833 9.96965C5.56462 10.8898 6.27064 11.7616 7.04044 12.5776C7.79466 13.385 8.61497 14.1305 9.4932 14.8065C9.73251 14.9885 10.0065 15.1217 10.299 15.1982C10.5916 15.2748 10.8967 15.2932 11.1965 15.2524C11.3977 15.2136 11.5885 15.134 11.7566 15.0189C11.9247 14.9038 12.0666 14.7555 12.1732 14.5836L13.0361 13.1348C13.1416 13.1199 13.2487 13.1199 13.3541 13.1348C14.7987 13.4391 16.2014 13.9105 17.5329 14.5391C17.589 14.6749 17.6272 14.8172 17.6465 14.9626C17.2085 16.1376 16.5456 17.2195 15.6933 18.15L15.0802 18.7295C13.2825 18.6564 11.519 18.2232 9.89817 17.4566C8.27734 16.6899 6.83336 15.6061 5.65503 14.2716C3.02173 11.5603 1.50825 7.98573 1.40807 4.24125C1.61247 3.97378 1.79421 3.77315 1.95319 3.59483C2.79714 2.6995 3.82721 1.99258 4.97372 1.52191H5.31438C5.7686 2.90387 6.29094 4.48644 6.65432 5.97985C6.61195 6.04148 6.56648 6.10096 6.51806 6.15813V6.24731Z" fill="#0073CF"/>
</svg>
