<svg width="24" height="27" viewBox="0 0 24 27" fill="none" xmlns="http://www.w3.org/2000/svg">
<mask id="path-1-inside-1_1482_931" fill="white">
<path fill-rule="evenodd" clip-rule="evenodd" d="M5.87327 10.8357C6.77295 8.31954 9.38235 6.5 12.4612 6.5C15.862 6.5 18.6901 8.72013 19.2738 11.6469C19.6018 11.5605 19.9487 11.5141 20.3075 11.5141C22.3467 11.5141 23.9999 13.0108 23.9999 14.857V14.8572H24V18.2144C24 20.9758 21.7614 23.2144 19 23.2144H5C2.23858 23.2144 0 20.9758 0 18.2144V14.8572V14.8572C0 12.5494 2.06638 10.6786 4.61538 10.6786C5.05145 10.6786 5.47339 10.7334 5.87327 10.8357Z"/>
</mask>
<path d="M5.87327 10.8357L5.50143 12.2889L6.82553 12.6277L7.2857 11.3407L5.87327 10.8357ZM19.2738 11.6469L17.8028 11.9403L18.1146 13.5036L19.656 13.0974L19.2738 11.6469ZM23.9999 14.8572H22.4999V16.3572H23.9999V14.8572ZM24 14.8572H25.5V13.3572H24V14.8572ZM7.2857 11.3407C7.95265 9.47544 9.95657 8 12.4612 8V5C8.80813 5 5.59325 7.16364 4.46085 10.3307L7.2857 11.3407ZM12.4612 8C15.2377 8 17.3761 9.80063 17.8028 11.9403L20.7449 11.3535C20.0042 7.63964 16.4863 5 12.4612 5V8ZM19.656 13.0974C19.8597 13.0437 20.0781 13.0141 20.3075 13.0141V10.0141C19.8193 10.0141 19.344 10.0772 18.8916 10.1964L19.656 13.0974ZM20.3075 13.0141C21.6621 13.0141 22.4999 13.976 22.4999 14.857H25.4999C25.4999 12.0455 23.0314 10.0141 20.3075 10.0141V13.0141ZM22.4999 14.857V14.8572H25.4999V14.857H22.4999ZM23.9999 16.3572H24V13.3572H23.9999V16.3572ZM22.5 14.8572V18.2144H25.5V14.8572H22.5ZM22.5 18.2144C22.5 20.1474 20.933 21.7144 19 21.7144V24.7144C22.5898 24.7144 25.5 21.8043 25.5 18.2144H22.5ZM19 21.7144H5V24.7144H19V21.7144ZM5 21.7144C3.067 21.7144 1.5 20.1474 1.5 18.2144H-1.5C-1.5 21.8043 1.41015 24.7144 5 24.7144V21.7144ZM1.5 18.2144V14.8572H-1.5V18.2144H1.5ZM1.5 14.8572V14.8572H-1.5V14.8572H1.5ZM1.5 14.8572C1.5 13.5147 2.75101 12.1786 4.61538 12.1786V9.17861C1.38175 9.17861 -1.5 11.5842 -1.5 14.8572H1.5ZM4.61538 12.1786C4.92566 12.1786 5.22269 12.2175 5.50143 12.2889L6.24511 9.3825C5.72409 9.24918 5.17724 9.17861 4.61538 9.17861V12.1786Z" fill="#0073CF" mask="url(#path-1-inside-1_1482_931)"/>
<path d="M18.2108 5.90918C14.9664 2.6455 9.70627 2.6455 6.46191 5.90918" stroke="#0073CF" stroke-width="1.5"/>
<path d="M3.69141 26L20.3068 26" stroke="#0073CF" stroke-width="1.5"/>
<path d="M12 11.1426V19.4998" stroke="#0073CF" stroke-width="1.5"/>
<path d="M7.38477 17.6426L12.0002 19.4997L16.154 17.6426" stroke="#0073CF" stroke-width="1.5"/>
</svg>
