<svg width="24" height="24" viewBox="0 0 24 24" fill="none" xmlns="http://www.w3.org/2000/svg">
<path d="M9.75606 5.18282C10.3914 4.78847 11.1257 4.59198 11.8688 4.61743C12.9652 4.61743 13.8762 4.88491 14.602 5.41986C15.3279 5.95481 15.6908 6.74753 15.6908 7.79801C15.7095 8.37848 15.5439 8.94957 15.2188 9.42619C14.9125 9.81556 14.5559 10.1607 14.1586 10.4521L13.6428 10.8601C13.3832 11.055 13.1879 11.3261 13.0832 11.6373C13.0137 11.9244 12.9824 12.2198 12.9899 12.5155H11.0161C11.044 11.6787 11.1215 11.0997 11.2484 10.7785C11.374 10.4598 11.6994 10.0907 12.221 9.67489L12.752 9.25132C12.9146 9.12913 13.0566 8.98085 13.1727 8.81223C13.3623 8.55245 13.4639 8.23664 13.462 7.91265C13.4645 7.54385 13.3518 7.18383 13.1403 6.88483C12.9233 6.57396 12.5312 6.42048 11.9583 6.42048C11.3854 6.42048 11.0066 6.61476 10.7649 6.99169C10.5376 7.34516 10.4147 7.75795 10.4109 8.18078H8.30762C8.36726 6.7715 8.85005 5.77217 9.75606 5.18282ZM10.9647 13.5374H13.1422V15.6922H10.9647V13.5374Z" fill="#0073CF"/>
<path d="M8.86516 18.8829L8.64171 18.6346H8.30769H0.75V0.75H23.25V18.6346H16.1538H15.7934L15.5682 18.9161L12.4279 22.8415L8.86516 18.8829Z" stroke="#0073CF" stroke-width="1.5"/>
</svg>
