<svg width="118" height="135" viewBox="0 0 118 135" fill="none" xmlns="http://www.w3.org/2000/svg">
<path d="M57.2269 123.127C77.8805 123.127 94.6236 119.369 94.6236 114.733C94.6236 110.098 77.8805 106.34 57.2269 106.34C36.5732 106.34 19.8301 110.098 19.8301 114.733C19.8301 119.369 36.5732 123.127 57.2269 123.127Z" stroke="#AFBAD4" stroke-miterlimit="10"/>
<path opacity="0.6" d="M57.3392 128.99C77.9928 128.99 94.7359 125.232 94.7359 120.597C94.7359 115.961 77.9928 112.203 57.3392 112.203C36.6855 112.203 19.9424 115.961 19.9424 120.597C19.9424 125.232 36.6855 128.99 57.3392 128.99Z" stroke="#AFBAD4" stroke-miterlimit="10"/>
<path opacity="0.3" d="M57.3392 134.741C77.9928 134.741 94.7359 130.983 94.7359 126.348C94.7359 121.712 77.9928 117.954 57.3392 117.954C36.6855 117.954 19.9424 121.712 19.9424 126.348C19.9424 130.983 36.6855 134.741 57.3392 134.741Z" stroke="#AFBAD4" stroke-miterlimit="10"/>
<path d="M56.684 113.246C53.8864 113.247 51.0949 112.984 48.3458 112.461C44.8198 111.975 41.3586 111.094 38.0266 109.833C33.6366 108.174 29.4427 106.029 25.5217 103.438C21.4609 100.771 17.7511 97.597 14.4808 93.9908C12.3016 91.5427 10.358 88.8912 8.67631 86.0721C6.95377 83.1943 5.51536 80.1531 4.38176 76.992C-1.37159 61.5056 0.343165 44.1969 9.09092 29.5468C17.7619 15.0309 31.8177 5.52745 47.665 3.46259C51.8162 2.86379 56.1261 2.24431 60.395 2.24431C63.6457 2.20782 66.8848 2.64244 70.013 3.53484C72.0259 4.07787 74.0023 4.75033 75.9301 5.54808C76.0852 5.61079 76.2228 5.71085 76.3308 5.83952C76.4388 5.9682 76.5138 6.12158 76.5495 6.28626C76.5866 6.45168 76.5841 6.62362 76.5423 6.78789C76.5005 6.95215 76.4204 7.10403 76.3089 7.23094L75.5769 8.0414C74.1477 10.127 73.2671 12.5444 73.0176 15.067V15.5368L73.1865 19.6665C73.7584 22.858 75.3494 25.7735 77.717 27.9683C80.0846 30.1631 83.0989 31.5169 86.3005 31.8233H86.4182H86.6434C86.8085 31.8309 86.9692 31.8786 87.112 31.9624C87.2548 32.0463 87.3753 32.1637 87.4633 32.3047C87.5514 32.4457 87.6042 32.6061 87.6174 32.7721C87.6306 32.9382 87.6038 33.105 87.5392 33.2584C86.574 35.7366 86.2924 38.4321 86.724 41.0588C87.1557 43.6855 88.2846 46.1453 89.991 48.1769L92.8779 50.8251C94.9435 52.2675 97.3392 53.1558 99.8393 53.4062H100.31L104.405 53.2307C105.865 52.9632 107.276 52.476 108.592 51.7853C108.74 51.7066 108.906 51.6658 109.073 51.6666C109.331 51.6657 109.58 51.7631 109.77 51.9392C109.96 52.1152 110.076 52.3571 110.097 52.6164C110.271 54.387 110.368 56.0079 110.394 57.5823C110.906 71.1226 105.245 85.0861 94.9356 95.8698C84.3963 106.886 70.4481 113.204 56.6584 113.204L56.684 113.246Z" fill="#034FA9"/>
<path d="M60.4106 3.29729C63.5625 3.2623 66.7031 3.68298 69.7367 4.54652C71.7136 5.0781 73.6542 5.73853 75.5463 6.52363L74.7734 7.38569C73.2016 9.6391 72.24 12.2672 71.9838 15.0102V15.5264C72.0384 16.9511 72.0964 18.3741 72.1578 19.7954C72.6392 22.5781 73.8498 25.1802 75.6641 27.3322C78.3361 30.4888 82.1176 32.478 86.2136 32.8815C86.3364 32.8815 86.4542 32.8815 86.577 32.8815C86.0436 34.238 85.6991 35.6625 85.5533 37.1144C85.3596 39.2293 85.5852 41.3618 86.2171 43.3879C86.8489 45.4139 87.8743 47.2928 89.2336 48.915L92.2178 51.6561C94.4556 53.2386 97.0623 54.208 99.7831 54.4695H100.295L104.528 54.294C106.114 54.014 107.649 53.4918 109.079 52.7453C109.237 54.3507 109.345 55.9768 109.37 57.6235C110.394 86.0153 84.463 112.177 56.6483 112.177C53.9005 112.18 51.1585 111.923 48.4585 111.408C44.999 110.929 41.6032 110.064 38.3339 108.827C34.0223 107.19 29.9026 105.08 26.0491 102.534C22.0617 99.9097 18.4191 96.7877 15.2078 93.2422C13.0771 90.8467 11.1749 88.2542 9.52614 85.499C7.83845 82.6802 6.42921 79.7012 5.31863 76.6047C-6.59244 44.5272 15.3563 8.69171 47.7521 4.47941C51.9545 3.87544 56.1518 3.26632 60.3491 3.26632L60.4106 3.29729ZM60.3491 1.16016C56.0085 1.16016 51.6474 1.78479 47.4706 2.38875C39.2563 3.46223 31.4171 6.50703 24.6108 11.2676C17.9409 15.9259 12.3296 21.9614 8.14923 28.9737C-0.762326 43.8974 -2.51289 61.4951 3.35819 77.3326C4.51589 80.5536 5.9816 83.6535 7.73462 86.5882C9.45273 89.4582 11.4338 92.1595 13.6518 94.6567C16.9848 98.3351 20.7689 101.57 24.9128 104.284C28.8969 106.921 33.1597 109.103 37.6224 110.788C41.0187 112.075 44.5468 112.975 48.1412 113.473C50.9465 114.001 53.7944 114.268 56.6483 114.268C70.7246 114.268 84.9493 107.83 95.6831 96.608C106.181 85.6281 111.925 71.3961 111.433 57.5564C111.433 55.9613 111.31 54.3146 111.131 52.5234C111.099 52.1771 110.982 51.8443 110.791 51.5546C110.6 51.2649 110.341 51.0272 110.037 50.8627C109.733 50.6983 109.394 50.612 109.049 50.6118C108.704 50.6115 108.364 50.6972 108.06 50.8612C106.859 51.4918 105.572 51.9405 104.241 52.193L100.71 52.3375H100.198H99.8241C97.5374 52.1089 95.3461 51.297 93.4565 49.9784L92.0693 48.7085L90.6771 47.4283C89.524 46.0272 88.6561 44.4106 88.1229 42.671C87.5898 40.9314 87.4019 39.1028 87.57 37.2899C87.6911 36.0331 87.9857 34.7994 88.4454 33.6248C88.5638 33.3175 88.6092 32.9866 88.5781 32.6584C88.5469 32.3303 88.4399 32.014 88.2658 31.735C88.0916 31.4561 87.8551 31.2221 87.5752 31.0518C87.2953 30.8816 86.9798 30.7798 86.6538 30.7547H86.3723C82.8258 30.3952 79.5541 28.6678 77.2406 25.9332C75.6909 24.1047 74.6505 21.894 74.2258 19.527L74.1695 18.2571C74.1336 17.3228 74.0977 16.3884 74.0568 15.4541V15.0773C74.2844 12.7714 75.0894 10.5617 76.396 8.65559L76.5394 8.49556L77.0819 7.89674C77.3077 7.64594 77.4701 7.34396 77.5554 7.01637C77.6408 6.68878 77.6465 6.34525 77.5722 6.01494C77.4978 5.68464 77.3456 5.3773 77.1284 5.11897C76.9111 4.86065 76.6354 4.65898 76.3244 4.53105C74.3547 3.71454 72.3356 3.02487 70.2793 2.4662C67.0639 1.55311 63.7355 1.10808 60.3952 1.14466L60.3491 1.16016Z" fill="#263F7E"/>
<path d="M109.104 52.7617C107.674 53.5082 106.14 54.0304 104.554 54.3104L102.409 54.3981C101.063 84.0907 71.0012 110.113 41.5792 104.471C38.1214 103.992 34.7273 103.127 31.4597 101.89C27.1478 100.254 23.028 98.1437 19.175 95.5971C17.3895 94.4095 15.6689 93.1257 14.0205 91.7513C14.4351 92.2675 14.8497 92.7579 15.2848 93.2431C18.4961 96.7885 22.1387 99.9105 26.1261 102.535C29.9795 105.081 34.0993 107.191 38.4108 108.828C41.6801 110.065 45.076 110.93 48.5355 111.409C79.1706 117.263 110.522 88.8089 109.401 57.6244C109.371 55.9932 109.263 54.3671 109.104 52.7617Z" fill="#263F7E"/>
<path d="M19.3642 36.6912C15.4075 36.6912 12.3772 33.3874 12.3107 29.0099C12.3044 28.0003 12.4987 26.9997 12.8819 26.067C13.2652 25.1343 13.8298 24.2885 14.5424 23.5794C16.1071 21.9697 18.2352 21.0431 20.4698 20.9983C21.6404 20.9881 22.7932 21.2867 23.8141 21.8644C24.835 22.4421 25.6884 23.2789 26.2897 24.2917C28.4242 27.6781 27.2571 32.7783 23.7918 35.2045C22.4997 36.1404 20.9548 36.6555 19.3642 36.6809V36.6912Z" fill="#263F7E"/>
<path d="M20.4696 22.0632C21.4637 22.0561 22.4424 22.311 23.3087 22.8027C24.1751 23.2943 24.8991 24.0056 25.4091 24.8662C27.303 27.8757 26.0438 32.3616 23.1978 34.3542C22.0799 35.1673 20.7421 35.6158 19.364 35.6396C16.1443 35.6396 13.4161 32.9553 13.3547 28.9959C13.2932 25.0366 16.9377 22.0632 20.4696 22.0632ZM20.4696 19.957C17.9628 20.0049 15.5742 21.0407 13.8153 22.8427C12.9986 23.6493 12.3511 24.6134 11.9114 25.6776C11.4718 26.7418 11.2489 27.8844 11.256 29.0372C11.3328 34.0084 14.8391 37.7612 19.3537 37.7612C21.1572 37.7363 22.9097 37.1544 24.3751 36.0939C28.2806 33.3631 29.5859 27.5918 27.1648 23.746C26.4691 22.5828 25.4848 21.6226 24.3089 20.9599C23.1331 20.2973 21.8063 19.9552 20.4593 19.9674L20.4696 19.957Z" fill="#263F7E"/>
<g style="mix-blend-mode:multiply" opacity="0.5">
<g style="mix-blend-mode:multiply" opacity="0.5">
<path d="M25.4091 24.8645C25.177 24.4949 24.9095 24.1491 24.6106 23.832C25.0156 25.3191 24.9632 26.8952 24.4605 28.3516C23.9578 29.808 23.0284 31.0761 21.7954 31.9882C18.8982 34.0169 15.7298 33.5059 13.7949 31.472C15.136 35.3126 19.3947 37.0213 23.1979 34.3628C26.0438 32.3599 27.303 27.874 25.4091 24.8645Z" fill="#263F7E"/>
</g>
</g>
<path d="M72.0858 19.0378C71.9067 19.0375 71.7306 18.9913 71.5739 18.9036C70.9325 18.5538 70.3375 18.1237 69.8029 17.6234C66.8904 14.8101 66.5423 9.49306 69.0505 6.0241C69.5663 5.23423 70.2695 4.58678 71.0963 4.14054C71.9232 3.69431 72.8474 3.46342 73.7852 3.46884C74.9389 3.49223 76.0799 3.71576 77.1584 4.12961C77.3251 4.1822 77.4758 4.27696 77.596 4.40486C77.7161 4.53276 77.8019 4.68954 77.845 4.86029C77.8881 5.03105 77.8871 5.2101 77.8422 5.38038C77.7973 5.55066 77.7099 5.70651 77.5883 5.83311L75.6074 8.02701C74.1782 10.1126 73.2976 12.53 73.0481 15.0527V15.5018L73.1505 17.9228C73.1596 18.0639 73.1399 18.2054 73.0925 18.3385C73.0452 18.4717 72.9712 18.5936 72.8752 18.6967C72.7792 18.7997 72.6633 18.8818 72.5346 18.9379C72.4058 18.9939 72.267 19.0226 72.1268 19.0223L72.0858 19.0378Z" fill="#263F7E"/>
<path d="M73.7857 4.52095C74.818 4.55555 75.8372 4.76496 76.8006 5.14041L74.7532 7.38592C73.1813 9.63933 72.2197 12.2674 71.9635 15.0104V15.5266C71.9993 16.3422 72.03 17.1578 72.0659 17.9735C71.5105 17.6648 70.9948 17.2886 70.5303 16.8533C67.8583 14.2722 67.7867 9.55401 69.8956 6.63224C70.313 5.97554 70.8889 5.43642 71.5692 5.06536C72.2496 4.69429 73.0123 4.50343 73.7857 4.51061V4.52095ZM73.7857 2.40445C72.6835 2.39684 71.5965 2.66551 70.6227 3.1863C69.6488 3.7071 68.8186 4.46371 68.2064 5.38818C65.3604 9.33205 65.7545 15.1601 69.0817 18.3761C69.6791 18.9393 70.3467 19.4218 71.0677 19.8112C71.3797 19.9895 71.7328 20.0821 72.0914 20.0796C72.3731 20.0806 72.6522 20.0238 72.9115 19.9128C73.1707 19.8017 73.4049 19.6386 73.5998 19.4334C73.7946 19.2282 73.9461 18.9852 74.0449 18.7191C74.1437 18.453 74.1879 18.1695 74.1747 17.8857V17.2714L74.0877 15.4853V15.1085C74.3153 12.8026 75.1202 10.5929 76.4269 8.68679L77.7322 7.24653L78.3566 6.54966C78.5904 6.29269 78.7574 5.98118 78.8423 5.64311C78.9273 5.30503 78.9276 4.95096 78.8434 4.6127C78.7591 4.27443 78.593 3.96255 78.3597 3.70507C78.1264 3.44759 77.8334 3.25257 77.507 3.1375C76.3219 2.68269 75.0686 2.43478 73.801 2.40445H73.7857Z" fill="#263F7E"/>
<g style="mix-blend-mode:multiply" opacity="0.5">
<g style="mix-blend-mode:multiply" opacity="0.5">
<path d="M72.0089 16.2303C70.9643 15.891 69.977 15.3931 69.0811 14.7539C69.424 15.5455 69.916 16.2625 70.5297 16.8652C70.9942 17.3005 71.5099 17.6768 72.0653 17.9854L72.0089 16.2303Z" fill="#263F7E"/>
</g>
</g>
<path d="M69.3729 95.8029C66.6856 95.8029 64.7097 95.0698 63.5017 93.6244C62.2937 92.179 61.9662 90.331 62.4013 87.9048C63.1896 83.2589 67.4278 79.377 71.6558 79.377C74.2151 79.377 76.3649 80.7914 77.7981 83.3569C78.4429 84.5382 78.781 85.8647 78.781 87.2131C78.781 88.5615 78.4429 89.8879 77.7981 91.0692C77.1522 92.3421 76.2027 93.4332 75.0349 94.2441C73.8671 95.0551 72.5177 95.5606 71.1081 95.7151C70.5195 95.7719 69.9513 95.8029 69.4138 95.8029H69.3729Z" fill="#263F7E"/>
<path d="M71.6607 80.4304C73.6211 80.4304 75.5253 81.4318 76.8561 83.8683C79.3438 88.411 75.9757 94.1668 70.9646 94.6624C70.4357 94.7172 69.9044 94.7447 69.3727 94.745C65.2778 94.745 62.611 92.8866 63.4299 88.0858C64.1414 83.92 67.9957 80.4304 71.6607 80.4304ZM71.6607 78.3242C66.9515 78.3242 62.2373 82.6295 61.3722 87.7296C60.9013 90.4759 61.3722 92.6904 62.7031 94.3062C64.0339 95.9219 66.3629 96.8563 69.3573 96.8563C69.9255 96.8563 70.5295 96.8253 71.154 96.7634C72.7406 96.5967 74.261 96.0336 75.5775 95.1251C76.894 94.2165 77.9651 92.9911 78.6937 91.5599C79.4105 90.2215 79.7859 88.7243 79.7859 87.2031C79.7859 85.6819 79.4105 84.1847 78.6937 82.8462C77.0916 79.9296 74.5988 78.3242 71.6658 78.3242H71.6607Z" fill="#263F7E"/>
<g style="mix-blend-mode:multiply" opacity="0.5">
<g style="mix-blend-mode:multiply" opacity="0.5">
<path d="M76.8566 83.8673C76.2567 82.6789 75.3194 81.6977 74.1642 81.0488C74.3876 81.3545 74.5927 81.6734 74.7784 82.0038C77.266 86.5516 73.898 92.3281 68.8817 92.803C66.9059 92.9992 65.1758 92.8495 63.8604 92.2868C64.9711 94.3516 67.6123 95.0124 70.965 94.6768C75.9762 94.1658 79.3442 88.41 76.8566 83.8673Z" fill="#263F7E"/>
</g>
</g>
<path d="M85.7736 42.5245C85.5992 42.5263 85.4273 42.4831 85.2741 42.3991C85.1209 42.3151 84.9916 42.193 84.8983 42.0444C84.2168 40.9972 83.8571 39.7703 83.8644 38.5176C83.8717 37.265 84.2455 36.0424 84.9392 35.0033C85.0348 34.866 85.1622 34.7544 85.3102 34.6779C85.4583 34.6015 85.6226 34.5625 85.7889 34.5645C85.9318 34.5632 86.0733 34.5931 86.2036 34.6523C86.4251 34.7447 86.6074 34.9127 86.7187 35.1268C86.83 35.341 86.8633 35.5877 86.8127 35.8241C86.7256 36.268 86.6591 36.7481 86.6079 37.2488C86.4905 38.5953 86.5559 39.9517 86.8024 41.2804C86.8494 41.5204 86.8104 41.7695 86.6923 41.9831C86.5741 42.1968 86.3846 42.3612 86.1575 42.4471C86.0356 42.4976 85.9053 42.5239 85.7736 42.5245Z" fill="#263F7E"/>
<path d="M85.7885 35.6187C85.6913 36.1349 85.6196 36.6511 85.5685 37.1673C85.442 38.612 85.5109 40.0673 85.7732 41.4932C85.2007 40.6262 84.8953 39.6079 84.8953 38.5663C84.8953 37.5247 85.2007 36.5063 85.7732 35.6393L85.7885 35.6187ZM85.7732 33.5332H85.6043C85.2534 33.5614 84.9154 33.6786 84.6215 33.8739C84.4499 33.9877 84.2964 34.1269 84.1659 34.2869C84.1301 34.3333 84.0891 34.3798 84.0533 34.4314C83.2369 35.6387 82.7964 37.0643 82.7882 38.5256C82.78 39.9869 83.2045 41.4175 84.0073 42.634C84.2695 43.0434 84.6644 43.3483 85.1246 43.4969C85.5848 43.6455 86.0819 43.6285 86.5311 43.4489C86.9804 43.2693 87.3538 42.9381 87.588 42.5118C87.8223 42.0855 87.9026 41.5906 87.8155 41.1112C87.5842 39.8746 87.5239 38.6116 87.6363 37.3583C87.6773 36.9299 87.7336 36.5066 87.8104 36.1143C87.8767 35.8166 87.8786 35.5081 87.8159 35.2096C87.7533 34.9112 87.6275 34.6299 87.4473 34.3849C87.267 34.14 87.0365 33.937 86.7715 33.79C86.5064 33.6431 86.213 33.5555 85.9114 33.5332H85.7732Z" fill="#263F7E"/>
<path d="M50.8185 37.4547C48.1722 37.4547 46.2118 35.7615 45.6385 32.9223C45.3991 31.9282 45.3866 30.8921 45.6021 29.8924C45.8176 28.8927 46.2553 27.9553 46.8823 27.1511C47.4743 26.411 48.2216 25.8123 49.0703 25.3982C49.9191 24.984 50.8483 24.7647 51.7911 24.7559C54.4118 24.7559 56.5003 26.4903 57.2425 29.2882C57.4987 30.2161 57.5368 31.1915 57.3537 32.1369C57.1707 33.0823 56.7715 33.9716 56.188 34.7342C55.5523 35.5644 54.7397 36.2399 53.8103 36.7108C52.8809 37.1817 51.8585 37.4359 50.8185 37.4547Z" fill="#263F7E"/>
<path d="M51.7904 25.8093C53.6894 25.8093 55.5372 26.945 56.2282 29.5622C57.2519 33.4751 53.8788 36.402 50.8178 36.402C48.9495 36.402 47.2348 35.3128 46.6615 32.7059C45.7811 28.5297 48.8523 25.8093 51.7801 25.8093H51.7904ZM51.7801 23.7031C50.6818 23.7127 49.5992 23.967 48.6099 24.4481C47.6205 24.9291 46.7489 25.6249 46.0575 26.4855C45.3308 27.4109 44.8223 28.4908 44.5704 29.6436C44.3186 30.7964 44.33 31.9918 44.6038 33.1395C45.2999 36.4536 47.675 38.5081 50.8076 38.5081C52.0076 38.4875 53.1876 38.1952 54.2605 37.6528C55.3334 37.1105 56.2718 36.3319 57.0063 35.3747C57.6885 34.4846 58.1553 33.4462 58.3695 32.3421C58.5836 31.238 58.5393 30.0987 58.2399 29.015C57.3697 25.737 54.8974 23.7031 51.7801 23.7031Z" fill="#263F7E"/>
<g style="mix-blend-mode:multiply" opacity="0.5">
<g style="mix-blend-mode:multiply" opacity="0.5">
<path d="M56.2291 29.5633C56.0667 28.9221 55.7985 28.3131 55.4357 27.7617C55.4818 27.9063 55.5279 28.0456 55.5688 28.2005C57.043 33.7498 49.5954 37.322 46.8262 33.3626C48.7354 39.3558 57.8466 35.6494 56.2291 29.5633Z" fill="#263F7E"/>
</g>
</g>
<path d="M9.94135 82.7802C8.784 82.7335 7.64769 82.4531 6.59967 81.9557C5.55166 81.4583 4.61325 80.7539 3.83994 79.8842C2.94901 78.9785 2.24824 77.901 1.77949 76.7161C1.31073 75.5312 1.08361 74.2631 1.1117 72.9876C1.33692 68.254 6.09213 64.9554 10.2229 64.9554C11.3845 64.9134 12.5361 65.1868 13.5572 65.7471C14.5782 66.3074 15.4314 67.1339 16.0274 68.1404C17.6705 70.8918 17.5118 75.3674 15.664 78.8053C14.3229 81.2883 12.3625 82.6924 10.1461 82.7647L9.94135 82.7802Z" fill="#263F7E"/>
<path d="M10.2225 65.9553C11.2132 65.919 12.1955 66.1512 13.067 66.6279C13.9384 67.1046 14.6672 67.8082 15.1773 68.6655C17.7367 72.9294 15.1415 81.6121 10.115 81.7721H9.94099C5.99452 81.7721 1.89449 77.5185 2.10436 73.0274C2.29886 68.9287 6.45519 65.9502 10.2225 65.9502V65.9553ZM10.2225 63.9473C7.79341 63.9828 5.44788 64.8471 3.56828 66.3993C2.56402 67.1771 1.73656 68.1628 1.14149 69.2901C0.546414 70.4173 0.19753 71.66 0.118321 72.9345C0.0842661 74.345 0.332311 75.748 0.847658 77.0598C1.36301 78.3715 2.13509 79.5651 3.11784 80.5693C3.98371 81.5367 5.03335 82.3188 6.20452 82.8695C7.37568 83.4201 8.64452 83.728 9.93587 83.775H10.1765C12.7358 83.6924 15.034 82.056 16.5287 79.2891C18.5352 75.5724 18.6836 70.6684 16.8767 67.633C16.1873 66.4828 15.2089 65.5367 14.0404 64.8904C12.8719 64.2441 11.5548 63.9205 10.2225 63.9524V63.9473Z" fill="#263F7E"/>
<g style="mix-blend-mode:multiply" opacity="0.5">
<g style="mix-blend-mode:multiply" opacity="0.5">
<path d="M15.1767 68.6558C14.4747 67.4549 13.3364 66.5772 12.0032 66.209C12.134 66.3631 12.2554 66.5252 12.3666 66.6942C14.9259 70.9581 12.3257 79.6408 7.30428 79.806C6.39071 79.8271 5.48321 79.6511 4.64258 79.2898C6.17817 80.8384 8.1642 81.8709 10.1144 81.7883C15.1409 81.6128 17.7156 72.9301 15.1767 68.6558Z" fill="#263F7E"/>
</g>
</g>
<path d="M54.5039 112.987C52.052 112.987 49.9841 112.229 48.8375 110.923C48.4071 110.416 48.0923 109.819 47.9154 109.176C47.7386 108.533 47.7038 107.859 47.8138 107.201C48.3257 103.391 51.2945 100.516 54.7495 100.516C55.8152 100.536 56.8592 100.823 57.7882 101.35C58.7171 101.877 59.5021 102.628 60.0729 103.535C60.7011 104.38 61.1035 105.374 61.2415 106.421C61.3795 107.467 61.2486 108.532 60.8612 109.513C60.4318 110.442 59.7698 111.242 58.9404 111.834C58.111 112.426 57.1429 112.79 56.1316 112.889C55.5924 112.966 55.0484 113.004 54.5039 113.003V112.987Z" fill="#263F7E"/>
<path d="M54.7494 101.553C56.3516 101.553 57.9793 102.332 59.2129 104.134C61.4702 107.407 59.9653 111.273 55.983 111.841C55.4929 111.91 54.9986 111.944 54.5037 111.944C51.5401 111.944 48.4126 110.7 48.8732 107.334C49.3237 103.881 52.011 101.563 54.7699 101.563L54.7494 101.553ZM54.7699 99.457C50.7927 99.457 47.3684 102.725 46.8002 107.061C46.6693 107.868 46.7157 108.693 46.9359 109.48C47.1561 110.267 47.5449 110.995 48.0747 111.614C49.9174 113.735 52.9067 114.05 54.5242 114.05C55.1167 114.051 55.7085 114.009 56.2953 113.926C58.8546 113.56 60.902 112.104 61.8439 109.926C62.3001 108.78 62.4579 107.536 62.302 106.312C62.1461 105.087 61.6817 103.923 60.9532 102.931C59.4176 100.691 57.2115 99.457 54.7699 99.457Z" fill="#263F7E"/>
<g style="mix-blend-mode:multiply" opacity="0.5">
<g style="mix-blend-mode:multiply" opacity="0.5">
<path d="M59.2122 104.125C58.5744 103.159 57.6706 102.401 56.612 101.946C56.8381 102.188 57.0451 102.447 57.2313 102.721C59.4886 105.993 57.9838 109.86 54.0015 110.428C52.4825 110.656 50.9313 110.517 49.4766 110.02C50.7562 111.723 53.6431 112.162 55.9824 111.832C59.9647 111.264 61.4695 107.398 59.2122 104.125Z" fill="#263F7E"/>
</g>
</g>
<path d="M34.2133 94.2556C31.3264 94.2556 28.8848 92.9754 27.8355 90.9105C27.3378 89.9445 27.1012 88.8634 27.1498 87.7759C27.1983 86.6884 27.5301 85.633 28.1119 84.716C28.8139 83.5818 29.7833 82.6404 30.9336 81.9757C32.0839 81.311 33.3794 80.9436 34.7047 80.9063C35.661 80.9022 36.6052 81.1213 37.4636 81.5464C40.1151 82.8627 41.7377 85.1031 41.8042 87.5345C41.8656 89.8368 40.5194 91.9378 38.1034 93.3058C36.9055 93.9428 35.5673 94.2642 34.2133 94.2401V94.2556Z" fill="#263F7E"/>
<path d="M34.7042 81.9732C35.4979 81.9636 36.2829 82.1403 36.9973 82.4894C41.558 84.7556 42.2337 89.7577 37.5911 92.3852C36.5491 92.9327 35.3875 93.2078 34.2128 93.1854C32.0322 93.1854 29.7442 92.3336 28.7665 90.4133C26.6525 86.2526 30.7065 81.9577 34.7042 81.9577V81.9732ZM34.7042 79.8516C33.1986 79.8803 31.7244 80.2901 30.4168 81.0433C29.1092 81.7964 28.0102 82.8688 27.2207 84.1619C26.5436 85.2327 26.1583 86.4645 26.1035 87.7332C26.0487 89.0019 26.3263 90.2628 26.9085 91.3889C28.1318 93.8048 30.9317 95.307 34.2128 95.307C35.746 95.3309 37.2603 94.9633 38.6148 94.2384C41.3789 92.6898 42.9247 90.2223 42.8479 87.5276C42.7711 84.6936 40.9335 82.1126 37.9238 80.6155C36.921 80.1229 35.8196 79.8686 34.7042 79.8722V79.8516Z" fill="#263F7E"/>
<g style="mix-blend-mode:multiply" opacity="0.5">
<g style="mix-blend-mode:multiply" opacity="0.5">
<path d="M38.5792 83.5215C39.4033 85.7412 38.5792 88.2449 35.7128 89.8606C34.5701 90.4291 33.3044 90.7 32.0312 90.6486C30.758 90.5972 29.5178 90.2251 28.4238 89.5664C28.5114 89.8638 28.6263 90.1524 28.7668 90.4284C30.3024 93.4483 35.0781 93.8251 37.5913 92.4004C41.6299 90.1135 41.6402 86.0354 38.5792 83.5215Z" fill="#263F7E"/>
</g>
</g>
<path d="M96.0004 91.7087C93.1135 91.7087 90.6719 90.4234 89.6226 88.3585C89.1249 87.3925 88.8883 86.3114 88.9369 85.2239C88.9854 84.1364 89.3173 83.0809 89.899 82.164C90.6005 81.0308 91.5692 80.0904 92.7186 79.4266C93.8681 78.7628 95.1626 78.3961 96.4867 78.3595C97.4431 78.3542 98.3876 78.5734 99.2456 78.9996C101.902 80.3159 103.525 82.5563 103.591 84.9877C103.653 87.29 102.307 89.3909 99.8906 90.7589C98.6923 91.3949 97.3544 91.7162 96.0004 91.6933V91.7087Z" fill="#263F7E"/>
<path d="M96.4871 79.4283C97.2826 79.4179 98.0695 79.5946 98.7854 79.9445C103.346 82.2055 104.022 87.2076 99.3792 89.8403C98.3372 90.3878 97.1756 90.6629 96.0009 90.6404C93.8152 90.6404 91.5272 89.7835 90.5547 87.8632C88.4407 83.7335 92.4946 79.4128 96.4871 79.4128V79.4283ZM96.4871 77.3066C94.9825 77.3363 93.5093 77.7465 92.2027 78.4996C90.896 79.2527 89.7979 80.3246 89.0088 81.617C88.3317 82.6878 87.9464 83.9195 87.8916 85.1883C87.8367 86.457 88.1144 87.7179 88.6966 88.844C89.9199 91.2599 92.7199 92.7621 96.0009 92.7621C97.534 92.7853 99.0482 92.4178 100.403 91.6935C103.167 90.1449 104.708 87.6774 104.636 84.9827C104.559 82.1539 102.717 79.5728 99.7068 78.0758C98.7052 77.5796 97.603 77.3252 96.4871 77.3324V77.3066Z" fill="#263F7E"/>
<g style="mix-blend-mode:multiply" opacity="0.5">
<g style="mix-blend-mode:multiply" opacity="0.5">
<path d="M100.873 81.4316C101.927 83.7339 101.16 86.4234 98.1549 88.1424C96.0767 89.3194 92.4476 89.2574 90.3848 87.4868C90.4462 87.621 90.4821 87.7604 90.5537 87.8946C92.0893 90.9145 96.865 91.2965 99.3782 89.8717C103.176 87.7036 103.412 83.9611 100.873 81.4316Z" fill="#263F7E"/>
</g>
</g>
<path d="M43.0373 17.8964C38.8554 17.8964 35.2519 15.8315 33.8545 12.569C32.1192 8.53742 36.0504 4.098 39.1215 2.10026C40.3013 1.38381 41.6608 1.02537 43.0373 1.06783C45.9652 1.06783 49.1387 2.37901 50.9302 4.32513C51.5413 5.015 51.9953 5.83127 52.2606 6.71675C52.5258 7.60222 52.5959 8.53547 52.4658 9.45113C52.3179 10.7829 51.9059 12.0711 51.2543 13.239C50.6027 14.4069 49.7248 15.4308 48.6729 16.2496C47.0093 17.3726 45.0438 17.9528 43.0424 17.9119L43.0373 17.8964Z" fill="#263F7E"/>
<path d="M43.0376 2.10531C45.6685 2.10531 48.5913 3.31839 50.1627 5.02189C52.8858 7.98496 50.9254 13.3278 48.0692 15.3771C46.5795 16.372 44.8238 16.8835 43.0376 16.8432C39.6746 16.8432 36.153 15.2481 34.817 12.1508C33.3429 8.73863 36.9361 4.77927 39.69 2.98801C40.6989 2.37634 41.8609 2.06996 43.0376 2.10531ZM43.0376 -0.0008472C41.4577 -0.0395631 39.9004 0.383528 38.5536 1.21741C36.7159 2.41712 35.1383 3.98002 33.9161 5.81172C32.3038 8.31535 31.9506 10.7932 32.8924 12.9922C34.4587 16.6057 38.4359 18.9493 43.0324 18.9493C45.6483 19.0623 48.2048 18.1426 50.1592 16.3855C52.1136 14.6285 53.312 12.1724 53.5001 9.53876C53.6406 8.4744 53.5514 7.39199 53.2386 6.36561C52.9259 5.33923 52.397 4.39313 51.688 3.59201C49.7122 1.44456 46.2367 -0.0214844 43.0324 -0.0214844L43.0376 -0.0008472Z" fill="#263F7E"/>
<g style="mix-blend-mode:multiply" opacity="0.5">
<g style="mix-blend-mode:multiply" opacity="0.5">
<path d="M50.1628 5.02292C49.7802 4.61892 49.3544 4.25884 48.8934 3.94922C50.0246 6.95874 48.2637 11.0162 45.858 12.7248C42.9403 14.7897 38.0418 14.64 34.9297 12.3531C37.1358 16.9681 44.2763 18.078 48.0692 15.3575C50.9254 13.3288 52.8859 7.98598 50.1628 5.02292Z" fill="#263F7E"/>
</g>
</g>
<path d="M104.093 67.5864C100.238 67.5864 96.9266 65.5215 95.6469 62.2591C94.2188 58.6456 97.0853 55.0734 98.3854 53.7106C98.4786 53.6122 98.5906 53.5341 98.7147 53.4808C98.8388 53.4276 98.9723 53.4004 99.1072 53.4009H99.2454H99.358L99.8698 53.468H100.341L104.436 53.2925C105.695 53.0613 106.919 52.6692 108.08 52.1258C108.224 52.0604 108.382 52.0297 108.54 52.036C108.698 52.0422 108.852 52.0853 108.991 52.162C109.888 52.6576 110.692 53.3075 111.366 54.0823C111.933 54.7973 112.348 55.6223 112.585 56.506C112.822 57.3896 112.876 58.313 112.743 59.2186C112.482 61.7996 111.095 64.4736 109.298 65.8829C107.793 67.0075 105.961 67.5974 104.088 67.5606L104.093 67.5864Z" fill="#263F7E"/>
<path d="M108.505 53.0659C109.299 53.501 110.012 54.0742 110.609 54.7591C113.096 57.717 111.305 63.065 108.689 65.1144C107.356 66.1025 105.736 66.6179 104.082 66.5804C101.011 66.5804 97.7864 64.9853 96.5631 61.888C95.5393 59.307 97.1619 56.442 99.1224 54.4081C99.3476 54.4391 99.5779 54.4752 99.8134 54.501H100.325L104.558 54.3255C105.924 54.0798 107.252 53.6565 108.51 53.0659H108.505ZM108.51 51.0527C108.219 51.0534 107.931 51.1167 107.665 51.2386C106.605 51.7395 105.485 52.102 104.333 52.3174L100.806 52.462H100.295H99.9209L99.5165 52.4104H99.3987H99.1224C98.8526 52.4091 98.5854 52.4633 98.3372 52.5698C98.089 52.6764 97.865 52.8329 97.6789 53.0298C94.6486 56.2148 93.584 59.7406 94.7305 62.6469C96.1586 66.2603 99.8492 68.6091 104.108 68.6091C106.203 68.6448 108.251 67.9805 109.933 66.7198C111.98 65.1298 113.465 62.2391 113.762 59.3637C113.908 58.323 113.84 57.2629 113.563 56.2496C113.286 55.2363 112.804 54.2914 112.149 53.4738C111.4 52.6056 110.504 51.8785 109.503 51.3263C109.203 51.1558 108.864 51.0669 108.52 51.0682L108.51 51.0527Z" fill="#263F7E"/>
<g style="mix-blend-mode:multiply" opacity="0.5">
<g style="mix-blend-mode:multiply" opacity="0.5">
<path d="M110.609 54.7588C110.42 54.5401 110.217 54.3349 110 54.1445C111.024 57.1437 109.401 61.1753 107.21 62.9201C104.349 65.1605 99.4044 64.8043 96.625 62.0271C98.5854 66.7349 105.199 67.8809 108.69 65.1243C111.305 63.0647 113.097 57.7167 110.609 54.7588Z" fill="#263F7E"/>
</g>
</g>
<path d="M19.9525 58.8061C15.4686 58.8061 12.5356 54.6403 12.3872 50.7841C12.2438 47.0726 14.5574 44.4915 18.2787 44.1973C18.4527 44.1973 18.6268 44.1973 18.7905 44.1973C22.9571 44.1973 25.7007 48.1566 25.9566 51.9818C26.1972 55.6572 24.2265 58.3209 20.9353 58.7596C20.6096 58.8049 20.2812 58.8274 19.9525 58.8268V58.8061Z" fill="#263F7E"/>
<path d="M18.8063 45.2351C25.3224 45.2351 27.6411 56.7776 20.8077 57.6965C20.5276 57.733 20.2456 57.752 19.9632 57.7532C13.0018 57.7532 10.3452 45.8803 18.3662 45.2505H18.8063V45.2351ZM18.8063 43.1392C18.6118 43.1392 18.4071 43.1392 18.2075 43.165C13.9436 43.4954 11.1898 46.5824 11.3536 50.8411C11.5174 55.1876 14.8599 59.8749 19.9632 59.8749C20.3381 59.8746 20.7126 59.8487 21.0841 59.7974C24.9027 59.2812 27.2879 56.1168 27.0115 51.9045C26.73 47.5993 23.5821 43.1289 18.8217 43.1289L18.8063 43.1392Z" fill="#263F7E"/>
<g style="mix-blend-mode:multiply" opacity="0.5">
<g style="mix-blend-mode:multiply" opacity="0.5">
<path d="M20.6177 45.5605C23.4893 48.9211 23.3971 55.3015 18.386 55.9726C17.3737 56.1135 16.3424 55.9891 15.3916 55.6112C16.0484 56.3851 16.8878 56.9799 17.8324 57.3407C18.777 57.7016 19.7965 57.8169 20.7969 57.676C26.9495 56.8708 25.6852 47.4396 20.6177 45.5605Z" fill="#263F7E"/>
</g>
</g>
<path d="M58.0915 69.7491C56.4791 69.7491 55.2148 67.7204 55.2148 65.1032C55.2148 62.486 56.4791 60.4883 58.0915 60.4883C59.7039 60.4883 60.9631 62.517 60.9631 65.1032C60.9631 67.6894 59.6988 69.7491 58.0915 69.7491Z" fill="#2196F3"/>
<path d="M58.0916 61.0931C59.361 61.0931 60.3898 62.8999 60.3898 65.1299C60.3898 67.3599 59.3661 69.1667 58.0916 69.1667C56.817 69.1667 55.7882 67.3599 55.7882 65.1299C55.7882 62.8999 56.8119 61.0931 58.0916 61.0931ZM58.0916 59.9316C56.126 59.9316 54.6416 62.1668 54.6416 65.1299C54.6416 68.093 56.126 70.3282 58.0916 70.3282C60.0571 70.3282 61.5364 68.093 61.5364 65.1299C61.5364 62.1668 60.0571 59.9316 58.0916 59.9316Z" fill="black"/>
<path d="M60.1598 63.9691C60.0708 63.9689 59.9832 63.9477 59.9038 63.9071C59.2439 63.5826 58.5189 63.4148 57.7847 63.4167C57.2753 63.4133 56.7687 63.4935 56.2849 63.6542C56.2256 63.6745 56.1633 63.685 56.1007 63.6852C56.0253 63.6858 55.9507 63.671 55.8812 63.6417C55.8117 63.6125 55.7488 63.5693 55.6963 63.5148C55.6202 63.439 55.5668 63.3431 55.5424 63.2381C55.5179 63.1331 55.5234 63.0232 55.5581 62.9212C56.0699 61.4139 57.0015 60.5156 58.1174 60.5156C59.2333 60.5156 60.2826 61.5481 60.7433 63.2361C60.7715 63.3445 60.7686 63.4588 60.7351 63.5657C60.7016 63.6726 60.6388 63.7677 60.5539 63.84C60.4428 63.9307 60.3024 63.9766 60.1598 63.9691Z" fill="white"/>
<path d="M58.0923 61.0931C59.0034 61.0931 59.7917 62.0326 60.1398 63.3903C59.4014 63.022 58.5885 62.8311 57.7647 62.8327C57.1923 62.8308 56.6235 62.9232 56.0807 63.1064C56.4799 61.9036 57.2221 61.0931 58.0718 61.0931H58.0923ZM58.0718 59.9316C56.7256 59.9316 55.5739 60.9641 55.0007 62.7398C54.9331 62.9441 54.9231 63.1634 54.9719 63.373C55.0207 63.5827 55.1264 63.7745 55.2771 63.9271C55.4949 64.1413 55.7867 64.2616 56.0909 64.2627C56.216 64.2641 56.3405 64.2449 56.4595 64.2059C56.8836 64.0634 57.3279 63.9919 57.7749 63.9942C58.4209 63.9919 59.0586 64.1403 59.6381 64.4279C59.8371 64.5274 60.0605 64.5668 60.2812 64.5413C60.5019 64.5158 60.7105 64.4265 60.882 64.2841C61.0535 64.1417 61.1805 63.9523 61.2477 63.7387C61.3149 63.5252 61.3194 63.2966 61.2607 63.0806C60.7488 61.1396 59.5102 59.9316 58.0821 59.9316H58.0718Z" fill="black"/>
<path d="M94.5982 16.225C93.5028 16.225 89.8327 16.0495 88.6094 13.7626C88.1999 12.9987 87.9388 11.7288 89.0444 10.0304C89.4465 9.4375 89.9193 8.89659 90.4521 8.41986C90.9582 7.98443 91.3815 7.45964 91.7011 6.87122C91.7727 6.72668 91.829 6.58212 91.8853 6.43759C92.1668 5.73554 92.6428 4.55859 94.2194 4.55859C94.507 4.56062 94.7935 4.5935 95.0742 4.65668C97.1217 5.10062 97.5465 7.02609 97.8383 8.29597V8.36825C98.0789 9.43165 98.2068 9.5607 98.6829 10.0459C99.0156 10.3706 99.3284 10.7154 99.6196 11.0784C100.643 12.3792 100.403 13.4478 100.131 13.9691C99.3892 15.6365 96.7787 16.225 94.5982 16.225Z" fill="#2196F3"/>
<path d="M94.2196 5.61592C94.4333 5.61939 94.646 5.64536 94.8543 5.69337C96.2722 6.0031 96.569 7.42782 96.8352 8.60995C97.2754 10.5406 97.644 10.2825 98.8213 11.7537C100.577 13.9476 97.6542 15.171 94.5984 15.171C91.3122 15.171 87.8725 13.7566 89.92 10.6077C90.7646 9.30167 91.9674 8.7648 92.6431 7.34006C93.0423 6.50379 93.1242 5.61592 94.2196 5.61592ZM94.2196 3.50977C91.9316 3.50977 91.1894 5.35264 90.913 6.04952C90.8567 6.18374 90.8055 6.3128 90.7543 6.41605C90.4909 6.88859 90.144 7.3085 89.7306 7.65497C89.1513 8.19162 88.636 8.79448 88.195 9.45138C86.7362 11.6969 87.2685 13.4314 87.7138 14.2625C88.7375 16.1518 91.2969 17.2823 94.624 17.2823C95.8371 17.2823 99.8911 17.0758 101.14 14.438C101.427 13.8392 101.928 12.2493 100.475 10.4322C100.154 10.0389 99.8119 9.6632 99.4509 9.30686C99.0619 8.91454 99.0516 8.9042 98.8776 8.13505V8.06793C98.5705 6.72062 98.0023 4.21697 95.2946 3.63365C94.9433 3.55454 94.5846 3.51301 94.2247 3.50977H94.2196Z" fill="#263F7E"/>
<path d="M98.821 11.7541C97.6437 10.2829 97.2854 10.541 96.8349 8.61033C96.5687 7.42821 96.2719 6.02929 94.854 5.69375C93.9019 5.48727 93.4668 5.71955 93.1904 6.13769C94.0299 6.69003 94.2756 7.79987 94.4957 8.76003C94.9359 10.6907 95.2993 10.4274 96.4818 11.9038C97.8689 13.6383 96.3282 14.7636 94.1169 15.1611C97.3315 15.3005 100.669 14.0616 98.821 11.7541Z" fill="#034FA9"/>
<path d="M42.9694 11.2043C45.3578 10.32 46.7806 8.1929 46.1473 6.45331C45.514 4.71371 43.0645 4.02037 40.6761 4.90468C38.2877 5.78899 36.8649 7.91608 37.4982 9.65567C38.1315 11.3953 40.5811 12.0886 42.9694 11.2043Z" fill="#2196F3"/>
<path d="M20.0426 29.8428C21.7833 28.8293 22.4863 26.7707 21.6128 25.2448C20.7392 23.719 18.62 23.3037 16.8793 24.3172C15.1387 25.3307 14.4357 27.3893 15.3092 28.9151C16.1827 30.441 18.302 30.8563 20.0426 29.8428Z" fill="#2196F3"/>
<path d="M52.8044 31.3916C54.545 30.3781 55.248 28.3195 54.3745 26.7937C53.5009 25.2678 51.3817 24.8525 49.641 25.866C47.9004 26.8795 47.1974 28.9381 48.0709 30.464C48.9444 31.9898 51.0637 32.4051 52.8044 31.3916Z" fill="#2196F3"/>
<path d="M18.5085 52.04C20.2491 51.0265 20.9521 48.968 20.0786 47.4421C19.205 45.9163 17.0858 45.5009 15.3452 46.5145C13.6045 47.528 12.9015 49.5865 13.775 51.1124C14.6485 52.6382 16.7678 53.0536 18.5085 52.04Z" fill="#2196F3"/>
<path d="M8.27116 73.2041C10.0118 72.1906 10.7148 70.132 9.84127 68.6062C8.96774 67.0803 6.84852 66.665 5.10785 67.6785C3.36717 68.692 2.66419 70.7506 3.53771 72.2765C4.41124 73.8023 6.53049 74.2176 8.27116 73.2041Z" fill="#2196F3"/>
<path d="M33.8639 87.6611C35.6046 86.6476 36.3076 84.5891 35.434 83.0632C34.5605 81.5374 32.4413 81.122 30.7006 82.1356C28.9599 83.1491 28.257 85.2076 29.1305 86.7335C30.004 88.2593 32.1233 88.6746 33.8639 87.6611Z" fill="#2196F3"/>
<path d="M69.1862 88.1748C70.9268 87.1613 71.6298 85.1027 70.7563 83.5769C69.8827 82.051 67.7635 81.6357 66.0229 82.6492C64.2822 83.6628 63.5792 85.7213 64.4527 87.2472C65.3263 88.773 67.4455 89.1883 69.1862 88.1748Z" fill="#2196F3"/>
<path d="M53.8298 107.791C55.5704 106.777 56.2734 104.719 55.3999 103.193C54.5263 101.667 52.4071 101.252 50.6664 102.265C48.9258 103.279 48.2228 105.338 49.0963 106.863C49.9698 108.389 52.0891 108.805 53.8298 107.791Z" fill="#2196F3"/>
<path d="M95.2897 85.5947C97.0304 84.5812 97.7333 82.5227 96.8598 80.9968C95.9863 79.471 93.8671 79.0556 92.1264 80.0692C90.3857 81.0827 89.6827 83.1412 90.5563 84.6671C91.4298 86.1929 93.549 86.6083 95.2897 85.5947Z" fill="#2196F3"/>
<path d="M103.478 60.2979C105.219 59.2843 105.922 57.2258 105.048 55.6999C104.175 54.1741 102.056 53.7588 100.315 54.7723C98.5742 55.7858 97.8712 57.8444 98.7447 59.3702C99.6183 60.8961 101.737 61.3114 103.478 60.2979Z" fill="#2196F3"/>
<path d="M73.1373 8.39674C73.4282 6.79839 72.821 5.34659 71.781 5.15411C70.7411 4.96163 69.6623 6.10135 69.3714 7.6997C69.0805 9.29805 69.6878 10.7498 70.7277 10.9423C71.7676 11.1348 72.8464 9.99509 73.1373 8.39674Z" fill="#2196F3"/>
<path d="M113.035 18.9126C112.436 18.5873 110.476 17.4001 110.476 15.7843C110.476 15.2423 110.706 14.4731 111.806 13.8691C112.199 13.6636 112.615 13.5075 113.045 13.4045C113.45 13.3176 113.835 13.1566 114.181 12.9296L114.407 12.749C114.634 12.4983 114.936 12.3297 115.267 12.2691C115.598 12.2084 115.939 12.2591 116.239 12.4134C116.394 12.4995 116.54 12.6016 116.674 12.718C117.662 13.5698 117.34 14.7519 117.125 15.5314V15.5778C116.975 15.9539 116.975 16.3736 117.125 16.7496C117.21 17.0273 117.279 17.31 117.329 17.5962C117.422 17.9089 117.42 18.2425 117.322 18.5537C117.224 18.8649 117.036 19.1392 116.782 19.341C115.835 20.0121 114.233 19.563 113.035 18.9126Z" fill="#2196F3"/>
<path d="M115.928 12.9919C116.045 13.0551 116.155 13.1313 116.255 13.219C116.941 13.8075 116.685 14.6799 116.486 15.4026C116.168 16.595 116.445 16.5589 116.66 17.7204C116.977 19.4394 115.022 19.2432 113.343 18.3347C111.546 17.359 110.072 15.5626 112.114 14.4476C112.959 13.983 113.768 14.0398 114.561 13.4616C115.027 13.1261 115.329 12.6666 115.928 12.9919ZM116.547 11.8355C116.134 11.6161 115.662 11.5372 115.2 11.6107C114.739 11.6842 114.314 11.9061 113.988 12.2433L113.798 12.3982C113.512 12.5784 113.197 12.706 112.867 12.7751C112.389 12.89 111.926 13.0633 111.49 13.2913C110.036 14.0862 109.821 15.1909 109.821 15.7794C109.821 17.1164 110.906 18.4999 112.724 19.4858C113.389 19.8472 115.672 20.9364 117.126 19.8626C117.479 19.5895 117.745 19.2164 117.888 18.7909C118.031 18.3653 118.045 17.9064 117.929 17.4726C117.872 17.1643 117.798 16.8593 117.709 16.5589C117.654 16.4301 117.626 16.2913 117.626 16.1511C117.626 16.0108 117.654 15.8721 117.709 15.7433V15.702C117.934 14.876 118.354 13.3377 117.049 12.2175C116.881 12.0681 116.698 11.9382 116.501 11.8304L116.547 11.8355Z" fill="#263F7E"/>
<path d="M116.66 17.7215C116.445 16.5601 116.148 16.5962 116.486 15.4037C116.685 14.681 116.941 13.8086 116.255 13.2201C115.79 12.8227 115.488 12.8227 115.232 12.9672C115.534 13.5195 115.344 14.2009 115.186 14.7946C114.858 15.9819 115.134 15.9509 115.355 17.1072C115.605 18.47 114.433 18.6559 113.107 18.1913C114.807 19.2185 116.998 19.5334 116.66 17.7215Z" fill="#034FA9"/>
<path d="M99.7112 29.7287C100.049 28.9131 101.313 26.2288 103.366 26.0171C104.057 25.95 105.065 26.1513 105.971 27.4986C106.281 27.9826 106.532 28.5026 106.719 29.0473C106.88 29.559 107.134 30.0366 107.466 30.4565C107.548 30.5546 107.64 30.6424 107.727 30.7301C108.157 31.1586 108.874 31.871 108.387 33.0531C108.295 33.2653 108.182 33.4677 108.049 33.6571C107.092 35.0405 105.552 34.7721 104.528 34.5966H104.472C103.977 34.4425 103.443 34.4831 102.977 34.7101C102.633 34.8573 102.281 34.9831 101.922 35.0869C100.648 35.4638 99.9415 34.9424 99.6395 34.5707C98.6568 33.4867 99.0407 31.3548 99.7112 29.7287Z" fill="#2196F3"/>
<path d="M107.615 32.7229C107.546 32.8806 107.462 33.0311 107.364 33.172C106.699 34.1321 105.557 33.9153 104.61 33.7501C103.075 33.4817 103.136 33.8379 101.693 34.2663C99.5377 34.9013 99.5427 32.3409 100.485 30.0592C101.508 27.6072 103.597 25.4752 105.281 27.9943C105.972 29.0268 106.002 30.0592 106.816 31.0297C107.328 31.5872 107.932 31.9227 107.594 32.7435L107.615 32.7229ZM109.13 33.3939C109.355 32.8324 109.394 32.2126 109.242 31.6266C109.09 31.0407 108.755 30.52 108.285 30.1418C108.204 30.0592 108.122 29.9818 108.065 29.9147C107.8 29.5687 107.598 29.1769 107.472 28.7584C107.26 28.1555 106.978 27.5801 106.632 27.0445C105.439 25.2636 104.001 25.1242 103.254 25.2016C101.554 25.372 99.9318 26.9516 98.9081 29.4243C98.5344 30.3276 97.4339 33.4197 98.9848 35.1645C99.3771 35.588 99.8853 35.8843 100.445 36.0158C101.005 36.1472 101.59 36.1079 102.128 35.9027C102.514 35.7911 102.893 35.6567 103.264 35.5001C103.674 35.3349 103.679 35.3298 104.288 35.4382H104.339C105.419 35.6292 107.41 35.9544 108.69 34.1476C108.857 33.9102 109 33.6559 109.115 33.3888L109.13 33.3939Z" fill="#263F7E"/>
<path d="M101.692 34.2606C103.135 33.8373 103.054 33.4811 104.61 33.7444C105.557 33.9095 106.698 34.1264 107.363 33.1662C107.809 32.5158 107.768 32.1338 107.548 31.7879C106.887 32.2422 106.012 32.0822 105.224 31.9531C103.688 31.6847 103.75 32.0357 102.301 32.4693C100.602 32.9855 100.254 31.473 100.643 29.6973C99.5473 32.0564 99.4245 34.9265 101.692 34.2606Z" fill="#034FA9"/>
<path d="M47.8897 60.1381C47.8437 70.1217 32.8 70.1165 32.7539 60.1381C32.8 50.1597 47.8437 50.1597 47.8897 60.1381Z" fill="#2196F3"/>
<path d="M82.6973 60.1381C82.6512 70.1217 67.6076 70.1165 67.5615 60.1381C67.6076 50.1597 82.6512 50.1597 82.6973 60.1381Z" fill="#2196F3"/>
<path d="M47.24 59.5136C47.199 67.9589 34.469 67.9589 34.4434 59.5136C34.4178 51.0684 47.199 51.0684 47.24 59.5136Z" fill="black"/>
<path d="M40.0531 56.7828C40.094 59.4567 35.9275 59.4567 35.9582 56.7828C35.9889 54.1088 40.094 54.083 40.0531 56.7828Z" fill="white"/>
<path d="M39.9106 59.8794C39.8888 60.0693 39.7985 60.2446 39.657 60.3718C39.5154 60.499 39.3324 60.5693 39.1428 60.5693C38.9532 60.5693 38.7702 60.499 38.6286 60.3718C38.4871 60.2446 38.3968 60.0693 38.375 59.8794C38.3968 59.6894 38.4871 59.5142 38.6286 59.3869C38.7702 59.2597 38.9532 59.1895 39.1428 59.1895C39.3324 59.1895 39.5154 59.2597 39.657 59.3869C39.7985 59.5142 39.8888 59.6894 39.9106 59.8794Z" fill="white"/>
<path d="M41.3285 57.8153C41.3285 57.944 41.2778 58.0674 41.1876 58.1584C41.0974 58.2494 40.975 58.3006 40.8474 58.3006C40.7198 58.3006 40.5974 58.2494 40.5071 58.1584C40.4169 58.0674 40.3662 57.944 40.3662 57.8153C40.3662 57.6866 40.4169 57.5632 40.5071 57.4722C40.5974 57.3812 40.7198 57.3301 40.8474 57.3301C40.975 57.3301 41.0974 57.3812 41.1876 57.4722C41.2778 57.5632 41.3285 57.6866 41.3285 57.8153Z" fill="white"/>
<path d="M81.0896 59.5136C81.0537 67.9589 68.293 67.9589 68.293 59.5136C68.293 51.0684 81.0537 51.0684 81.0896 59.5136Z" fill="black"/>
<path d="M73.9027 56.7828C73.9436 59.4567 69.7771 59.4567 69.8078 56.7828C69.8385 54.1088 73.9436 54.0881 73.9027 56.7828Z" fill="white"/>
<path d="M73.7602 59.8794C73.7384 60.0693 73.6481 60.2446 73.5066 60.3718C73.365 60.499 73.182 60.5693 72.9924 60.5693C72.8028 60.5693 72.6198 60.499 72.4782 60.3718C72.3367 60.2446 72.2464 60.0693 72.2246 59.8794C72.2464 59.6894 72.3367 59.5142 72.4782 59.3869C72.6198 59.2597 72.8028 59.1895 72.9924 59.1895C73.182 59.1895 73.365 59.2597 73.5066 59.3869C73.6481 59.5142 73.7384 59.6894 73.7602 59.8794Z" fill="white"/>
<path d="M75.1674 57.8153C75.1674 57.944 75.1167 58.0674 75.0265 58.1584C74.9363 58.2494 74.8139 58.3006 74.6863 58.3006C74.5587 58.3006 74.4363 58.2494 74.346 58.1584C74.2558 58.0674 74.2051 57.944 74.2051 57.8153C74.2051 57.6866 74.2558 57.5632 74.346 57.4722C74.4363 57.3812 74.5587 57.3301 74.6863 57.3301C74.8139 57.3301 74.9363 57.3812 75.0265 57.4722C75.1167 57.5632 75.1674 57.6866 75.1674 57.8153Z" fill="white"/>
<path d="M71.2363 52.6166C71.2363 52.6166 76.3549 54.5473 80.1069 50.2988" stroke="black" stroke-width="2.56" stroke-linecap="round" stroke-linejoin="round"/>
<path d="M42.5464 48.4454C42.5464 48.4454 37.4277 46.5096 33.6758 50.7632" stroke="black" stroke-width="2.56" stroke-linecap="round" stroke-linejoin="round"/>
</svg>
