<svg width="26" height="26" viewBox="0 0 26 26" fill="none" xmlns="http://www.w3.org/2000/svg">
<rect x="3.75" y="5.75" width="18.5" height="14.5" stroke="#A5B1C8" stroke-width="1.5"/>
<path d="M6 5L6 0" stroke="#A5B1C8" stroke-width="1.5"/>
<path d="M6 26L6 21" stroke="#A5B1C8" stroke-width="1.5"/>
<path d="M23 8L26 8" stroke="#A5B1C8" stroke-width="1.5"/>
<path d="M-8.9407e-08 8L3 8" stroke="#A5B1C8" stroke-width="1.5"/>
<path d="M13 5L13 0" stroke="#A5B1C8" stroke-width="1.5"/>
<path d="M13 26L13 21" stroke="#A5B1C8" stroke-width="1.5"/>
<path d="M23 13L26 13" stroke="#A5B1C8" stroke-width="1.5"/>
<path d="M-8.9407e-08 13L3 13" stroke="#A5B1C8" stroke-width="1.5"/>
<path d="M20 5L20 0" stroke="#A5B1C8" stroke-width="1.5"/>
<path d="M20 26L20 21" stroke="#A5B1C8" stroke-width="1.5"/>
<path d="M23 18L26 18" stroke="#A5B1C8" stroke-width="1.5"/>
<path d="M-8.9407e-08 18L3 18" stroke="#A5B1C8" stroke-width="1.5"/>
<path d="M7.926 16.084C8.78 16.084 9.487 15.776 9.949 15.209L9.221 14.537C8.892 14.922 8.479 15.118 7.989 15.118C7.072 15.118 6.421 14.474 6.421 13.55C6.421 12.626 7.072 11.982 7.989 11.982C8.479 11.982 8.892 12.178 9.221 12.556L9.949 11.884C9.487 11.324 8.78 11.016 7.933 11.016C6.407 11.016 5.273 12.073 5.273 13.55C5.273 15.027 6.407 16.084 7.926 16.084ZM12.8358 11.1H10.7148V16H11.8488V14.649H12.8358C14.1448 14.649 14.9638 13.97 14.9638 12.878C14.9638 11.779 14.1448 11.1 12.8358 11.1ZM12.7728 13.725H11.8488V12.024H12.7728C13.4658 12.024 13.8158 12.339 13.8158 12.878C13.8158 13.41 13.4658 13.725 12.7728 13.725ZM17.9299 16.084C19.3229 16.084 20.1489 15.286 20.1489 13.844V11.1H19.0289V13.802C19.0289 14.733 18.6299 15.118 17.9369 15.118C17.2509 15.118 16.8449 14.733 16.8449 13.802V11.1H15.7109V13.844C15.7109 15.286 16.5369 16.084 17.9299 16.084Z" fill="#A5B1C8"/>
</svg>
