<svg width="226" height="34" viewBox="0 0 226 34" fill="none" xmlns="http://www.w3.org/2000/svg">
<path d="M20.9639 32.9573H15.1625V21.7423C15.1625 17.2501 14.2877 14.5014 11.0612 14.5014C8.18225 14.5014 6.09747 16.8561 6.09747 21.612V32.9573H0.292969V9.78889H6.09747V12.4507C7.0046 11.4245 8.11895 10.6022 9.36706 10.038C10.6152 9.47384 11.9686 9.18065 13.3383 9.17773C16.2173 9.17773 18.662 10.5304 20.1015 13.3225C22.239 10.6203 24.3765 9.17773 27.8574 9.17773C30.4323 9.17773 32.7436 10.2263 34.0621 11.883C35.5885 13.8033 35.7622 16.3349 35.7622 19.3876V32.9573H29.9608V20.1725C29.9608 16.3783 28.6081 14.5014 25.9897 14.5014C23.0673 14.5014 20.9733 16.7692 20.9733 21.5251L20.9639 32.9573Z" fill="white"/>
<path d="M63.0175 28.462C60.5356 31.9956 57.2595 33.5654 52.3732 33.5654C45.002 33.5654 40.2461 28.158 40.2461 21.3514C40.2461 15.0257 44.8252 9.17773 52.2864 9.17773C59.6172 9.17773 64.5904 14.4145 64.5904 21.7423C64.5904 22.2666 64.5469 22.5303 64.5469 23.0515H45.8738C46.4415 26.4982 49.0568 28.4186 52.3732 28.4186C54.8551 28.4186 56.518 27.7205 58.1312 26.1507L63.0175 28.462ZM58.7424 18.4724C57.9575 15.7671 55.4725 14.1105 52.3732 14.1105C49.4943 14.1105 47.2699 15.55 46.1344 18.4724H58.7424Z" fill="white"/>
<path d="M86.3516 30.5128C84.3009 32.52 82.1168 33.5655 79.1944 33.5655C73.2999 33.5655 68.1562 28.5055 68.1562 21.3949C68.1562 14.154 73.0424 9.17783 79.0641 9.17783C81.8562 9.17783 84.2544 10.2264 86.3516 12.3205V0.841797H92.1529V32.9543H86.3516V30.5128ZM74.0041 21.3515C74.0041 25.3225 76.6226 28.2449 80.243 28.2449C83.8635 28.2449 86.6122 25.5397 86.6122 21.308C86.6122 17.2502 83.9069 14.5015 80.243 14.5015C76.424 14.5015 74.0104 17.5542 74.0104 21.3515H74.0041Z" fill="white"/>
<path d="M103.237 9.78906H97.4355V32.9544H103.237V9.78906Z" fill="white"/>
<path d="M125.618 30.5127C123.567 32.5199 121.386 33.5654 118.464 33.5654C112.57 33.5654 107.426 28.5054 107.426 21.3948C107.426 14.1539 112.312 9.17773 118.331 9.17773C121.123 9.17773 123.524 10.2263 125.618 12.3204V9.78889H131.419V32.9573H125.618V30.5127ZM113.271 21.3514C113.271 25.3224 115.889 28.2448 119.509 28.2448C123.13 28.2448 125.879 25.5396 125.879 21.3079C125.879 17.2501 123.173 14.5014 119.509 14.5014C115.672 14.5014 113.271 17.5541 113.271 21.3514Z" fill="white"/>
<path d="M136.697 0.84375H142.505V32.9563H136.703L136.697 0.84375Z" fill="white"/>
<path d="M164.878 30.5127C162.827 32.5199 160.646 33.5654 157.724 33.5654C151.829 33.5654 146.686 28.5054 146.686 21.3948C146.686 14.1539 151.572 9.17773 157.593 9.17773C160.386 9.17773 162.784 10.2263 164.878 12.3204V9.78889H170.679V32.9573H164.878V30.5127ZM152.53 21.3514C152.53 25.3224 155.149 28.2448 158.769 28.2448C162.39 28.2448 165.138 25.5396 165.138 21.3079C165.138 17.2501 162.436 14.5014 158.769 14.5014C154.932 14.5014 152.53 17.5541 152.53 21.3514Z" fill="white"/>
<path d="M182.33 12.1467C184.555 10.2853 186.605 9.17773 189.177 9.17773C193.499 9.17773 197.119 12.1467 197.119 17.1198V32.9418H191.315V22.0122C191.315 17.43 190.924 14.5076 187.39 14.5076C186.597 14.5043 185.817 14.7084 185.127 15.0997C184.437 15.491 183.861 16.0558 183.456 16.7382C182.278 18.5996 182.324 20.7092 182.324 23.1073V32.9697H176.52V9.78889H182.324L182.33 12.1467Z" fill="white"/>
<path d="M219.845 30.5128C217.794 32.52 215.613 33.5655 212.687 33.5655C206.793 33.5655 201.652 28.5055 201.652 21.3949C201.652 14.154 206.539 9.17783 212.557 9.17783C215.349 9.17783 217.751 10.2264 219.845 12.3205V0.841797H225.646V32.9543H219.845V30.5128ZM207.497 21.3515C207.497 25.3225 210.116 28.2449 213.736 28.2449C217.357 28.2449 220.105 25.5397 220.105 21.308C220.105 17.2502 217.4 14.5015 213.736 14.5015C209.895 14.5015 207.497 17.5542 207.497 21.3515Z" fill="white"/>
<path d="M103.272 0.958984H97.4336V6.79762H103.272V0.958984Z" fill="white"/>
</svg>
