<svg width="22" height="21" viewBox="0 0 22 21" fill="none" xmlns="http://www.w3.org/2000/svg">
<path d="M11.1936 0.279297C5.56254 0.279297 0.902344 4.94812 0.902344 10.5896C0.902344 16.2311 5.56254 20.9 11.1936 20.9C16.8247 20.9 21.4849 16.2311 21.4849 10.5896C21.4849 4.75359 17.0189 0.279297 11.1936 0.279297ZM17.6014 13.3131C17.6014 15.453 15.8538 17.2038 13.7179 17.2038H8.47516C6.33924 17.2038 4.59167 15.453 4.59167 13.3131V8.06068C4.59167 5.9208 6.33924 4.16999 8.47516 4.16999H13.7179C15.8538 4.16999 17.6014 5.9208 17.6014 8.06068V13.3131Z" fill="#A5B1C8"/>
<path d="M10.9995 14.8697C13.2516 14.8697 15.0772 13.0406 15.0772 10.7844C15.0772 8.52824 13.2516 6.69922 10.9995 6.69922C8.74751 6.69922 6.92188 8.52824 6.92188 10.7844C6.92188 13.0406 8.74751 14.8697 10.9995 14.8697Z" fill="#A5B1C8"/>
<path d="M14.8822 7.08753C15.3111 7.08753 15.6589 6.73914 15.6589 6.30939C15.6589 5.87963 15.3111 5.53125 14.8822 5.53125C14.4532 5.53125 14.1055 5.87963 14.1055 6.30939C14.1055 6.73914 14.4532 7.08753 14.8822 7.08753Z" fill="#A5B1C8"/>
</svg>
