<svg width="26" height="27" viewBox="0 0 26 27" fill="none" xmlns="http://www.w3.org/2000/svg">
<rect x="0.75" y="5.78271" width="6.2037" height="2.53226" stroke="#A5B1C8" stroke-width="1.5"/>
<path d="M0 3.41943H7.7037" stroke="#A5B1C8" stroke-width="1.5"/>
<rect x="25.25" y="23.6367" width="6.2037" height="2.53225" transform="rotate(-180 25.25 23.6367)" stroke="#A5B1C8" stroke-width="1.5"/>
<path d="M26 26L18.2963 26" stroke="#A5B1C8" stroke-width="1.5"/>
<path d="M3.85205 8.55028V20.3266C3.85205 22.0827 4.46228 23.907 6.06225 24.6309C7.38222 25.2282 9.05493 25.4818 10.836 24.7227C12.5688 23.9841 13.2474 21.9957 13.2474 20.1121V5.66088C13.2474 3.75539 14.0009 1.77031 15.8337 1.24926C16.7739 0.981983 17.8778 0.891879 19.0749 1.16863C21.1936 1.65847 22.1483 3.95288 22.1483 6.12751V20.6398" stroke="#A5B1C8" stroke-width="1.5"/>
</svg>
