<svg width="15" height="26" viewBox="0 0 15 26" fill="none" xmlns="http://www.w3.org/2000/svg">
<path d="M14.2449 6.9825V6.96437C14.2449 5.33476 13.5487 3.75967 12.2889 2.58927C11.0273 1.41719 9.30521 0.750053 7.49903 0.75L14.2449 6.9825ZM14.2449 6.9825L14.2458 7.0006M14.2449 6.9825L14.2458 7.0006M14.2458 7.0006C14.2941 7.99943 13.9215 9.22402 13.2511 10.5572C12.5885 11.8751 11.675 13.2216 10.7394 14.4407C9.80604 15.6569 8.8635 16.7296 8.15329 17.4991C7.90292 17.7703 7.68193 18.0034 7.50104 18.1911M14.2458 7.0006L7.50104 18.1911M7.50104 18.1911C7.32009 18.0033 7.09901 17.7703 6.84853 17.499C6.13811 16.7295 5.1953 15.6568 4.26162 14.4406C3.32575 13.2216 2.41199 11.875 1.74917 10.5571C1.07865 9.22393 0.705857 7.99938 0.754173 7.0006L0.755049 6.9825V6.96437C0.755049 5.33508 1.45103 3.76028 2.71033 2.58995C3.97145 1.41793 5.69301 0.750568 7.49882 0.75L7.50104 18.1911Z" stroke="#A5B1C8" stroke-width="1.5"/>
<path d="M0 24.074L15 24.074" stroke="#A5B1C8" stroke-width="1.5"/>
<ellipse cx="7.5" cy="23.5927" rx="2.5" ry="2.40741" fill="#A5B1C8"/>
</svg>
