<svg width="292" height="41" viewBox="0 0 292 41" fill="none" xmlns="http://www.w3.org/2000/svg">
<path d="M128.763 9.86133L134.656 26.9556H134.73L140.328 9.86133H148.136V34.6991H142.906V17.0935L136.718 34.6991H132.446L126.258 17.2396H126.185V34.6991H120.955V9.86133H128.763Z" fill="#073F92"/>
<path d="M157.859 30.3893C158.596 31.1199 159.701 31.4851 161.101 31.4851C162.132 31.4851 163.016 31.266 163.753 30.7546C164.489 30.2432 164.931 29.7319 165.078 29.1475H169.498C168.762 31.339 167.73 32.8731 166.257 33.7498C164.784 34.6994 163.016 35.1377 160.953 35.1377C159.48 35.1377 158.228 34.9186 157.049 34.4803C155.871 34.042 154.913 33.3845 154.103 32.5809C153.292 31.7773 152.703 30.7546 152.261 29.5858C151.819 28.4169 151.598 27.175 151.598 25.787C151.598 24.4721 151.819 23.1572 152.261 22.0614C152.703 20.8925 153.366 19.8698 154.176 19.0662C154.987 18.1896 156.018 17.5321 157.123 17.0938C158.301 16.5824 159.554 16.3633 160.953 16.3633C162.5 16.3633 163.9 16.6555 165.005 17.2399C166.183 17.8243 167.141 18.6279 167.878 19.6506C168.614 20.6734 169.13 21.7692 169.498 23.0841C169.793 24.326 169.94 25.714 169.867 27.102H156.681C156.755 28.49 157.123 29.6588 157.859 30.3893ZM163.532 20.8925C162.942 20.2351 161.985 19.9428 160.806 19.9428C159.996 19.9428 159.333 20.089 158.817 20.3081C158.301 20.6003 157.859 20.8925 157.565 21.3308C157.27 21.6961 157.049 22.1344 156.902 22.5727C156.755 23.0111 156.681 23.3763 156.681 23.7416H164.857C164.563 22.4997 164.195 21.55 163.532 20.8925Z" fill="#073F92"/>
<path d="M185.778 32.3615C185.189 33.3111 184.452 34.0417 183.494 34.48C182.537 34.9183 181.432 35.1375 180.253 35.1375C178.854 35.1375 177.675 34.8452 176.644 34.3339C175.612 33.8225 174.728 33.092 174.065 32.2154C173.403 31.3387 172.887 30.316 172.519 29.1472C172.15 27.9783 172.003 26.8095 172.003 25.4945C172.003 24.2527 172.15 23.1569 172.519 21.988C172.887 20.8922 173.403 19.8695 174.065 18.9929C174.728 18.1162 175.612 17.4588 176.57 16.9474C177.601 16.436 178.78 16.1438 180.106 16.1438C181.211 16.1438 182.242 16.363 183.2 16.8013C184.157 17.2396 184.968 17.8971 185.483 18.7737H185.557V9.86133H190.566V34.6991H185.778V32.3615ZM185.557 23.5221C185.41 22.8647 185.189 22.2072 184.82 21.6958C184.452 21.1845 184.01 20.7461 183.494 20.4539C182.979 20.1617 182.242 19.9426 181.432 19.9426C180.621 19.9426 179.885 20.0887 179.369 20.4539C178.78 20.7461 178.338 21.1844 178.043 21.7689C177.675 22.2802 177.454 22.9377 177.307 23.5952C177.159 24.2527 177.086 24.9832 177.086 25.7137C177.086 26.4442 177.159 27.1017 177.307 27.8322C177.454 28.5627 177.749 29.1472 178.117 29.6585C178.485 30.1699 178.927 30.6082 179.517 30.9735C180.106 31.3387 180.769 31.4848 181.505 31.4848C182.316 31.4848 183.052 31.3387 183.568 30.9735C184.157 30.6813 184.599 30.2429 184.894 29.6585C185.189 29.1472 185.483 28.4897 185.631 27.8322C185.778 27.1017 185.852 26.4442 185.852 25.6406C185.778 24.9101 185.704 24.1796 185.557 23.5221Z" fill="#073F92"/>
<path d="M194.544 13.88V9.78906H199.553V13.88H194.544ZM199.553 16.656V34.6269H194.544V16.656H199.553Z" fill="#073F92"/>
<path d="M203.31 22.2079C203.383 21.039 203.678 20.0894 204.194 19.2858C204.709 18.5553 205.372 17.8978 206.183 17.4595C206.993 17.0212 207.877 16.6559 208.908 16.4367C209.939 16.2176 210.897 16.1445 211.928 16.1445C212.812 16.1445 213.77 16.2176 214.727 16.3637C215.685 16.5098 216.495 16.7289 217.306 17.0942C218.116 17.4595 218.705 17.9708 219.221 18.6283C219.737 19.2858 219.958 20.1624 219.958 21.2582V30.682C219.958 31.4855 220.031 32.2891 220.105 33.0196C220.178 33.7502 220.399 34.3346 220.62 34.6998H215.538C215.464 34.4076 215.39 34.1154 215.317 33.8232C215.243 33.531 215.243 33.2388 215.169 32.9466C214.359 33.7502 213.401 34.3346 212.37 34.6268C211.265 34.919 210.16 35.1382 209.055 35.1382C208.171 35.1382 207.361 35.0651 206.624 34.8459C205.888 34.6268 205.225 34.3346 204.636 33.8963C204.046 33.4579 203.604 32.8735 203.31 32.2161C203.015 31.5586 202.868 30.755 202.868 29.8053C202.868 28.7826 203.015 27.979 203.383 27.2485C203.752 26.591 204.194 26.0797 204.783 25.6413C205.372 25.2761 206.035 24.9839 206.772 24.7647C207.508 24.5456 208.245 24.3995 208.982 24.3264C209.718 24.1803 210.455 24.1072 211.192 24.0342C211.928 23.9611 212.591 23.8881 213.107 23.742C213.696 23.5959 214.138 23.3767 214.433 23.1576C214.727 22.8654 214.948 22.5001 214.875 21.9887C214.875 21.4774 214.801 21.039 214.58 20.7468C214.433 20.4546 214.138 20.1624 213.843 20.0163C213.549 19.8702 213.181 19.7241 212.812 19.651C212.444 19.578 212.002 19.578 211.56 19.578C210.602 19.578 209.792 19.7972 209.203 20.2355C208.613 20.6738 208.319 21.3313 208.245 22.354H203.31V22.2079ZM214.948 25.8605C214.727 26.0797 214.506 26.2258 214.138 26.2988C213.843 26.3719 213.475 26.518 213.107 26.591C212.739 26.6641 212.37 26.7371 211.928 26.7371C211.56 26.8102 211.118 26.8102 210.75 26.8832C210.381 26.9563 210.013 27.0293 209.645 27.1754C209.276 27.3215 208.982 27.4677 208.687 27.6138C208.392 27.8329 208.171 28.0521 208.024 28.3443C207.877 28.6365 207.803 29.0018 207.803 29.5131C207.803 29.9514 207.877 30.3167 208.024 30.6089C208.171 30.9011 208.392 31.1203 208.687 31.3394C208.982 31.4855 209.276 31.6316 209.645 31.7047C210.013 31.7777 210.381 31.7777 210.823 31.7777C211.781 31.7777 212.591 31.6316 213.107 31.2664C213.622 30.9742 214.064 30.5359 214.285 30.0975C214.58 29.6592 214.727 29.2209 214.727 28.7095C214.801 28.2712 214.801 27.906 214.801 27.6138V25.8605H214.948Z" fill="#073F92"/>
<path d="M229.018 9.86133V34.6991H224.009V9.86133H229.018Z" fill="#073F92"/>
<path d="M232.775 22.2079C232.849 21.039 233.143 20.0894 233.659 19.2858C234.175 18.5553 234.838 17.8978 235.648 17.4595C236.458 17.0212 237.342 16.6559 238.373 16.4367C239.405 16.2176 240.362 16.1445 241.394 16.1445C242.278 16.1445 243.235 16.2176 244.193 16.3637C245.15 16.5098 245.961 16.7289 246.771 17.0942C247.581 17.4595 248.171 17.9708 248.686 18.6283C249.202 19.2858 249.423 20.1624 249.423 21.2582V30.682C249.423 31.4855 249.496 32.2891 249.57 33.0196C249.644 33.7502 249.865 34.3346 250.086 34.6998H245.003C244.929 34.4076 244.856 34.1154 244.782 33.8232C244.708 33.531 244.708 33.2388 244.635 32.9466C243.824 33.7502 242.867 34.3346 241.836 34.6268C240.731 34.919 239.626 35.1382 238.521 35.1382C237.637 35.1382 236.826 35.0651 236.09 34.8459C235.353 34.6268 234.69 34.3346 234.101 33.8963C233.512 33.4579 233.07 32.8735 232.775 32.2161C232.48 31.5586 232.333 30.755 232.333 29.8053C232.333 28.7826 232.48 27.979 232.849 27.2485C233.217 26.591 233.659 26.0797 234.248 25.6413C234.838 25.2761 235.501 24.9839 236.237 24.7647C236.974 24.5456 237.71 24.3995 238.447 24.3264C239.184 24.1803 239.92 24.1072 240.657 24.0342C241.394 23.9611 242.057 23.8881 242.572 23.742C243.161 23.5959 243.603 23.3767 243.898 23.1576C244.193 22.8654 244.414 22.5001 244.34 21.9887C244.34 21.4774 244.266 21.039 244.045 20.7468C243.898 20.4546 243.603 20.1624 243.309 20.0163C243.014 19.8702 242.646 19.7241 242.278 19.651C241.909 19.578 241.467 19.578 241.025 19.578C240.068 19.578 239.257 19.7972 238.668 20.2355C238.079 20.6738 237.784 21.3313 237.71 22.354H232.775V22.2079ZM244.34 25.8605C244.119 26.0797 243.898 26.2258 243.53 26.2988C243.235 26.3719 242.867 26.518 242.499 26.591C242.13 26.6641 241.762 26.7371 241.32 26.7371C240.952 26.8102 240.51 26.8102 240.141 26.8832C239.773 26.9563 239.405 27.0293 239.036 27.1754C238.668 27.3215 238.373 27.4677 238.079 27.6138C237.784 27.8329 237.563 28.0521 237.416 28.3443C237.268 28.6365 237.195 29.0018 237.195 29.5131C237.195 29.9514 237.268 30.3167 237.416 30.6089C237.563 30.9011 237.784 31.1203 238.079 31.3394C238.373 31.4855 238.668 31.6316 239.036 31.7047C239.405 31.7777 239.773 31.7777 240.215 31.7777C241.173 31.7777 241.983 31.6316 242.499 31.2664C243.014 30.9742 243.456 30.5359 243.677 30.0975C243.972 29.6592 244.119 29.2209 244.119 28.7095C244.193 28.2712 244.193 27.906 244.193 27.6138V25.8605H244.34Z" fill="#073F92"/>
<path d="M258.042 16.6559V19.1397H258.115C258.778 18.1169 259.588 17.3134 260.62 16.8751C261.651 16.3637 262.682 16.1445 263.714 16.1445C265.04 16.1445 266.145 16.2906 267.028 16.6559C267.912 17.0212 268.575 17.5325 269.091 18.1169C269.607 18.7744 269.901 19.5049 270.122 20.4546C270.343 21.4043 270.417 22.354 270.417 23.5228V34.5537H265.408V24.5456C265.408 23.0845 265.187 21.9887 264.671 21.2582C264.229 20.5277 263.345 20.1624 262.167 20.1624C260.767 20.1624 259.809 20.5277 259.22 21.3313C258.631 22.1348 258.336 23.4498 258.336 25.2761V34.6998H253.327V16.6559H258.042Z" fill="#073F92"/>
<path d="M287.212 32.3615C286.623 33.3111 285.886 34.0417 284.928 34.48C283.971 34.9183 282.866 35.1375 281.687 35.1375C280.288 35.1375 279.109 34.8452 278.078 34.3339C277.046 33.8225 276.163 33.092 275.5 32.2154C274.837 31.3387 274.321 30.316 273.953 29.1472C273.584 27.9783 273.437 26.8095 273.437 25.4945C273.437 24.2527 273.584 23.1569 273.953 21.988C274.321 20.8922 274.837 19.8695 275.5 18.9929C276.163 18.1162 277.046 17.4588 278.004 16.9474C279.035 16.436 280.214 16.1438 281.54 16.1438C282.645 16.1438 283.676 16.363 284.634 16.8013C285.591 17.2396 286.402 17.8971 286.917 18.7737H286.991V9.86133H292V34.6991H287.286L287.212 32.3615ZM286.991 23.5221C286.844 22.8647 286.623 22.2072 286.254 21.6958C285.886 21.1845 285.444 20.7461 284.928 20.4539C284.413 20.1617 283.676 19.9426 282.866 19.9426C282.056 19.9426 281.319 20.0887 280.803 20.4539C280.214 20.7461 279.772 21.1844 279.477 21.7689C279.109 22.2802 278.888 22.9377 278.741 23.5952C278.593 24.2527 278.52 24.9832 278.52 25.7137C278.52 26.4442 278.593 27.1017 278.741 27.8322C278.888 28.5627 279.183 29.1472 279.551 29.6585C279.919 30.1699 280.361 30.6082 280.951 30.9735C281.54 31.3387 282.203 31.4848 282.94 31.4848C283.75 31.4848 284.486 31.3387 285.002 30.9735C285.591 30.6813 286.033 30.2429 286.328 29.6585C286.623 29.1472 286.917 28.4897 287.065 27.8322C287.212 27.1017 287.286 26.4442 287.286 25.6406C287.212 24.9101 287.138 24.1796 286.991 23.5221Z" fill="#073F92"/>
<path d="M78.3773 0H69.7587L55.8364 40.9093H64.3813L78.3773 0Z" fill="#073F92"/>
<path d="M78.3773 0H69.7587L55.8364 40.9093H64.3813L78.3773 0Z" fill="#073F92"/>
<path d="M69.7588 0H78.3774L92.2997 40.9093H83.7548L69.7588 0Z" fill="#073F92"/>
<path d="M22.5409 0H13.9223L0 40.9093H8.61857L22.5409 0Z" fill="#073F92"/>
<path d="M50.4593 0H41.8408L27.9185 40.9093H36.4634L50.4593 0Z" fill="#073F92"/>
<path d="M13.9224 0H22.5409L36.4632 40.9093H27.9183L13.9224 0Z" fill="#073F92"/>
<path d="M41.8403 0H50.4589L64.3812 40.9093H55.8363L41.8403 0Z" fill="#073F92"/>
</svg>
