<svg width="191" height="28" viewBox="0 0 191 28" fill="none" xmlns="http://www.w3.org/2000/svg">
<path d="M17.8125 27.1928H12.9038V17.7034C12.9038 13.9025 12.1635 11.5767 9.43357 11.5767C6.99758 11.5767 5.2336 13.5691 5.2336 17.5932V27.1928H0.322266V7.58938H5.2336V9.84163C6.00114 8.97331 6.94403 8.27751 8.00008 7.80016C9.05614 7.32281 10.2013 7.07473 11.3603 7.07227C13.7962 7.07227 15.8647 8.21675 17.0827 10.5792C18.8913 8.29288 20.7 7.07227 23.6452 7.07227C25.8239 7.07227 27.7795 7.9595 28.8952 9.36124C30.1866 10.9861 30.3336 13.1281 30.3336 15.7111V27.1928H25.4249V16.3752C25.4249 13.1648 24.2804 11.5767 22.0649 11.5767C19.5922 11.5767 17.8204 13.4956 17.8204 17.5197L17.8125 27.1928Z" fill="#034FA9"/>
<path d="M53.3953 23.3892C51.2954 26.379 48.5234 27.7072 44.389 27.7072C38.1521 27.7072 34.1279 23.1319 34.1279 17.3727C34.1279 12.0204 38.0024 7.07227 44.3155 7.07227C50.5183 7.07227 54.7262 11.5032 54.7262 17.7034C54.7262 18.1471 54.6894 18.3702 54.6894 18.8112H38.8897C39.3701 21.7275 41.5829 23.3524 44.389 23.3524C46.489 23.3524 47.896 22.7618 49.261 21.4335L53.3953 23.3892ZM49.7781 14.9367C49.114 12.6477 47.0114 11.246 44.389 11.246C41.953 11.246 40.0709 12.464 39.1102 14.9367H49.7781Z" fill="#034FA9"/>
<path d="M73.1387 25.1249C71.4035 26.8232 69.5555 27.7078 67.0828 27.7078C62.0953 27.7078 57.7432 23.4265 57.7432 17.41C57.7432 11.2833 61.8775 7.07286 66.9726 7.07286C69.3351 7.07286 71.3642 7.9601 73.1387 9.73197V0.0195312H78.0474V27.1907H73.1387V25.1249ZM62.6912 17.3733C62.6912 20.7333 64.9067 23.206 67.9701 23.206C71.0334 23.206 73.3592 20.917 73.3592 17.3365C73.3592 13.9031 71.0702 11.5773 67.9701 11.5773C64.7387 11.5773 62.6965 14.1603 62.6965 17.3733H62.6912Z" fill="#034FA9"/>
<path d="M87.4263 7.58984H82.5176V27.1906H87.4263V7.58984Z" fill="#034FA9"/>
<path d="M106.364 25.1243C104.629 26.8226 102.783 27.7072 100.31 27.7072C95.3229 27.7072 90.9707 23.4259 90.9707 17.4094C90.9707 11.2827 95.1051 7.07227 100.198 7.07227C102.56 7.07227 104.592 7.95951 106.364 9.73137V7.58938H111.272V27.1928H106.364V25.1243ZM95.9162 17.3727C95.9162 20.7327 98.1316 23.2054 101.195 23.2054C104.258 23.2054 106.584 20.9164 106.584 17.3359C106.584 13.9025 104.295 11.5767 101.195 11.5767C97.9479 11.5767 95.9162 14.1597 95.9162 17.3727Z" fill="#034FA9"/>
<path d="M115.737 0.0214844H120.651V27.1927H115.743L115.737 0.0214844Z" fill="#034FA9"/>
<path d="M139.582 25.1243C137.847 26.8226 136.002 27.7072 133.529 27.7072C128.542 27.7072 124.189 23.4259 124.189 17.4094C124.189 11.2827 128.324 7.07227 133.419 7.07227C135.781 7.07227 137.811 7.95951 139.582 9.73137V7.58938H144.491V27.1928H139.582V25.1243ZM129.135 17.3727C129.135 20.7327 131.35 23.2054 134.414 23.2054C137.477 23.2054 139.803 20.9164 139.803 17.3359C139.803 13.9025 137.516 11.5767 134.414 11.5767C131.167 11.5767 129.135 14.1597 129.135 17.3727Z" fill="#034FA9"/>
<path d="M154.348 9.58436C156.23 8.00937 157.965 7.07227 160.142 7.07227C163.798 7.07227 166.862 9.58437 166.862 13.7922V27.1796H161.95V17.9318C161.95 14.0547 161.619 11.582 158.63 11.582C157.958 11.5792 157.298 11.7519 156.714 12.083C156.131 12.4141 155.643 12.892 155.301 13.4693C154.304 15.0443 154.343 16.8293 154.343 18.8584V27.2032H149.432V7.58938H154.343L154.348 9.58436Z" fill="#034FA9"/>
<path d="M186.091 25.1249C184.356 26.8232 182.511 27.7078 180.035 27.7078C175.048 27.7078 170.698 23.4265 170.698 17.41C170.698 11.2833 174.833 7.07286 179.925 7.07286C182.288 7.07286 184.319 7.9601 186.091 9.73197V0.0195312H191V27.1907H186.091V25.1249ZM175.644 17.3733C175.644 20.7333 177.859 23.206 180.923 23.206C183.986 23.206 186.312 20.917 186.312 17.3365C186.312 13.9031 184.023 11.5773 180.923 11.5773C177.673 11.5773 175.644 14.1603 175.644 17.3733Z" fill="#034FA9"/>
<path d="M87.4549 0.119141H82.5146V5.05936H87.4549V0.119141Z" fill="#034FA9"/>
</svg>
