<svg width="50" height="50" viewBox="0 0 50 50" fill="none" xmlns="http://www.w3.org/2000/svg">
<rect width="49.4889" height="49.4889" rx="3" fill="#034FA9"/>
<path d="M25.9944 12.66C25.3054 11.8247 24.1289 11.3118 22.8438 11.3118C21.433 11.3118 20.3925 11.7612 19.3762 12.8421C19.0263 12.3561 18.5575 11.9618 18.0118 11.6947C17.4662 11.4276 16.8607 11.2961 16.2497 11.3118C15.2199 11.3067 14.2167 11.6289 13.3936 12.229V11.5808H9.89844V22.6073H13.3936V17.2043C13.3936 15.4801 14.0602 14.4911 15.2213 14.4911C16.0826 14.4911 16.651 14.9622 16.651 17.2611V22.6073H20.1462V17.1709C20.1462 15.4701 20.8197 14.4978 21.9928 14.4978C22.3683 14.4978 23.3709 14.4978 23.3709 16.5778V22.6223H26.8661V16.232C26.8592 14.9038 26.7937 13.6357 25.9944 12.66Z" fill="white"/>
<path d="M36.2284 7.07031V11.7299C35.424 11.1287 34.4537 10.8079 33.4593 10.8144C30.5062 10.8144 28.2793 13.3565 28.2793 16.7272C28.2793 20.0331 30.5791 22.6229 33.5157 22.6229C34.4894 22.6447 35.443 22.3355 36.2284 21.7432V22.3484H39.591V7.07031H36.2284ZM36.3411 16.688C36.3411 18.2719 35.3678 19.3784 33.9733 19.3784C32.6352 19.3784 31.6619 18.2548 31.6619 16.7084C31.6619 15.162 32.612 14.0572 33.9733 14.0572C35.3678 14.0606 36.3411 15.1364 36.3411 16.6845V16.688Z" fill="white"/>
<path d="M14.1403 25.4512H9.89844V39.5909H14.1403V25.4512Z" fill="white"/>
<path d="M23.5011 25.4512V29.6872C22.6978 29.14 21.7277 28.8482 20.7337 28.8549C17.7806 28.8549 15.5537 31.1659 15.5537 34.2301C15.5537 37.2355 17.8535 39.5899 20.7901 39.5899C21.7633 39.6097 22.7164 39.3286 23.5011 38.7901V39.3403H26.8655V25.4512H23.5011ZM21.2477 36.6403C19.908 36.6403 18.9363 35.6189 18.9363 34.2131C18.9363 32.8073 19.8864 31.8029 21.2477 31.8029C22.6422 31.8029 23.6155 32.7871 23.6155 34.1945C23.6155 35.6344 22.6422 36.6403 21.2477 36.6403Z" fill="white"/>
<path d="M39.5905 35.3496H35.3486V39.5915H39.5905V35.3496Z" fill="white"/>
</svg>
