<svg width="59" height="59" viewBox="0 0 59 59" fill="none" xmlns="http://www.w3.org/2000/svg">
<rect width="58.4889" height="58.4889" rx="3" fill="white"/>
<path d="M30.7214 14.9631C29.9071 13.9758 28.5166 13.3697 26.9978 13.3697C25.3304 13.3697 24.1008 13.9008 22.8996 15.1783C22.4861 14.6038 21.9321 14.1379 21.2871 13.8222C20.6422 13.5065 19.9266 13.351 19.2045 13.3697C17.9875 13.3636 16.8019 13.7444 15.829 14.4537V13.6876H11.6982V26.7193H15.829V20.3337C15.829 18.296 16.6169 17.1271 17.9891 17.1271C19.007 17.1271 19.6789 17.684 19.6789 20.4009V26.7193H23.8096V20.2942C23.8096 18.2842 24.6057 17.135 25.9921 17.135C26.4359 17.135 27.6208 17.135 27.6208 19.5933V26.7371H31.7516V19.1846C31.7434 17.6148 31.6661 16.1162 30.7214 14.9631Z" fill="#034FA9"/>
<path d="M42.8165 8.35547V13.8625C41.8659 13.152 40.7191 12.7728 39.5439 12.7804C36.0537 12.7804 33.4219 15.7848 33.4219 19.7685C33.4219 23.6756 36.1399 26.7364 39.6105 26.7364C40.7614 26.7622 41.8883 26.3967 42.8165 25.6967V26.412H46.7908V8.35547H42.8165ZM42.9498 19.7222C42.9498 21.5941 41.7995 22.9018 40.1514 22.9018C38.5699 22.9018 37.4196 21.574 37.4196 19.7464C37.4196 17.9187 38.5425 16.613 40.1514 16.613C41.7995 16.617 42.9498 17.8885 42.9498 19.7181V19.7222Z" fill="#034FA9"/>
<path d="M16.7116 30.0801H11.6982V46.7912H16.7116V30.0801Z" fill="#034FA9"/>
<path d="M27.7746 30.0801V35.0865C26.8251 34.4397 25.6786 34.0949 24.5039 34.1028C21.0137 34.1028 18.3818 36.834 18.3818 40.4556C18.3818 44.0075 21.0999 46.79 24.5705 46.79C25.7207 46.8135 26.8471 46.4812 27.7746 45.8448V46.4951H31.7507V30.0801H27.7746ZM25.1114 43.3041C23.5279 43.3041 22.3796 42.0969 22.3796 40.4354C22.3796 38.7739 23.5025 37.5869 25.1114 37.5869C26.7594 37.5869 27.9098 38.7501 27.9098 40.4134C27.9098 42.1152 26.7594 43.3041 25.1114 43.3041Z" fill="#034FA9"/>
<path d="M46.7907 41.7773H41.7773V46.7907H46.7907V41.7773Z" fill="#034FA9"/>
</svg>
