<svg width="59" height="59" viewBox="0 0 59 59" fill="none" xmlns="http://www.w3.org/2000/svg">
<rect width="58.4889" height="58.4889" rx="3" fill="white"/>
<path d="M30.7218 14.9631C29.9074 13.9758 28.517 13.3697 26.9982 13.3697C25.3308 13.3697 24.1011 13.9008 22.9 15.1783C22.4865 14.6038 21.9324 14.1379 21.2875 13.8222C20.6426 13.5065 19.927 13.351 19.2049 13.3697C17.9878 13.3636 16.8022 13.7444 15.8294 14.4537V13.6876H11.6986V26.7193H15.8294V20.3337C15.8294 18.296 16.6173 17.1271 17.9895 17.1271C19.0074 17.1271 19.6792 17.684 19.6792 20.4009V26.7193H23.81V20.2942C23.81 18.2842 24.606 17.135 25.9925 17.135C26.4363 17.135 27.6212 17.135 27.6212 19.5933V26.7371H31.752V19.1846C31.7438 17.6148 31.6664 16.1162 30.7218 14.9631Z" fill="#034FA9"/>
<path d="M42.8168 8.35547V13.8625C41.8662 13.152 40.7194 12.7728 39.5441 12.7804C36.054 12.7804 33.4221 15.7848 33.4221 19.7685C33.4221 23.6756 36.1402 26.7364 39.6108 26.7364C40.7616 26.7622 41.8886 26.3967 42.8168 25.6967V26.412H46.791V8.35547H42.8168ZM42.9501 19.7222C42.9501 21.5941 41.7997 22.9018 40.1516 22.9018C38.5702 22.9018 37.4198 21.574 37.4198 19.7464C37.4198 17.9187 38.5427 16.613 40.1516 16.613C41.7997 16.617 42.9501 17.8885 42.9501 19.7181V19.7222Z" fill="#034FA9"/>
<path d="M16.7119 30.0801H11.6986V46.7912H16.7119V30.0801Z" fill="#034FA9"/>
<path d="M27.7751 30.0801V35.0865C26.8256 34.4397 25.6791 34.0949 24.5043 34.1028C21.0142 34.1028 18.3823 36.834 18.3823 40.4556C18.3823 44.0075 21.1004 46.79 24.571 46.79C25.7212 46.8135 26.8476 46.4812 27.7751 45.8448V46.4951H31.7512V30.0801H27.7751ZM25.1118 43.3041C23.5284 43.3041 22.3801 42.0969 22.3801 40.4354C22.3801 38.7739 23.5029 37.5869 25.1118 37.5869C26.7599 37.5869 27.9103 38.7501 27.9103 40.4134C27.9103 42.1152 26.7599 43.3041 25.1118 43.3041V43.3041Z" fill="#034FA9"/>
<path d="M46.7904 41.7773H41.7771V46.7907H46.7904V41.7773Z" fill="#034FA9"/>
</svg>
