<svg width="23" height="23" viewBox="0 0 23 23" fill="none" xmlns="http://www.w3.org/2000/svg">
<circle cx="11.5" cy="11.5" r="10.75" stroke="#0073CF" stroke-width="1.5"/>
<path d="M10.3721 13.9443C10.3721 13.3063 10.4495 12.7982 10.6045 12.4199C10.7594 12.0417 11.042 11.6702 11.4521 11.3057C11.8669 10.9365 12.1426 10.638 12.2793 10.4102C12.416 10.1777 12.4844 9.93392 12.4844 9.67871C12.4844 8.90853 12.1289 8.52344 11.418 8.52344C11.0807 8.52344 10.8096 8.62826 10.6045 8.83789C10.404 9.04297 10.2992 9.3278 10.29 9.69238H8.30762C8.31673 8.82194 8.59701 8.14062 9.14844 7.64844C9.70443 7.15625 10.4609 6.91016 11.418 6.91016C12.3841 6.91016 13.1338 7.14486 13.667 7.61426C14.2002 8.0791 14.4668 8.73763 14.4668 9.58984C14.4668 9.97721 14.3802 10.3441 14.207 10.6904C14.0339 11.0322 13.7308 11.4128 13.2979 11.832L12.7441 12.3584C12.3978 12.6911 12.1995 13.0807 12.1494 13.5273L12.1221 13.9443H10.3721ZM10.1738 16.043C10.1738 15.7376 10.2764 15.487 10.4814 15.291C10.6911 15.0905 10.9577 14.9902 11.2812 14.9902C11.6048 14.9902 11.8691 15.0905 12.0742 15.291C12.2839 15.487 12.3887 15.7376 12.3887 16.043C12.3887 16.3438 12.2861 16.5921 12.0811 16.7881C11.8805 16.984 11.6139 17.082 11.2812 17.082C10.9486 17.082 10.6797 16.984 10.4746 16.7881C10.2741 16.5921 10.1738 16.3438 10.1738 16.043Z" fill="#0073CF"/>
</svg>
