<svg width="20" height="26" viewBox="0 0 20 26" fill="none" xmlns="http://www.w3.org/2000/svg">
<rect x="0.75" y="6.75" width="18.5" height="12.5" stroke="#A5B1C8" stroke-width="1.5"/>
<path d="M3 7L3 0" stroke="#A5B1C8" stroke-width="1.5"/>
<path d="M3 26L3 19" stroke="#A5B1C8" stroke-width="1.5"/>
<path d="M10 7L10 0" stroke="#A5B1C8" stroke-width="1.5"/>
<path d="M10 26L10 19" stroke="#A5B1C8" stroke-width="1.5"/>
<path d="M17 7L17 0" stroke="#A5B1C8" stroke-width="1.5"/>
<path d="M17 26L17 19" stroke="#A5B1C8" stroke-width="1.5"/>
<path d="M6.5695 16L5.549 14.5375C6.1405 14.284 6.485 13.7835 6.485 13.101C6.485 12.0805 5.7245 11.45 4.509 11.45H2.5395V16H3.5925V14.7325H4.509H4.561L5.4385 16H6.5695ZM5.419 13.101C5.419 13.595 5.094 13.894 4.4505 13.894H3.5925V12.308H4.4505C5.094 12.308 5.419 12.6005 5.419 13.101ZM10.7188 16H11.8238L9.78929 11.45H8.74929L6.72129 16H7.80029L8.20329 15.025H10.3158L10.7188 16ZM8.54129 14.2255L9.26279 12.4835L9.98429 14.2255H8.54129ZM17.4243 16L17.4113 11.45H16.5468L14.8698 14.2775L13.1668 11.45H12.2958V16H13.2838V13.3285L14.6163 15.519H15.0908L16.4298 13.27L16.4363 16H17.4243Z" fill="#A5B1C8"/>
</svg>
