<svg width="19" height="19" viewBox="0 0 19 19" fill="none" xmlns="http://www.w3.org/2000/svg">
<path d="M9.67975 0.251953C4.63121 0.251953 0.359375 4.33718 0.359375 9.58961C0.359375 14.6475 4.43703 18.9273 9.67975 18.9273C14.9225 18.9273 19.0001 14.842 19.0001 9.58961C19.0001 4.53171 14.7283 0.251953 9.67975 0.251953ZM13.9516 5.11531L12.204 14.6475C12.204 14.6475 12.204 14.842 12.0099 14.842C12.0099 14.842 12.0099 14.842 11.8157 14.842H11.6215L8.90306 12.7022L7.54383 13.8694H7.34966L7.15549 13.6748L6.18461 10.5623L3.46617 9.20054C3.27199 9.20054 3.27199 9.006 3.27199 9.006C3.27199 8.81147 3.27199 8.81147 3.46617 8.81147L13.5632 4.92078H13.7574C13.9516 4.92078 13.9516 4.92078 13.9516 5.11531Z" fill="#A5B1C8"/>
</svg>
