<svg width="24" height="20" viewBox="0 0 24 20" fill="none" xmlns="http://www.w3.org/2000/svg">
<path d="M23.0868 3.00316C22.3101 3.39223 21.3392 3.58676 20.3683 3.7813C21.3392 3.19769 22.1159 2.22502 22.5042 1.25235C21.5334 1.83595 20.5625 2.22502 19.5916 2.41956C18.8149 1.44688 17.4557 0.863281 16.0965 0.863281C13.5722 0.863281 11.4363 3.00316 11.4363 5.53211C11.4363 5.92118 11.4363 6.31025 11.6305 6.50478C7.74696 6.31025 4.25181 4.3649 1.92172 1.64142C1.53337 2.41956 1.33919 3.19769 1.33919 3.97583C1.33919 5.53211 2.1159 7.08838 3.47512 7.86652C2.69842 7.86652 1.92172 7.67199 1.33919 7.28292C1.33919 7.86652 1.53337 8.45013 1.72755 9.03373C2.31007 10.59 3.66929 11.5627 5.22269 11.9517C4.83434 12.1463 4.44599 12.1463 4.05764 12.1463C3.66929 12.1463 3.47512 12.1463 3.08677 12.1463C3.66929 14.0916 5.41686 15.2588 7.55279 15.4534C5.99939 16.6206 3.86347 17.3987 1.72755 17.3987C1.3392 17.3987 0.950849 17.3987 0.5625 17.3987C2.69842 18.7605 5.22269 19.5386 7.74696 19.5386C15.1256 19.5386 19.5916 14.4807 20.9508 9.03373C21.145 8.06106 21.3392 7.08838 21.3392 6.31025C21.3392 6.11571 21.3392 5.92118 21.3392 5.72664C21.7275 4.75397 22.5042 3.97583 23.0868 3.00316Z" fill="#A5B1C8"/>
</svg>
