<svg width="30" height="30" viewBox="0 0 30 30" fill="none" xmlns="http://www.w3.org/2000/svg">
<mask id="mask0_401:32169" style="mask-type:alpha" maskUnits="userSpaceOnUse" x="0" y="0" width="30" height="30">
<circle cx="15" cy="15" r="15" fill="#0065BF"/>
</mask>
<g mask="url(#mask0_401:32169)">
<path d="M21.6388 20.2402C20.2353 22.3752 17.8123 23.7809 15.0582 23.7809C12.3042 23.7809 9.89437 22.3752 8.47762 20.2402C4.5584 22.5078 1.91027 26.738 1.88379 31.6047H28.2326C28.2062 26.738 25.558 22.5078 21.6388 20.2402Z" fill="#0065BF"/>
<path d="M15.0585 22.7195C19.117 22.7195 22.4071 19.4244 22.4071 15.3597C22.4071 11.2951 19.117 8 15.0585 8C11 8 7.70996 11.2951 7.70996 15.3597C7.70996 19.4244 11 22.7195 15.0585 22.7195Z" fill="#0065BF"/>
</g>
</svg>
