<svg width="360" height="390" viewBox="0 0 360 390" fill="none" xmlns="http://www.w3.org/2000/svg">
<mask id="mask3" mask-type="alpha" maskUnits="userSpaceOnUse" x="0" y="0" width="360" height="390">
<rect width="360" height="390" rx="5" fill="url(#paint0_linear)"/>
</mask>
<g mask="url(#mask3)">
<mask id="mask1" mask-type="alpha" maskUnits="userSpaceOnUse" x="0" y="0" width="360" height="390">
<rect width="360" height="390" rx="5" fill="url(#paint1_linear)"/>
</mask>
<g mask="url(#mask1)">
<g opacity="0.7">
<path d="M233.97 182.031C241.688 186.48 241.688 193.675 234.1 198.123L134.148 256.211C126.56 260.659 114.131 260.659 106.412 256.211L5.80559 198.123C-1.91325 193.675 -1.91325 186.48 5.67477 182.031L105.627 123.944C113.215 119.496 125.644 119.496 133.363 123.944L233.97 182.031Z" stroke="#AFBAD4" stroke-miterlimit="10"/>
<g opacity="0.6">
<path opacity="0.6" d="M233.97 206.758C241.688 211.206 241.688 218.402 234.1 222.85L134.148 280.937C126.56 285.386 114.131 285.386 106.412 280.937L5.80559 222.85C-1.91325 218.402 -1.91325 211.206 5.67477 206.758L105.627 148.67C113.215 144.222 125.644 144.222 133.363 148.67L233.97 206.758Z" stroke="#AFBAD4" stroke-miterlimit="10"/>
</g>
<g opacity="0.3">
<path opacity="0.3" d="M233.97 231.484C241.688 235.933 241.688 243.128 234.1 247.576L134.148 305.664C126.56 310.112 114.131 310.112 106.412 305.664L5.80559 247.576C-1.91325 243.128 -1.91325 235.933 5.67477 231.484L105.627 173.397C113.215 168.949 125.644 168.949 133.363 173.397L233.97 231.484Z" stroke="#AFBAD4" stroke-miterlimit="10"/>
</g>
<path d="M239.726 153.903V162.276C239.726 163.716 238.679 165.285 236.717 166.463V158.09C238.679 156.912 239.726 155.343 239.726 153.903Z" fill="#AFBAD4"/>
<path d="M0.834167 162.146V153.773C0.834167 155.343 1.88079 156.782 3.84321 157.959V166.332C1.88079 165.155 0.834167 163.585 0.834167 162.146Z" fill="#AFBAD4"/>
<path d="M236.717 157.959V166.332L127.868 229.653V221.28L236.717 157.959Z" fill="#AFBAD4"/>
<path d="M113.477 221.28V229.653L3.84308 166.332V157.959L113.477 221.28Z" fill="#AFBAD4"/>
<path d="M236.717 149.586C240.772 151.941 240.772 155.604 236.717 157.959L127.868 221.28C123.943 223.635 117.402 223.635 113.477 221.28L3.84314 157.959C-0.212525 155.604 -0.212525 151.941 3.84314 149.586L112.692 86.2654C116.617 83.9105 123.158 83.9105 127.083 86.2654L236.717 149.586Z" fill="#034FA9"/>
<path d="M127.868 221.28V229.653C123.943 232.008 117.402 232.008 113.477 229.653V221.28C117.402 223.635 123.943 223.635 127.868 221.28Z" fill="#AFBAD4"/>
<path d="M198.908 148.801C200.347 149.717 201.132 150.764 201.132 151.941C201.132 153.118 200.347 154.165 198.908 155.081L148.408 184.517L122.242 169.341C122.112 169.21 121.981 169.21 121.719 169.21L108.375 171.042L87.4422 159.137C87.9655 158.613 87.8346 157.828 87.0497 157.436C86.003 156.912 84.5639 156.912 83.6481 157.436C82.7323 158.09 82.7323 158.875 83.6481 159.398C84.5639 159.922 85.8722 159.922 86.6572 159.529L107.72 171.565C107.851 171.696 107.982 171.696 108.244 171.696L121.588 169.864L147.623 184.91L138.073 190.404L111.907 175.228C111.776 175.098 111.645 175.098 111.384 175.098L98.0392 176.929L77.1068 165.024C77.6301 164.501 77.4992 163.716 76.7143 163.323C75.6676 162.8 74.2285 162.8 73.3127 163.323C72.3969 163.977 72.3969 164.762 73.3127 165.285C74.2285 165.809 75.5368 165.809 76.4526 165.416L97.5159 177.452C97.6467 177.583 97.7776 177.583 98.0392 177.583L111.384 175.752L137.288 190.797L125.382 197.731C123.943 198.647 121.981 199.039 120.018 199.039C118.056 199.039 116.093 198.647 114.654 197.731L40.7366 155.081C39.2975 154.165 38.5125 153.118 38.5125 151.941C38.5125 150.764 39.2975 149.717 40.7366 148.801L91.1053 119.496L114.916 133.233C115.047 133.363 115.308 133.363 115.439 133.363L128.391 131.27L147.492 142.129C146.969 142.652 147.231 143.306 147.885 143.83C148.931 144.353 150.37 144.353 151.286 143.83C152.202 143.176 152.202 142.391 151.286 141.867C150.37 141.344 149.062 141.344 148.146 141.736L128.915 130.747C128.784 130.616 128.522 130.616 128.391 130.616L115.439 132.709L91.7595 119.103L101.31 113.608L125.121 127.345C125.251 127.476 125.513 127.476 125.644 127.476L138.596 125.383L157.697 136.242C157.304 136.765 157.435 137.419 158.22 137.812C159.267 138.335 160.706 138.335 161.622 137.812C162.537 137.157 162.537 136.373 161.622 135.849C160.706 135.326 159.267 135.326 158.351 135.718L139.119 124.729C138.988 124.598 138.727 124.598 138.596 124.598L125.644 126.691L101.964 113.085L114 106.151C115.439 105.235 117.402 104.843 119.364 104.843C121.327 104.843 123.289 105.235 124.728 106.151L198.908 148.801Z" fill="#AFBAD4"/>
<path d="M185.825 5.54461L202.571 15.3567C198.253 12.871 192.235 13.1326 185.563 17.0575C182.162 19.0199 178.891 21.7673 175.489 25.1688L158.743 15.3567C162.014 11.9552 165.285 9.2078 168.817 7.24538C175.489 3.32054 181.507 3.05888 185.825 5.54461Z" fill="#034FA9"/>
<path d="M41.7832 156.389L25.0373 146.577C19.935 143.568 16.4026 137.942 15.2252 129.962L31.9711 139.774C33.2794 147.755 36.6809 153.38 41.7832 156.389Z" fill="#034FA9"/>
<path d="M81.6858 57.4833L64.9398 47.6712C70.4346 21.244 89.0121 -6.62237 111.122 -19.4435L127.868 -9.63142C105.758 3.05889 87.3114 30.9252 81.6858 57.4833Z" fill="#034FA9"/>
<path d="M127.868 -9.63142C154.426 -24.9383 175.882 -12.6405 176.013 17.8424C176.013 20.1973 175.882 22.6831 175.62 25.1688C178.891 21.7673 182.162 19.0199 185.694 17.0575C198.908 9.46946 209.636 15.6184 209.636 30.6636C209.636 53.4276 194.198 80.3782 174.835 91.4986L66.5098 154.034C49.1096 163.977 34.7186 157.567 32.102 139.774C31.1862 136.503 30.6629 132.84 30.6629 128.654C30.5321 104.32 47.8014 74.6218 68.9955 62.3239C73.4436 59.7074 77.761 58.1374 81.8166 57.4833C87.3114 30.9252 105.758 3.05889 127.868 -9.63142Z" fill="#81A1D3"/>
<path d="M32.102 139.774L15.356 129.962C14.4402 126.691 13.9169 123.028 13.9169 118.842C13.7861 94.6385 30.9245 64.9405 52.1186 52.6427C56.5668 50.0262 60.8841 48.4562 64.9398 47.8021L81.6857 57.6142C77.6301 58.2683 73.3128 59.8383 68.8646 62.4548C47.6705 74.7526 30.532 104.451 30.532 128.785C30.6629 132.84 31.1862 136.503 32.102 139.774Z" fill="#034FA9"/>
<path opacity="0.6" d="M140.951 57.2216L148.146 48.9795C148.146 48.7178 148.146 48.587 148.146 48.3253C148.146 45.7088 149.978 42.4381 152.333 41.1298C154.688 39.8215 156.519 40.8682 156.519 43.4847C156.519 46.1013 154.688 49.372 152.333 50.6802C151.155 51.3344 150.109 51.4652 149.324 50.9419L142.128 59.1841C142.128 59.3149 142.128 59.5765 142.128 59.8382C142.128 62.4548 140.297 65.7255 137.942 67.0337C137.418 67.2954 137.026 67.4262 136.634 67.5571L127.083 87.9662C127.606 88.4895 127.868 89.2745 127.868 90.3211C127.868 92.9377 126.036 96.2084 123.682 97.5166C121.327 98.8249 119.495 97.7783 119.495 95.1617C119.495 94.3768 119.626 93.461 120.018 92.676L111.122 87.3121C110.599 87.8354 109.945 88.3587 109.29 88.7512C108.636 89.1437 107.982 89.2745 107.459 89.2745L98.6934 104.843C98.9551 105.366 99.2167 106.02 99.2167 106.805C99.2167 109.422 97.3851 112.693 95.0302 114.001C92.6753 115.309 90.8438 114.263 90.8438 111.646C90.8438 109.029 92.6753 105.759 95.0302 104.451C95.6844 104.058 96.3385 103.927 96.8618 103.927L105.627 88.2279C105.366 87.7046 105.104 87.0504 105.104 86.2654C105.104 83.6489 106.936 80.3782 109.29 79.0699C111.645 77.7616 113.477 78.8083 113.477 81.4248C113.477 82.2098 113.346 83.1256 112.954 83.9105L121.85 89.2745C122.373 88.6203 123.027 88.097 123.682 87.7046C124.074 87.4429 124.597 87.3121 124.99 87.1812L134.54 66.7721C134.017 66.2488 133.755 65.4638 133.755 64.4172C133.755 61.8006 135.587 58.5299 137.942 57.2216C139.119 56.8292 140.297 56.6983 140.951 57.2216ZM163.192 24.7763L83.9099 70.5661C82.8632 71.2202 81.9474 72.6593 81.9474 73.9676L82.0783 129.308C82.0783 130.485 82.9941 131.009 84.0407 130.485L163.322 84.6955C164.369 84.0414 165.285 82.6023 165.285 81.294L165.154 25.9538C165.154 24.7763 164.238 24.253 163.192 24.7763Z" fill="white"/>
<path d="M152.333 41.1298C149.978 42.4381 148.146 45.7088 148.146 48.3254C148.146 48.587 148.146 48.7178 148.146 48.9795L140.951 57.2217C140.166 56.8292 139.119 56.8292 137.942 57.4833C135.587 58.7916 133.755 62.0623 133.755 64.6789C133.755 65.7255 134.017 66.5104 134.54 67.0337L124.99 87.3121C124.597 87.4429 124.074 87.5737 123.682 87.8354C123.028 88.2279 122.373 88.7512 121.85 89.4053L112.954 84.0414C113.215 83.2564 113.477 82.3406 113.477 81.5556C113.477 78.9391 111.645 77.8925 109.291 79.2007C106.936 80.509 105.104 83.7797 105.104 86.3963C105.104 87.1812 105.235 87.8354 105.627 88.3587L96.8619 104.058C96.3386 104.058 95.6845 104.189 95.0303 104.581C92.6754 105.89 90.8438 109.16 90.8438 111.777C90.8438 114.393 92.6754 115.44 95.0303 114.132C97.3852 112.824 99.2168 109.553 99.2168 106.936C99.2168 106.151 99.086 105.497 98.6935 104.974L107.459 89.4053C107.982 89.4053 108.636 89.2745 109.291 88.882C109.945 88.4895 110.599 87.9662 111.122 87.3121L120.018 92.676C119.757 93.461 119.495 94.3768 119.495 95.1617C119.495 97.7783 121.327 98.8249 123.682 97.5167C126.037 96.2084 127.868 92.9377 127.868 90.3211C127.868 89.2745 127.606 88.4895 127.083 87.9662L136.634 67.5571C137.026 67.4262 137.549 67.2954 137.942 67.0337C140.297 65.7255 142.128 62.4548 142.128 59.8382C142.128 59.5766 142.128 59.4457 142.128 59.1841L149.324 50.9419C150.109 51.3344 151.156 51.3344 152.333 50.6803C154.688 49.372 156.519 46.1013 156.519 43.4847C156.519 40.8682 154.688 39.8215 152.333 41.1298Z" fill="white"/>
<path opacity="0.6" d="M186.741 138.858C186.086 139.251 185.563 138.989 185.563 138.204C185.563 137.419 186.086 136.503 186.741 136.111L191.843 133.102C192.497 132.709 193.02 132.971 193.02 133.756C193.02 134.541 192.497 135.457 191.843 135.849L186.741 138.858ZM197.076 132.84C196.422 133.233 195.899 132.971 195.899 132.186C195.899 131.401 196.422 130.485 197.076 130.093L202.178 127.084C202.832 126.691 203.356 126.953 203.356 127.738C203.356 128.523 202.832 129.439 202.178 129.831L197.076 132.84ZM186.741 129.046C186.086 129.439 185.563 129.177 185.563 128.392C185.563 127.607 186.086 126.691 186.741 126.299L231.484 100.526C232.138 100.133 232.661 100.395 232.661 101.18C232.661 101.965 232.138 102.881 231.484 103.273L186.741 129.046ZM186.741 119.234C186.086 119.627 185.563 119.365 185.563 118.58C185.563 117.795 186.086 116.879 186.741 116.487L211.86 101.965C212.514 101.572 213.037 101.834 213.037 102.619C213.037 103.404 212.514 104.32 211.86 104.712L186.741 119.234ZM216.962 101.703C216.308 102.096 215.784 101.834 215.784 101.049C215.784 100.264 216.308 99.3483 216.962 98.9558L220.102 97.1242C220.756 96.7317 221.279 96.9934 221.279 97.7783C221.279 98.5633 220.756 99.4791 220.102 99.8716L216.962 101.703ZM225.596 96.7317C224.942 97.1242 224.419 96.8625 224.419 96.0776C224.419 95.2926 224.942 94.3768 225.596 93.9843L246.006 82.2098C246.66 81.8173 247.183 82.079 247.183 82.8639C247.183 83.6489 246.66 84.5647 246.006 84.9572L225.596 96.7317ZM186.741 109.422C186.086 109.815 185.563 109.553 185.563 108.768C185.563 107.983 186.086 107.067 186.741 106.675L229.39 82.079C230.045 81.6865 230.568 81.9482 230.568 82.7331C230.568 83.5181 230.045 84.4339 229.39 84.8264L186.741 109.422ZM234.624 81.6865C233.969 82.079 233.446 81.8173 233.446 81.0324C233.446 80.2474 233.969 79.3316 234.624 78.9391L246.006 72.3977C246.66 72.0052 247.183 72.2669 247.183 73.0519C247.183 73.8368 246.66 74.7526 246.006 75.1451L234.624 81.6865ZM170.91 122.243C168.948 123.421 167.378 122.505 167.378 120.15C167.378 117.926 168.948 115.178 170.91 114.001C172.873 112.824 174.443 113.739 174.443 116.094C174.443 118.318 172.873 121.066 170.91 122.243ZM253.332 58.9224L162.014 111.646C160.444 112.562 159.267 114.655 159.267 116.487L159.398 160.968C159.398 162.669 160.706 163.454 162.145 162.538L253.463 109.815C255.033 108.899 256.21 106.805 256.21 104.974L256.079 60.4924C256.079 58.7916 254.771 58.1375 253.332 58.9224Z" fill="#81A1D3"/>
<path d="M229.26 82.079L186.61 106.675C185.956 107.067 185.432 107.983 185.432 108.768C185.432 109.553 185.956 109.815 186.61 109.422L229.26 84.8264C229.914 84.4339 230.437 83.5181 230.437 82.7331C230.568 81.9482 229.914 81.6865 229.26 82.079Z" fill="#81A1D3"/>
<path d="M211.729 101.965L186.61 116.487C185.956 116.879 185.432 117.795 185.432 118.58C185.432 119.365 185.956 119.627 186.61 119.234L211.729 104.712C212.383 104.32 212.906 103.404 212.906 102.619C213.037 101.834 212.514 101.572 211.729 101.965Z" fill="#81A1D3"/>
<path d="M231.353 100.395L186.61 126.168C185.956 126.56 185.432 127.476 185.432 128.261C185.432 129.046 185.956 129.308 186.61 128.915L231.353 103.142C232.007 102.75 232.53 101.834 232.53 101.049C232.661 100.395 232.138 100.002 231.353 100.395Z" fill="#81A1D3"/>
<path d="M191.843 133.102L186.74 136.111C186.086 136.503 185.563 137.419 185.563 138.204C185.563 138.989 186.086 139.251 186.74 138.858L191.843 135.849C192.497 135.457 193.02 134.541 193.02 133.756C193.151 132.971 192.628 132.709 191.843 133.102Z" fill="#81A1D3"/>
<path d="M220.102 97.1242L216.962 98.9558C216.308 99.3483 215.784 100.264 215.784 101.049C215.784 101.834 216.308 102.096 216.962 101.703L220.102 99.8716C220.756 99.4791 221.279 98.5633 221.279 97.7783C221.41 96.9934 220.756 96.7317 220.102 97.1242Z" fill="#81A1D3"/>
<path d="M246.136 82.079L225.727 93.8535C225.073 94.246 224.55 95.1618 224.55 95.9467C224.55 96.7317 225.073 96.9934 225.727 96.6009L246.136 84.8264C246.791 84.4339 247.314 83.5181 247.314 82.7331C247.314 82.079 246.791 81.8173 246.136 82.079Z" fill="#81A1D3"/>
<path d="M246.006 72.3977L234.624 78.9391C233.969 79.3316 233.446 80.2474 233.446 81.0324C233.446 81.8173 233.969 82.079 234.624 81.6865L246.006 75.1451C246.66 74.7526 247.183 73.8368 247.183 73.0519C247.314 72.2669 246.791 72.0052 246.006 72.3977Z" fill="#81A1D3"/>
<path d="M170.91 114.001C168.948 115.178 167.378 117.926 167.378 120.15C167.378 122.374 168.948 123.29 170.91 122.243C172.873 121.066 174.443 118.318 174.443 116.094C174.443 113.87 172.873 112.954 170.91 114.001Z" fill="#81A1D3"/>
<path d="M202.178 127.084L197.076 130.093C196.422 130.485 195.898 131.401 195.898 132.186C195.898 132.971 196.422 133.233 197.076 132.84L202.178 129.831C202.832 129.439 203.356 128.523 203.356 127.738C203.486 127.084 202.963 126.691 202.178 127.084Z" fill="#81A1D3"/>
</g>
</g>
</g>
<defs>
<linearGradient id="paint0_linear" x1="108.875" y1="-5.4748e-07" x2="76.5753" y2="433.943" gradientUnits="userSpaceOnUse">
<stop stop-color="#0073CF"/>
<stop offset="1" stop-color="#073F92"/>
</linearGradient>
<linearGradient id="paint1_linear" x1="108.875" y1="-5.4748e-07" x2="76.5753" y2="433.943" gradientUnits="userSpaceOnUse">
<stop stop-color="#0073CF"/>
<stop offset="1" stop-color="#073F92"/>
</linearGradient>
</defs>
</svg>
