<svg width="223" height="271" viewBox="0 0 223 271" fill="none" xmlns="http://www.w3.org/2000/svg">
<g opacity="0.7">
<path d="M214.258 108.767C223.994 114.393 224.083 123.503 214.348 129.13L87.3437 202.903C77.6978 208.53 61.8893 208.53 52.1541 202.903L-75.6538 129.219C-85.389 123.593 -85.4783 114.483 -75.7431 108.856L51.261 34.9935C60.9068 29.3667 76.7154 29.3667 86.4505 34.9935L214.258 108.767Z" stroke="#AFBAD4" stroke-miterlimit="10"/>
<g opacity="0.6">
<path opacity="0.6" d="M214.258 140.204C223.994 145.831 224.083 154.941 214.348 160.568L87.3437 234.341C77.6978 239.968 61.8893 239.968 52.1541 234.341L-75.6538 160.568C-85.389 154.941 -85.4783 145.831 -75.7431 140.204L51.261 66.431C60.9068 60.8042 76.7154 60.8042 86.4505 66.431L214.258 140.204Z" stroke="#AFBAD4" stroke-miterlimit="10"/>
</g>
<g opacity="0.3">
<path opacity="0.3" d="M214.258 171.644C223.994 177.27 224.083 186.38 214.348 192.007L87.3437 265.78C77.6978 271.407 61.8893 271.407 52.1541 265.78L-75.6538 192.007C-85.389 186.38 -85.4783 177.27 -75.7431 171.644L51.261 97.8705C60.9068 92.2437 76.7154 92.2437 86.4505 97.8705L214.258 171.644Z" stroke="#AFBAD4" stroke-miterlimit="10"/>
</g>
<path d="M221.582 72.9512V83.4902C221.582 85.3658 220.332 87.3307 217.831 88.7597V78.2207C220.332 76.7023 221.582 74.8268 221.582 72.9512Z" fill="#AFBAD4"/>
<path d="M217.831 78.2207L217.742 88.7597L79.4844 169.142V158.603L217.831 78.2207Z" fill="#AFBAD4"/>
<path d="M61.175 158.603L61.0858 169.142L-78.1543 88.7597L-78.065 78.2207L61.175 158.603Z" fill="#AFBAD4"/>
<path d="M217.742 67.5928C222.833 70.5402 222.833 75.2738 217.831 78.2212L79.4842 158.603C74.3933 161.551 66.1765 161.551 61.1749 158.603L-78.0651 78.2212C-83.156 75.2738 -83.156 70.5402 -78.1544 67.5928L60.1925 -12.7895C65.2833 -15.7368 73.4109 -15.7368 78.5018 -12.7895L217.742 67.5928Z" fill="#034FA9"/>
<path d="M79.4841 158.604V169.143C74.3932 172.09 66.1764 172.09 61.1748 169.143V158.604C66.1764 161.551 74.3932 161.551 79.4841 158.604Z" fill="#AFBAD4"/>
<path d="M169.78 66.5217C171.656 67.5935 172.638 69.0225 172.638 70.4515C172.638 71.8805 171.745 73.3095 169.869 74.3813L105.564 111.804L72.2496 92.6013C72.0709 92.512 71.803 92.4227 71.6244 92.512L54.5654 94.8341L28.0393 79.6508C28.7538 78.9363 28.5752 78.0432 27.5927 77.418C26.253 76.7035 24.3774 76.7035 23.2163 77.418C21.9659 78.2218 22.0553 79.2935 23.2163 80.0081C24.3774 80.6332 25.9851 80.7226 27.1461 80.276L53.9403 95.5486C54.1189 95.638 54.3868 95.7273 54.5654 95.6379L71.6244 93.3158L104.67 112.429L92.5238 119.485L59.2098 100.193C59.0311 100.104 58.7632 100.014 58.5846 100.104L41.5256 102.426L14.9102 87.2425C15.6247 86.528 15.446 85.6348 14.3743 85.0989C13.0346 84.3844 11.159 84.3844 9.99791 85.0989C8.74752 85.9028 8.83683 86.9745 9.99791 87.689C11.159 88.3142 12.7666 88.4035 13.9277 87.8677L40.7218 103.14C40.9005 103.23 41.1684 103.319 41.347 103.23L58.4059 100.907L91.3627 119.931L76.4473 128.773C74.5717 129.845 72.0709 130.381 69.6595 130.381C67.1587 130.381 64.7472 129.845 62.7823 128.773L-31.265 74.4706C-33.1406 73.3988 -34.123 71.9698 -34.123 70.5408C-34.123 69.1118 -33.2299 67.6828 -31.3543 66.611L32.7729 29.3672L63.1396 46.8727C63.3182 46.962 63.5861 47.0513 63.8541 46.962L80.2878 44.3719L104.492 58.2155C103.867 58.93 104.135 59.7339 105.028 60.2697C106.367 60.9842 108.243 60.9842 109.404 60.2697C110.654 59.4659 110.565 58.3941 109.404 57.6796C108.154 57.0544 106.546 56.9651 105.296 57.501L80.913 43.5681C80.7344 43.4788 80.4664 43.3894 80.2878 43.4788L63.8541 46.0689L33.7554 28.742L45.902 21.6862L76.1794 39.1917C76.358 39.281 76.6259 39.3703 76.8939 39.281L93.3276 36.6909L117.621 50.5345C117.085 51.2491 117.264 52.0529 118.246 52.5888C119.586 53.3033 121.461 53.3033 122.622 52.5888C123.873 51.7849 123.784 50.7132 122.622 49.9987C121.372 49.3735 119.675 49.2841 118.514 49.82L94.0421 35.8871C93.8635 35.7978 93.5955 35.7085 93.4169 35.7978L76.9832 38.3879L46.9738 21.061L62.1571 12.219C64.0327 11.1472 66.5335 10.6113 68.945 10.6113C71.4457 10.6113 73.8572 11.1472 75.8221 12.219L169.78 66.5217Z" fill="#AFBAD4"/>
</g>
</svg>
