<svg width="360" height="390" viewBox="0 0 360 390" fill="none" xmlns="http://www.w3.org/2000/svg">
<mask id="mask4" mask-type="alpha" maskUnits="userSpaceOnUse" x="0" y="0" width="360" height="390">
<rect width="360" height="390" rx="5" fill="url(#paint0_linear)"/>
</mask>
<g mask="url(#mask4)">
<g opacity="0.7">
<path d="M183.959 -21.8027C188.643 -24.5146 192.465 -22.2958 192.465 -16.9953L192.834 109.969C192.834 115.393 189.013 121.926 184.329 124.638L-4.14497 233.605C-8.82909 236.317 -12.6503 234.098 -12.6503 228.798L-13.0201 101.833C-13.0201 96.4096 -9.19889 89.8765 -4.51477 87.1646L183.959 -21.8027Z" stroke="#AFBAD4" stroke-miterlimit="10"/>
<g opacity="0.6">
<path opacity="0.6" d="M164.976 -33.7594C169.66 -36.4713 173.482 -34.2525 173.482 -28.9521L173.851 98.0121C173.851 103.436 170.03 109.969 165.346 112.681L-23.128 221.525C-27.8121 224.237 -31.6333 222.018 -31.6333 216.718L-32.0031 89.7533C-32.0031 84.3296 -28.1819 77.7965 -23.4978 75.0846L164.976 -33.7594Z" stroke="#AFBAD4" stroke-miterlimit="10"/>
</g>
<g opacity="0.3">
<path opacity="0.3" d="M146.979 -45.8396C151.664 -48.5514 155.485 -46.3326 155.485 -41.0322L155.855 85.932C155.855 91.3557 152.033 97.8888 147.349 100.601L-41.1248 209.568C-45.8089 212.28 -49.6302 210.061 -49.6302 204.761L-50 77.7964C-50 72.3727 -46.1787 65.8396 -41.4946 63.1278L146.979 -45.8396Z" stroke="#AFBAD4" stroke-miterlimit="10"/>
</g>
<path d="M22.6038 250.862L12.0029 244.699C10.5237 243.836 9.53757 241.987 9.53757 239.275L20.1385 245.438C20.1385 248.15 21.0013 249.999 22.6038 250.862Z" fill="#AFBAD4"/>
<path d="M20.0152 245.439L9.53758 239.275L9.16779 112.311L19.7687 118.351L20.0152 245.439Z" fill="#AFBAD4"/>
<path d="M28.1508 103.682L17.6731 97.6423L206.147 -11.2018L216.625 -5.03847L28.1508 103.682Z" fill="#AFBAD4"/>
<path d="M216.625 -5.0385C221.309 -7.75035 225.13 -5.53156 225.13 -0.231112L225.5 126.733C225.5 132.157 221.679 138.69 216.995 141.402L28.6439 250.246C23.9597 252.958 20.1385 250.739 20.1385 245.438L19.7687 118.474C19.7687 113.051 23.5899 106.517 28.2741 103.806L216.625 -5.0385Z" fill="#034FA9"/>
<path d="M19.7687 118.351L9.16779 112.188C9.16779 106.764 12.989 100.231 17.6732 97.5191L28.274 103.682C23.4667 106.394 19.6454 113.051 19.7687 118.351Z" fill="#AFBAD4"/>
<path d="M80.9087 178.505L73.8826 174.437C73.5128 174.191 73.3895 173.451 73.7593 172.588L80.7855 176.656C80.4157 177.519 80.5389 178.258 80.9087 178.505Z" fill="#AFBAD4"/>
<path d="M101.248 117.611L108.274 121.679C108.027 121.556 107.658 121.556 107.288 121.802L100.262 117.735C100.631 117.488 101.001 117.365 101.248 117.611Z" fill="#AFBAD4"/>
<path d="M80.7855 176.779L73.7593 172.588L99.2754 118.844L106.425 122.912L80.7855 176.779Z" fill="#AFBAD4"/>
<path d="M107.411 121.802C108.027 121.433 108.644 121.556 108.644 122.419L110.369 170.246C110.369 171.109 109.753 172.095 109.137 172.465C108.89 172.588 108.644 172.711 108.397 172.588L97.0566 169.26C96.8101 169.26 96.5635 169.26 96.317 169.383L82.0181 178.382C80.9087 178.998 80.2924 178.012 80.9087 176.656L106.425 122.789C106.671 122.296 107.041 121.926 107.411 121.802Z" fill="white"/>
<path d="M106.425 122.912L99.3987 118.844C99.6452 118.351 100.015 117.858 100.385 117.735L107.411 121.802C107.041 121.926 106.671 122.295 106.425 122.912Z" fill="#AFBAD4"/>
<path d="M196.286 64.4837V68.0584L123.066 110.215V106.764L196.286 64.4837Z" fill="white"/>
<path d="M197.272 80.5083V84.083L124.175 126.24V122.789L197.272 80.5083Z" fill="white"/>
<path d="M197.272 112.434V116.009L124.175 158.166V154.715L197.272 112.434Z" fill="white"/>
</g>
</g>
<defs>
<linearGradient id="paint0_linear" x1="108.875" y1="-5.4748e-07" x2="76.5753" y2="433.943" gradientUnits="userSpaceOnUse">
<stop stop-color="#0073CF"/>
<stop offset="1" stop-color="#073F92"/>
</linearGradient>
</defs>
</svg>
