<svg width="360" height="390" viewBox="0 0 360 390" fill="none" xmlns="http://www.w3.org/2000/svg">
<mask id="mask5" mask-type="alpha" maskUnits="userSpaceOnUse" x="0" y="0" width="360" height="390">
<rect width="360" height="390" rx="5" fill="url(#paint0_linear)"/>
</mask>
<g mask="url(#mask5)">
<g opacity="0.7">
<path d="M82.8262 25.4419C88.4348 22.2014 93.0463 24.8188 93.1709 31.2998L93.5449 150.95C93.5449 157.431 88.9333 165.407 83.3248 168.648L-20.8703 228.847C-26.4789 232.087 -31.0904 229.47 -31.2151 222.989L-31.589 103.339C-31.589 96.8579 -26.9775 88.8813 -21.3689 85.6408L82.8262 25.4419ZM92.797 151.448L92.4231 31.7983C92.4231 25.6912 88.0609 23.3231 82.8262 26.3144L-21.3689 86.3886C-26.6035 89.3798 -30.9658 96.8579 -30.8411 102.84L-30.4672 222.49C-30.4672 228.597 -26.105 230.965 -20.8703 227.974L83.3248 167.9C88.4348 164.909 92.797 157.431 92.797 151.448Z" fill="#AFBAD4"/>
<g opacity="0.6">
<path opacity="0.6" d="M67.1222 13.7262C72.7308 10.4857 77.3423 13.103 77.4669 19.584L77.8408 139.234C77.8408 145.715 73.2293 153.692 67.6207 156.932L-36.5744 217.006C-42.1829 220.247 -46.7944 217.629 -46.9191 211.148L-47.293 91.4986C-47.293 85.0176 -42.6815 77.0409 -37.0729 73.8004L67.1222 13.7262ZM77.093 139.608L76.7191 19.958C76.7191 13.8508 72.3569 11.4828 67.1222 14.474L-37.0729 74.6728C-42.3076 77.6641 -46.6698 85.1422 -46.5452 91.1247L-46.1713 210.775C-46.1713 216.882 -41.809 219.25 -36.5744 216.259L67.6207 156.184C72.7308 153.068 77.093 145.715 77.093 139.608Z" fill="#AFBAD4"/>
</g>
<g opacity="0.3">
<path opacity="0.3" d="M52.4152 1.88586C58.0238 -1.35466 62.6353 1.26268 62.7599 7.74372L63.1338 127.394C63.1338 133.875 58.5223 141.851 52.9137 145.092L-51.406 205.291C-57.0146 208.531 -61.6261 205.914 -61.7507 199.433L-62 79.7829C-62 73.3019 -57.3885 65.3252 -51.7799 62.0847L52.4152 1.88586ZM62.2614 127.892L61.8875 8.24226C61.8875 2.13513 57.5252 -0.23294 52.2905 2.75831L-51.7799 62.8325C-57.0146 65.9484 -61.3768 73.3019 -61.2522 79.409L-60.8783 199.059C-60.8783 205.166 -56.516 207.534 -51.2814 204.543L52.9137 144.469C58.0238 141.353 62.386 133.875 62.2614 127.892Z" fill="#AFBAD4"/>
</g>
<path d="M41.1979 171.39L32.3488 166.28C30.8532 165.407 29.8561 163.538 29.8561 160.92L38.7052 166.03C38.7052 168.648 39.7023 170.517 41.1979 171.39Z" fill="#AFBAD4"/>
<path d="M38.7053 165.906L29.8562 160.796L29.6069 58.8441L38.456 64.0788L38.7053 165.906Z" fill="#AFBAD4"/>
<path d="M46.8066 49.4964L38.0822 44.3864L126.698 -6.8387L135.547 -1.72865L46.8066 49.4964Z" fill="#AFBAD4"/>
<path d="M135.547 -1.72863C140.158 -4.4706 144.022 -2.22717 144.022 3.13215L144.271 105.084C144.271 110.443 140.532 116.924 135.921 119.666L47.3051 170.891C42.6936 173.633 38.8299 171.39 38.8299 166.03L38.456 64.0788C38.456 58.7195 42.195 52.2384 46.8065 49.4965L135.547 -1.72863Z" fill="#034FA9"/>
<path d="M38.456 64.0788L29.6069 58.9688C29.6069 53.6095 33.346 47.1284 37.9575 44.3864L46.8066 49.4965C42.1951 52.1138 38.456 58.7195 38.456 64.0788Z" fill="#AFBAD4"/>
<path d="M1.19008 245.049L-7.65903 239.939C-9.15465 239.067 -10.1517 237.197 -10.1517 234.58L-1.30263 239.69C-1.30263 242.307 -0.305545 244.177 1.19008 245.049Z" fill="#AFBAD4"/>
<path d="M92.6725 66.1976L101.522 71.3077C100.026 70.4352 97.9071 70.5599 95.5391 71.9308L86.69 66.8208C89.058 65.4498 91.1768 65.3252 92.6725 66.1976Z" fill="#AFBAD4"/>
<path d="M6.92343 123.156L-1.92567 118.046L86.69 66.8208L95.5391 71.9308L6.92343 123.156Z" fill="#AFBAD4"/>
<path d="M95.539 71.9308C100.15 69.1889 104.014 71.4323 104.014 76.7916L104.263 178.743C104.263 184.103 100.524 190.584 95.9129 193.326L7.29721 244.551C2.6857 247.293 -1.17799 245.049 -1.17799 239.69L-1.42726 137.738C-1.42726 132.379 2.3118 125.898 6.9233 123.156L95.539 71.9308Z" fill="#034FA9"/>
<path d="M-1.55184 137.738L-10.4009 132.628C-10.4009 127.269 -6.66189 120.788 -2.05038 118.046L6.79873 123.156C2.18722 125.773 -1.55184 132.379 -1.55184 137.738Z" fill="#AFBAD4"/>
<path d="M96.9101 233.209L84.9451 226.229C82.8263 224.983 81.5799 222.49 81.5799 218.876L93.5449 225.855C93.5449 229.47 94.9159 232.087 96.9101 233.209Z" fill="#AFBAD4"/>
<path d="M93.5449 225.855L81.5799 218.876L81.206 80.2814L93.171 87.261L93.5449 225.855Z" fill="#AFBAD4"/>
<path d="M104.637 67.444L92.5477 60.4644L213.195 -9.08209L225.16 -2.10252L104.637 67.444Z" fill="#AFBAD4"/>
<path d="M225.16 -2.10248C231.516 -5.7169 236.626 -2.85029 236.626 4.50319L237 143.098C237 150.326 231.89 159.3 225.534 162.915L104.887 232.586C98.5303 236.2 93.4202 233.334 93.4202 225.98L93.0463 87.3856C93.0463 80.1568 98.1564 71.1831 104.513 67.5686L225.16 -2.10248Z" fill="#034FA9"/>
<path d="M93.171 87.2609L81.206 80.2814C81.206 73.0525 86.316 64.0788 92.6724 60.4644L104.637 67.4439C98.281 71.183 93.171 80.0321 93.171 87.2609Z" fill="#AFBAD4"/>
<path d="M177.674 103.09C181.039 101.095 183.905 102.716 183.905 106.579C183.905 110.568 181.163 115.304 177.798 117.298C174.433 119.292 171.567 117.672 171.567 113.808C171.442 109.945 174.184 105.084 177.674 103.09ZM177.674 112.313C178.671 111.689 179.419 110.318 179.419 109.197C179.419 108.075 178.671 107.576 177.674 108.2C176.677 108.823 175.929 110.194 175.929 111.316C175.929 112.437 176.677 112.811 177.674 112.313Z" fill="#AFBAD4"/>
<path d="M230.893 51.366L231.018 56.476L218.429 63.7049L209.58 78.9104L192.505 88.7565L190.386 90.0029V85.0175L192.505 83.7711L207.711 74.922L216.56 59.7165L230.893 51.366Z" fill="#AFBAD4"/>
<path d="M211.699 103.464L220.922 108.698L226.78 105.333V110.318L219.053 114.805L209.83 109.571L192.63 119.541L190.511 120.788L190.386 115.678L192.63 114.431L211.699 103.464Z" fill="#AFBAD4"/>
<path d="M214.94 86.1393V91.2493L192.63 104.087L190.386 105.458V100.348L192.63 99.1013L214.94 86.1393Z" fill="#AFBAD4"/>
<path d="M179.917 138.985V141.477L180.042 171.888L175.679 174.506L175.555 144.095V141.477L179.917 138.985Z" fill="#AFBAD4"/>
<path d="M166.581 146.712V149.205L166.706 171.265L158.978 184.601L155.863 182.856L162.219 171.764V151.697V149.205L166.581 146.712Z" fill="#AFBAD4"/>
<path d="M177.674 118.42C181.039 116.426 183.906 118.046 183.906 121.91C183.906 125.773 181.164 130.634 177.798 132.628C174.433 134.622 171.567 133.002 171.567 129.138C171.567 125.275 174.309 120.414 177.674 118.42ZM177.674 127.643C178.671 127.02 179.419 125.649 179.419 124.527C179.419 123.405 178.671 122.907 177.674 123.53C176.677 124.153 175.929 125.524 175.929 126.646C175.929 127.767 176.677 128.266 177.674 127.643Z" fill="#AFBAD4"/>
<path d="M164.338 126.147C167.703 124.153 170.57 125.773 170.57 129.637C170.57 133.501 167.828 138.362 164.462 140.356C161.097 142.35 158.231 140.73 158.231 136.866C158.231 133.002 160.848 128.141 164.338 126.147ZM164.338 135.37C165.335 134.747 166.083 133.376 166.083 132.254C166.083 131.133 165.335 130.634 164.338 131.257C163.341 131.88 162.593 133.251 162.593 134.373C162.593 135.495 163.341 135.993 164.338 135.37Z" fill="#AFBAD4"/>
<path d="M164.338 110.817C167.703 108.823 170.57 110.443 170.57 114.307C170.57 118.295 167.828 123.031 164.462 125.025C161.097 127.02 158.231 125.399 158.231 121.536C158.106 117.547 160.848 112.811 164.338 110.817ZM164.338 120.04C165.335 119.417 166.083 118.046 166.083 116.924C166.083 115.802 165.335 115.304 164.338 115.927C163.341 116.55 162.593 117.921 162.593 119.043C162.468 120.165 163.341 120.539 164.338 120.04Z" fill="#AFBAD4"/>
<path d="M192.505 83.7712L190.262 85.0176V90.1276L192.505 88.8813V99.226L190.262 100.472V105.582L192.505 104.336V114.681L190.262 115.927V121.037L192.505 119.791V124.402C192.505 129.886 188.642 136.741 183.781 139.483L179.793 141.727V139.234L175.43 141.727V144.219L166.457 149.454V146.961L162.094 149.454V151.947L153.121 157.181V154.689L148.758 157.181V159.674L144.77 161.918C139.909 164.659 136.046 162.416 136.046 156.932V152.321L138.289 151.074V145.964L136.046 147.211V136.866L138.289 135.619V130.509L136.046 131.756V121.411L138.289 120.165V115.055L136.046 116.301V111.689C136.046 106.081 139.909 99.3506 144.77 96.6086L148.758 94.3652V96.8579L153.121 94.3652V91.8725L162.094 86.6378V89.1305L166.457 86.6378V84.1451L175.43 78.9104V81.4031L179.793 78.9104V76.4177L183.781 74.1743C188.642 71.4323 192.505 73.6757 192.505 79.1597V83.7712ZM188.268 126.646L188.143 81.6524C188.143 78.9104 186.149 77.7887 183.781 79.1597L144.645 101.719C142.277 103.09 140.283 106.455 140.283 109.197L140.408 154.19C140.408 156.932 142.402 158.054 144.77 156.683L183.905 134.124C186.274 132.753 188.268 129.388 188.268 126.646Z" fill="#AFBAD4"/>
<path d="M164.213 95.4869C167.578 93.4927 170.445 95.113 170.445 98.9767C170.445 102.965 167.703 107.701 164.338 109.695C160.973 111.689 158.106 110.069 158.106 106.206C158.106 102.217 160.848 97.481 164.213 95.4869ZM164.213 104.71C165.21 104.087 165.958 102.716 165.958 101.594C165.958 100.472 165.21 99.9738 164.213 100.597C163.216 101.22 162.468 102.591 162.468 103.713C162.468 104.71 163.216 105.208 164.213 104.71Z" fill="#AFBAD4"/>
<path d="M151.002 133.875C154.367 131.88 157.234 133.501 157.234 137.364C157.234 141.228 154.492 146.089 151.126 148.083C147.761 150.077 144.895 148.457 144.895 144.593C144.895 140.729 147.512 135.869 151.002 133.875ZM151.002 143.098C151.999 142.474 152.747 141.103 152.747 139.982C152.747 138.86 151.999 138.361 151.002 138.985C150.005 139.608 149.257 140.979 149.257 142.1C149.132 143.222 150.005 143.596 151.002 143.098Z" fill="#AFBAD4"/>
<path d="M150.877 118.544C154.242 116.55 157.109 118.171 157.109 122.034C157.109 126.023 154.367 130.759 151.002 132.753C147.637 134.747 144.77 133.127 144.77 129.263C144.77 125.275 147.512 120.539 150.877 118.544ZM151.002 127.767C151.999 127.144 152.747 125.773 152.747 124.652C152.747 123.53 151.999 123.031 151.002 123.654C150.005 124.278 149.257 125.649 149.257 126.77C149.132 127.892 150.005 128.266 151.002 127.767Z" fill="#AFBAD4"/>
<path d="M143.274 53.7341L143.399 73.5511L152.996 79.035V91.8725V94.3652L148.634 96.9825V94.3652V83.6465L138.912 78.1626V56.2268L143.274 53.7341Z" fill="#AFBAD4"/>
<path d="M150.877 103.214C154.242 101.22 157.109 102.84 157.109 106.704C157.109 110.692 154.367 115.429 151.002 117.423C147.637 119.417 144.77 117.797 144.77 113.933C144.645 109.945 147.512 105.208 150.877 103.214ZM150.877 112.313C151.874 111.689 152.622 110.319 152.622 109.197C152.622 108.075 151.874 107.577 150.877 108.2C149.88 108.823 149.132 110.194 149.132 111.316C149.132 112.437 149.88 112.936 150.877 112.313Z" fill="#AFBAD4"/>
<path d="M179.793 62.3339V76.4177V78.9104L175.43 81.5277V79.035L175.306 64.9512L179.793 62.3339Z" fill="#AFBAD4"/>
<path d="M181.911 25.9404V38.7779L166.332 65.6991L166.457 84.1451V86.6378L161.97 89.2551V86.7624V66.073L177.425 39.2764V28.4331L181.911 25.9404Z" fill="#AFBAD4"/>
<path d="M177.549 87.7595C180.914 85.7653 183.781 87.3856 183.781 91.2493C183.781 95.2376 181.039 99.9738 177.674 101.968C174.309 103.962 171.442 102.342 171.442 98.4781C171.442 94.4898 174.184 89.7537 177.549 87.7595ZM177.674 96.9825C178.671 96.3593 179.419 94.9883 179.419 93.8666C179.419 92.7449 178.671 92.2464 177.674 92.8695C176.677 93.4927 175.929 94.8637 175.929 95.9854C175.804 97.1071 176.677 97.481 177.674 96.9825Z" fill="#AFBAD4"/>
<path d="M181.787 12.9783V18.9608L177.424 21.4535V15.471L181.787 12.9783Z" fill="#AFBAD4"/>
<path d="M236.876 99.4752V104.461L231.765 107.452V102.466L236.876 99.4752Z" fill="#AFBAD4"/>
<path d="M180.042 179.491V186.097L175.68 188.589V182.108L180.042 179.491Z" fill="#AFBAD4"/>
<path d="M153.245 154.439V156.932V170.268L148.883 172.761V159.425V156.932L153.245 154.439Z" fill="#AFBAD4"/>
<path d="M98.6549 180.737V185.847L93.6695 188.714V183.729L98.6549 180.737Z" fill="#AFBAD4"/>
<path d="M138.289 145.84V150.95L136.045 152.196L123.831 159.176L113.362 177.248L103.89 182.856L103.765 177.746L111.617 173.259L122.086 155.187L136.045 147.086L138.289 145.84Z" fill="#AFBAD4"/>
<path d="M138.164 115.179V120.165L135.921 121.411L110.745 135.993L104.638 146.587L101.522 144.718L108.875 132.005L135.921 116.426L138.164 115.179Z" fill="#AFBAD4"/>
<path d="M138.164 130.509V135.495L136.046 136.866L114.11 149.454V144.344L136.046 131.756L138.164 130.509Z" fill="#AFBAD4"/>
</g>
</g>
<defs>
<linearGradient id="paint0_linear" x1="108.875" y1="-5.4748e-07" x2="76.5753" y2="433.943" gradientUnits="userSpaceOnUse">
<stop stop-color="#0073CF"/>
<stop offset="1" stop-color="#073F92"/>
</linearGradient>
</defs>
</svg>
