<svg width="360" height="390" viewBox="0 0 360 390" fill="none" xmlns="http://www.w3.org/2000/svg">
<mask id="mask6" mask-type="alpha" maskUnits="userSpaceOnUse" x="0" y="0" width="360" height="390">
<rect width="360" height="390" rx="5" fill="url(#paint0_linear)"/>
</mask>
<g mask="url(#mask6)">
<g opacity="0.7">
<path d="M56.2004 26.7952C83.5004 10.9952 105.7 23.6952 105.8 54.9952C105.8 57.4952 105.7 59.9952 105.4 62.5952C108.8 59.0952 112.2 56.1952 115.7 54.1952C129.3 46.2952 140.4 52.6952 140.4 68.2952C140.5 91.7952 124.4 119.495 104.6 130.995L-6.89958 195.295C-24.8996 205.695 -39.7996 199.095 -42.4996 180.695C-43.4996 177.295 -43.9996 173.495 -43.9996 169.295C-44.0996 144.195 -26.3996 113.595 -4.49958 100.995C0.100423 98.2952 4.60042 96.6952 8.70042 95.9952C14.4004 68.5952 33.5004 39.8952 56.2004 26.7952Z" stroke="#AFBAD4" stroke-miterlimit="10"/>
<g opacity="0.6">
<path opacity="0.6" d="M35.2004 17.7952C62.5004 1.99522 84.7004 14.6952 84.8004 45.9952C84.8004 48.4952 84.7004 50.9952 84.4004 53.5952C87.8004 50.0952 91.2004 47.1952 94.7004 45.1952C108.3 37.2952 119.4 43.6952 119.4 59.2952C119.5 82.7952 103.4 110.495 83.6004 121.995L-27.8996 186.295C-45.8996 196.695 -60.7996 190.095 -63.4996 171.695C-64.4996 168.295 -64.9996 164.495 -64.9996 160.295C-65.0996 135.195 -47.3996 104.595 -25.4996 91.9952C-20.8996 89.2952 -16.3996 87.6952 -12.2996 86.9952C-6.59958 59.5952 12.5004 30.8952 35.2004 17.7952Z" stroke="#AFBAD4" stroke-miterlimit="10"/>
</g>
<g opacity="0.3">
<path opacity="0.3" d="M20.2004 6.79523C47.5004 -9.00478 69.7004 3.69523 69.8004 34.9952C69.8004 37.4952 69.7004 39.9952 69.4004 42.5952C72.8004 39.0952 76.2004 36.1952 79.7004 34.1952C93.3004 26.2952 104.4 32.6952 104.4 48.2952C104.5 71.7952 88.4004 99.4952 68.6004 110.995L-42.8996 175.295C-60.8996 185.695 -75.7996 179.095 -78.4996 160.695C-79.4996 157.295 -79.9996 153.495 -79.9996 149.295C-80.0996 124.195 -62.3996 93.5952 -40.4996 80.9952C-35.8996 78.2952 -31.3996 76.6952 -27.2996 75.9952C-21.5996 48.5952 -2.49958 19.8952 20.2004 6.79523Z" stroke="#AFBAD4" stroke-miterlimit="10"/>
</g>
<path d="M154 60.2952L171.3 70.2952C166.8 67.6952 160.6 68.0952 153.8 71.9952C150.2 74.0952 146.9 76.8952 143.5 80.3952L126.2 70.3952C129.6 66.8952 133 63.9952 136.5 61.9952C143.3 58.0952 149.5 57.6952 154 60.2952Z" fill="#AFBAD4"/>
<path d="M112.1 31.1952L129.4 41.1952C120.4 35.9952 108 36.6952 94.2004 44.5952L76.9004 34.5952C90.7004 26.6952 103.1 25.8952 112.1 31.1952Z" fill="#AFBAD4"/>
<path d="M5.60044 215.695L-11.6996 205.695C-16.8996 202.695 -20.5996 196.795 -21.7996 188.595L-4.49956 198.595C-3.29956 206.795 0.300438 212.695 5.60044 215.695Z" fill="#AFBAD4"/>
<path d="M46.7004 113.795L29.4005 103.795C35.1005 76.3952 54.2004 47.6952 76.9004 34.5952L94.2004 44.5952C71.5004 57.7952 52.4004 86.4952 46.7004 113.795Z" fill="#AFBAD4"/>
<path d="M94.2004 44.6952C121.5 28.8952 143.7 41.5952 143.8 72.9952C143.8 75.4952 143.7 77.9952 143.4 80.5952C146.8 77.0952 150.2 74.1952 153.7 72.1952C167.3 64.2952 178.4 70.6952 178.4 86.2952C178.5 109.795 162.4 137.495 142.6 148.995L31.1004 213.395C13.1004 223.795 -1.79958 217.195 -4.49958 198.795C-5.49958 195.395 -5.99958 191.595 -5.99958 187.395C-6.09958 162.295 11.6004 131.695 33.5004 119.095C38.1004 116.395 42.6004 114.795 46.7004 114.095C52.4004 86.4952 71.5004 57.7952 94.2004 44.6952Z" fill="#034FA9"/>
<path d="M-4.49957 198.595L-21.7996 188.595C-22.7996 185.195 -23.2996 181.395 -23.2996 177.195C-23.3996 152.095 -5.69957 121.495 16.2004 108.895C20.8004 106.195 25.3004 104.595 29.4004 103.895L46.7004 113.895C42.6004 114.595 38.1004 116.195 33.5004 118.895C11.6004 131.495 -5.99957 162.095 -5.99957 187.195C-5.99957 191.495 -5.39957 195.295 -4.49957 198.595Z" fill="#AFBAD4"/>
<path d="M61.0004 122.895L61.1004 157.495L53.4004 161.895L53.3004 127.395L61.0004 122.895Z" fill="#AFBAD4"/>
<path d="M80.6004 121.495L87.7004 117.395L87.8004 142.095L80.7004 146.195V143.895C79.2004 146.695 77.2004 148.895 74.6004 150.395C71.7004 152.095 69.3004 152.195 67.4004 150.795C65.5004 149.395 64.5004 146.895 64.5004 143.195C64.5004 139.495 65.4004 135.795 67.4004 132.195C69.3004 128.595 71.7004 125.995 74.6004 124.295C77.2004 122.795 79.2004 122.595 80.7004 123.695L80.6004 121.495ZM79.4004 138.495C80.2004 136.995 80.6004 135.495 80.6004 133.895C80.6004 132.295 80.2004 131.195 79.3004 130.695C78.5004 130.195 77.4004 130.295 76.0004 131.095C74.6004 131.895 73.6004 132.995 72.7004 134.495C71.9004 135.995 71.5004 137.495 71.5004 139.095C71.5004 140.695 71.9004 141.795 72.8004 142.295C73.6004 142.795 74.7004 142.695 76.1004 141.895C77.5004 140.995 78.6004 139.895 79.4004 138.495Z" fill="#AFBAD4"/>
<path d="M107 106.295L114.1 102.195L114.2 126.895L107.1 130.995V128.695C105.6 131.495 103.6 133.695 101 135.195C98.1004 136.895 95.7004 136.995 93.8004 135.595C91.9004 134.195 90.9004 131.695 90.9004 127.995C90.9004 124.295 91.8004 120.595 93.8004 116.995C95.7004 113.395 98.1004 110.795 101 109.095C103.6 107.595 105.6 107.395 107.1 108.495L107 106.295ZM105.8 123.195C106.6 121.695 107 120.195 107 118.595C107 116.995 106.6 115.895 105.7 115.395C104.9 114.895 103.8 114.995 102.4 115.795C101 116.595 100 117.695 99.1004 119.195C98.3004 120.695 97.9004 122.195 97.9004 123.795C97.9004 125.395 98.3004 126.495 99.2004 126.995C100 127.495 101.1 127.395 102.5 126.595C103.9 125.795 105 124.695 105.8 123.195Z" fill="#AFBAD4"/>
<path d="M126.4 94.3952C130.6 91.9952 133.6 92.1952 135.3 94.9952L129.3 101.595C128.7 100.595 127.8 100.395 126.6 100.995C125.5 101.595 125 102.295 125 103.095C125 103.595 125.4 103.695 126.1 103.595C126.8 103.495 127.7 103.195 128.8 102.895C129.8 102.595 130.9 102.295 131.9 102.195C132.9 102.095 133.8 102.395 134.6 103.095C135.3 103.795 135.7 105.095 135.7 106.795C135.7 109.595 134.8 112.195 133 114.695C131.2 117.095 129 118.995 126.5 120.495C121.7 123.295 118.5 123.195 116.9 120.195L123.1 112.995C123.6 114.495 124.8 114.795 126.5 113.795C127.8 113.095 128.4 112.195 128.4 111.295C128.4 110.795 128 110.695 127.3 110.795C126.6 110.895 125.7 111.095 124.7 111.395C123.7 111.695 122.6 111.895 121.6 111.995C120.6 112.095 119.7 111.795 119 111.095C118.3 110.395 117.9 109.295 117.9 107.695C117.9 105.095 118.7 102.495 120.4 100.095C121.9 97.5952 124 95.6952 126.4 94.3952Z" fill="#AFBAD4"/>
<path d="M217.5 -10.5048L228.4 -4.20478C225.6 -5.80478 221.7 -5.60478 217.3 -3.10478C215.1 -1.80478 212.9 -0.00477695 210.8 2.19522L199.9 -4.10478C202 -6.30478 204.2 -8.10478 206.4 -9.40478C210.7 -11.9048 214.7 -12.1048 217.5 -10.5048Z" fill="#AFBAD4"/>
<path d="M123.7 87.6952L112.8 81.3952C109.5 79.4952 107.2 75.7952 106.4 70.5952L117.3 76.8952C118.1 82.0952 120.4 85.6952 123.7 87.6952Z" fill="#AFBAD4"/>
<path d="M149.7 23.2952L138.8 16.9952C142.4 -0.304771 154.5 -18.4048 168.8 -26.7048L179.7 -20.4048C165.4 -12.1048 153.3 6.09523 149.7 23.2952Z" fill="#AFBAD4"/>
<path d="M179.7 -20.4048C196.9 -30.4048 211 -22.4048 211 -2.60477C211 -1.00477 210.9 0.59523 210.8 2.19523C212.9 -0.00477028 215.1 -1.80477 217.3 -3.10477C225.9 -8.10477 232.9 -4.10477 232.9 5.79523C232.9 20.5952 222.8 38.1952 210.3 45.3952L139.8 86.0952C128.4 92.6952 119 88.4952 117.3 76.8952C116.7 74.7952 116.4 72.3952 116.4 69.6952C116.4 53.7952 127.5 34.4952 141.3 26.4952C144.2 24.7952 147 23.7952 149.6 23.2952C153.3 6.09523 165.4 -12.1048 179.7 -20.4048Z" fill="#034FA9"/>
<path d="M117.4 76.8952L106.5 70.5952C105.9 68.4952 105.6 66.0952 105.6 63.3952C105.6 47.4952 116.7 28.1952 130.5 20.1952C133.4 18.4952 136.2 17.4952 138.8 16.9952L149.7 23.2952C147.1 23.6952 144.3 24.7952 141.4 26.4952C127.6 34.4952 116.4 53.7952 116.5 69.6952C116.4 72.3952 116.8 74.7952 117.4 76.8952Z" fill="#AFBAD4"/>
<path d="M155.5 162.495L166.4 168.795C163.6 167.195 159.7 167.395 155.3 169.895C153.1 171.195 150.9 172.995 148.8 175.195L137.9 168.895C140 166.695 142.2 164.895 144.4 163.595C148.7 161.095 152.7 160.895 155.5 162.495Z" fill="#AFBAD4"/>
<path d="M129 144.095L139.9 150.395C134.2 147.095 126.4 147.595 117.7 152.595L106.8 146.295C115.5 141.295 123.4 140.795 129 144.095Z" fill="#AFBAD4"/>
<path d="M61.7004 260.695L50.8004 254.395C47.5004 252.495 45.2004 248.795 44.4004 243.595L55.3004 249.895C56.1004 255.095 58.4004 258.695 61.7004 260.695Z" fill="#AFBAD4"/>
<path d="M87.7004 196.295L76.8004 189.995C80.4004 172.695 92.5004 154.595 106.8 146.295L117.7 152.595C103.4 160.895 91.3004 179.095 87.7004 196.295Z" fill="#AFBAD4"/>
<path d="M117.7 152.595C134.9 142.595 149 150.595 149 170.395C149 171.995 148.9 173.595 148.8 175.195C150.9 172.995 153.1 171.195 155.3 169.895C163.9 164.895 170.9 168.895 170.9 178.795C170.9 193.595 160.8 211.195 148.3 218.395L77.8004 259.095C66.4004 265.695 57.0004 261.495 55.3004 249.895C54.7004 247.795 54.4004 245.395 54.4004 242.695C54.4004 226.795 65.5004 207.495 79.3004 199.495C82.2004 197.795 85.0004 196.795 87.6004 196.295C91.3004 179.095 103.4 160.895 117.7 152.595Z" fill="#034FA9"/>
<path d="M55.4004 249.895L44.5004 243.595C43.9004 241.495 43.6004 239.095 43.6004 236.395C43.6004 220.495 54.7004 201.195 68.5004 193.195C71.4004 191.495 74.2004 190.495 76.8004 189.995L87.7004 196.295C85.1004 196.695 82.3004 197.795 79.4004 199.495C65.6004 207.495 54.4004 226.795 54.5004 242.695C54.4004 245.395 54.8004 247.795 55.4004 249.895Z" fill="#AFBAD4"/>
</g>
</g>
<defs>
<linearGradient id="paint0_linear" x1="108.875" y1="-5.4748e-07" x2="76.5753" y2="433.943" gradientUnits="userSpaceOnUse">
<stop stop-color="#0073CF"/>
<stop offset="1" stop-color="#073F92"/>
</linearGradient>
</defs>
</svg>
