<svg width="149" height="28" viewBox="0 0 149 28" fill="none" xmlns="http://www.w3.org/2000/svg">
<path d="M47.1192 20.5789H44.2529V15.0379C44.2529 12.8184 43.8207 11.4604 42.2266 11.4604C40.8041 11.4604 39.7741 12.6237 39.7741 14.9735V20.5789H36.9062V9.13203H39.7741V10.4472C40.2223 9.94015 40.7729 9.53385 41.3895 9.25511C42.0062 8.97638 42.6749 8.83152 43.3516 8.83008C44.774 8.83008 45.9819 9.49837 46.6931 10.8779C47.7492 9.54282 48.8053 8.83008 50.5251 8.83008C51.7973 8.83008 52.9392 9.34816 53.5907 10.1667C54.3448 11.1155 54.4307 12.3662 54.4307 13.8745V20.5789H51.5643V14.2623C51.5643 12.3877 50.896 11.4604 49.6024 11.4604C48.1585 11.4604 47.1238 12.5808 47.1238 14.9306L47.1192 20.5789Z" fill="white"/>
<path d="M67.8962 18.3579C66.67 20.1038 65.0514 20.8794 62.6372 20.8794C58.9953 20.8794 56.6455 18.2077 56.6455 14.8448C56.6455 11.7194 58.9079 8.83008 62.5943 8.83008C66.2163 8.83008 68.6734 11.4174 68.6734 15.0379C68.6734 15.2969 68.6519 15.4272 68.6519 15.6847H59.426C59.7065 17.3877 60.9987 18.3365 62.6372 18.3365C63.8634 18.3365 64.685 17.9916 65.4821 17.216L67.8962 18.3579ZM65.784 13.4223C65.3962 12.0857 64.1685 11.2672 62.6372 11.2672C61.2148 11.2672 60.1158 11.9784 59.5548 13.4223H65.784Z" fill="white"/>
<path d="M79.4254 19.3706C78.4122 20.3623 77.3331 20.8788 75.8892 20.8788C72.9769 20.8788 70.4355 18.3789 70.4355 14.8657C70.4355 11.2882 72.8497 8.82955 75.8248 8.82955C77.2044 8.82955 78.3892 9.34764 79.4254 10.3823V4.71094H82.2917V20.5769H79.4254V19.3706ZM73.3248 14.8442C73.3248 16.8062 74.6185 18.2501 76.4073 18.2501C78.1961 18.2501 79.5541 16.9135 79.5541 14.8228C79.5541 12.8179 78.2175 11.4598 76.4073 11.4598C74.5204 11.4598 73.3279 12.9681 73.3279 14.8442H73.3248Z" fill="white"/>
<path d="M87.7687 9.13281H84.9023V20.5782H87.7687V9.13281Z" fill="white"/>
<path d="M98.8262 19.3711C97.813 20.3628 96.7355 20.8794 95.2916 20.8794C92.3793 20.8794 89.8379 18.3794 89.8379 14.8662C89.8379 11.2887 92.2521 8.83008 95.2257 8.83008C96.6052 8.83008 97.7916 9.34816 98.8262 10.3828V9.13203H101.693V20.5789H98.8262V19.3711ZM92.7257 14.8448C92.7257 16.8067 94.0193 18.2506 95.8081 18.2506C97.5969 18.2506 98.9549 16.914 98.9549 14.8233C98.9549 12.8184 97.6183 11.4604 95.8081 11.4604C93.912 11.4604 92.7257 12.9686 92.7257 14.8448Z" fill="white"/>
<path d="M104.3 4.71289H107.169V20.5788H104.303L104.3 4.71289Z" fill="white"/>
<path d="M118.224 19.3711C117.21 20.3628 116.133 20.8794 114.689 20.8794C111.777 20.8794 109.235 18.3794 109.235 14.8662C109.235 11.2887 111.649 8.83008 114.625 8.83008C116.004 8.83008 117.189 9.34816 118.224 10.3828V9.13203H121.09V20.5789H118.224V19.3711ZM112.123 14.8448C112.123 16.8067 113.417 18.2506 115.206 18.2506C116.994 18.2506 118.352 16.914 118.352 14.8233C118.352 12.8184 117.017 11.4604 115.206 11.4604C113.31 11.4604 112.123 12.9686 112.123 14.8448Z" fill="white"/>
<path d="M126.846 10.297C127.945 9.37728 128.958 8.83008 130.228 8.83008C132.364 8.83008 134.152 10.297 134.152 12.754V20.5713H131.285V15.1712C131.285 12.9073 131.091 11.4634 129.346 11.4634C128.954 11.4618 128.568 11.5627 128.227 11.756C127.886 11.9493 127.602 12.2284 127.402 12.5655C126.819 13.4852 126.842 14.5275 126.842 15.7123V20.5851H123.975V9.13203H126.842L126.846 10.297Z" fill="white"/>
<path d="M145.382 19.3706C144.369 20.3623 143.291 20.8788 141.846 20.8788C138.933 20.8788 136.394 18.3789 136.394 14.8657C136.394 11.2882 138.808 8.82955 141.781 8.82955C143.161 8.82955 144.347 9.34764 145.382 10.3823V4.71094H148.248V20.5769H145.382V19.3706ZM139.281 14.8442C139.281 16.8062 140.575 18.2501 142.364 18.2501C144.153 18.2501 145.511 16.9135 145.511 14.8228C145.511 12.8179 144.174 11.4598 142.364 11.4598C140.466 11.4598 139.281 12.9681 139.281 14.8442Z" fill="white"/>
<path d="M87.7851 4.76953H84.9004V7.65425H87.7851V4.76953Z" fill="white"/>
<rect width="27.4831" height="27.4831" rx="3" fill="white"/>
<path d="M14.4358 7.03068C14.0531 6.56678 13.3998 6.28195 12.6861 6.28195C11.9026 6.28195 11.3248 6.53152 10.7604 7.1318C10.5661 6.86186 10.3058 6.64292 10.0028 6.49459C9.69972 6.34626 9.36347 6.2732 9.02415 6.28195C8.45228 6.27912 7.89519 6.45803 7.43807 6.79131V6.43133H5.49707V12.5548H7.43807V9.55427C7.43807 8.59678 7.80828 8.04753 8.45305 8.04753C8.93136 8.04753 9.24704 8.30918 9.24704 9.58582V12.5548H11.188V9.53571C11.188 8.59122 11.5621 8.05125 12.2135 8.05125C12.4221 8.05125 12.9788 8.05124 12.9788 9.20634V12.5631H14.9198V9.0143C14.916 8.2767 14.8797 7.57251 14.4358 7.03068Z" fill="#0065BF"/>
<path d="M20.1195 3.92578V6.51345C19.6728 6.17958 19.134 6.00141 18.5817 6.00501C16.9417 6.00501 15.7051 7.41673 15.7051 9.2886C15.7051 11.1245 16.9823 12.5627 18.613 12.5627C19.1538 12.5748 19.6833 12.4031 20.1195 12.0742V12.4103H21.9869V3.92578H20.1195ZM20.1821 9.26683C20.1821 10.1464 19.6416 10.7609 18.8672 10.7609C18.1241 10.7609 17.5835 10.137 17.5835 9.27819C17.5835 8.41942 18.1112 7.80587 18.8672 7.80587C19.6416 7.80777 20.1821 8.40522 20.1821 9.26493V9.26683Z" fill="#0065BF"/>
<path d="M7.85276 14.1348H5.49707V21.9871H7.85276V14.1348Z" fill="#0065BF"/>
<path d="M13.0512 14.1348V16.4872C12.6051 16.1833 12.0664 16.0213 11.5143 16.025C9.87436 16.025 8.6377 17.3084 8.6377 19.0101C8.6377 20.6791 9.91487 21.9865 11.5456 21.9865C12.0861 21.9975 12.6154 21.8414 13.0512 21.5424V21.848H14.9195V14.1348H13.0512ZM11.7998 20.3485C11.0558 20.3485 10.5162 19.7813 10.5162 19.0006C10.5162 18.2199 11.0438 17.6621 11.7998 17.6621C12.5742 17.6621 13.1147 18.2087 13.1147 18.9903C13.1147 19.7899 12.5742 20.3485 11.7998 20.3485Z" fill="#0065BF"/>
<path d="M21.9866 19.6309H19.6309V21.9866H21.9866V19.6309Z" fill="#0065BF"/>
</svg>
