<svg width="360" height="390" viewBox="0 0 360 390" fill="none" xmlns="http://www.w3.org/2000/svg">
<g opacity="0.7">
<mask id="mask7" mask-type="alpha" maskUnits="userSpaceOnUse" x="0" y="0" width="360" height="390">
<rect width="360" height="390" rx="5" fill="url(#paint0_linear)"/>
</mask>
<g mask="url(#mask7)">
<path d="M106.389 -21.494C113.48 -25.5646 119.389 -22.2818 119.389 -14.1407L119.783 136.601C119.783 144.742 114.005 154.722 106.915 158.924L-24.2626 234.689C-31.3532 238.759 -37.2621 235.477 -37.2621 227.335L-37.656 76.5934C-37.656 68.4522 -31.8784 58.4728 -24.7878 54.2709L106.389 -21.494ZM118.864 137.127L118.47 -13.6155C118.47 -21.2314 113.086 -24.3828 106.389 -20.4435L-24.7878 55.3214C-31.4845 59.1293 -36.8682 68.4522 -36.7368 76.0681L-36.3429 226.81C-36.3429 234.426 -30.9593 237.577 -24.2626 233.638L106.915 157.873C113.48 154.065 118.864 144.742 118.864 137.127Z" fill="#AFBAD4"/>
<g opacity="0.6">
<path opacity="0.6" d="M86.5617 -36.3318C93.6524 -40.4024 99.5612 -37.1197 99.5612 -28.9786L99.9552 121.763C99.9552 129.905 94.1776 139.884 87.087 144.086L-44.0901 219.851C-51.1808 223.921 -57.0896 220.639 -57.0896 212.498L-57.4836 61.7555C-57.4836 53.6144 -51.706 43.635 -44.6153 39.4331L86.5617 -36.3318ZM99.036 122.289L98.6421 -28.4533C98.6421 -36.0692 93.2585 -39.2206 86.5617 -35.2814L-44.6153 40.4836C-51.3121 44.2915 -56.6957 53.6144 -56.5644 61.2303L-56.1705 211.972C-56.1705 219.588 -50.7868 222.74 -44.0901 218.8L87.087 143.035C93.7837 139.227 99.1673 129.905 99.036 122.289Z" fill="#AFBAD4"/>
</g>
<g opacity="0.3">
<path opacity="0.3" d="M68.0472 -51.1697C75.1379 -55.2402 81.0468 -51.9575 81.0468 -43.8164L81.4407 106.926C81.4407 115.067 75.6631 125.046 68.5725 129.248L-62.6046 205.013C-69.6952 209.084 -75.6041 205.801 -75.6041 197.66L-75.998 46.9177C-75.998 38.7766 -70.2205 28.7971 -63.1298 24.5953L68.0472 -51.1697ZM80.5215 107.451L80.1276 -43.1598C80.1276 -50.7757 74.744 -53.9271 68.0472 -49.9879L-63.1298 25.6457C-69.8266 29.4537 -75.2102 38.7766 -75.0789 46.3925L-74.685 197.134C-74.685 204.75 -69.3013 207.902 -62.6046 203.963L68.5725 128.198C75.1379 124.39 80.5215 115.067 80.5215 107.451Z" fill="#AFBAD4"/>
</g>
<path d="M241.637 39.5644L257 48.3621L241.768 74.6238L228.769 67.1392L229.688 66.6139V61.3616L228.769 61.8868L241.637 39.5644ZM232.839 62.2808L241.768 67.4018L250.566 52.0387L241.637 46.9177L232.839 62.2808Z" fill="#034FA9"/>
<path d="M229.688 77.3813V82.5023L224.829 85.2598V80.1387L229.688 77.3813Z" fill="#034FA9"/>
<path d="M203.82 77.1187L207.759 79.351L217.082 84.6033L219.446 83.1589V88.4112L215.113 90.9061L201.325 83.0276L200.669 82.6337L203.82 77.1187Z" fill="#034FA9"/>
<path d="M187.144 105.219L212.88 107.32L187.275 139.227V124.784L189.376 123.602V118.349L187.275 119.531L187.144 105.219ZM191.74 111.521V127.541L203.82 112.572L191.74 111.521Z" fill="#034FA9"/>
<path d="M198.436 49.9379L199.093 50.2005L208.679 55.7154L218.527 50.0692V55.3215L206.84 62.0182L196.861 56.372L195.154 55.4528L198.436 49.9379Z" fill="#034FA9"/>
<path d="M157.862 117.693L174.407 127.016L187.275 119.663L189.245 118.481V123.602L187.275 124.784L172.437 133.319L156.024 123.864L142.499 131.743V129.117L138.035 131.743V134.369L128.055 140.015V134.894L157.862 117.693Z" fill="#034FA9"/>
<path d="M229.557 61.493L229.688 66.614L228.637 67.2705L207.759 79.3509L203.82 77.1187L200.669 82.6336L201.325 83.0275L128.055 125.309V120.056L228.637 62.0182L229.557 61.493Z" fill="#034FA9"/>
<path d="M205.527 11.5958V16.7168L203.295 18.0299L198.962 20.5247L199.093 50.2004L198.437 49.9378L195.154 55.4528L196.861 56.3719L184.255 78.1691L128.055 110.602V105.35L182.286 73.9672L194.497 52.8266V17.8986L203.295 12.7775L205.527 11.5958Z" fill="#034FA9"/>
<path d="M169.023 38.2514C175.195 34.7061 180.316 37.5949 180.316 44.6855C180.316 51.7762 175.326 60.5738 169.155 64.1192C163.771 67.2706 159.175 65.4323 158.125 60.1799L160.226 58.9981V53.7458L158.256 54.9276C159.044 48.4935 163.64 41.4028 169.023 38.2514ZM169.155 58.9981C172.831 56.8972 175.851 51.6449 175.851 47.443C175.851 43.1098 172.831 41.4028 169.155 43.6351C165.478 45.736 162.458 50.9883 162.458 55.1902C162.327 59.3921 165.347 61.0991 169.155 58.9981Z" fill="#034FA9"/>
<path d="M160.094 53.8771V58.9981L158.125 60.1799L153.004 63.0687L137.247 90.3808L127.924 95.7645V90.5121L135.408 86.179L143.156 72.9168V73.9673L147.62 71.3411V65.0383L151.165 58.9981L158.125 54.9276L160.094 53.8771Z" fill="#034FA9"/>
<path d="M164.559 18.8178V23.9388L159.569 26.8276L147.62 47.7056V65.0383V71.3411L143.156 73.9673V72.9168L143.024 48.0995L157.731 22.757L164.559 18.8178Z" fill="#034FA9"/>
<path d="M203.295 3.06072L224.961 -9.41357L225.092 15.4037L203.426 27.878V18.0299L205.658 16.7168V11.4645L203.426 12.7775L203.295 3.06072ZM220.365 12.7775V-1.66638L207.759 5.55558V19.9995L220.365 12.7775Z" fill="#034FA9"/>
<path d="M231.001 42.8472V48.0995L225.486 51.2509V45.9986L231.001 42.8472Z" fill="#034FA9"/>
<path d="M142.499 129.117V131.743L142.63 148.288L155.63 155.641L152.347 161.156L138.035 153.015V134.369V131.743L142.499 129.117Z" fill="#034FA9"/>
<path d="M177.952 11.0705V16.1915L171.912 19.7368V14.4845L177.952 11.0705Z" fill="#034FA9"/>
<path d="M3.04961 256.092L-10.0812 248.476C-12.3135 247.163 -13.7579 244.405 -13.7579 240.466L-0.627022 248.082C-0.627022 252.021 0.817369 254.779 3.04961 256.092Z" fill="#AFBAD4"/>
<path d="M138.297 -8.23178L151.428 -0.615898C149.196 -1.92898 146.044 -1.79767 142.499 0.171955L129.368 -7.44393C132.914 -9.41356 136.065 -9.54487 138.297 -8.23178Z" fill="#AFBAD4"/>
<path d="M11.4533 75.9369L-1.67749 68.3211L129.5 -7.44388L142.499 0.172012L11.4533 75.9369Z" fill="#AFBAD4"/>
<path d="M142.499 0.172018C149.327 -3.76723 154.973 -0.615835 154.973 7.26267L155.367 158.005C155.367 165.883 149.852 175.6 142.893 179.539L11.9786 255.304C5.15054 259.243 -0.495724 256.092 -0.495724 248.214L-0.889648 97.4715C-0.889648 89.593 4.6253 79.8762 11.5846 75.937L142.499 0.172018Z" fill="#034FA9"/>
<path d="M-1.02096 97.4715L-14.1518 89.8556C-14.1518 81.9771 -8.63684 72.2603 -1.6775 68.321L11.4533 75.9369C4.494 79.8762 -1.02096 89.593 -1.02096 97.4715Z" fill="#AFBAD4"/>
<path d="M108.096 119.006V126.622C108.096 131.48 107.177 136.733 105.339 142.116L101.925 142.248C103.501 137.521 104.288 133.056 104.288 128.854V121.238L108.096 119.006Z" fill="#AFBAD4"/>
<path d="M111.116 73.3107C114.53 77.9065 116.369 84.3406 116.369 91.9565V104.693L112.561 106.926V94.1887C112.561 87.3607 110.854 81.5831 107.834 77.5125L111.116 73.3107Z" fill="#AFBAD4"/>
<path d="M116.5 114.148V121.764C116.5 135.026 111.248 150.257 102.187 163.651L99.8239 161.55C108.096 149.601 112.692 135.945 112.692 123.996V116.38L116.5 114.148Z" fill="#AFBAD4"/>
<path d="M99.6926 123.864V131.48C99.6926 144.086 90.8949 159.318 79.9963 165.62C78.6832 166.408 77.3702 166.933 76.0571 167.459L76.8449 162.732C77.8954 162.338 78.9459 161.944 79.9963 161.287C88.794 156.166 96.0159 143.823 95.8846 133.712V126.097L99.6926 123.864Z" fill="#AFBAD4"/>
<path d="M99.6926 105.087V114.41L95.8846 116.642V107.32L99.6926 105.087Z" fill="#AFBAD4"/>
<path d="M81.8346 134.238V141.591L78.0267 143.823V136.47L81.8346 134.238Z" fill="#AFBAD4"/>
<path d="M51.2398 177.701C57.0174 186.367 68.0473 187.418 79.9963 180.59C83.8043 178.357 87.6122 175.469 91.2888 171.792L92.6019 175.206C88.5314 179.276 84.3295 182.559 79.9963 185.054C66.7342 192.801 54.3912 191.488 47.8258 181.903L51.2398 177.701Z" fill="#AFBAD4"/>
<path d="M91.2888 128.723V136.339C91.2888 143.561 86.1678 152.358 79.9963 156.035C73.6935 159.712 68.5725 156.692 68.5725 149.601V141.985L72.3804 139.753V147.369C72.3804 152.096 75.7944 154.065 79.9963 151.702C84.1982 149.338 87.6122 143.429 87.4809 138.702V131.086L91.2888 128.723Z" fill="#AFBAD4"/>
<path d="M63.8454 144.48V152.096C63.8454 157.085 65.6837 160.762 68.8351 162.469L66.2089 167.196C62.2697 165.095 60.0374 160.499 60.0374 154.328V146.712L63.8454 144.48Z" fill="#AFBAD4"/>
<path d="M81.7033 112.178L81.8346 124.652L77.8954 126.885V114.41L81.7033 112.178Z" fill="#AFBAD4"/>
<path d="M55.4416 149.338V156.954C55.4416 172.448 66.4715 178.62 79.865 170.873C86.0365 167.327 91.9454 161.287 96.4099 153.803L99.036 155.51C93.7837 164.176 86.9556 171.135 79.865 175.206C64.3706 184.135 51.6337 176.913 51.5024 159.055V151.439L55.4416 149.338Z" fill="#AFBAD4"/>
<path d="M69.229 114.41L72.7743 114.016C72.3804 115.198 72.2491 116.38 72.2491 117.562V130.299L68.4412 132.531V119.794C68.4412 117.956 68.7038 116.249 69.229 114.41Z" fill="#AFBAD4"/>
<path d="M79.7337 99.9664C86.0365 96.2897 91.1575 99.3098 91.1575 106.532V119.269L87.3496 121.501V108.764C87.3496 103.906 83.9356 102.067 79.7337 104.431C78.5519 105.087 77.3702 106.138 76.3197 107.451L74.6127 104.562C76.1884 102.593 78.0267 101.017 79.7337 99.9664Z" fill="#AFBAD4"/>
<path d="M47.0379 154.197V161.813C47.0379 165.358 47.4318 168.509 48.351 171.398L44.6744 174.681C43.7552 171.529 43.23 167.853 43.23 164.045V156.429L47.0379 154.197Z" fill="#AFBAD4"/>
<path d="M82.0972 79.4823C96.6725 72.5229 108.096 80.1388 108.096 96.815V109.552L104.288 111.784V99.0472C104.288 84.6033 94.4402 77.9066 81.8346 84.0781L82.0972 79.4823Z" fill="#AFBAD4"/>
<path d="M51.6337 127.672L55.4416 125.703C55.4416 126.228 55.4416 126.622 55.4416 127.147V139.884L51.6337 142.116V129.379C51.6337 128.854 51.6337 128.329 51.6337 127.672Z" fill="#AFBAD4"/>
<path d="M79.7337 90.3808C87.7435 85.785 94.8342 87.0981 97.9856 93.7948L94.4402 97.6028C91.9454 92.2191 86.1678 91.1687 79.7337 94.8453C70.936 99.9663 63.7141 112.309 63.8454 122.42V135.157L60.0374 137.389V124.652C60.0374 112.047 68.8351 96.6836 79.7337 90.3808Z" fill="#AFBAD4"/>
<path d="M124.247 100.229V104.562L35.4828 155.772V151.439L43.23 146.975L47.0379 144.742L51.6337 142.116L55.4416 139.884L60.0374 137.258L63.8454 135.026L68.4412 132.399L72.2491 130.167L77.8954 126.885L81.8346 124.652L87.4809 121.501L91.2888 119.269L95.8846 116.642L99.6926 114.41L104.288 111.784L108.096 109.552L112.692 106.926L116.5 104.693L124.247 100.229Z" fill="#AFBAD4"/>
<path d="M72.1178 86.3103L73.1683 89.9869C66.2089 96.2897 60.5627 105.087 57.5426 114.41L53.9973 114.542C57.5426 103.774 64.108 93.5322 72.1178 86.3103Z" fill="#AFBAD4"/>
<path d="M79.7337 70.9472C88.5314 65.8261 97.0664 64.6444 103.763 67.4018L101.268 72.1289C95.2281 69.6341 87.6122 70.8159 79.7337 75.2803C61.6131 85.785 46.9066 111.128 47.0379 132.006V144.742L43.23 146.975V134.238C43.0987 110.996 59.5122 82.6336 79.7337 70.9472Z" fill="#AFBAD4"/>
</g>
</g>
<defs>
<linearGradient id="paint0_linear" x1="108.875" y1="-5.4748e-07" x2="76.5753" y2="433.943" gradientUnits="userSpaceOnUse">
<stop stop-color="#0073CF"/>
<stop offset="1" stop-color="#073F92"/>
</linearGradient>
</defs>
</svg>
