<svg width="81" height="62" viewBox="0 0 81 62" fill="none" xmlns="http://www.w3.org/2000/svg">
<path d="M17.4224 43.1628C19.5889 43.1628 24.8384 42.7461 28.838 39.913V42.0795H36.8373V32.4971L40.1704 29.0807L47.4197 42.1629H57.0022L46.0032 23.4979L56.6689 11.7489H46.7531L36.754 23.2479V1.08323H28.7547V4.58292C26.3383 1.99982 22.422 0 16.2559 0C3.00705 0 0.507281 8.08259 0.507281 12.5822C0.507281 18.8316 3.84031 22.248 9.67312 23.6645L17.9224 25.6643C22.2553 26.7476 25.4217 27.4975 25.4217 30.7472C25.4217 35.0802 20.9221 36.0801 16.8391 36.0801C9.33981 36.0801 8.17325 31.7471 8.17325 29.414H0.00732556C-0.159326 34.5802 2.42377 43.1628 17.4224 43.1628ZM22.8386 18.7483L12.8395 16.3318C11.173 15.9152 8.50656 15.2486 8.50656 11.9989C8.50656 8.33257 12.4229 7.08269 15.6726 7.08269C23.1719 7.08269 23.8385 11.4156 24.0052 13.3321H28.7547V20.9981C27.0049 19.9149 24.9217 19.2483 22.8386 18.7483Z" fill="#DEE3F0"/>
<path d="M2.50684 60.9109V47.1621H9.42288C10.5061 47.1621 11.4227 47.4121 12.0893 47.8287C12.7559 48.2453 13.1725 48.8286 13.4225 49.4119C13.6725 49.9952 13.7558 50.5785 13.7558 51.0784C13.7558 51.8283 13.5892 52.4949 13.1725 53.0782C12.8392 53.6615 12.256 54.0781 11.5893 54.3281C12.006 54.4948 12.3393 54.7447 12.5893 54.9114C12.8392 55.1614 13.0059 55.4114 13.1725 55.9113C13.3392 56.3279 13.3392 56.9945 13.3392 57.8278C13.3392 58.5777 13.3392 59.161 13.3392 59.4943C13.3392 59.8276 13.4225 60.0776 13.5058 60.2442C13.5892 60.4109 13.7558 60.4942 13.9225 60.5775V60.9109H10.7561C10.5894 60.2443 10.4228 59.3277 10.4228 58.1611C10.4228 57.4945 10.3395 56.9112 10.2561 56.5779C10.1728 56.2446 10.0062 55.9946 9.67285 55.828C9.33955 55.6613 8.8396 55.578 8.17299 55.578H5.17326V60.9109H2.50684ZM5.25659 53.2449H8.58962C9.33955 53.2449 9.92283 53.0782 10.2561 52.8283C10.5894 52.5783 10.7561 52.0783 10.7561 51.4117C10.7561 50.9117 10.5894 50.4951 10.3395 50.1618C10.0062 49.8285 9.5062 49.6619 8.75627 49.6619H5.17326V53.2449H5.25659Z" fill="#DEE3F0"/>
<path d="M22.0046 57.9095H24.7543C24.421 59.076 23.8378 59.826 23.0045 60.4093C22.1712 60.9092 21.2547 61.1592 20.2548 61.1592C19.5048 61.1592 18.8382 61.0759 18.2549 60.8259C17.6716 60.6592 17.0884 60.3259 16.6717 59.9093C16.2551 59.4927 15.8385 58.9094 15.5885 58.1594C15.3385 57.4095 15.1719 56.5763 15.1719 55.5763C15.1719 55.1597 15.2552 54.6598 15.3385 54.0765C15.4219 53.4932 15.6718 52.9933 16.0051 52.41C16.3384 51.8267 16.8384 51.4101 17.505 50.9934C18.1716 50.5768 19.0049 50.4102 20.0881 50.4102C20.6714 50.4102 21.1713 50.4935 21.7546 50.6601C22.3379 50.8268 22.8378 51.0768 23.2545 51.4934C23.7544 51.91 24.0877 52.4933 24.421 53.2432C24.671 53.9932 24.8377 54.9097 24.8377 55.993V56.4929H17.8383C17.8383 56.9096 17.9216 57.2429 18.0883 57.6595C18.1716 57.9928 18.4216 58.3261 18.7549 58.5761C19.0882 58.8261 19.5881 58.9927 20.2548 58.9927C20.6714 58.9927 21.0047 58.9094 21.338 58.6594C21.6713 58.5761 21.9213 58.2428 22.0046 57.9095ZM18.005 54.8264H22.1712C22.0879 54.0765 21.8379 53.4932 21.5046 53.1599C21.088 52.8266 20.6714 52.6599 20.1714 52.6599C18.8382 52.6599 18.1716 53.4099 18.005 54.8264Z" fill="#DEE3F0"/>
<path d="M35.0037 53.8272H32.4206C32.3373 53.4105 32.1707 53.0772 31.9207 52.8273C31.6707 52.5773 31.2541 52.494 30.5875 52.494C29.5042 52.494 28.9209 52.8272 28.9209 53.4938C28.9209 53.8272 29.2542 54.0771 30.0042 54.2438C30.7541 54.4105 31.504 54.5771 32.3373 54.8271C33.1706 54.9937 33.8372 55.327 34.4205 55.7437C35.0037 56.1603 35.2537 56.8269 35.2537 57.6601C35.2537 58.5767 35.0037 59.2433 34.5038 59.8266C34.0038 60.3266 33.4205 60.7432 32.7539 60.9099C32.0873 61.0765 31.4207 61.1598 30.7541 61.1598C29.4209 61.1598 28.2543 60.9099 27.3378 60.3266C26.4212 59.7433 25.9212 58.91 25.8379 57.6601H28.5876C28.5876 58.66 29.3376 59.16 30.8374 59.16C31.4207 59.16 31.9207 59.0767 32.1707 58.8267C32.4206 58.5767 32.5873 58.3267 32.5873 58.0768C32.5873 57.7435 32.1707 57.4102 31.4207 57.2435C30.6708 57.0769 29.9209 56.8269 29.0876 56.6602C28.3377 56.4936 27.5877 56.1603 27.0878 55.7437C26.5045 55.327 26.2545 54.6604 26.2545 53.8272C26.2545 53.2439 26.4212 52.7439 26.6711 52.244C26.9211 51.744 27.3378 51.3274 28.0044 50.9941C28.5876 50.6608 29.4209 50.4941 30.4208 50.4941C33.3372 50.4941 34.8371 51.5774 35.0037 53.8272Z" fill="#DEE3F0"/>
<path d="M39.9203 47.0781V49.5779H37.2539V47.0781H39.9203ZM37.2539 50.7445H39.9203V60.9102H37.2539V50.7445Z" fill="#DEE3F0"/>
<path d="M51.669 47.2441V60.9929H49.0859V59.743C48.5027 60.7429 47.5027 61.3262 46.1695 61.3262C45.253 61.3262 44.4197 61.0762 43.7531 60.5763C43.0865 60.0763 42.6699 59.4097 42.3366 58.5765C42.0032 57.7432 41.9199 56.8266 41.9199 55.91C41.9199 55.0768 42.0032 54.3268 42.2532 53.6602C42.5032 52.9936 42.7532 52.4104 43.1698 51.9937C43.5864 51.5771 44.0031 51.2438 44.503 50.9938C45.003 50.7438 45.5863 50.6605 46.0862 50.6605C47.3361 50.6605 48.336 51.1605 49.0026 52.2437V47.3275H51.669V47.2441ZM44.5863 55.91C44.5863 56.66 44.753 57.4099 45.0863 57.9932C45.4196 58.6598 46.0029 58.9931 46.7528 58.9931C47.5861 58.9931 48.1694 58.7431 48.5027 58.1598C48.9193 57.5765 49.0859 56.9099 49.0859 56.0767C49.0859 53.9102 48.336 52.827 46.8361 52.827C46.0862 52.827 45.5029 53.1603 45.0863 53.7436C44.753 54.2435 44.5863 54.9935 44.5863 55.91Z" fill="#DEE3F0"/>
<path d="M60.1687 57.9095H62.9184C62.5851 59.076 62.0018 59.826 61.1686 60.4093C60.3353 60.9092 59.4187 61.1592 58.4188 61.1592C57.6689 61.1592 57.0023 61.0759 56.419 60.8259C55.8357 60.6592 55.2524 60.3259 54.8358 59.9093C54.4192 59.4927 54.0025 58.9094 53.7526 58.1594C53.5026 57.4095 53.3359 56.5763 53.3359 55.5763C53.3359 55.1597 53.4193 54.6598 53.5026 54.0765C53.5859 53.4932 53.8359 52.9933 54.1692 52.41C54.5025 51.8267 55.0025 51.4101 55.6691 50.9934C56.3357 50.5768 57.1689 50.4102 58.2522 50.4102C58.8354 50.4102 59.3354 50.4935 59.9187 50.6601C60.502 50.8268 61.0019 51.0768 61.4185 51.4934C61.9185 51.91 62.2518 52.4933 62.5851 53.2432C62.8351 53.9932 63.0017 54.9097 63.0017 55.993V56.4929H56.0024C56.0024 56.9096 56.0857 57.2429 56.2523 57.6595C56.3357 57.9928 56.5856 58.3261 56.9189 58.5761C57.2523 58.8261 57.7522 58.9927 58.4188 58.9927C58.8354 58.9927 59.1687 58.9094 59.502 58.6594C59.8354 58.5761 60.0853 58.2428 60.1687 57.9095ZM56.169 54.8264H60.3353C60.252 54.0765 60.002 53.4932 59.6687 53.1599C59.2521 52.8266 58.8354 52.6599 58.3355 52.6599C57.0023 52.6599 56.3357 53.4099 56.169 54.8264Z" fill="#DEE3F0"/>
<path d="M74.0008 53.9105V60.9099H71.3344V54.7437C71.3344 54.4104 71.3344 54.0771 71.251 53.8272C71.1677 53.5772 71.0011 53.3272 70.7511 53.0772C70.5011 52.8272 70.0845 52.7439 69.5845 52.7439C69.1679 52.7439 68.8346 52.8273 68.5013 52.9939C68.168 53.1606 67.918 53.4105 67.7514 53.8272C67.5847 54.1605 67.5014 54.5771 67.5014 55.0771V60.9099H64.835V50.7441H67.4181V52.244C68.0847 51.0774 69.1679 50.4941 70.5011 50.4941C71.1677 50.4941 71.751 50.6608 72.3343 50.9108C72.8342 51.1607 73.2509 51.5774 73.5842 52.0773C73.8341 52.5773 74.0008 53.1605 74.0008 53.9105Z" fill="#DEE3F0"/>
<path d="M79.333 47.9941V50.7439H80.9995V52.6604H79.333V58.1599C79.333 58.4098 79.333 58.5765 79.4163 58.6598C79.4163 58.7432 79.5829 58.8265 79.6663 58.9098C79.8329 58.9931 80.0829 58.9931 80.4162 58.9931C80.4995 58.9931 80.7495 58.9931 80.9995 58.9931V60.9929C80.3329 60.9929 79.9162 61.0763 79.7496 61.0763H79.4163C78.6664 61.0763 78.0831 60.993 77.7498 60.8263C77.3331 60.6597 77.0832 60.4097 76.9165 60.0764C76.7499 59.7431 76.6665 59.3264 76.6665 58.9098V52.7437H75.25V50.7439H76.6665V47.9941H79.333Z" fill="#DEE3F0"/>
</svg>
