<svg width="205" height="232" viewBox="0 0 205 232" fill="none" xmlns="http://www.w3.org/2000/svg">
<path d="M175.445 40.3323L196.4 52.4453C190.949 49.2959 183.439 49.7804 175.202 54.5045C170.842 57.0482 166.844 60.4399 162.726 64.6794L141.771 52.5664C145.889 48.3269 150.007 44.8141 154.247 42.3915C162.484 37.6675 169.994 37.183 175.445 40.3323Z" fill="#AFBAD4"/>
<path d="M124.69 5.08323L145.646 17.1962C134.744 10.8975 119.724 11.7454 103.008 21.3146L82.0527 9.20163C98.7686 -0.36761 113.789 -1.33664 124.69 5.08323Z" fill="#AFBAD4"/>
<path d="M45.472 105.257L24.5166 93.144C31.421 59.9545 54.5567 25.1902 82.0532 9.32227L103.009 21.4352C75.5122 37.3032 52.3764 72.0674 45.472 105.257Z" fill="#AFBAD4"/>
<path d="M103.008 21.4355C136.077 2.29702 162.967 17.6805 163.088 55.7152C163.088 58.7434 162.967 61.7717 162.604 64.921C166.722 60.6815 170.841 57.1687 175.08 54.7461C191.554 45.1769 204.999 52.9292 204.999 71.8254C205.12 100.291 185.619 133.844 161.635 147.774L26.5754 225.781C4.77201 238.379 -13.2763 230.384 -16.5468 208.096C-17.7581 203.978 -18.3637 199.375 -18.3637 194.287C-18.4849 163.884 2.95507 126.818 29.4825 111.556C35.0544 108.285 40.5053 106.347 45.4716 105.499C52.376 72.0677 75.5117 37.3035 103.008 21.4355Z" fill="#034FA9"/>
<path d="M-16.5465 207.854L-37.5019 195.741C-38.7132 191.623 -39.3188 187.02 -39.3188 181.933C-39.44 151.529 -18 114.463 8.52738 99.201C14.0993 95.9305 19.5502 93.9924 24.5165 93.1445L45.4719 105.257C40.5056 106.105 35.0548 108.043 29.4828 111.314C2.95542 126.576 -18.3634 163.642 -18.3634 194.046C-18.3634 199.254 -17.6366 203.857 -16.5465 207.854Z" fill="#AFBAD4"/>
<path d="M135.35 70.1301L134.866 70.4935L135.35 70.1301V70.2512C135.35 71.5837 134.623 73.1583 133.533 74.0062C133.412 74.1274 133.17 74.2485 133.049 74.3696L132.927 74.4908C132.806 74.6119 132.564 74.6119 132.443 74.733C131.353 75.0964 130.505 74.4908 130.505 73.2795V73.1583C130.505 71.7048 131.474 69.8878 132.806 69.0399L132.927 68.9188C134.139 68.0709 135.229 68.6765 135.35 70.1301ZM134.26 70.8569C134.26 70.009 133.654 69.6456 132.927 70.1301H132.806C132.08 70.6146 131.474 71.5837 131.474 72.4316V72.5527C131.474 73.4006 132.08 73.6429 132.806 73.2795H132.927C133.654 72.6738 134.26 71.7048 134.26 70.8569Z" fill="#AFBAD4"/>
<path d="M120.694 78.4886L120.209 78.8519L120.694 78.4886V78.6097C120.694 79.9421 119.967 81.3957 118.877 82.3647C118.756 82.4858 118.513 82.607 118.392 82.7281L118.271 82.8492C118.15 82.9704 117.908 82.9704 117.787 83.0915C116.697 83.4549 115.849 82.8492 115.849 81.6379V81.5168C115.849 80.0632 116.818 78.2463 118.15 77.3984L118.271 77.2773C119.604 76.5505 120.573 77.035 120.694 78.4886ZM119.604 79.3365C119.604 78.4886 118.998 78.1252 118.271 78.6097H118.15C117.423 79.0942 116.818 80.0632 116.818 80.9112V81.0323C116.818 81.8802 117.423 82.1224 118.15 81.7591H118.271C118.998 81.1534 119.604 80.1844 119.604 79.3365Z" fill="#AFBAD4"/>
<path d="M118.876 82.3633L119.119 115.795L130.747 117.37C130.868 117.37 130.989 117.491 130.989 117.733L131.11 160.613C131.11 160.976 130.868 161.34 130.626 161.582C130.384 161.824 130.141 161.582 130.141 161.219L130.02 118.702L118.392 117.127C118.271 117.127 118.149 117.006 118.149 116.764L117.907 83.0901C118.028 83.0901 118.149 82.9689 118.392 82.8478C118.513 82.7267 118.755 82.6055 118.876 82.3633Z" fill="#AFBAD4"/>
<path d="M133.412 74.0059L133.655 107.438L145.283 109.012C145.404 109.012 145.525 109.133 145.525 109.376L145.646 152.256C145.646 152.619 145.404 152.982 145.162 153.225C144.92 153.346 144.677 153.225 144.677 152.861L144.556 110.345L132.928 108.77C132.807 108.77 132.686 108.649 132.686 108.407L132.443 74.7326C132.564 74.7326 132.807 74.6115 132.928 74.4904C133.17 74.2481 133.291 74.127 133.412 74.0059Z" fill="#AFBAD4"/>
<path d="M93.1971 91.8125C94.5295 91.0857 95.4985 91.8125 95.4985 93.266V93.3871C95.4985 94.7196 94.6506 96.2943 93.5604 97.1422C93.4393 97.2633 93.197 97.3844 93.0759 97.5056H92.9548C92.8336 97.6267 92.5914 97.6267 92.4703 97.7478C91.3801 98.1112 90.6533 97.3844 90.6533 96.052V95.9309C90.7744 94.4773 91.7435 92.6604 93.1971 91.8125ZM94.4083 93.9928C94.4083 93.1449 93.8027 92.7815 93.0759 93.1449H92.9548C92.228 93.5083 91.6224 94.5984 91.6224 95.4464V95.5675C91.6224 96.4154 92.228 96.7788 92.9548 96.4154H93.0759C93.8027 95.8097 94.4083 94.8407 94.4083 93.9928Z" fill="#AFBAD4"/>
<path d="M107.128 89.2678C107.249 89.2678 107.491 89.1466 107.612 89.0255C107.854 88.9044 107.975 88.7832 108.218 88.6621L108.097 122.578C108.097 122.821 107.975 123.063 107.854 123.305L96.2259 138.325L96.347 180.842C96.347 181.205 96.1048 181.569 95.8625 181.811C95.6203 181.932 95.2569 181.811 95.2569 181.447L95.1357 138.568C95.1357 138.325 95.2569 138.083 95.378 137.841L107.006 122.942L107.128 89.2678Z" fill="#AFBAD4"/>
<path d="M92.4713 97.7482C92.5924 97.7482 92.8347 97.6271 92.9558 97.506C93.1981 97.3848 93.4403 97.2637 93.5615 97.1426L93.4404 131.059C93.4404 131.301 93.3192 131.543 93.1981 131.786L81.5697 146.806L81.6908 189.322C81.6908 189.686 81.4485 190.049 81.2063 190.291C80.964 190.412 80.6006 190.291 80.6006 189.928L80.4795 147.048C80.4795 146.806 80.6006 146.563 80.7217 146.321L92.3502 131.301L92.4713 97.7482Z" fill="#AFBAD4"/>
<path d="M107.854 83.4531C109.187 82.7263 110.156 83.4531 110.156 84.9066V85.0278C110.156 86.3602 109.308 87.9349 108.218 88.7828C108.097 88.9039 107.975 89.025 107.733 89.1462H107.612C107.491 89.2673 107.249 89.2673 107.127 89.3884C106.037 89.6307 105.311 89.0251 105.311 87.6926V87.5715C105.311 85.9968 106.401 84.1799 107.854 83.4531ZM109.066 85.5123C109.066 84.6644 108.46 84.301 107.733 84.6644H107.612C106.885 85.0278 106.28 86.1179 106.28 86.9658V87.087C106.28 87.9349 106.885 88.2983 107.612 87.9349H107.733C108.46 87.4504 109.066 86.3602 109.066 85.5123Z" fill="#AFBAD4"/>
</svg>
