<svg width="360" height="390" viewBox="0 0 360 390" fill="none" xmlns="http://www.w3.org/2000/svg">
<g opacity="0.7">
<mask id="mask0_2002_11895" style="mask-type:alpha" maskUnits="userSpaceOnUse" x="0" y="0" width="360" height="390">
<rect width="360" height="390" rx="5" fill="url(#paint0_linear_2002_11895)"/>
</mask>
<g mask="url(#mask0_2002_11895)">
<path d="M147.994 35.9144C151.297 34.0087 154.092 35.5333 154.092 39.3446L154.346 129.8C154.346 133.612 151.678 138.312 148.375 140.218L31.113 207.933C27.8098 209.839 25.0148 208.314 25.0148 204.503L24.7607 114.047C24.7607 110.236 27.4287 105.535 30.7318 103.629L90.697 69.0731V59.5447C90.697 56.4956 92.8567 52.8114 95.5247 51.2868L138.212 26.6401C140.88 25.1156 143.039 26.386 143.039 29.4351V38.9635L147.994 35.9144ZM86.2504 134.247C85.8693 135.136 85.9963 136.026 86.5045 136.153L91.0781 137.296C91.3322 137.296 91.5863 137.296 91.8404 137.169C92.0945 137.042 92.3485 136.788 92.6026 136.407L97.1762 130.055C97.8115 129.292 97.9385 128.276 97.4303 127.768C97.1762 127.514 96.7951 127.514 96.414 127.768C96.1599 127.895 95.9058 128.149 95.6517 128.53L93.1108 132.087L92.9838 96.0065C92.9838 95.1172 92.3485 94.8631 91.7133 95.2443C90.951 95.6254 90.4429 96.6418 90.4429 97.5311L90.5699 133.612L88.029 132.977C87.7749 132.977 87.5208 132.977 87.2667 133.104C86.8856 133.231 86.5045 133.739 86.2504 134.247ZM107.848 138.821C108.61 138.439 109.118 137.423 109.118 136.534C109.118 135.645 108.483 135.39 107.848 135.772L75.1975 154.701C74.4352 155.082 73.927 156.099 73.927 156.988C73.927 157.877 74.5623 158.131 75.1975 157.75L107.848 138.821Z" stroke="#AFBAD4" stroke-miterlimit="10"/>
<path opacity="0.6" d="M131.86 25.6235C135.163 23.7178 137.958 25.2423 137.958 29.0537L138.213 119.51C138.213 123.321 135.545 128.022 132.241 129.927L14.9792 197.642C11.676 199.548 8.88104 198.023 8.88104 194.212L8.62695 103.756C8.62695 99.9446 11.2949 95.244 14.5981 93.3383L74.5632 58.7821V49.2538C74.5632 46.2047 76.7229 42.5204 79.3909 40.9959L121.951 16.2222C124.619 14.6976 126.779 15.9681 126.779 19.0171V28.5455L131.86 25.6235ZM69.9896 123.956C69.6084 124.845 69.7355 125.735 70.2436 125.862L74.8173 127.005C75.0713 127.005 75.3254 127.005 75.5795 126.878C75.8336 126.751 76.0877 126.497 76.3418 126.116L80.9154 119.764C81.5506 119.001 81.6777 117.985 81.1695 117.477C80.9154 117.223 80.5343 117.223 80.1531 117.477C79.899 117.604 79.645 117.858 79.3909 118.239L76.85 121.796V85.5886C76.85 84.6993 76.2147 84.4452 75.5795 84.8263C74.8173 85.2074 74.3091 86.2238 74.3091 87.1131L74.4361 123.194L71.8952 122.559C71.6411 122.559 71.387 122.559 71.133 122.686C70.6248 122.94 70.2436 123.448 69.9896 123.956ZM91.7142 128.53C92.4765 128.149 92.9846 127.132 92.9846 126.243C92.9846 125.354 92.3494 125.099 91.7142 125.481L59.0637 144.41C58.3014 144.791 57.7933 145.808 57.7933 146.697C57.7933 147.586 58.4285 147.84 59.0637 147.459L91.7142 128.53Z" stroke="#AFBAD4" stroke-miterlimit="10"/>
<path opacity="0.3" d="M116.36 13.807C119.664 11.9013 122.459 13.4258 122.459 17.2372L122.713 107.693C122.713 111.504 120.045 116.205 116.742 118.111L-0.647764 185.953C-3.95093 187.858 -6.74591 186.334 -6.74591 182.522L-7 91.9395C-7 88.1281 -4.33206 83.4275 -1.0289 81.5218L58.9362 46.9656V37.4373C58.9362 34.3882 61.096 30.7039 63.7639 29.1794L106.451 4.53272C109.119 3.00818 111.279 4.27863 111.279 7.3277V16.8561L116.36 13.807ZM54.4896 112.14C54.1085 113.029 54.2355 113.918 54.7437 114.045L59.3173 115.189C59.5714 115.189 59.8255 115.189 60.0796 115.062C60.3337 114.935 60.5878 114.68 60.8419 114.299L65.4155 107.947C66.0507 107.185 66.1778 106.168 65.6696 105.66C65.4155 105.406 65.0344 105.406 64.6532 105.66C64.3991 105.787 64.145 106.041 63.8909 106.423L61.3501 109.98L61.223 73.8991C61.223 73.0098 60.5878 72.7557 59.9526 73.1369C59.1903 73.518 58.6821 74.5344 58.6821 75.4237L58.8092 111.504L56.2683 110.869C56.0142 110.869 55.7601 110.869 55.506 110.996C55.1249 111.123 54.7437 111.631 54.4896 112.14ZM76.2143 116.713C76.9766 116.332 77.4847 115.316 77.4847 114.426C77.4847 113.537 76.8495 113.283 76.2143 113.664L43.5638 132.594C42.8015 132.975 42.2933 133.991 42.2933 134.881C42.2933 135.77 42.9286 136.024 43.5638 135.643L76.2143 116.713Z" stroke="#AFBAD4" stroke-miterlimit="10"/>
<path d="M102.639 175.153L96.1602 171.342L128.811 152.539L135.29 156.223L102.639 175.153Z" fill="#B6D6F0"/>
<path d="M102.639 172.104L96.1602 168.42L128.811 149.49L135.29 153.302L102.639 172.104Z" fill="#81A1D3"/>
<path d="M130.081 150.253C130.081 149.871 129.954 149.49 129.7 149.363L136.179 153.175C136.433 153.302 136.56 153.556 136.56 154.064C136.56 154.953 135.925 155.843 135.29 156.351L128.811 152.539C129.573 152.031 130.081 151.015 130.081 150.253Z" fill="#B6D6F0"/>
<path d="M129.7 149.363L136.179 153.174C135.925 153.047 135.671 153.047 135.29 153.301L128.811 149.49C129.192 149.236 129.446 149.236 129.7 149.363Z" fill="#81A1D3"/>
<path d="M120.045 153.937L113.565 150.126L118.139 143.773L124.618 147.458L120.045 153.937Z" fill="#B6D6F0"/>
<path d="M118.394 141.486L118.267 141.359L124.746 145.171L124.873 145.298C125.254 145.679 125.127 146.695 124.619 147.585L118.14 143.773C118.648 142.884 118.775 141.868 118.394 141.486Z" fill="#B6D6F0"/>
<path d="M118.52 154.826L112.041 151.014C112.295 151.014 112.549 151.014 112.803 150.887C113.057 150.76 113.311 150.506 113.566 150.125L120.045 153.936C119.791 154.19 119.537 154.445 119.283 154.699C119.028 154.826 118.774 154.826 118.52 154.826Z" fill="#B6D6F0"/>
<path d="M118.266 141.359L124.745 145.17C124.491 145.043 124.11 145.043 123.856 145.297C123.602 145.424 123.348 145.678 123.094 146.06L116.614 142.248C116.868 141.867 117.122 141.74 117.377 141.486C117.631 141.232 118.012 141.232 118.266 141.359Z" fill="#81A1D3"/>
<path d="M120.553 149.492L114.074 145.68L116.615 142.123L123.094 145.934L120.553 149.492Z" fill="#81A1D3"/>
<path d="M173.277 49.2517L179.756 53.0631C178.612 52.4279 177.088 52.5549 175.436 53.4442L168.957 49.6329C170.609 48.6165 172.133 48.4895 173.277 49.2517Z" fill="#AFBAD4"/>
<path d="M95.2715 171.469C95.5256 171.596 95.7797 171.596 96.1608 171.342L102.64 175.153C102.259 175.407 102.005 175.407 101.751 175.28C99.718 174.137 97.1772 172.612 95.2715 171.469Z" fill="#B6D6F0"/>
<path d="M113.947 153.682L107.468 149.871L112.041 151.014L118.521 154.826L113.947 153.682Z" fill="#B6D6F0"/>
<path d="M170.354 56.3662L163.875 52.5548L168.957 49.6328L175.436 53.4441L170.354 56.3662Z" fill="#AFBAD4"/>
<path d="M107.467 149.871C107.594 149.871 107.721 149.998 107.848 150.125C108.357 150.379 108.865 150.761 109.5 151.015C109.627 151.142 109.754 151.142 109.881 151.269C110.135 151.396 110.516 151.65 110.771 151.777C111.66 152.285 112.422 152.793 113.311 153.174C113.565 153.301 113.82 153.429 114.074 153.556C114.074 153.556 113.947 153.556 113.947 153.429L107.467 149.617C107.34 149.871 107.34 149.871 107.467 149.871Z" fill="#B6D6F0"/>
<path d="M115.471 150.38L108.992 146.568L111.406 147.204L117.885 151.015L115.471 150.38Z" fill="#81A1D3"/>
<path d="M135.29 153.302C136.052 152.921 136.561 153.175 136.561 154.065C136.561 154.954 135.925 155.843 135.29 156.351L102.64 175.281C101.877 175.662 101.369 175.408 101.369 174.519C101.369 173.63 102.004 172.74 102.64 172.232L135.29 153.302Z" fill="#81A1D3"/>
<path d="M101.75 175.28L95.2708 171.469C95.0167 171.342 94.8896 171.088 94.8896 170.58C94.8896 169.69 95.5249 168.801 96.1601 168.293L102.639 172.104C101.877 172.485 101.369 173.502 101.369 174.391C101.369 174.772 101.496 175.153 101.75 175.28Z" fill="#81A1D3"/>
<path d="M113.693 153.556L107.214 149.744C106.832 149.49 106.705 148.728 107.087 147.839C107.341 147.331 107.722 146.822 108.103 146.568C108.357 146.441 108.611 146.314 108.865 146.441L115.344 150.253C115.09 150.253 114.836 150.253 114.582 150.38C114.201 150.634 113.82 151.015 113.566 151.65C113.185 152.539 113.312 153.302 113.693 153.556Z" fill="#81A1D3"/>
<path d="M162.478 39.9781L168.957 43.7895C168.068 43.2813 166.925 43.4083 165.527 44.1706L159.048 40.3593C160.318 39.47 161.589 39.4699 162.478 39.9781Z" fill="#AFBAD4"/>
<path d="M117.886 114.807L111.406 110.996C111.406 110.106 112.041 109.217 112.677 108.709L119.156 112.52C118.394 113.029 117.886 114.045 117.886 114.807Z" fill="#81A1D3"/>
<path d="M120.554 149.49L114.074 145.678L113.947 109.598L120.427 113.282L120.554 149.49Z" fill="#B6D6F0"/>
<path d="M113.947 109.598C113.947 109.217 113.82 108.836 113.565 108.709L120.045 112.52C120.299 112.647 120.426 112.901 120.426 113.41C118.52 112.139 115.852 110.742 113.947 109.598Z" fill="#B6D6F0"/>
<path d="M117.886 151.015L111.406 147.204V111.123L117.886 114.807V151.015Z" fill="#81A1D3"/>
<path d="M113.566 108.708L120.045 112.52C119.791 112.393 119.537 112.393 119.156 112.647L112.677 108.835C113.058 108.581 113.312 108.581 113.566 108.708Z" fill="#81A1D3"/>
<path d="M119.155 112.521C119.918 112.14 120.426 112.394 120.426 113.283L120.553 149.364L123.094 145.807C123.348 145.426 123.602 145.299 123.856 145.045C124.237 144.79 124.618 144.79 124.872 145.045C125.254 145.426 125.127 146.442 124.618 147.331L120.045 153.684C119.791 153.938 119.537 154.192 119.282 154.446C119.028 154.573 118.774 154.7 118.52 154.573L113.947 153.43C113.311 153.302 113.184 152.413 113.692 151.524C113.947 151.016 114.328 150.507 114.709 150.253C114.963 150.126 115.217 149.999 115.471 150.126L118.012 150.762L117.885 114.808C117.885 114.046 118.393 113.029 119.155 112.521Z" fill="#81A1D3"/>
<path d="M54.1085 225.845L47.6292 222.034C46.4858 221.399 45.8506 220.001 45.8506 218.096L52.3299 221.907C52.3299 223.94 53.0921 225.337 54.1085 225.845Z" fill="#AFBAD4"/>
<path d="M118.14 86.4764L111.66 82.6651L111.533 73.1367L118.012 76.9481L118.14 86.4764Z" fill="#AFBAD4"/>
<path d="M122.84 68.6904L116.36 64.8791L159.047 40.2324L165.527 44.0438L122.84 68.6904Z" fill="#AFBAD4"/>
<path d="M118.012 76.9482L111.533 73.1368C111.533 70.0877 113.693 66.4034 116.361 64.8789L122.84 68.6902C120.172 70.2148 118.012 73.8991 118.012 76.9482Z" fill="#AFBAD4"/>
<path d="M52.33 222.033L45.8508 218.221L45.5967 127.766L52.076 131.577L52.33 222.033Z" fill="#AFBAD4"/>
<path d="M58.1746 121.161L51.6953 117.349L111.66 82.666L118.14 86.4774L58.1746 121.161Z" fill="#AFBAD4"/>
<path d="M52.076 131.577L45.5967 127.765C45.5967 123.954 48.2646 119.253 51.5678 117.348L58.0471 121.159C54.7439 123.065 52.076 127.765 52.076 131.577Z" fill="#AFBAD4"/>
<path d="M175.437 53.4457C178.74 51.5401 181.535 53.0646 181.535 56.876L181.789 147.332C181.789 151.143 179.121 155.844 175.818 157.749L58.4284 225.464C55.1252 227.37 52.3303 225.845 52.3303 222.034L52.0762 131.578C52.0762 127.767 54.7441 123.066 58.0473 121.161L118.139 86.4774V76.949C118.139 73.8999 120.299 70.2156 122.967 68.6911L165.654 44.0444C168.322 42.5199 170.482 43.7903 170.482 46.8394V56.3678L175.437 53.4457ZM113.566 151.778C113.185 152.668 113.312 153.557 113.82 153.684L118.394 154.827C118.648 154.827 118.902 154.827 119.156 154.7C119.41 154.573 119.664 154.319 119.918 153.938L124.492 147.586C125.127 146.824 125.254 145.807 124.746 145.299C124.492 145.045 124.111 145.045 123.729 145.299C123.475 145.426 123.221 145.68 122.967 146.061L120.426 149.619L120.299 113.538C120.299 112.649 119.664 112.394 119.029 112.776C118.266 113.157 117.758 114.173 117.758 115.062L117.885 151.143L115.344 150.508C115.09 150.508 114.836 150.508 114.582 150.635C114.201 150.762 113.82 151.143 113.566 151.778ZM135.29 156.225C136.053 155.844 136.561 154.827 136.561 153.938C136.561 153.049 135.926 152.795 135.29 153.176L102.64 172.106C101.878 172.487 101.37 173.503 101.37 174.392C101.37 175.282 102.005 175.536 102.64 175.155L135.29 156.225Z" fill="#034FA9"/>
<path d="M123.983 187.733L117.504 183.922L150.154 164.992L156.634 168.804L123.983 187.733Z" fill="#B6D6F0"/>
<path d="M123.983 184.684L117.504 180.873L150.154 162.07L156.634 165.755L123.983 184.684Z" fill="#81A1D3"/>
<path d="M151.553 162.833C151.553 162.452 151.426 162.07 151.172 161.943L157.651 165.755C157.905 165.882 158.032 166.136 158.032 166.644C158.032 167.533 157.397 168.423 156.761 168.931L150.282 165.119C150.917 164.611 151.553 163.595 151.553 162.833Z" fill="#B6D6F0"/>
<path d="M151.172 161.943L157.651 165.754C157.397 165.627 157.143 165.627 156.761 165.881L150.282 162.07C150.536 161.816 150.917 161.816 151.172 161.943Z" fill="#81A1D3"/>
<path d="M141.388 166.388L134.909 162.704L139.483 156.225L145.962 160.036L141.388 166.388Z" fill="#B6D6F0"/>
<path d="M139.737 154.066L139.61 153.939L146.09 157.751L146.217 157.878C146.598 158.259 146.471 159.275 145.963 160.165L139.483 156.353C139.992 155.464 140.246 154.448 139.737 154.066Z" fill="#B6D6F0"/>
<path d="M139.864 167.279L133.385 163.467C133.639 163.467 133.893 163.467 134.147 163.34C134.401 163.213 134.655 162.959 134.909 162.578L141.389 166.389C141.134 166.644 140.88 166.898 140.626 167.152C140.372 167.279 140.118 167.406 139.864 167.279Z" fill="#B6D6F0"/>
<path d="M139.61 153.939L146.089 157.75C145.835 157.623 145.454 157.623 145.2 157.877C144.945 158.004 144.691 158.258 144.437 158.64L137.958 154.828C138.212 154.447 138.466 154.32 138.72 154.066C139.101 153.812 139.356 153.812 139.61 153.939Z" fill="#81A1D3"/>
<path d="M141.897 161.943L135.418 158.258L137.959 154.701L144.438 158.513L141.897 161.943Z" fill="#81A1D3"/>
<path d="M194.62 61.7037L201.1 65.515C199.956 64.8798 198.432 65.0068 196.78 65.8961L190.301 62.0848C191.952 61.1955 193.477 61.0684 194.62 61.7037Z" fill="#AFBAD4"/>
<path d="M116.615 184.049C116.869 184.176 117.123 184.176 117.505 183.922L123.984 187.733C123.603 187.987 123.349 187.987 123.095 187.86C121.189 186.59 118.521 185.065 116.615 184.049Z" fill="#B6D6F0"/>
<path d="M135.291 166.263L128.812 162.451L133.385 163.595L139.864 167.279L135.291 166.263Z" fill="#B6D6F0"/>
<path d="M191.698 68.8193L185.219 65.008L190.301 62.0859L196.78 65.8973L191.698 68.8193Z" fill="#AFBAD4"/>
<path d="M128.811 162.451C128.938 162.451 129.065 162.578 129.192 162.705C129.7 162.96 130.209 163.341 130.844 163.595C130.971 163.722 131.098 163.722 131.225 163.849C131.479 163.976 131.86 164.23 132.114 164.357C133.004 164.865 133.766 165.373 134.655 165.755C134.909 165.882 135.163 166.009 135.417 166.136C135.417 166.136 135.29 166.136 135.29 166.009L128.811 162.197C128.684 162.451 128.684 162.451 128.811 162.451Z" fill="#B6D6F0"/>
<path d="M136.815 162.833L130.336 159.148L132.877 159.784L139.356 163.468L136.815 162.833Z" fill="#81A1D3"/>
<path d="M156.634 165.754C157.396 165.372 157.904 165.626 157.904 166.516C157.904 167.405 157.269 168.294 156.634 168.803L123.983 187.732C123.221 188.113 122.713 187.859 122.713 186.97C122.713 186.081 123.348 185.191 123.983 184.683L156.634 165.754Z" fill="#81A1D3"/>
<path d="M123.094 187.732L116.615 183.92C116.36 183.793 116.233 183.539 116.233 183.031C116.233 182.142 116.869 181.252 117.504 180.744L123.983 184.555C123.221 184.937 122.713 185.953 122.713 186.842C122.713 187.35 122.84 187.605 123.094 187.732Z" fill="#81A1D3"/>
<path d="M135.164 166.134L128.684 162.323C128.303 162.068 128.176 161.306 128.557 160.417C128.811 159.909 129.193 159.401 129.574 159.146C129.828 159.019 130.082 158.892 130.336 159.019L136.815 162.831C136.561 162.831 136.307 162.831 136.053 162.958C135.672 163.212 135.291 163.593 135.037 164.228C134.655 165.118 134.655 165.88 135.164 166.134Z" fill="#81A1D3"/>
<path d="M183.822 52.4299L190.301 56.2413C189.412 55.7331 188.268 55.8601 186.871 56.6224L180.392 52.811C181.789 52.0488 182.932 51.9217 183.822 52.4299Z" fill="#AFBAD4"/>
<path d="M139.229 127.387L132.75 123.576C132.75 122.687 133.385 121.797 134.02 121.289L140.5 125.1C139.737 125.482 139.229 126.498 139.229 127.387Z" fill="#81A1D3"/>
<path d="M141.897 161.943L135.418 158.259L135.291 122.051L141.77 125.862L141.897 161.943Z" fill="#B6D6F0"/>
<path d="M135.29 122.049C135.29 121.668 135.163 121.287 134.909 121.16L141.388 124.971C141.643 125.099 141.77 125.353 141.77 125.861C139.864 124.717 137.323 123.193 135.29 122.049Z" fill="#B6D6F0"/>
<path d="M139.356 163.466L132.877 159.782L132.75 123.574L139.229 127.386L139.356 163.466Z" fill="#81A1D3"/>
<path d="M134.91 121.289L141.389 125.1C141.135 124.973 140.881 124.973 140.5 125.227L134.021 121.416C134.402 121.161 134.783 121.161 134.91 121.289Z" fill="#81A1D3"/>
<path d="M140.499 125.099C141.261 124.718 141.77 124.972 141.77 125.862L141.897 161.942L144.438 158.385C144.692 158.004 144.946 157.877 145.2 157.623C145.581 157.369 145.962 157.369 146.216 157.623C146.597 158.004 146.47 159.02 145.962 159.91L141.388 166.262C141.134 166.516 140.88 166.77 140.626 167.024C140.372 167.151 140.118 167.278 139.864 167.151L135.29 166.008C134.655 165.881 134.528 164.991 135.036 164.102C135.29 163.594 135.671 163.086 136.053 162.832C136.307 162.704 136.561 162.577 136.815 162.704L139.356 163.34L139.229 127.259C139.229 126.497 139.737 125.48 140.499 125.099Z" fill="#81A1D3"/>
<path d="M75.4522 238.424L68.973 234.612C67.8296 233.977 67.1943 232.579 67.1943 230.674L73.6736 234.485C73.8007 236.518 74.4359 237.788 75.4522 238.424Z" fill="#AFBAD4"/>
<path d="M139.483 99.0545L133.004 95.2432V85.7148L139.483 89.5262V99.0545Z" fill="#AFBAD4"/>
<path d="M144.183 81.2686L137.704 77.4572L180.391 52.8105L186.87 56.6219L144.183 81.2686Z" fill="#AFBAD4"/>
<path d="M139.483 89.5263L133.004 85.7149C133.004 82.6659 135.164 78.9816 137.832 77.457L144.311 81.2684C141.516 82.7929 139.483 86.4772 139.483 89.5263Z" fill="#AFBAD4"/>
<path d="M73.8008 234.613L67.1945 230.802L66.9404 140.346L73.4197 144.03L73.8008 234.613Z" fill="#AFBAD4"/>
<path d="M79.5183 133.612L73.0391 129.927L133.004 95.2441L139.483 99.0555L79.5183 133.612Z" fill="#AFBAD4"/>
<path d="M73.4197 144.03L66.9404 140.218C66.9404 136.407 69.6084 131.706 72.9115 129.801L79.3908 133.612C76.2147 135.518 73.4197 140.218 73.4197 144.03Z" fill="#AFBAD4"/>
<path d="M196.78 65.8968C200.083 63.9912 202.878 65.5157 202.878 69.327L203.133 159.783C203.133 163.594 200.465 168.295 197.161 170.201L79.7722 238.042C76.469 239.948 73.674 238.424 73.674 234.612L73.4199 144.029C73.4199 140.218 76.0879 135.517 79.391 133.612L139.356 99.0555V89.5271C139.356 86.4781 141.516 82.7938 144.184 81.2692L186.871 56.6226C189.539 55.098 191.699 56.3685 191.699 59.4175V68.9459L196.78 65.8968ZM135.037 164.229C134.655 165.119 134.783 166.008 135.291 166.135L139.864 167.279C140.118 167.279 140.372 167.279 140.627 167.151C140.881 167.024 141.135 166.77 141.389 166.389L145.962 160.037C146.598 159.275 146.725 158.258 146.217 157.75C145.962 157.496 145.581 157.496 145.2 157.75C144.946 157.877 144.692 158.131 144.438 158.512L141.897 162.07L141.77 125.989C141.77 125.1 141.135 124.846 140.5 125.227C139.737 125.608 139.229 126.624 139.229 127.514L139.356 163.594L136.815 162.959C136.561 162.959 136.307 162.959 136.053 163.086C135.672 163.34 135.291 163.721 135.037 164.229ZM156.634 168.803C157.396 168.422 157.905 167.406 157.905 166.516C157.905 165.627 157.269 165.373 156.634 165.754L123.984 184.684C123.221 185.065 122.713 186.081 122.713 186.97C122.713 187.86 123.348 188.114 123.984 187.733L156.634 168.803Z" fill="#034FA9"/>
<path d="M146.85 199.421L140.371 195.736L173.022 176.807L179.501 180.618L146.85 199.421Z" fill="#B6D6F0"/>
<path d="M146.85 196.499L140.371 192.687L173.022 173.885L179.501 177.569L146.85 196.499Z" fill="#81A1D3"/>
<path d="M174.292 174.518C174.292 174.137 174.165 173.756 173.911 173.629L180.39 177.44C180.644 177.567 180.771 177.821 180.771 178.33C180.771 179.219 180.136 180.108 179.501 180.616L173.021 176.805C173.784 176.424 174.292 175.408 174.292 174.518Z" fill="#B6D6F0"/>
<path d="M173.911 173.757L180.39 177.569C180.136 177.442 179.882 177.442 179.501 177.696L173.021 173.884C173.403 173.63 173.657 173.63 173.911 173.757Z" fill="#81A1D3"/>
<path d="M164.256 178.203L157.776 174.518L162.35 168.039L168.829 171.85L164.256 178.203Z" fill="#B6D6F0"/>
<path d="M162.605 165.754L162.478 165.627L168.957 169.438L169.084 169.565C169.465 169.946 169.338 170.963 168.83 171.852L162.351 168.041C162.859 167.279 162.986 166.262 162.605 165.754Z" fill="#B6D6F0"/>
<path d="M162.731 179.093L156.252 175.282C156.506 175.282 156.76 175.282 157.014 175.155C157.268 175.028 157.522 174.774 157.776 174.393L164.256 178.204C164.002 178.458 163.748 178.712 163.493 178.966C163.239 179.093 162.985 179.22 162.731 179.093Z" fill="#B6D6F0"/>
<path d="M162.477 165.627L168.956 169.438C168.702 169.311 168.321 169.311 168.067 169.565C167.813 169.692 167.559 169.946 167.304 170.327L160.825 166.516C161.079 166.135 161.333 166.008 161.587 165.754C161.842 165.627 162.223 165.5 162.477 165.627Z" fill="#81A1D3"/>
<path d="M164.764 173.757L158.285 169.946L160.826 166.516L167.305 170.327L164.764 173.757Z" fill="#81A1D3"/>
<path d="M217.487 73.5181L223.967 77.3294C222.823 76.6942 221.299 76.8213 219.647 77.7106L213.168 73.8992C214.82 73.0099 216.344 72.8829 217.487 73.5181Z" fill="#AFBAD4"/>
<path d="M139.482 195.736C139.737 195.863 139.991 195.863 140.372 195.609L146.851 199.421C146.47 199.675 146.216 199.675 145.962 199.548C143.929 198.404 141.388 196.88 139.482 195.736Z" fill="#B6D6F0"/>
<path d="M158.158 177.95L151.679 174.266L156.252 175.282L162.732 179.093L158.158 177.95Z" fill="#B6D6F0"/>
<path d="M214.565 80.6338L208.086 76.8224L213.168 73.9004L219.647 77.7117L214.565 80.6338Z" fill="#AFBAD4"/>
<path d="M151.678 174.266C151.805 174.266 151.932 174.393 152.059 174.52C152.568 174.774 153.076 175.155 153.711 175.409C153.838 175.536 153.965 175.536 154.092 175.663C154.346 175.79 154.727 176.044 154.981 176.171C155.871 176.68 156.633 177.188 157.522 177.569C157.776 177.696 158.031 177.823 158.285 177.95C158.285 177.95 158.158 177.95 158.158 177.823L151.678 174.012C151.551 174.139 151.551 174.266 151.678 174.266Z" fill="#B6D6F0"/>
<path d="M159.682 174.647L153.203 170.963L155.617 171.471L162.223 175.282L159.682 174.647Z" fill="#81A1D3"/>
<path d="M179.501 177.568C180.263 177.187 180.771 177.441 180.771 178.33C180.771 179.22 180.136 180.109 179.501 180.617L146.851 199.547C146.088 199.928 145.58 199.674 145.58 198.784C145.58 197.895 146.215 197.006 146.851 196.498L179.501 177.568Z" fill="#81A1D3"/>
<path d="M145.961 199.546L139.482 195.735C139.228 195.608 139.101 195.354 139.101 194.845C139.101 193.956 139.736 193.067 140.371 192.559L146.85 196.37C146.088 196.751 145.58 197.767 145.58 198.657C145.58 199.165 145.707 199.419 145.961 199.546Z" fill="#81A1D3"/>
<path d="M158.031 177.95L151.552 174.139C151.17 173.885 151.043 173.123 151.424 172.233C151.679 171.725 152.06 171.217 152.441 170.963C152.695 170.836 152.949 170.709 153.203 170.836L159.682 174.647C159.428 174.647 159.174 174.647 158.92 174.774C158.539 175.028 158.158 175.409 157.904 176.045C157.396 176.934 157.523 177.696 158.031 177.95Z" fill="#81A1D3"/>
<path d="M206.689 64.2444L213.168 68.0557C212.279 67.5475 211.136 67.6746 209.738 68.4368L203.259 64.6255C204.656 63.8632 205.8 63.7362 206.689 64.2444Z" fill="#AFBAD4"/>
<path d="M162.096 139.202L155.617 135.39C155.617 134.501 156.252 133.612 156.888 133.104L163.367 136.915C162.605 137.296 162.096 138.312 162.096 139.202Z" fill="#81A1D3"/>
<path d="M164.765 173.757L158.285 169.946L158.158 133.865L164.637 137.677L164.765 173.757Z" fill="#B6D6F0"/>
<path d="M158.158 133.864C158.158 133.483 158.03 133.102 157.776 132.975L164.256 136.786C164.51 136.913 164.637 137.167 164.637 137.675C162.731 136.532 160.19 135.007 158.158 133.864Z" fill="#B6D6F0"/>
<path d="M162.224 175.281L155.617 171.469V135.389L162.096 139.2L162.224 175.281Z" fill="#81A1D3"/>
<path d="M157.777 132.976L164.256 136.788C164.002 136.661 163.748 136.661 163.367 136.915L156.888 133.103C157.269 132.976 157.523 132.849 157.777 132.976Z" fill="#81A1D3"/>
<path d="M163.366 136.914C164.129 136.533 164.637 136.787 164.637 137.676L164.764 173.757L167.305 170.199C167.559 169.818 167.813 169.691 168.067 169.437C168.448 169.183 168.829 169.183 169.083 169.437C169.464 169.818 169.337 170.835 168.829 171.724L164.256 178.076C164.002 178.33 163.747 178.584 163.493 178.838C163.239 178.965 162.985 179.093 162.731 178.966L158.157 177.822C157.522 177.695 157.395 176.806 157.903 175.916C158.158 175.408 158.539 174.9 158.92 174.646C159.174 174.519 159.428 174.392 159.682 174.519L162.223 175.154L162.096 139.073C162.096 138.311 162.604 137.295 163.366 136.914Z" fill="#81A1D3"/>
<path d="M98.3194 250.238L91.8402 246.427C90.6967 245.791 90.0615 244.394 90.0615 242.488L96.5408 246.3C96.5408 248.205 97.3031 249.603 98.3194 250.238Z" fill="#AFBAD4"/>
<path d="M162.35 110.869L155.871 107.058L155.744 97.5293L162.223 101.341L162.35 110.869Z" fill="#AFBAD4"/>
<path d="M167.051 93.083L160.571 89.2717L203.258 64.625L209.738 68.3093L167.051 93.083Z" fill="#AFBAD4"/>
<path d="M162.223 101.341L155.744 97.5294C155.744 94.4803 157.904 90.796 160.572 89.2715L167.051 93.0828C164.383 94.6074 162.223 98.2917 162.223 101.341Z" fill="#AFBAD4"/>
<path d="M96.541 246.3L90.0617 242.616L89.8076 152.033L96.2869 155.845L96.541 246.3Z" fill="#AFBAD4"/>
<path d="M102.386 145.426L95.9062 141.615L155.871 107.059L162.351 110.87L102.386 145.426Z" fill="#AFBAD4"/>
<path d="M96.2869 155.844L89.8076 152.033C89.8076 148.222 92.4756 143.521 95.7787 141.615L102.258 145.427C98.9548 147.332 96.2869 152.033 96.2869 155.844Z" fill="#AFBAD4"/>
<path d="M219.647 77.7113C222.951 75.8056 225.746 77.3301 225.746 81.1415L226 171.597C226 175.409 223.332 180.109 220.029 182.015L102.766 249.73C99.4631 251.635 96.6681 250.111 96.6681 246.3L96.4141 155.844C96.4141 152.032 99.082 147.332 102.385 145.426L162.35 110.87V101.342C162.35 98.2925 164.51 94.6082 167.178 93.0837L209.865 68.437C212.533 66.9125 214.693 68.1829 214.693 71.232V80.7603L219.647 77.7113ZM157.777 176.044C157.396 176.933 157.523 177.823 158.031 177.95L162.604 179.093C162.858 179.093 163.113 179.093 163.367 178.966C163.621 178.839 163.875 178.585 164.129 178.204L168.703 171.851C169.338 171.089 169.465 170.073 168.957 169.565C168.702 169.311 168.321 169.311 167.94 169.565C167.686 169.692 167.432 169.946 167.178 170.327L164.637 173.884L164.51 137.803C164.51 136.914 163.875 136.66 163.24 137.041C162.477 137.422 161.969 138.439 161.969 139.328L162.096 175.409L159.555 174.773C159.301 174.773 159.047 174.773 158.793 174.9C158.539 175.028 158.031 175.536 157.777 176.044ZM179.501 180.618C180.264 180.236 180.772 179.22 180.772 178.331C180.772 177.441 180.137 177.187 179.501 177.568L146.851 196.498C146.089 196.879 145.58 197.896 145.58 198.785C145.58 199.674 146.216 199.928 146.851 199.547L179.501 180.618Z" fill="#034FA9"/>
<path d="M177.342 -9.44196L188.268 -3.08972C185.473 -4.7413 181.534 -4.48721 177.215 -1.94632C174.928 -0.675872 172.768 1.10275 170.735 3.38956L159.81 -2.96268C161.969 -5.24948 164.129 -7.02811 166.289 -8.29855C170.481 -10.8394 174.42 -11.0935 177.342 -9.44196Z" fill="#AFBAD4"/>
<path d="M83.2019 89.0182L72.2761 82.666C68.9729 80.7603 66.6861 77.076 65.9238 71.8672L76.8497 78.2194C77.6119 83.4283 79.8987 87.1126 83.2019 89.0182Z" fill="#AFBAD4"/>
<path d="M109.246 24.4795L98.3203 18.1273C101.878 0.84922 114.074 -17.4452 128.43 -25.7031L139.356 -19.3509C125 -11.093 112.93 7.20145 109.246 24.4795Z" fill="#AFBAD4"/>
<path d="M139.482 -19.3504C156.76 -29.3869 170.862 -21.3831 170.862 -1.43711C170.862 0.0874252 170.735 1.73901 170.608 3.39059C172.768 1.10378 174.928 -0.674843 177.088 -1.94529C185.727 -6.90003 192.714 -2.96165 192.714 6.94784C192.714 21.8121 182.55 39.4713 169.973 46.7128L99.4632 87.4942C88.0292 94.1005 78.6279 89.908 76.8493 78.2199C76.214 76.0602 75.96 73.6463 75.96 70.9784C75.96 55.0978 87.1399 35.6599 100.988 27.6561C103.91 26.0045 106.705 24.8611 109.373 24.48C112.93 7.20193 124.999 -11.0925 139.482 -19.3504Z" fill="#034FA9"/>
<path d="M76.8493 78.2191L65.9235 71.8669C65.2883 69.7071 65.0342 67.2933 65.0342 64.6253C65.0342 48.7447 76.2141 29.3069 90.062 21.3031C92.984 19.6515 95.779 18.5081 98.4469 18.127L109.373 24.4792C106.705 24.9874 103.91 26.0037 100.988 27.6553C87.0129 35.6591 75.833 55.097 75.96 70.9776C75.96 73.6455 76.2141 76.0593 76.8493 78.2191Z" fill="#AFBAD4"/>
<path d="M136.687 124.844L130.335 121.16L130.081 59.0352L136.433 62.7195L136.687 124.844Z" fill="#81A1D3"/>
<path d="M143.422 30.3223L161.97 47.9815L149.774 54.9689L150.028 117.094L136.688 124.844L136.434 62.7187L124.873 69.452L143.422 30.3223Z" fill="white"/>
<path d="M124.873 69.4527L118.521 65.7684L137.069 26.6387L143.421 30.323L124.873 69.4527Z" fill="#81A1D3"/>
</g>
</g>
<defs>
<linearGradient id="paint0_linear_2002_11895" x1="108.875" y1="-5.4748e-07" x2="76.5753" y2="433.943" gradientUnits="userSpaceOnUse">
<stop stop-color="#0073CF"/>
<stop offset="1" stop-color="#073F92"/>
</linearGradient>
</defs>
</svg>
