<svg width="360" height="390" viewBox="0 0 360 390" fill="none" xmlns="http://www.w3.org/2000/svg">
<g opacity="0.7">
<mask id="mask0_2002_11673" style="mask-type:alpha" maskUnits="userSpaceOnUse" x="0" y="0" width="360" height="390">
<rect width="360" height="390" rx="5" fill="url(#paint0_linear_2002_11673)"/>
</mask>
<g mask="url(#mask0_2002_11673)">
<path d="M84.6912 23.0484C86.384 22.0067 88.3373 21.2254 90.0301 21.2254L155.399 19.4023C158.654 19.5326 161.259 21.2254 162.3 24.611L178.838 95.7092C179.228 99.6157 178.447 104.304 176.364 108.991L131.309 199.362C129.225 203.919 126.1 207.695 122.584 209.649C122.194 209.909 121.803 210.039 121.412 210.3L49.4025 251.839C45.7564 253.662 42.1104 253.792 39.506 252.36L-5.80931 214.206C-7.89278 211.993 -8.80429 208.347 -8.15321 203.789L7.73321 113.549C8.64473 108.861 10.9886 104.304 14.1138 100.788L79.3523 26.6945C81.0451 25.1319 82.9984 24.0901 84.6912 23.0484Z" stroke="#AFBAD4" stroke-miterlimit="10"/>
<g opacity="0.6">
<path opacity="0.6" d="M54.8709 12.6304C56.5637 11.5887 58.5169 10.8074 60.2098 10.8074L125.578 8.98438C128.834 9.11459 131.438 10.8074 132.48 14.193L149.017 85.2913C149.408 89.1978 148.627 93.8856 146.543 98.5734L101.488 188.944C99.4049 193.501 96.2797 197.278 92.7639 199.231C92.3732 199.491 91.9826 199.621 91.5919 199.882L19.5822 241.421C15.9361 243.244 12.2901 243.374 9.68574 241.942L-35.6296 203.788C-37.7131 201.575 -38.6246 197.929 -37.9735 193.371L-22.0871 103.131C-21.1756 98.4431 -18.8317 93.8856 -15.7065 90.3697L49.532 16.4067C51.2248 14.7139 53.1781 13.542 54.8709 12.6304Z" stroke="#AFBAD4" stroke-miterlimit="10"/>
</g>
<g opacity="0.3">
<path opacity="0.3" d="M24.9213 3.64606C26.6142 2.60433 28.5674 1.82303 30.2602 1.82303L95.6289 0C98.8843 0.130217 101.489 1.82303 102.53 5.20866L119.068 76.1767C119.459 80.0832 118.677 84.771 116.594 89.4588L71.5389 179.829C69.4554 184.387 66.3302 188.163 62.8144 190.116C62.4237 190.377 62.0331 190.507 61.6424 190.767L-10.3674 232.306C-14.0134 234.129 -17.6595 234.26 -20.2638 232.827L-65.449 194.674C-67.5324 192.46 -68.4439 188.814 -67.7929 184.256L-51.9064 94.0163C-50.9949 89.3286 -48.651 84.771 -45.5258 81.2551L19.5825 7.29213C21.2753 5.72953 23.2285 4.6878 24.9213 3.64606Z" stroke="#AFBAD4" stroke-miterlimit="10"/>
</g>
<path d="M189.776 27.866L205.532 37.1113C204.49 36.4602 203.188 36.1998 201.886 36.0696L186.13 26.8242C187.562 26.9544 188.734 27.2149 189.776 27.866Z" fill="#AFBAD4"/>
<path d="M86.1237 268.767L70.3675 259.651L24.9219 221.498L40.8083 230.613L86.1237 268.767Z" fill="#AFBAD4"/>
<path d="M40.8082 230.614L25.052 221.368C22.9686 219.155 22.057 215.509 22.7081 210.951L38.4643 220.197C37.683 224.754 38.5945 228.53 40.8082 230.614Z" fill="#AFBAD4"/>
<path d="M136.517 37.7624L120.761 28.6472L186.129 26.8242L202.016 36.0696L136.517 37.7624Z" fill="#AFBAD4"/>
<path d="M131.178 39.7149L115.422 30.4695C117.115 29.4278 119.068 28.6465 120.761 28.6465L136.517 37.8919C134.824 37.8919 132.871 38.6732 131.178 39.7149Z" fill="#AFBAD4"/>
<path d="M125.839 43.2313L110.083 33.9859C111.776 32.5535 113.729 31.3816 115.422 30.3398L131.178 39.5852C129.485 40.627 127.532 41.7989 125.839 43.2313Z" fill="#AFBAD4"/>
<path d="M38.3343 220.195L22.5781 211.08L38.4646 120.84L54.2208 129.955L38.3343 220.195Z" fill="#AFBAD4"/>
<path d="M60.6009 117.195L44.8447 107.95L110.083 34.1172L125.839 43.2323L60.6009 117.195Z" fill="#AFBAD4"/>
<path d="M54.2201 129.956L38.4639 120.71C39.3754 116.023 41.7193 111.465 44.8445 107.949L60.6007 117.195C57.3453 120.71 55.0014 125.268 54.2201 129.956Z" fill="#AFBAD4"/>
<path d="M131.178 39.7164C132.871 38.6746 134.825 37.8933 136.517 37.8933L201.886 36.0703C205.141 36.2005 207.746 37.8933 208.788 41.279L225.325 112.377C225.716 116.284 224.934 120.972 222.851 125.659L177.796 216.03C175.713 220.587 172.587 224.363 169.072 226.317C168.681 226.577 168.29 226.707 167.9 226.968L95.8898 268.507C92.2438 270.33 88.5977 270.46 85.9934 269.028L40.678 230.874C38.5945 228.661 37.683 225.015 38.3341 220.457L54.2205 130.217C55.132 125.529 57.4759 120.971 60.6011 117.456L125.84 43.4927C127.532 41.7998 129.486 40.6279 131.178 39.7164Z" fill="#034FA9"/>
<path d="M193.812 127.742C195.505 127.221 196.938 128.003 197.068 130.216C196.547 132.17 195.115 134.383 193.422 135.295C193.031 135.555 192.901 135.555 192.51 135.555C192.38 135.425 192.38 135.425 192.12 135.555C191.729 135.816 191.599 135.685 191.338 135.816C190.557 136.076 190.036 135.946 189.255 135.946C188.864 136.206 188.213 135.946 188.213 135.946C188.083 136.076 184.176 136.988 182.223 137.378C181.442 138.16 180.921 138.68 180.53 139.331L178.837 140.243C175.582 154.176 168.42 168.37 159.175 180.35L159.696 181.652C159.175 182.824 159.175 183.605 159.305 184.126C160.086 185.819 160.998 187.381 162.56 188.293C162.56 189.074 162.821 189.204 162.951 189.465C163.472 189.725 163.863 190.246 164.253 190.767C164.383 190.897 164.644 191.027 164.644 191.158C165.165 192.069 165.165 193.111 165.035 194.283C164.904 195.455 164.123 196.757 163.342 197.538C162.821 198.059 162.43 198.45 161.909 198.84C160.477 199.622 159.175 199.361 158.393 198.32C158.003 198.059 158.003 197.929 157.873 197.799C157.482 197.408 157.352 196.627 157.091 195.845L156.18 195.064C156.18 194.804 155.268 191.027 154.357 189.465C153.966 189.074 153.445 188.944 152.924 189.074L152.013 187.902C150.19 189.595 148.237 191.548 146.153 193.241C142.898 196.236 139.512 198.58 136.257 200.403C130.788 203.528 125.449 205.612 120.37 206.263L119.589 208.346C118.808 209.128 118.287 209.909 117.896 210.82C116.985 213.425 116.073 216.029 115.552 218.764L115.162 220.196C115.031 221.107 114.641 222.019 114.38 222.93C114.25 223.191 113.99 223.582 113.99 223.712C113.078 225.925 111.776 227.749 110.344 228.53C109.953 228.79 109.432 228.79 109.041 228.79C107.349 228.66 106.698 226.577 107.609 223.972C108 223.321 108 223.061 108.13 222.8C108.651 221.628 109.041 220.587 109.432 219.936C109.823 219.284 109.953 219.024 109.953 218.633C111.255 215.769 112.427 213.034 113.078 210.43C113.208 209.648 113.208 208.867 112.948 208.476L113.729 206.393C111.906 206.393 110.474 206.002 108.781 205.481C101.619 203.268 96.4104 197.668 93.6759 189.465L91.983 190.637C91.5924 190.376 91.2017 190.376 90.8111 190.637C90.6809 190.767 90.5507 190.897 90.2902 191.027C87.9463 192.59 84.3003 195.455 84.0398 195.715L84.6909 195.325C84.3003 195.585 83.9096 195.976 83.6492 196.366C83.1283 196.887 82.347 197.669 81.6959 198.32C81.5657 198.45 81.3053 198.45 81.1751 198.58C80.524 199.492 80.2635 199.622 80.0031 199.752C78.1801 200.794 76.7477 200.403 76.4873 198.84C76.0966 196.757 77.3988 193.892 79.352 192.33C79.4823 192.069 79.4823 192.069 79.7427 191.939C80.1333 191.679 80.2636 191.418 80.3938 191.288C81.0449 190.897 81.8261 190.246 82.4772 189.856C82.8679 189.465 83.2585 189.204 83.519 189.074C85.6024 187.642 87.6859 186.079 89.6391 184.256C90.16 183.475 90.6809 182.824 90.9413 182.043L92.5039 180.48C90.8111 169.542 93.155 155.999 98.6241 142.587C98.7543 142.066 99.0147 141.806 99.1449 141.285L98.1032 140.634C98.2334 139.983 97.8428 139.462 97.5823 139.201C96.15 138.42 94.3269 138.16 92.6341 137.899C92.2435 137.899 91.8528 137.899 91.5924 137.899C90.8111 137.899 90.16 137.899 89.6391 137.769C89.5089 137.899 89.1183 137.639 89.1183 137.639C87.5557 136.857 87.165 134.644 88.2068 132.039C88.7276 130.737 89.6391 129.695 90.6809 129.175C91.5924 128.654 92.5039 128.524 93.155 128.784C93.5456 129.044 93.6759 128.914 93.9363 129.044C94.4572 129.305 94.8478 129.826 95.3687 130.086C95.4989 130.216 95.8895 130.216 96.0198 130.477C97.3219 131.388 98.8845 132.17 100.447 132.69C100.838 132.69 101.228 132.69 101.489 132.56C101.879 132.3 102.01 132.039 102.27 131.909L103.572 132.039C109.432 121.362 117.115 111.595 125.449 104.694C127.532 103.001 129.616 101.438 131.569 100.136L131.699 98.3133C131.699 98.0528 132.871 96.36 133.131 95.5787C133.131 93.1046 133.131 90.7607 132.611 88.6772C132.741 88.0262 132.741 87.5053 132.48 87.2449C132.35 86.4636 132.09 85.8125 131.699 85.1614V84.1197C131.699 83.9894 132.48 81.5153 133.262 80.2132C134.043 78.7808 134.955 77.7391 135.996 77.088C136.126 76.9578 136.257 76.9578 136.387 76.8275C138.21 75.916 139.642 77.2182 139.903 79.3016V80.6038C139.903 80.734 139.382 82.5571 139.121 83.5988C139.121 83.9894 138.991 84.5103 138.991 84.901C138.601 87.8959 138.601 90.1096 138.601 92.4535C138.731 92.9744 138.991 93.4952 139.903 93.365L139.773 94.9276C148.367 91.0211 156.831 89.9794 163.602 92.0629C165.035 92.8442 166.727 93.6255 168.16 94.4068L169.592 92.7139C170.113 92.5837 170.504 92.3233 170.634 92.3233C171.024 92.0629 171.415 91.6722 171.806 91.2816C173.499 89.0679 175.061 86.4636 176.363 83.9894C176.494 83.729 176.884 83.2081 177.145 82.6873C177.535 81.906 178.056 80.8642 178.577 79.9527C178.707 79.8225 178.968 79.5621 179.098 79.1714C180.009 77.739 180.921 76.8275 181.832 76.3067C182.744 75.7858 183.916 75.7858 184.437 76.3067C185.739 77.4786 185.348 80.2132 183.656 82.6873C183.525 83.4686 183.265 83.4686 183.135 83.8592C182.353 84.6405 181.832 85.4218 181.051 86.3333C180.661 86.724 180.27 87.1146 180.009 87.6355C178.186 89.9794 176.494 92.1931 174.931 94.7974C174.54 95.4485 174.41 96.36 174.41 97.0111L173.368 99.0946C176.363 102.741 178.577 107.298 179.879 112.767C181.051 118.236 181.442 124.357 180.661 130.998L182.093 130.607C181.832 130.737 182.614 131.258 183.135 131.128C185.088 130.607 189.125 129.565 189.385 129.565C189.515 129.435 190.297 128.524 190.687 128.263C191.468 127.872 192.12 127.482 192.901 127.221C193.292 126.961 193.682 126.831 193.682 126.961C193.422 127.872 193.552 127.742 193.812 127.742ZM166.206 154.437C167.639 151.311 168.811 147.926 169.722 144.41L151.362 151.442C150.841 151.702 150.32 152.223 149.669 152.874C148.367 154.306 147.716 156.39 147.976 157.822L155.138 173.448C159.565 167.719 163.472 161.078 166.206 154.437ZM123.235 172.537C123.626 171.755 123.626 170.844 123.365 170.323C123.235 168.76 121.672 168.5 120.24 169.412L102.14 183.475C104.744 190.376 109.823 194.804 116.334 195.976L123.235 172.537ZM105.265 146.103C101.228 156.26 99.4054 166.286 100.056 174.881L117.766 158.734C118.547 158.083 118.808 157.692 119.198 156.78C120.24 154.697 120.11 152.744 118.808 152.093L105.265 146.103ZM143.809 185.558C145.111 184.386 146.153 183.605 147.325 182.694L138.47 169.412C137.949 169.151 137.559 168.891 137.038 168.76C136.647 168.76 136.126 168.891 135.606 169.151C134.694 169.672 133.913 170.583 133.392 171.755L124.407 195.715C128.053 194.804 132.09 193.371 135.996 191.158C138.731 189.595 141.335 187.642 143.809 185.558ZM127.532 114.721C121.152 120.059 115.292 127.221 110.474 135.295L125.709 138.941C126.23 138.811 126.621 138.811 127.142 138.55C128.834 137.639 130.267 135.295 130.267 133.342L131.178 111.726L127.532 114.721ZM171.415 133.602C171.806 128.914 171.545 124.617 170.634 120.711C169.722 116.804 168.29 113.418 166.206 110.814L152.534 133.081C152.143 133.732 152.013 134.253 151.752 135.034C151.362 137.118 152.273 138.55 153.966 138.029L171.415 133.602ZM160.737 106.256C155.268 103.131 148.106 103.261 140.033 106.908L141.205 127.482C141.205 128.133 141.335 128.393 141.726 128.654C142.247 129.175 143.158 129.175 144.07 128.654C144.591 128.263 145.242 127.872 145.762 127.221L160.737 106.256ZM133.131 144.801L129.616 151.832L130.918 157.171L135.866 157.041L140.814 151.442L142.116 144.67L138.601 141.675L133.131 144.801Z" fill="#AFBAD4"/>
</g>
</g>
<defs>
<linearGradient id="paint0_linear_2002_11673" x1="108.875" y1="-5.4748e-07" x2="76.5753" y2="433.943" gradientUnits="userSpaceOnUse">
<stop stop-color="#0073CF"/>
<stop offset="1" stop-color="#073F92"/>
</linearGradient>
</defs>
</svg>
