<svg width="360" height="390" viewBox="0 0 360 390" fill="none" xmlns="http://www.w3.org/2000/svg">
<g opacity="0.7">
<mask id="mask0_2002_12125" style="mask-type:alpha" maskUnits="userSpaceOnUse" x="0" y="0" width="360" height="390">
<rect width="360" height="390" rx="5" fill="url(#paint0_linear_2002_12125)"/>
</mask>
<g mask="url(#mask0_2002_12125)">
<path d="M233.97 182.033C241.688 186.481 241.688 193.677 234.1 198.125L134.148 256.213C126.56 260.661 114.131 260.661 106.412 256.213L5.80559 198.125C-1.91325 193.677 -1.91325 186.481 5.67477 182.033L105.627 123.945C113.215 119.497 125.644 119.497 133.363 123.945L233.97 182.033Z" stroke="#AFBAD4" stroke-miterlimit="10"/>
<g opacity="0.6">
<path opacity="0.6" d="M233.97 206.76C241.688 211.208 241.688 218.403 234.1 222.851L134.148 280.939C126.56 285.387 114.131 285.387 106.412 280.939L5.80559 222.851C-1.91325 218.403 -1.91325 211.208 5.67477 206.76L105.627 148.672C113.215 144.224 125.644 144.224 133.363 148.672L233.97 206.76Z" stroke="#AFBAD4" stroke-miterlimit="10"/>
</g>
<g opacity="0.3">
<path opacity="0.3" d="M233.97 231.486C241.688 235.934 241.688 243.13 234.1 247.578L134.148 305.666C126.56 310.114 114.131 310.114 106.412 305.666L5.80559 247.578C-1.91325 243.13 -1.91325 235.934 5.67477 231.486L105.627 173.399C113.215 168.95 125.644 168.95 133.363 173.399L233.97 231.486Z" stroke="#AFBAD4" stroke-miterlimit="10"/>
</g>
<path d="M239.726 153.904V162.277C239.726 163.716 238.679 165.286 236.717 166.464V158.091C238.679 156.913 239.726 155.343 239.726 153.904Z" fill="#AFBAD4"/>
<path d="M0.834961 162.146V153.773C0.834961 155.343 1.88158 156.782 3.844 157.96V166.333C1.88158 165.155 0.834961 163.586 0.834961 162.146Z" fill="#AFBAD4"/>
<path d="M236.717 157.959V166.332L127.868 229.653V221.28L236.717 157.959Z" fill="#AFBAD4"/>
<path d="M113.478 221.28V229.653L3.84375 166.332V157.959L113.478 221.28Z" fill="#AFBAD4"/>
<path d="M236.717 149.587C240.773 151.942 240.773 155.605 236.717 157.96L127.868 221.281C123.944 223.635 117.402 223.635 113.477 221.281L3.84351 157.96C-0.212159 155.605 -0.212159 151.942 3.84351 149.587L112.692 86.2662C116.617 83.9113 123.159 83.9113 127.083 86.2662L236.717 149.587Z" fill="#034FA9"/>
<path d="M127.869 221.281V229.654C123.944 232.009 117.402 232.009 113.478 229.654V221.281C117.402 223.636 123.944 223.636 127.869 221.281Z" fill="#AFBAD4"/>
<path d="M198.908 148.802C200.347 149.718 201.132 150.764 201.132 151.942C201.132 153.119 200.347 154.166 198.908 155.082L148.408 184.518L122.243 169.342C122.112 169.211 121.981 169.211 121.719 169.211L108.375 171.043L87.4423 159.137C87.9656 158.614 87.8348 157.829 87.0499 157.437C86.0032 156.913 84.5641 156.913 83.6483 157.437C82.7325 158.091 82.7325 158.876 83.6483 159.399C84.5641 159.922 85.8724 159.922 86.6574 159.53L107.721 171.566C107.851 171.697 107.982 171.697 108.244 171.697L121.588 169.865L147.623 184.91L138.073 190.405L111.907 175.229C111.776 175.098 111.645 175.098 111.384 175.098L98.0394 176.93L77.1069 165.025C77.6302 164.501 77.4994 163.716 76.7144 163.324C75.6678 162.801 74.2287 162.801 73.3129 163.324C72.3971 163.978 72.3971 164.763 73.3129 165.286C74.2287 165.81 75.537 165.81 76.4528 165.417L97.5161 177.453C97.6469 177.584 97.7777 177.584 98.0394 177.584L111.384 175.752L137.288 190.798L125.382 197.732C123.943 198.647 121.981 199.04 120.018 199.04C118.056 199.04 116.094 198.647 114.655 197.732L40.7368 155.082C39.2977 154.166 38.5127 153.119 38.5127 151.942C38.5127 150.764 39.2977 149.718 40.7368 148.802L91.1055 119.496L114.916 133.233C115.047 133.364 115.309 133.364 115.44 133.364L128.391 131.271L147.492 142.13C146.969 142.653 147.231 143.307 147.885 143.83C148.931 144.354 150.371 144.354 151.286 143.83C152.202 143.176 152.202 142.391 151.286 141.868C150.371 141.345 149.062 141.345 148.146 141.737L128.915 130.748C128.784 130.617 128.522 130.617 128.391 130.617L115.44 132.71L91.7597 119.104L101.31 113.609L125.121 127.346C125.252 127.477 125.513 127.477 125.644 127.477L138.596 125.384L157.697 136.242C157.304 136.766 157.435 137.42 158.22 137.812C159.267 138.336 160.706 138.336 161.622 137.812C162.538 137.158 162.538 136.373 161.622 135.85C160.706 135.327 159.267 135.327 158.351 135.719L139.119 124.73C138.989 124.599 138.727 124.599 138.596 124.599L125.644 126.692L101.964 113.086L114 106.152C115.44 105.236 117.402 104.844 119.364 104.844C121.327 104.844 123.289 105.236 124.728 106.152L198.908 148.802Z" fill="#AFBAD4"/>
<path d="M185.825 5.54391L202.571 15.356C198.253 12.8703 192.235 13.1319 185.563 17.0568C182.161 19.0192 178.891 21.7666 175.489 25.1681L158.743 15.356C162.014 11.9545 165.285 9.20709 168.817 7.24467C175.489 3.31984 181.507 3.05818 185.825 5.54391Z" fill="#034FA9"/>
<path d="M41.7827 156.39L25.0367 146.578C19.9344 143.569 16.4021 137.943 15.2246 129.963L31.9706 139.775C33.2789 147.755 36.6804 153.381 41.7827 156.39Z" fill="#034FA9"/>
<path d="M81.6854 57.4835L64.9395 47.6714C70.4342 21.2441 89.0118 -6.62222 111.122 -19.4434L127.868 -9.63126C105.758 3.05904 87.311 30.9254 81.6854 57.4835Z" fill="#034FA9"/>
<path d="M127.868 -9.63061C154.426 -24.9375 175.882 -12.6397 176.013 17.8433C176.013 20.1982 175.882 22.6839 175.62 25.1696C178.891 21.7681 182.162 19.0207 185.694 17.0583C198.908 9.47027 209.635 15.6192 209.635 30.6644C209.635 53.4285 194.198 80.379 174.835 91.4994L66.5097 154.035C49.1096 163.978 34.7185 157.567 32.102 139.775C31.1862 136.504 30.6628 132.841 30.6628 128.655C30.532 104.321 47.8013 74.6226 68.9954 62.3248C73.4436 59.7082 77.7609 58.1383 81.8166 57.4841C87.3113 30.926 105.758 3.0597 127.868 -9.63061Z" fill="#81A1D3"/>
<path d="M32.1018 139.775L15.3559 129.963C14.4401 126.692 13.9168 123.029 13.9168 118.842C13.7859 94.6391 30.9244 64.9412 52.1185 52.6434C56.5667 50.0268 60.884 48.4569 64.9396 47.8027L81.6856 57.6148C77.63 58.269 73.3126 59.8389 68.8645 62.4555C47.6704 74.7533 30.5319 104.451 30.5319 128.785C30.6627 132.841 31.186 136.504 32.1018 139.775Z" fill="#034FA9"/>
<path opacity="0.6" d="M140.951 57.2224L148.146 48.9802C148.146 48.7186 148.146 48.5878 148.146 48.3261C148.146 45.7095 149.978 42.4388 152.333 41.1306C154.688 39.8223 156.519 40.8689 156.519 43.4855C156.519 46.102 154.688 49.3727 152.333 50.681C151.155 51.3351 150.109 51.466 149.324 50.9427L142.128 59.1848C142.128 59.3156 142.128 59.5773 142.128 59.839C142.128 62.4555 140.297 65.7262 137.942 67.0345C137.418 67.2961 137.026 67.427 136.633 67.5578L127.083 87.967C127.606 88.4903 127.868 89.2752 127.868 90.3219C127.868 92.9384 126.036 96.2091 123.681 97.5174C121.326 98.8257 119.495 97.779 119.495 95.1625C119.495 94.3775 119.626 93.4617 120.018 92.6768L111.122 87.3128C110.599 87.8361 109.944 88.3594 109.29 88.7519C108.636 89.1444 107.982 89.2752 107.459 89.2752L98.6932 104.844C98.9549 105.367 99.2166 106.021 99.2166 106.806C99.2166 109.423 97.385 112.693 95.0301 114.002C92.6752 115.31 90.8436 114.263 90.8436 111.647C90.8436 109.03 92.6752 105.76 95.0301 104.451C95.6842 104.059 96.3383 103.928 96.8617 103.928L105.627 88.2286C105.365 87.7053 105.104 87.0512 105.104 86.2662C105.104 83.6496 106.935 80.3789 109.29 79.0707C111.645 77.7624 113.477 78.809 113.477 81.4256C113.477 82.2105 113.346 83.1263 112.953 83.9113L121.85 89.2752C122.373 88.6211 123.027 88.0978 123.681 87.7053C124.074 87.4436 124.597 87.3128 124.99 87.182L134.54 66.7728C134.017 66.2495 133.755 65.4646 133.755 64.4179C133.755 61.8014 135.587 58.5307 137.942 57.2224C139.119 56.8299 140.297 56.6991 140.951 57.2224ZM163.191 24.7771L83.9097 70.5668C82.8631 71.221 81.9473 72.6601 81.9473 73.9684L82.0781 129.309C82.0781 130.486 82.9939 131.009 84.0405 130.486L163.322 84.6963C164.369 84.0421 165.285 82.603 165.285 81.2947L165.154 25.9545C165.154 24.7771 164.238 24.2538 163.191 24.7771Z" fill="white"/>
<path d="M152.333 41.1296C149.978 42.4379 148.146 45.7086 148.146 48.3252C148.146 48.5868 148.146 48.7177 148.146 48.9793L140.951 57.2215C140.166 56.829 139.119 56.829 137.942 57.4831C135.587 58.7914 133.755 62.0621 133.755 64.6787C133.755 65.7253 134.017 66.5103 134.54 67.0336L124.99 87.3119C124.597 87.4427 124.074 87.5735 123.682 87.8352C123.027 88.2277 122.373 88.751 121.85 89.4051L112.954 84.0412C113.215 83.2562 113.477 82.3404 113.477 81.5555C113.477 78.9389 111.645 77.8923 109.29 79.2006C106.936 80.5088 105.104 83.7795 105.104 86.3961C105.104 87.1811 105.235 87.8352 105.627 88.3585L96.8618 104.058C96.3385 104.058 95.6844 104.189 95.0302 104.581C92.6753 105.889 90.8438 109.16 90.8438 111.777C90.8438 114.393 92.6753 115.44 95.0302 114.132C97.3851 112.823 99.2167 109.553 99.2167 106.936C99.2167 106.151 99.0859 105.497 98.6934 104.974L107.459 89.4051C107.982 89.4051 108.636 89.2743 109.29 88.8818C109.945 88.4893 110.599 87.966 111.122 87.3119L120.018 92.6758C119.757 93.4608 119.495 94.3766 119.495 95.1616C119.495 97.7781 121.327 98.8247 123.682 97.5165C126.036 96.2082 127.868 92.9375 127.868 90.3209C127.868 89.2743 127.606 88.4893 127.083 87.966L136.634 67.5569C137.026 67.4261 137.549 67.2952 137.942 67.0336C140.297 65.7253 142.128 62.4546 142.128 59.838C142.128 59.5764 142.128 59.4455 142.128 59.1839L149.324 50.9417C150.109 51.3342 151.155 51.3342 152.333 50.6801C154.688 49.3718 156.519 46.1011 156.519 43.4845C156.519 40.868 154.688 39.8214 152.333 41.1296Z" fill="white"/>
<path opacity="0.6" d="M186.74 138.859C186.086 139.252 185.563 138.99 185.563 138.205C185.563 137.42 186.086 136.504 186.74 136.112L191.843 133.103C192.497 132.71 193.02 132.972 193.02 133.757C193.02 134.542 192.497 135.458 191.843 135.85L186.74 138.859ZM197.076 132.841C196.422 133.234 195.898 132.972 195.898 132.187C195.898 131.402 196.422 130.486 197.076 130.094L202.178 127.085C202.832 126.692 203.356 126.954 203.356 127.739C203.356 128.524 202.832 129.44 202.178 129.832L197.076 132.841ZM186.74 129.047C186.086 129.44 185.563 129.178 185.563 128.393C185.563 127.608 186.086 126.692 186.74 126.3L231.484 100.527C232.138 100.134 232.661 100.396 232.661 101.181C232.661 101.966 232.138 102.881 231.484 103.274L186.74 129.047ZM186.74 119.235C186.086 119.627 185.563 119.366 185.563 118.581C185.563 117.796 186.086 116.88 186.74 116.488L211.859 101.966C212.514 101.573 213.037 101.835 213.037 102.62C213.037 103.405 212.514 104.321 211.859 104.713L186.74 119.235ZM216.962 101.704C216.308 102.097 215.784 101.835 215.784 101.05C215.784 100.265 216.308 99.3491 216.962 98.9567L220.102 97.1251C220.756 96.7326 221.279 96.9942 221.279 97.7792C221.279 98.5642 220.756 99.48 220.102 99.8724L216.962 101.704ZM225.596 96.7326C224.942 97.1251 224.419 96.8634 224.419 96.0784C224.419 95.2935 224.942 94.3777 225.596 93.9852L246.006 82.2107C246.66 81.8182 247.183 82.0798 247.183 82.8648C247.183 83.6498 246.66 84.5656 246.006 84.9581L225.596 96.7326ZM186.74 109.423C186.086 109.815 185.563 109.554 185.563 108.769C185.563 107.984 186.086 107.068 186.74 106.676L229.39 82.0799C230.045 81.6874 230.568 81.949 230.568 82.734C230.568 83.519 230.045 84.4348 229.39 84.8272L186.74 109.423ZM234.623 81.6874C233.969 82.0799 233.446 81.8182 233.446 81.0332C233.446 80.2483 233.969 79.3325 234.623 78.94L246.006 72.3986C246.66 72.0061 247.183 72.2678 247.183 73.0527C247.183 73.8377 246.66 74.7535 246.006 75.146L234.623 81.6874ZM170.91 122.244C168.948 123.421 167.378 122.506 167.378 120.151C167.378 117.927 168.948 115.179 170.91 114.002C172.873 112.824 174.443 113.74 174.443 116.095C174.443 118.319 172.873 121.067 170.91 122.244ZM253.332 58.9233L162.014 111.647C160.444 112.563 159.267 114.656 159.267 116.488L159.397 160.969C159.397 162.67 160.706 163.455 162.145 162.539L253.463 109.815C255.033 108.9 256.21 106.806 256.21 104.975L256.079 60.4932C256.079 58.7925 254.771 58.1383 253.332 58.9233Z" fill="#81A1D3"/>
<path d="M229.26 82.0807L186.61 106.676C185.956 107.069 185.433 107.985 185.433 108.77C185.433 109.555 185.956 109.816 186.61 109.424L229.26 84.8281C229.914 84.4356 230.437 83.5198 230.437 82.7348C230.568 81.9499 229.914 81.6882 229.26 82.0807Z" fill="#81A1D3"/>
<path d="M211.729 101.965L186.61 116.487C185.956 116.88 185.433 117.796 185.433 118.581C185.433 119.366 185.956 119.627 186.61 119.235L211.729 104.713C212.383 104.32 212.906 103.405 212.906 102.62C213.037 101.835 212.514 101.573 211.729 101.965Z" fill="#81A1D3"/>
<path d="M231.353 100.395L186.61 126.168C185.956 126.56 185.433 127.476 185.433 128.261C185.433 129.046 185.956 129.308 186.61 128.915L231.353 103.142C232.007 102.75 232.531 101.834 232.531 101.049C232.661 100.395 232.138 100.002 231.353 100.395Z" fill="#81A1D3"/>
<path d="M191.842 133.102L186.74 136.111C186.086 136.504 185.562 137.42 185.562 138.204C185.562 138.989 186.086 139.251 186.74 138.859L191.842 135.85C192.496 135.457 193.02 134.541 193.02 133.756C193.151 132.971 192.627 132.71 191.842 133.102Z" fill="#81A1D3"/>
<path d="M220.102 97.1256L216.962 98.9572C216.308 99.3497 215.784 100.266 215.784 101.05C215.784 101.835 216.308 102.097 216.962 101.705L220.102 99.873C220.756 99.4805 221.279 98.5647 221.279 97.7798C221.41 96.9948 220.756 96.7331 220.102 97.1256Z" fill="#81A1D3"/>
<path d="M246.136 82.0807L225.727 93.8553C225.073 94.2477 224.55 95.1635 224.55 95.9485C224.55 96.7335 225.073 96.9951 225.727 96.6026L246.136 84.8281C246.791 84.4356 247.314 83.5198 247.314 82.7349C247.314 82.0807 246.791 81.8191 246.136 82.0807Z" fill="#81A1D3"/>
<path d="M246.006 72.3991L234.624 78.9405C233.97 79.3329 233.446 80.2488 233.446 81.0337C233.446 81.8187 233.97 82.0803 234.624 81.6879L246.006 75.1465C246.66 74.754 247.183 73.8382 247.183 73.0532C247.314 72.2682 246.791 72.0066 246.006 72.3991Z" fill="#81A1D3"/>
<path d="M170.91 114.002C168.948 115.18 167.378 117.927 167.378 120.151C167.378 122.375 168.948 123.291 170.91 122.244C172.873 121.067 174.443 118.32 174.443 116.096C174.443 113.871 172.873 112.956 170.91 114.002Z" fill="#81A1D3"/>
<path d="M202.178 127.084L197.076 130.093C196.422 130.486 195.898 131.402 195.898 132.187C195.898 132.972 196.422 133.233 197.076 132.841L202.178 129.832C202.832 129.439 203.356 128.523 203.356 127.738C203.486 127.084 202.963 126.692 202.178 127.084Z" fill="#81A1D3"/>
</g>
</g>
<defs>
<linearGradient id="paint0_linear_2002_12125" x1="108.875" y1="-5.4748e-07" x2="76.5753" y2="433.943" gradientUnits="userSpaceOnUse">
<stop stop-color="#0073CF"/>
<stop offset="1" stop-color="#073F92"/>
</linearGradient>
</defs>
</svg>
