<svg width="364" height="390" viewBox="0 0 364 390" fill="none" xmlns="http://www.w3.org/2000/svg">
<g filter="url(#filter0_d_2002_12340)">
<mask id="mask0_2002_12340" style="mask-type:alpha" maskUnits="userSpaceOnUse" x="4" y="0" width="360" height="390">
<rect x="4" width="360" height="390" rx="5" fill="url(#paint0_linear_2002_12340)"/>
</mask>
<g mask="url(#mask0_2002_12340)">
<g opacity="0.7">
<path d="M218.258 108.767C227.994 114.393 228.083 123.503 218.348 129.13L91.3437 202.903C81.6978 208.53 65.8893 208.53 56.1541 202.903L-71.6538 129.219C-81.389 123.593 -81.4783 114.483 -71.7431 108.856L55.261 34.9935C64.9068 29.3667 80.7154 29.3667 90.4505 34.9935L218.258 108.767Z" stroke="#AFBAD4" stroke-miterlimit="10"/>
<g opacity="0.6">
<path opacity="0.6" d="M218.258 140.204C227.994 145.831 228.083 154.941 218.348 160.568L91.3437 234.341C81.6978 239.968 65.8893 239.968 56.1541 234.341L-71.6538 160.568C-81.389 154.941 -81.4783 145.831 -71.7431 140.204L55.261 66.431C64.9068 60.8042 80.7154 60.8042 90.4505 66.431L218.258 140.204Z" stroke="#AFBAD4" stroke-miterlimit="10"/>
</g>
<g opacity="0.3">
<path opacity="0.3" d="M218.258 171.644C227.994 177.27 228.083 186.38 218.348 192.007L91.3437 265.78C81.6978 271.407 65.8893 271.407 56.1541 265.78L-71.6538 192.007C-81.389 186.38 -81.4783 177.27 -71.7431 171.644L55.261 97.8705C64.9068 92.2437 80.7154 92.2437 90.4505 97.8705L218.258 171.644Z" stroke="#AFBAD4" stroke-miterlimit="10"/>
</g>
<path d="M225.582 72.9512V83.4902C225.582 85.3658 224.332 87.3307 221.831 88.7597V78.2207C224.332 76.7023 225.582 74.8268 225.582 72.9512Z" fill="#AFBAD4"/>
<path d="M221.831 78.2207L221.742 88.7597L83.4844 169.142V158.603L221.831 78.2207Z" fill="#AFBAD4"/>
<path d="M65.175 158.603L65.0858 169.142L-74.1543 88.7597L-74.065 78.2207L65.175 158.603Z" fill="#AFBAD4"/>
<path d="M221.742 67.5928C226.833 70.5402 226.833 75.2738 221.831 78.2212L83.4842 158.603C78.3933 161.551 70.1765 161.551 65.1749 158.603L-74.0651 78.2212C-79.156 75.2738 -79.156 70.5402 -74.1544 67.5928L64.1925 -12.7895C69.2833 -15.7368 77.4109 -15.7368 82.5018 -12.7895L221.742 67.5928Z" fill="#034FA9"/>
<path d="M83.4841 158.604V169.143C78.3932 172.09 70.1764 172.09 65.1748 169.143V158.604C70.1764 161.551 78.3932 161.551 83.4841 158.604Z" fill="#AFBAD4"/>
<path d="M173.78 66.5217C175.656 67.5935 176.638 69.0225 176.638 70.4515C176.638 71.8805 175.745 73.3095 173.869 74.3813L109.564 111.804L76.2496 92.6013C76.0709 92.512 75.803 92.4227 75.6244 92.512L58.5654 94.8341L32.0393 79.6508C32.7538 78.9363 32.5752 78.0432 31.5927 77.418C30.253 76.7035 28.3774 76.7035 27.2163 77.418C25.9659 78.2218 26.0553 79.2935 27.2163 80.0081C28.3774 80.6332 29.9851 80.7226 31.1461 80.276L57.9403 95.5486C58.1189 95.638 58.3868 95.7273 58.5654 95.6379L75.6244 93.3158L108.67 112.429L96.5238 119.485L63.2098 100.193C63.0311 100.104 62.7632 100.014 62.5846 100.104L45.5256 102.426L18.9102 87.2425C19.6247 86.528 19.446 85.6348 18.3743 85.0989C17.0346 84.3844 15.159 84.3844 13.9979 85.0989C12.7475 85.9028 12.8368 86.9745 13.9979 87.689C15.159 88.3142 16.7666 88.4035 17.9277 87.8677L44.7218 103.14C44.9005 103.23 45.1684 103.319 45.347 103.23L62.4059 100.907L95.3627 119.931L80.4473 128.773C78.5717 129.845 76.0709 130.381 73.6595 130.381C71.1587 130.381 68.7472 129.845 66.7823 128.773L-27.265 74.4706C-29.1406 73.3988 -30.123 71.9698 -30.123 70.5408C-30.123 69.1118 -29.2299 67.6828 -27.3543 66.611L36.7729 29.3672L67.1396 46.8727C67.3182 46.962 67.5861 47.0513 67.8541 46.962L84.2878 44.3719L108.492 58.2155C107.867 58.93 108.135 59.7339 109.028 60.2697C110.367 60.9842 112.243 60.9842 113.404 60.2697C114.654 59.4659 114.565 58.3941 113.404 57.6796C112.154 57.0544 110.546 56.9651 109.296 57.501L84.913 43.5681C84.7344 43.4788 84.4664 43.3894 84.2878 43.4788L67.8541 46.0689L37.7554 28.742L49.902 21.6862L80.1794 39.1917C80.358 39.281 80.6259 39.3703 80.8939 39.281L97.3276 36.6909L121.621 50.5345C121.085 51.2491 121.264 52.0529 122.246 52.5888C123.586 53.3033 125.461 53.3033 126.622 52.5888C127.873 51.7849 127.784 50.7132 126.622 49.9987C125.372 49.3735 123.675 49.2841 122.514 49.82L98.0421 35.8871C97.8635 35.7978 97.5955 35.7085 97.4169 35.7978L80.9832 38.3879L50.9738 21.061L66.1571 12.219C68.0327 11.1472 70.5335 10.6113 72.945 10.6113C75.4457 10.6113 77.8572 11.1472 79.8221 12.219L173.78 66.5217Z" fill="#AFBAD4"/>
</g>
</g>
</g>
<defs>
<filter id="filter0_d_2002_12340" x="0" y="0" width="230.104" height="278.5" filterUnits="userSpaceOnUse" color-interpolation-filters="sRGB">
<feFlood flood-opacity="0" result="BackgroundImageFix"/>
<feColorMatrix in="SourceAlpha" type="matrix" values="0 0 0 0 0 0 0 0 0 0 0 0 0 0 0 0 0 0 127 0" result="hardAlpha"/>
<feOffset dy="4"/>
<feGaussianBlur stdDeviation="2"/>
<feComposite in2="hardAlpha" operator="out"/>
<feColorMatrix type="matrix" values="0 0 0 0 0 0 0 0 0 0 0 0 0 0 0 0 0 0 0.25 0"/>
<feBlend mode="normal" in2="BackgroundImageFix" result="effect1_dropShadow_2002_12340"/>
<feBlend mode="normal" in="SourceGraphic" in2="effect1_dropShadow_2002_12340" result="shape"/>
</filter>
<linearGradient id="paint0_linear_2002_12340" x1="112.875" y1="-5.4748e-07" x2="80.5753" y2="433.943" gradientUnits="userSpaceOnUse">
<stop stop-color="#0073CF"/>
<stop offset="1" stop-color="#073F92"/>
</linearGradient>
</defs>
</svg>
