<svg width="360" height="390" viewBox="0 0 360 390" fill="none" xmlns="http://www.w3.org/2000/svg">
<g opacity="0.7">
<mask id="mask0_2002_11626" style="mask-type:alpha" maskUnits="userSpaceOnUse" x="0" y="0" width="360" height="390">
<rect width="360" height="390" rx="5" fill="url(#paint0_linear_2002_11626)"/>
</mask>
<g mask="url(#mask0_2002_11626)">
<path d="M183.959 -21.8025C188.643 -24.5143 192.464 -22.2955 192.464 -16.9951L192.834 109.969C192.834 115.393 189.013 121.926 184.329 124.638L-4.14534 233.605C-8.82946 236.317 -12.6507 234.098 -12.6507 228.798L-13.0205 101.834C-13.0205 96.4098 -9.19925 89.8767 -4.51514 87.1649L183.959 -21.8025Z" stroke="#AFBAD4" stroke-miterlimit="10"/>
<g opacity="0.6">
<path opacity="0.6" d="M164.976 -33.7595C169.661 -36.4714 173.482 -34.2526 173.482 -28.9521L173.852 98.0121C173.852 103.436 170.03 109.969 165.346 112.681L-23.1278 221.525C-27.8119 224.237 -31.6331 222.018 -31.6331 216.717L-32.0029 89.7533C-32.0029 84.3295 -28.1817 77.7964 -23.4976 75.0846L164.976 -33.7595Z" stroke="#AFBAD4" stroke-miterlimit="10"/>
</g>
<g opacity="0.3">
<path opacity="0.3" d="M146.979 -45.8396C151.664 -48.5514 155.485 -46.3326 155.485 -41.0322L155.855 85.932C155.855 91.3557 152.033 97.8888 147.349 100.601L-41.1248 209.568C-45.8089 212.28 -49.6302 210.061 -49.6302 204.761L-50 77.7964C-50 72.3727 -46.1787 65.8396 -41.4946 63.1278L146.979 -45.8396Z" stroke="#AFBAD4" stroke-miterlimit="10"/>
</g>
<path d="M22.6043 250.862L12.0034 244.699C10.5242 243.836 9.53809 241.987 9.53809 239.275L20.139 245.439C20.139 248.151 21.0018 250 22.6043 250.862Z" fill="#AFBAD4"/>
<path d="M20.0154 245.438L9.53777 239.275L9.16797 112.311L19.7689 118.351L20.0154 245.438Z" fill="#AFBAD4"/>
<path d="M28.1505 103.683L17.6729 97.6429L206.147 -11.2012L216.625 -5.03786L28.1505 103.683Z" fill="#AFBAD4"/>
<path d="M216.625 -5.0388C221.309 -7.75066 225.13 -5.53186 225.13 -0.231417L225.5 126.733C225.5 132.156 221.679 138.69 216.995 141.401L28.6437 250.246C23.9596 252.957 20.1384 250.739 20.1384 245.438L19.7686 118.474C19.7686 113.05 23.5898 106.517 28.2739 103.805L216.625 -5.0388Z" fill="#034FA9"/>
<path d="M19.7689 118.352L9.16797 112.188C9.16797 106.765 12.9892 100.231 17.6733 97.5195L28.2742 103.683C23.4669 106.395 19.6456 113.051 19.7689 118.352Z" fill="#AFBAD4"/>
<path d="M80.9089 178.505L73.8827 174.437C73.5129 174.19 73.3896 173.451 73.7594 172.588L80.7856 176.656C80.4158 177.519 80.5391 178.258 80.9089 178.505Z" fill="#AFBAD4"/>
<path d="M101.248 117.611L108.274 121.679C108.027 121.555 107.658 121.555 107.288 121.802L100.262 117.734C100.632 117.488 101.001 117.364 101.248 117.611Z" fill="#AFBAD4"/>
<path d="M80.7859 176.779L73.7598 172.588L99.2759 118.844L106.425 122.912L80.7859 176.779Z" fill="#AFBAD4"/>
<path d="M107.411 121.802C108.028 121.432 108.644 121.555 108.644 122.418L110.37 170.246C110.37 171.109 109.754 172.095 109.137 172.464C108.891 172.588 108.644 172.711 108.398 172.588L97.0571 169.26C96.8106 169.26 96.5641 169.26 96.3175 169.383L82.0187 178.381C80.9093 178.998 80.2929 178.011 80.9093 176.655L106.425 122.788C106.672 122.295 107.042 121.925 107.411 121.802Z" fill="white"/>
<path d="M106.425 122.912L99.3984 118.844C99.645 118.351 100.015 117.858 100.385 117.734L107.411 121.802C107.041 121.925 106.671 122.295 106.425 122.912Z" fill="#AFBAD4"/>
<path d="M196.286 64.4844V68.0591L123.065 110.216V106.765L196.286 64.4844Z" fill="white"/>
<path d="M197.272 80.5078V84.0825L124.175 126.24V122.788L197.272 80.5078Z" fill="white"/>
<path d="M197.272 112.434V116.008L124.175 158.165V154.714L197.272 112.434Z" fill="white"/>
</g>
</g>
<defs>
<linearGradient id="paint0_linear_2002_11626" x1="108.875" y1="-5.4748e-07" x2="76.5753" y2="433.943" gradientUnits="userSpaceOnUse">
<stop stop-color="#0073CF"/>
<stop offset="1" stop-color="#073F92"/>
</linearGradient>
</defs>
</svg>
