<svg width="360" height="390" viewBox="0 0 360 390" fill="none" xmlns="http://www.w3.org/2000/svg">
<mask id="mask0_2002_11718" style="mask-type:alpha" maskUnits="userSpaceOnUse" x="0" y="0" width="360" height="390">
<rect width="360" height="390" rx="5" fill="url(#paint0_linear_2002_11718)"/>
</mask>
<g mask="url(#mask0_2002_11718)">
<g opacity="0.7">
<path d="M82.8263 25.4427C88.4349 22.2022 93.0464 24.8195 93.171 31.3006L93.5449 150.95C93.5449 157.431 88.9334 165.408 83.3248 168.649L-20.8702 228.847C-26.4788 232.088 -31.0903 229.471 -31.215 222.99L-31.5889 103.34C-31.5889 96.8587 -26.9774 88.8821 -21.3688 85.6415L82.8263 25.4427ZM92.7971 151.449L92.4232 31.7991C92.4232 25.692 88.061 23.3239 82.8263 26.3151L-21.3688 86.3893C-26.6035 89.3806 -30.9657 96.8587 -30.8411 102.841L-30.4672 222.491C-30.4672 228.598 -26.1049 230.966 -20.8702 227.975L83.3248 167.901C88.4349 164.91 92.7971 157.431 92.7971 151.449Z" fill="#AFBAD4"/>
<g opacity="0.6">
<path opacity="0.6" d="M67.1222 13.7259C72.7308 10.4854 77.3423 13.1027 77.4669 19.5838L77.8408 139.234C77.8408 145.715 73.2293 153.691 67.6207 156.932L-36.5743 217.006C-42.1829 220.247 -46.7944 217.629 -46.9191 211.148L-47.293 91.4983C-47.293 85.0173 -42.6815 77.0406 -37.0729 73.8001L67.1222 13.7259ZM77.093 139.608L76.7191 19.9577C76.7191 13.8505 72.3569 11.4825 67.1222 14.4737L-37.0729 74.6725C-42.3076 77.6638 -46.6698 85.1419 -46.5452 91.1244L-46.1713 210.774C-46.1713 216.881 -41.809 219.249 -36.5743 216.258L67.6207 156.184C72.7308 153.068 77.093 145.715 77.093 139.608Z" fill="#AFBAD4"/>
</g>
<g opacity="0.3">
<path opacity="0.3" d="M52.4152 1.88606C58.0238 -1.35446 62.6353 1.26288 62.7599 7.74392L63.1338 127.394C63.1338 133.875 58.5223 141.851 52.9137 145.092L-51.406 205.291C-57.0146 208.531 -61.6261 205.914 -61.7507 199.433L-62 79.7831C-62 73.3021 -57.3885 65.3254 -51.7799 62.0849L52.4152 1.88606ZM62.2614 127.892L61.8875 8.24246C61.8875 2.13533 57.5252 -0.232742 52.2905 2.7585L-51.7799 62.8327C-57.0146 65.9486 -61.3768 73.3021 -61.2522 79.4092L-60.8783 199.059C-60.8783 205.166 -56.516 207.534 -51.2814 204.543L52.9137 144.469C58.0238 141.353 62.386 133.875 62.2614 127.892Z" fill="#AFBAD4"/>
</g>
<path d="M41.1973 171.391L32.3482 166.281C30.8526 165.409 29.8555 163.539 29.8555 160.922L38.7046 166.032C38.7046 168.649 39.7017 170.519 41.1973 171.391Z" fill="#AFBAD4"/>
<path d="M38.7048 165.907L29.8557 160.797L29.6064 58.8457L38.4555 64.0804L38.7048 165.907Z" fill="#AFBAD4"/>
<path d="M46.8065 49.4972L38.082 44.3872L126.698 -6.83789L135.547 -1.72784L46.8065 49.4972Z" fill="#AFBAD4"/>
<path d="M135.546 -1.72708C140.157 -4.46906 144.021 -2.22563 144.021 3.13369L144.27 105.085C144.27 110.445 140.531 116.926 135.92 119.668L47.3042 170.893C42.6927 173.635 38.829 171.391 38.829 166.032L38.4551 64.0803C38.4551 58.721 42.1941 52.24 46.8056 49.498L135.546 -1.72708Z" fill="#034FA9"/>
<path d="M38.4555 64.081L29.6064 58.971C29.6064 53.6117 33.3455 47.1306 37.957 44.3887L46.8061 49.4987C42.1946 52.1161 38.4555 58.7217 38.4555 64.081Z" fill="#AFBAD4"/>
<path d="M1.18947 245.049L-7.65964 239.939C-9.15526 239.067 -10.1523 237.197 -10.1523 234.58L-1.30324 239.69C-1.30324 242.307 -0.306155 244.177 1.18947 245.049Z" fill="#AFBAD4"/>
<path d="M92.6719 66.1977L101.521 71.3078C100.025 70.4353 97.9066 70.56 95.5386 71.931L86.6895 66.8209C89.0575 65.4499 91.1763 65.3253 92.6719 66.1977Z" fill="#AFBAD4"/>
<path d="M6.92332 123.155L-1.92578 118.045L86.6899 66.8203L95.539 71.9304L6.92332 123.155Z" fill="#AFBAD4"/>
<path d="M95.5385 71.9311C100.15 69.1891 104.014 71.4326 104.014 76.7919L104.263 178.744C104.263 184.103 100.524 190.584 95.9124 193.326L7.29673 244.551C2.68523 247.293 -1.17846 245.049 -1.17846 239.69L-1.42773 137.739C-1.42773 132.379 2.31132 125.898 6.92283 123.156L95.5385 71.9311Z" fill="#034FA9"/>
<path d="M-1.55227 137.739L-10.4014 132.629C-10.4014 127.27 -6.66231 120.789 -2.05081 118.047L6.7983 123.157C2.18679 125.774 -1.55227 132.38 -1.55227 137.739Z" fill="#AFBAD4"/>
<path d="M96.9102 233.21L84.9452 226.23C82.8264 224.984 81.5801 222.491 81.5801 218.877L93.5451 225.857C93.5451 229.471 94.9161 232.088 96.9102 233.21Z" fill="#AFBAD4"/>
<path d="M93.5449 225.857L81.58 218.878L81.2061 80.2832L93.171 87.2628L93.5449 225.857Z" fill="#AFBAD4"/>
<path d="M104.637 67.444L92.5479 60.4644L213.195 -9.08203L225.16 -2.10246L104.637 67.444Z" fill="#AFBAD4"/>
<path d="M225.16 -2.10207C231.517 -5.71649 236.627 -2.84988 236.627 4.5036L237.001 143.098C237.001 150.327 231.891 159.301 225.534 162.915L104.887 232.586C98.5308 236.201 93.4208 233.334 93.4208 225.98L93.0469 87.3861C93.0469 80.1572 98.1569 71.1835 104.513 67.569L225.16 -2.10207Z" fill="#034FA9"/>
<path d="M93.171 87.2614L81.2061 80.2819C81.2061 73.053 86.3161 64.0793 92.6725 60.4648L104.637 67.4444C98.2811 71.1835 93.171 80.0326 93.171 87.2614Z" fill="#AFBAD4"/>
<path d="M177.674 103.089C181.039 101.095 183.905 102.715 183.905 106.579C183.905 110.567 181.164 115.303 177.798 117.297C174.433 119.291 171.567 117.671 171.567 113.808C171.442 109.944 174.184 105.083 177.674 103.089ZM177.674 112.312C178.671 111.689 179.419 110.318 179.419 109.196C179.419 108.074 178.671 107.576 177.674 108.199C176.677 108.822 175.929 110.193 175.929 111.315C175.929 112.437 176.677 112.81 177.674 112.312Z" fill="#AFBAD4"/>
<path d="M230.893 51.3652L231.018 56.4753L218.43 63.7041L209.581 78.9096L192.506 88.7558L190.387 90.0022V85.0168L192.506 83.7704L207.711 74.9213L216.56 59.7158L230.893 51.3652Z" fill="#AFBAD4"/>
<path d="M211.699 103.463L220.922 108.698L226.78 105.332V110.318L219.053 114.805L209.83 109.57L192.63 119.541L190.511 120.787L190.387 115.677L192.63 114.431L211.699 103.463Z" fill="#AFBAD4"/>
<path d="M214.94 86.1387V91.2487L192.63 104.086L190.387 105.457V100.347L192.63 99.1007L214.94 86.1387Z" fill="#AFBAD4"/>
<path d="M179.918 138.984V141.477L180.043 171.888L175.68 174.505L175.556 144.094V141.477L179.918 138.984Z" fill="#AFBAD4"/>
<path d="M166.582 146.713V149.206L166.707 171.266L158.979 184.602L155.863 182.857L162.22 171.765V151.698V149.206L166.582 146.713Z" fill="#AFBAD4"/>
<path d="M177.675 118.419C181.04 116.425 183.906 118.045 183.906 121.909C183.906 125.772 181.164 130.633 177.799 132.627C174.434 134.622 171.567 133.001 171.567 129.138C171.567 125.274 174.309 120.413 177.675 118.419ZM177.675 127.642C178.672 127.019 179.419 125.648 179.419 124.526C179.419 123.404 178.672 122.906 177.675 123.529C176.677 124.152 175.93 125.523 175.93 126.645C175.93 127.767 176.677 128.265 177.675 127.642Z" fill="#AFBAD4"/>
<path d="M164.339 126.147C167.704 124.153 170.57 125.774 170.57 129.637C170.57 133.501 167.828 138.362 164.463 140.356C161.098 142.35 158.231 140.73 158.231 136.866C158.231 133.002 160.849 128.142 164.339 126.147ZM164.339 135.371C165.336 134.747 166.083 133.376 166.083 132.255C166.083 131.133 165.336 130.634 164.339 131.258C163.342 131.881 162.594 133.252 162.594 134.373C162.594 135.495 163.342 135.994 164.339 135.371Z" fill="#AFBAD4"/>
<path d="M164.338 110.817C167.703 108.823 170.57 110.444 170.57 114.307C170.57 118.296 167.828 123.032 164.462 125.026C161.097 127.02 158.231 125.4 158.231 121.536C158.106 117.548 160.848 112.812 164.338 110.817ZM164.338 120.04C165.335 119.417 166.083 118.046 166.083 116.925C166.083 115.803 165.335 115.304 164.338 115.927C163.341 116.551 162.593 117.922 162.593 119.043C162.468 120.165 163.341 120.539 164.338 120.04Z" fill="#AFBAD4"/>
<path d="M192.506 83.7711L190.262 85.0174V90.1275L192.506 88.8811V99.2259L190.262 100.472V105.582L192.506 104.336V114.681L190.262 115.927V121.037L192.506 119.791V124.402C192.506 129.886 188.642 136.741 183.781 139.483L179.793 141.726V139.234L175.431 141.726V144.219L166.457 149.454V146.961L162.095 149.454V151.947L153.121 157.181V154.689L148.759 157.181V159.674L144.77 161.917C139.91 164.659 136.046 162.416 136.046 156.932V152.32L138.289 151.074V145.964L136.046 147.21V136.866L138.289 135.619V130.509L136.046 131.756V121.411L138.289 120.165V115.055L136.046 116.301V111.689C136.046 106.081 139.91 99.3505 144.77 96.6085L148.759 94.3651V96.8578L153.121 94.3651V91.8724L162.095 86.6377V89.1304L166.457 86.6377V84.145L175.431 78.9103V81.403L179.793 78.9103V76.4176L183.781 74.1742C188.642 71.4322 192.506 73.6756 192.506 79.1596V83.7711ZM188.268 126.646L188.143 81.6523C188.143 78.9103 186.149 77.7886 183.781 79.1596L144.646 101.719C142.278 103.09 140.284 106.455 140.284 109.197L140.408 154.19C140.408 156.932 142.402 158.054 144.77 156.683L183.906 134.124C186.274 132.753 188.268 129.388 188.268 126.646Z" fill="#AFBAD4"/>
<path d="M164.214 95.4873C167.579 93.4932 170.445 95.1134 170.445 98.9771C170.445 102.965 167.703 107.702 164.338 109.696C160.973 111.69 158.106 110.07 158.106 106.206C158.106 102.218 160.848 97.4815 164.214 95.4873ZM164.214 104.71C165.211 104.087 165.958 102.716 165.958 101.594C165.958 100.473 165.211 99.9742 164.214 100.597C163.216 101.221 162.469 102.592 162.469 103.713C162.469 104.71 163.216 105.209 164.214 104.71Z" fill="#AFBAD4"/>
<path d="M151.003 133.874C154.368 131.88 157.234 133.5 157.234 137.364C157.234 141.228 154.492 146.088 151.127 148.082C147.762 150.077 144.896 148.456 144.896 144.593C144.896 140.729 147.513 135.868 151.003 133.874ZM151.003 143.097C152 142.474 152.748 141.103 152.748 139.981C152.748 138.859 152 138.361 151.003 138.984C150.006 139.607 149.258 140.978 149.258 142.1C149.133 143.222 150.006 143.596 151.003 143.097Z" fill="#AFBAD4"/>
<path d="M150.878 118.544C154.243 116.55 157.109 118.17 157.109 122.034C157.109 126.022 154.367 130.758 151.002 132.752C147.637 134.747 144.771 133.126 144.771 129.263C144.771 125.274 147.512 120.538 150.878 118.544ZM151.002 127.767C151.999 127.144 152.747 125.773 152.747 124.651C152.747 123.529 151.999 123.031 151.002 123.654C150.005 124.277 149.257 125.648 149.257 126.77C149.133 127.892 150.005 128.266 151.002 127.767Z" fill="#AFBAD4"/>
<path d="M143.275 53.7344L143.4 73.5514L152.997 79.0353V91.8728V94.3655L148.635 96.9828V94.3655V83.6468L138.913 78.1629V56.2271L143.275 53.7344Z" fill="#AFBAD4"/>
<path d="M150.878 103.214C154.243 101.22 157.109 102.84 157.109 106.704C157.109 110.692 154.367 115.428 151.002 117.422C147.637 119.416 144.771 117.796 144.771 113.933C144.646 109.944 147.513 105.208 150.878 103.214ZM150.878 112.312C151.875 111.689 152.623 110.318 152.623 109.196C152.623 108.075 151.875 107.576 150.878 108.199C149.881 108.822 149.133 110.193 149.133 111.315C149.133 112.437 149.881 112.935 150.878 112.312Z" fill="#AFBAD4"/>
<path d="M179.793 62.334V76.4178V78.9105L175.43 81.5278V79.0351L175.306 64.9513L179.793 62.334Z" fill="#AFBAD4"/>
<path d="M181.911 25.9414V38.7788L166.332 65.7001L166.457 84.1461V86.6388L161.97 89.2561V86.7634V66.074L177.425 39.2774V28.4341L181.911 25.9414Z" fill="#AFBAD4"/>
<path d="M177.55 87.7588C180.915 85.7647 183.781 87.3849 183.781 91.2486C183.781 95.2369 181.039 99.9731 177.674 101.967C174.309 103.961 171.442 102.341 171.442 98.4775C171.442 94.4891 174.184 89.753 177.55 87.7588ZM177.674 96.9818C178.671 96.3587 179.419 94.9877 179.419 93.866C179.419 92.7442 178.671 92.2457 177.674 92.8689C176.677 93.492 175.929 94.863 175.929 95.9847C175.805 97.1065 176.677 97.4804 177.674 96.9818Z" fill="#AFBAD4"/>
<path d="M181.787 12.9785V18.961L177.425 21.4537V15.4712L181.787 12.9785Z" fill="#AFBAD4"/>
<path d="M236.876 99.4746V104.46L231.766 107.451V102.466L236.876 99.4746Z" fill="#AFBAD4"/>
<path d="M180.042 179.492V186.098L175.68 188.591V182.11L180.042 179.492Z" fill="#AFBAD4"/>
<path d="M153.246 154.439V156.932V170.268L148.884 172.761V159.425V156.932L153.246 154.439Z" fill="#AFBAD4"/>
<path d="M98.6553 180.738V185.848L93.6699 188.715V183.73L98.6553 180.738Z" fill="#AFBAD4"/>
<path d="M138.29 145.84V150.95L136.046 152.196L123.832 159.176L113.363 177.248L103.89 182.857L103.766 177.746L111.618 173.26L122.087 155.187L136.046 147.086L138.29 145.84Z" fill="#AFBAD4"/>
<path d="M138.165 115.18V120.165L135.922 121.411L110.745 135.994L104.638 146.588L101.522 144.718L108.876 132.006L135.922 116.426L138.165 115.18Z" fill="#AFBAD4"/>
<path d="M138.165 130.51V135.495L136.046 136.866L114.11 149.454V144.344L136.046 131.756L138.165 130.51Z" fill="#AFBAD4"/>
</g>
</g>
<defs>
<linearGradient id="paint0_linear_2002_11718" x1="108.875" y1="-5.4748e-07" x2="76.5753" y2="433.943" gradientUnits="userSpaceOnUse">
<stop stop-color="#0073CF"/>
<stop offset="1" stop-color="#073F92"/>
</linearGradient>
</defs>
</svg>
