<svg width="360" height="390" viewBox="0 0 360 390" fill="none" xmlns="http://www.w3.org/2000/svg">
<g opacity="0.7">
<mask id="mask0_2002_11833" style="mask-type:alpha" maskUnits="userSpaceOnUse" x="0" y="0" width="360" height="390">
<rect width="360" height="390" rx="5" fill="url(#paint0_linear_2002_11833)"/>
</mask>
<g mask="url(#mask0_2002_11833)">
<path d="M56.2004 26.7953C83.5004 10.9953 105.7 23.6953 105.8 54.9953C105.8 57.4953 105.7 59.9953 105.4 62.5953C108.8 59.0953 112.2 56.1953 115.7 54.1953C129.3 46.2953 140.4 52.6953 140.4 68.2953C140.5 91.7953 124.4 119.495 104.6 130.995L-6.89958 195.295C-24.8996 205.695 -39.7996 199.095 -42.4996 180.695C-43.4996 177.295 -43.9996 173.495 -43.9996 169.295C-44.0996 144.195 -26.3996 113.595 -4.49958 100.995C0.100423 98.2953 4.60042 96.6953 8.70042 95.9953C14.4004 68.5953 33.5004 39.8953 56.2004 26.7953Z" stroke="#AFBAD4" stroke-miterlimit="10"/>
<g opacity="0.6">
<path opacity="0.6" d="M35.2004 17.7953C62.5004 1.99526 84.7004 14.6953 84.8004 45.9953C84.8004 48.4953 84.7004 50.9953 84.4004 53.5953C87.8004 50.0953 91.2004 47.1953 94.7004 45.1953C108.3 37.2953 119.4 43.6953 119.4 59.2953C119.5 82.7953 103.4 110.495 83.6004 121.995L-27.8996 186.295C-45.8996 196.695 -60.7996 190.095 -63.4996 171.695C-64.4996 168.295 -64.9996 164.495 -64.9996 160.295C-65.0996 135.195 -47.3996 104.595 -25.4996 91.9953C-20.8996 89.2953 -16.3996 87.6953 -12.2996 86.9953C-6.59958 59.5953 12.5004 30.8953 35.2004 17.7953Z" stroke="#AFBAD4" stroke-miterlimit="10"/>
</g>
<g opacity="0.3">
<path opacity="0.3" d="M20.2004 6.79526C47.5004 -9.00474 69.7004 3.69526 69.8004 34.9953C69.8004 37.4953 69.7004 39.9953 69.4004 42.5953C72.8004 39.0953 76.2004 36.1953 79.7004 34.1953C93.3004 26.2953 104.4 32.6953 104.4 48.2953C104.5 71.7953 88.4004 99.4953 68.6004 110.995L-42.8996 175.295C-60.8996 185.695 -75.7996 179.095 -78.4996 160.695C-79.4996 157.295 -79.9996 153.495 -79.9996 149.295C-80.0996 124.195 -62.3996 93.5953 -40.4996 80.9953C-35.8996 78.2953 -31.3996 76.6953 -27.2996 75.9953C-21.5996 48.5953 -2.49958 19.8953 20.2004 6.79526Z" stroke="#AFBAD4" stroke-miterlimit="10"/>
</g>
<path d="M154 60.2959L171.3 70.2959C166.8 67.6959 160.6 68.0959 153.8 71.9959C150.2 74.0959 146.9 76.8959 143.5 80.3959L126.2 70.3959C129.6 66.8959 133 63.9959 136.5 61.9959C143.3 58.0959 149.5 57.6959 154 60.2959Z" fill="#AFBAD4"/>
<path d="M112.1 31.1961L129.4 41.1961C120.4 35.9961 108 36.6961 94.2004 44.5961L76.9004 34.5961C90.7004 26.6961 103.1 25.8961 112.1 31.1961Z" fill="#AFBAD4"/>
<path d="M5.60019 215.696L-11.6998 205.696C-16.8998 202.696 -20.5998 196.796 -21.7998 188.596L-4.49981 198.596C-3.2998 206.796 0.300194 212.696 5.60019 215.696Z" fill="#AFBAD4"/>
<path d="M46.7004 113.796L29.4004 103.796C35.1004 76.3957 54.2004 47.6957 76.9004 34.5957L94.2004 44.5957C71.5004 57.7957 52.4004 86.4957 46.7004 113.796Z" fill="#AFBAD4"/>
<path d="M94.2004 44.6971C121.5 28.8971 143.7 41.5971 143.8 72.9971C143.8 75.4971 143.7 77.9971 143.4 80.5971C146.8 77.0971 150.2 74.1971 153.7 72.1971C167.3 64.2971 178.4 70.6971 178.4 86.2971C178.5 109.797 162.4 137.497 142.6 148.997L31.1004 213.397C13.1004 223.797 -1.79958 217.197 -4.49958 198.797C-5.49958 195.397 -5.99958 191.597 -5.99958 187.397C-6.09958 162.297 11.6004 131.697 33.5004 119.097C38.1004 116.397 42.6004 114.797 46.7004 114.097C52.4004 86.4971 71.5004 57.7971 94.2004 44.6971Z" fill="#034FA9"/>
<path d="M-4.49938 198.596L-21.7994 188.596C-22.7994 185.196 -23.2994 181.396 -23.2994 177.196C-23.3994 152.096 -5.69938 121.496 16.2006 108.896C20.8006 106.196 25.3006 104.596 29.4006 103.896L46.7006 113.896C42.6006 114.596 38.1006 116.196 33.5006 118.896C11.6006 131.496 -5.99938 162.096 -5.99938 187.196C-5.99938 191.496 -5.39938 195.296 -4.49938 198.596Z" fill="#AFBAD4"/>
<path d="M61.0008 122.896L61.1008 157.496L53.4008 161.896L53.3008 127.396L61.0008 122.896Z" fill="#AFBAD4"/>
<path d="M80.601 121.496L87.701 117.396L87.801 142.096L80.701 146.196V143.896C79.201 146.696 77.201 148.896 74.601 150.396C71.701 152.096 69.301 152.196 67.401 150.796C65.501 149.396 64.501 146.896 64.501 143.196C64.501 139.496 65.401 135.796 67.401 132.196C69.301 128.596 71.701 125.996 74.601 124.296C77.201 122.796 79.201 122.596 80.701 123.696L80.601 121.496ZM79.401 138.496C80.201 136.996 80.601 135.496 80.601 133.896C80.601 132.296 80.201 131.196 79.301 130.696C78.501 130.196 77.401 130.296 76.001 131.096C74.601 131.896 73.601 132.996 72.701 134.496C71.901 135.996 71.501 137.496 71.501 139.096C71.501 140.696 71.901 141.796 72.801 142.296C73.601 142.796 74.701 142.696 76.101 141.896C77.501 140.996 78.601 139.896 79.401 138.496Z" fill="#AFBAD4"/>
<path d="M107 106.295L114.1 102.195L114.2 126.895L107.1 130.995V128.695C105.6 131.495 103.6 133.695 101 135.195C98.1004 136.895 95.7004 136.995 93.8004 135.595C91.9004 134.195 90.9004 131.695 90.9004 127.995C90.9004 124.295 91.8004 120.595 93.8004 116.995C95.7004 113.395 98.1004 110.795 101 109.095C103.6 107.595 105.6 107.395 107.1 108.495L107 106.295ZM105.8 123.195C106.6 121.695 107 120.195 107 118.595C107 116.995 106.6 115.895 105.7 115.395C104.9 114.895 103.8 114.995 102.4 115.795C101 116.595 100 117.695 99.1004 119.195C98.3004 120.695 97.9004 122.195 97.9004 123.795C97.9004 125.395 98.3004 126.495 99.2004 126.995C100 127.495 101.1 127.395 102.5 126.595C103.9 125.795 105 124.695 105.8 123.195Z" fill="#AFBAD4"/>
<path d="M126.4 94.3959C130.6 91.9959 133.6 92.1959 135.3 94.9959L129.3 101.596C128.7 100.596 127.8 100.396 126.6 100.996C125.5 101.596 125 102.296 125 103.096C125 103.596 125.4 103.696 126.1 103.596C126.8 103.496 127.7 103.196 128.8 102.896C129.8 102.596 130.9 102.296 131.9 102.196C132.9 102.096 133.8 102.396 134.6 103.096C135.3 103.796 135.7 105.096 135.7 106.796C135.7 109.596 134.8 112.196 133 114.696C131.2 117.096 129 118.996 126.5 120.496C121.7 123.296 118.5 123.196 116.9 120.196L123.1 112.996C123.6 114.496 124.8 114.796 126.5 113.796C127.8 113.096 128.4 112.196 128.4 111.296C128.4 110.796 128 110.696 127.3 110.796C126.6 110.896 125.7 111.096 124.7 111.396C123.7 111.696 122.6 111.896 121.6 111.996C120.6 112.096 119.7 111.796 119 111.096C118.3 110.396 117.9 109.296 117.9 107.696C117.9 105.096 118.7 102.496 120.4 100.096C121.9 97.5959 124 95.6959 126.4 94.3959Z" fill="#AFBAD4"/>
<path d="M217.5 -10.5049L228.4 -4.20485C225.6 -5.80485 221.7 -5.60485 217.3 -3.10485C215.1 -1.80485 212.9 -0.00485325 210.8 2.19515L199.9 -4.10485C202 -6.30485 204.2 -8.10485 206.4 -9.40485C210.7 -11.9049 214.7 -12.1049 217.5 -10.5049Z" fill="#AFBAD4"/>
<path d="M123.7 87.6957L112.8 81.3957C109.5 79.4957 107.2 75.7957 106.4 70.5957L117.3 76.8957C118.1 82.0957 120.4 85.6957 123.7 87.6957Z" fill="#AFBAD4"/>
<path d="M149.701 23.2949L138.801 16.9949C142.401 -0.305077 154.501 -18.4051 168.801 -26.7051L179.701 -20.4051C165.401 -12.1051 153.301 6.09492 149.701 23.2949Z" fill="#AFBAD4"/>
<path d="M179.7 -20.4047C196.9 -30.4047 211 -22.4047 211 -2.60472C211 -1.00472 210.9 0.595276 210.8 2.19528C212.9 -0.0047245 215.1 -1.80473 217.3 -3.10472C225.9 -8.10472 232.9 -4.10472 232.9 5.79527C232.9 20.5953 222.8 38.1953 210.3 45.3953L139.8 86.0953C128.4 92.6953 119 88.4953 117.3 76.8953C116.7 74.7953 116.4 72.3953 116.4 69.6953C116.4 53.7953 127.5 34.4953 141.3 26.4953C144.2 24.7953 147 23.7953 149.6 23.2953C153.3 6.09527 165.4 -12.1047 179.7 -20.4047Z" fill="#034FA9"/>
<path d="M117.401 76.8961L106.501 70.5961C105.901 68.4961 105.601 66.0961 105.601 63.3961C105.601 47.4961 116.701 28.1961 130.501 20.1961C133.401 18.4961 136.201 17.4961 138.801 16.9961L149.701 23.2961C147.101 23.6961 144.301 24.7961 141.401 26.4961C127.601 34.4961 116.401 53.7961 116.501 69.6961C116.401 72.3961 116.801 74.7961 117.401 76.8961Z" fill="#AFBAD4"/>
<path d="M155.5 162.495L166.4 168.795C163.6 167.195 159.7 167.395 155.3 169.895C153.1 171.195 150.9 172.995 148.8 175.195L137.9 168.895C140 166.695 142.2 164.895 144.4 163.595C148.7 161.095 152.7 160.895 155.5 162.495Z" fill="#AFBAD4"/>
<path d="M129.001 144.095L139.901 150.395C134.201 147.095 126.401 147.595 117.701 152.595L106.801 146.295C115.501 141.295 123.401 140.795 129.001 144.095Z" fill="#AFBAD4"/>
<path d="M61.7004 260.696L50.8004 254.396C47.5004 252.496 45.2004 248.796 44.4004 243.596L55.3004 249.896C56.1004 255.096 58.4004 258.696 61.7004 260.696Z" fill="#AFBAD4"/>
<path d="M87.7008 196.295L76.8008 189.995C80.4008 172.695 92.5008 154.595 106.801 146.295L117.701 152.595C103.401 160.895 91.3008 179.095 87.7008 196.295Z" fill="#AFBAD4"/>
<path d="M117.7 152.595C134.9 142.595 149 150.595 149 170.395C149 171.995 148.9 173.595 148.8 175.195C150.9 172.995 153.1 171.195 155.3 169.895C163.9 164.895 170.9 168.895 170.9 178.795C170.9 193.595 160.8 211.195 148.3 218.395L77.8004 259.095C66.4004 265.695 57.0004 261.495 55.3004 249.895C54.7004 247.795 54.4004 245.395 54.4004 242.695C54.4004 226.795 65.5004 207.495 79.3004 199.495C82.2004 197.795 85.0004 196.795 87.6004 196.295C91.3004 179.095 103.4 160.895 117.7 152.595Z" fill="#034FA9"/>
<path d="M55.4006 249.896L44.5006 243.596C43.9006 241.496 43.6006 239.096 43.6006 236.396C43.6006 220.496 54.7006 201.196 68.5006 193.196C71.4006 191.496 74.2006 190.496 76.8006 189.996L87.7006 196.296C85.1006 196.696 82.3006 197.796 79.4006 199.496C65.6006 207.496 54.4006 226.796 54.5006 242.696C54.4006 245.396 54.8006 247.796 55.4006 249.896Z" fill="#AFBAD4"/>
</g>
</g>
<defs>
<linearGradient id="paint0_linear_2002_11833" x1="108.875" y1="-5.4748e-07" x2="76.5753" y2="433.943" gradientUnits="userSpaceOnUse">
<stop stop-color="#0073CF"/>
<stop offset="1" stop-color="#073F92"/>
</linearGradient>
</defs>
</svg>
