<svg width="360" height="390" viewBox="0 0 360 390" fill="none" xmlns="http://www.w3.org/2000/svg">
<g opacity="0.7">
<mask id="mask0_2002_12186" style="mask-type:alpha" maskUnits="userSpaceOnUse" x="0" y="0" width="360" height="390">
<rect width="360" height="390" rx="5" fill="url(#paint0_linear_2002_12186)"/>
</mask>
<g mask="url(#mask0_2002_12186)">
<path d="M106.389 -21.4932C113.48 -25.5638 119.389 -22.2811 119.389 -14.1399L119.783 136.602C119.783 144.743 114.005 154.723 106.914 158.925L-24.2628 234.689C-31.3534 238.76 -37.2623 235.477 -37.2623 227.336L-37.6562 76.5942C-37.6562 68.453 -31.8787 58.4736 -24.788 54.2717L106.389 -21.4932ZM118.863 137.127L118.469 -13.6147C118.469 -21.2306 113.086 -24.382 106.389 -20.4427L-24.788 55.3222C-31.4848 59.1301 -36.8684 68.453 -36.7371 76.0689L-36.3432 226.811C-36.3432 234.427 -30.9595 237.578 -24.2628 233.639L106.914 157.874C113.48 154.066 118.863 144.743 118.863 137.127Z" fill="#AFBAD4"/>
<g opacity="0.6">
<path opacity="0.6" d="M86.5619 -36.3311C93.6525 -40.4017 99.5614 -37.1189 99.5614 -28.9778L99.9553 121.764C99.9553 129.905 94.1778 139.885 87.0871 144.087L-44.0899 219.852C-51.1806 223.922 -57.0895 220.639 -57.0895 212.498L-57.4834 61.7563C-57.4834 53.6151 -51.7058 43.6357 -44.6152 39.4338L86.5619 -36.3311ZM99.0362 122.289L98.6422 -28.4526C98.6422 -36.0685 93.2586 -39.2199 86.5619 -35.2806L-44.6152 40.4843C-51.3119 44.2923 -56.6955 53.6151 -56.5642 61.231L-56.1703 211.973C-56.1703 219.589 -50.7867 222.74 -44.0899 218.801L87.0871 143.036C93.7838 139.228 99.1675 129.905 99.0362 122.289Z" fill="#AFBAD4"/>
</g>
<g opacity="0.3">
<path opacity="0.3" d="M68.0472 -51.169C75.1379 -55.2395 81.0468 -51.9568 81.0468 -43.8157L81.4407 106.926C81.4407 115.067 75.6631 125.047 68.5725 129.249L-62.6046 205.014C-69.6952 209.084 -75.6041 205.802 -75.6041 197.66L-75.998 46.9184C-75.998 38.7773 -70.2205 28.7978 -63.1298 24.5959L68.0472 -51.169ZM80.5215 107.452L80.1276 -43.1592C80.1276 -50.7751 74.744 -53.9265 68.0472 -49.9872L-63.1298 25.6464C-69.8266 29.4544 -75.2102 38.7773 -75.0789 46.3931L-74.685 197.135C-74.685 204.751 -69.3013 207.902 -62.6046 203.963L68.5725 128.198C75.1379 124.39 80.5215 115.067 80.5215 107.452Z" fill="#AFBAD4"/>
</g>
<path d="M241.637 39.5664L257 48.3641L241.768 74.6257L228.769 67.1412L229.688 66.6159V61.3636L228.769 61.8888L241.637 39.5664ZM232.839 62.2827L241.768 67.4038L250.566 52.0407L241.637 46.9197L232.839 62.2827Z" fill="#034FA9"/>
<path d="M229.688 77.3828V82.5038L224.829 85.2613V80.1403L229.688 77.3828Z" fill="#034FA9"/>
<path d="M203.82 77.1211L207.76 79.3533L217.082 84.6057L219.446 83.1613V88.4136L215.113 90.9085L201.325 83.03L200.669 82.636L203.82 77.1211Z" fill="#034FA9"/>
<path d="M187.144 105.221L212.88 107.322L187.275 139.23V124.786L189.376 123.604V118.352L187.275 119.533L187.144 105.221ZM191.739 111.523V127.543L203.82 112.574L191.739 111.523Z" fill="#034FA9"/>
<path d="M198.436 49.9395L199.093 50.2021L208.678 55.717L218.526 50.0708V55.3231L206.84 62.0198L196.86 56.3736L195.153 55.4544L198.436 49.9395Z" fill="#034FA9"/>
<path d="M157.862 117.695L174.407 127.018L187.275 119.665L189.244 118.483V123.604L187.275 124.786L172.437 133.321L156.023 123.867L142.499 131.745V129.119L138.034 131.745V134.371L128.055 140.018V134.897L157.862 117.695Z" fill="#034FA9"/>
<path d="M229.556 61.4941L229.687 66.6152L228.637 67.2717L207.759 79.3521L203.82 77.1198L200.668 82.6348L201.325 83.0287L128.055 125.31V120.058L228.637 62.0194L229.556 61.4941Z" fill="#034FA9"/>
<path d="M205.527 11.5977V16.7187L203.294 18.0318L198.961 20.5266L199.093 50.2023L198.436 49.9397L195.153 55.4547L196.86 56.3738L184.255 78.171L128.055 110.604V105.352L182.285 73.9691L194.497 52.8285V17.9005L203.294 12.7794L205.527 11.5977Z" fill="#034FA9"/>
<path d="M169.024 38.2538C175.195 34.7085 180.316 37.5973 180.316 44.6879C180.316 51.7786 175.326 60.5763 169.155 64.1216C163.771 67.273 159.175 65.4347 158.125 60.1823L160.226 59.0005V53.7482L158.256 54.93C159.044 48.4959 163.64 41.4052 169.024 38.2538ZM169.155 59.0005C172.832 56.8996 175.852 51.6473 175.852 47.4454C175.852 43.1122 172.832 41.4052 169.155 43.6375C165.478 45.7384 162.458 50.9907 162.458 55.1926C162.327 59.3945 165.347 61.1015 169.155 59.0005Z" fill="#034FA9"/>
<path d="M160.094 53.8789V58.9999L158.125 60.1817L153.004 63.0705L137.247 90.3826L127.924 95.7663V90.5139L135.408 86.1808L143.156 72.9186V73.9691L147.62 71.3429V65.0401L151.165 58.9999L158.125 54.9294L160.094 53.8789Z" fill="#034FA9"/>
<path d="M164.559 18.8203V23.9413L159.569 26.8301L147.62 47.7082V65.0409V71.3437L143.156 73.9698V72.9194L143.024 48.1021L157.731 22.7596L164.559 18.8203Z" fill="#034FA9"/>
<path d="M203.295 3.06219L224.961 -9.41211L225.092 15.4052L203.426 27.8795V18.0313L205.658 16.7183V11.4659L203.426 12.779L203.295 3.06219ZM220.365 12.779V-1.66491L207.759 5.55705V20.001L220.365 12.779Z" fill="#034FA9"/>
<path d="M231.001 42.8477V48.1L225.486 51.2514V45.9991L231.001 42.8477Z" fill="#034FA9"/>
<path d="M142.499 129.119V131.745L142.63 148.29L155.629 155.643L152.347 161.158L138.034 153.017V134.371V131.745L142.499 129.119Z" fill="#034FA9"/>
<path d="M177.952 11.0723V16.1933L171.912 19.7386V14.4863L177.952 11.0723Z" fill="#034FA9"/>
<path d="M3.04966 256.093L-10.0812 248.477C-12.3134 247.164 -13.7578 244.406 -13.7578 240.467L-0.626976 248.083C-0.626976 252.022 0.817415 254.779 3.04966 256.093Z" fill="#AFBAD4"/>
<path d="M138.298 -8.23044L151.429 -0.614555C149.197 -1.92764 146.045 -1.79633 142.5 0.173298L129.369 -7.44259C132.914 -9.41222 136.066 -9.54352 138.298 -8.23044Z" fill="#AFBAD4"/>
<path d="M11.4541 75.9375L-1.67676 68.3216L129.5 -7.44336L142.5 0.172531L11.4541 75.9375Z" fill="#AFBAD4"/>
<path d="M142.499 0.172461C149.327 -3.76679 154.973 -0.615393 154.973 7.26311L155.367 158.005C155.367 165.884 149.852 175.6 142.893 179.54L11.9786 255.305C5.15054 259.244 -0.495724 256.092 -0.495724 248.214L-0.889648 97.472C-0.889648 89.5935 4.6253 79.8766 11.5846 75.9374L142.499 0.172461Z" fill="#034FA9"/>
<path d="M-1.02053 97.4727L-14.1514 89.8568C-14.1514 81.9783 -8.63642 72.2615 -1.67707 68.3223L11.4538 75.9381C4.49442 79.8774 -1.02053 89.5942 -1.02053 97.4727Z" fill="#AFBAD4"/>
<path d="M108.097 119.008V126.624C108.097 131.482 107.178 136.734 105.34 142.118L101.926 142.249C103.501 137.522 104.289 133.058 104.289 128.856V121.24L108.097 119.008Z" fill="#AFBAD4"/>
<path d="M111.117 73.3125C114.531 77.9083 116.369 84.3424 116.369 91.9583V104.695L112.561 106.927V94.1905C112.561 87.3625 110.854 81.5849 107.834 77.5144L111.117 73.3125Z" fill="#AFBAD4"/>
<path d="M116.5 114.148V121.764C116.5 135.026 111.248 150.258 102.188 163.652L99.8242 161.551C108.097 149.602 112.692 135.946 112.692 123.997V116.381L116.5 114.148Z" fill="#AFBAD4"/>
<path d="M99.6931 123.865V131.481C99.6931 144.087 90.8955 159.318 79.9969 165.621C78.6838 166.409 77.3707 166.934 76.0576 167.46L76.8455 162.733C77.8959 162.339 78.9464 161.945 79.9969 161.288C88.7945 156.167 96.0165 143.824 95.8852 133.713V126.097L99.6931 123.865Z" fill="#AFBAD4"/>
<path d="M99.6927 105.088V114.411L95.8848 116.643V107.32L99.6927 105.088Z" fill="#AFBAD4"/>
<path d="M81.8353 134.238V141.592L78.0273 143.824V136.471L81.8353 134.238Z" fill="#AFBAD4"/>
<path d="M51.2402 177.702C57.0178 186.368 68.0477 187.419 79.9967 180.591C83.8047 178.358 87.6126 175.47 91.2892 171.793L92.6023 175.207C88.5318 179.278 84.3299 182.56 79.9967 185.055C66.7346 192.802 54.3916 191.489 47.8262 181.904L51.2402 177.702Z" fill="#AFBAD4"/>
<path d="M91.2896 128.725V136.34C91.2896 143.562 86.1686 152.36 79.9971 156.037C73.6943 159.713 68.5732 156.693 68.5732 149.603V141.987L72.3812 139.755V147.37C72.3812 152.097 75.7952 154.067 79.9971 151.704C84.1989 149.34 87.613 143.431 87.4817 138.704V131.088L91.2896 128.725Z" fill="#AFBAD4"/>
<path d="M63.846 144.48V152.096C63.846 157.086 65.6844 160.763 68.8358 162.47L66.2096 167.197C62.2703 165.096 60.0381 160.5 60.0381 154.329V146.713L63.846 144.48Z" fill="#AFBAD4"/>
<path d="M81.7044 112.18L81.8357 124.654L77.8965 126.886V114.412L81.7044 112.18Z" fill="#AFBAD4"/>
<path d="M55.4422 149.34V156.956C55.4422 172.45 66.4721 178.622 79.8655 170.874C86.037 167.329 91.9459 161.289 96.4104 153.804L99.0366 155.511C93.7842 164.178 86.9562 171.137 79.8655 175.208C64.3711 184.137 51.6342 176.915 51.5029 159.057V151.441L55.4422 149.34Z" fill="#AFBAD4"/>
<path d="M69.2293 114.412L72.7746 114.018C72.3807 115.199 72.2494 116.381 72.2494 117.563V130.3L68.4414 132.532V119.795C68.4414 117.957 68.704 116.25 69.2293 114.412Z" fill="#AFBAD4"/>
<path d="M79.7343 99.9664C86.0371 96.2898 91.1581 99.3099 91.1581 106.532V119.269L87.3502 121.501V108.764C87.3502 103.906 83.9362 102.067 79.7343 104.431C78.5525 105.087 77.3708 106.138 76.3203 107.451L74.6133 104.562C76.189 102.593 78.0273 101.017 79.7343 99.9664Z" fill="#AFBAD4"/>
<path d="M47.0384 154.197V161.813C47.0384 165.358 47.4323 168.51 48.3515 171.399L44.6749 174.681C43.7557 171.53 43.2305 167.853 43.2305 164.045V156.43L47.0384 154.197Z" fill="#AFBAD4"/>
<path d="M82.0976 79.483C96.6728 72.5237 108.097 80.1395 108.097 96.8157V109.553L104.289 111.785V99.0479C104.289 84.604 94.4406 77.9073 81.835 84.0788L82.0976 79.483Z" fill="#AFBAD4"/>
<path d="M51.6348 127.673L55.4427 125.703C55.4427 126.228 55.4427 126.622 55.4427 127.148V139.884L51.6348 142.117V129.38C51.6348 128.855 51.6348 128.329 51.6348 127.673Z" fill="#AFBAD4"/>
<path d="M79.7343 90.3825C87.7442 85.7867 94.8348 87.0998 97.9862 93.7965L94.4409 97.6045C91.946 92.2208 86.1685 91.1704 79.7343 94.847C70.9367 99.968 63.7147 112.311 63.846 122.422V135.159L60.0381 137.391V124.654C60.0381 112.048 68.8357 96.6853 79.7343 90.3825Z" fill="#AFBAD4"/>
<path d="M124.248 100.23V104.564L35.4834 155.774V151.441L43.2306 146.976L47.0385 144.744L51.6343 142.118L55.4423 139.886L60.0381 137.259L63.846 135.027L68.4418 132.401L72.2497 130.169L77.896 126.886L81.8353 124.654L87.4815 121.502L91.2895 119.27L95.8852 116.644L99.6932 114.412L104.289 111.786L108.097 109.553L112.693 106.927L116.501 104.695L124.248 100.23Z" fill="#AFBAD4"/>
<path d="M72.1186 86.3105L73.1691 89.9872C66.2097 96.29 60.5635 105.088 57.5434 114.411L53.998 114.542C57.5434 103.775 64.1088 93.5325 72.1186 86.3105Z" fill="#AFBAD4"/>
<path d="M79.734 70.9481C88.5317 65.8271 97.0667 64.6453 103.763 67.4028L101.269 72.1299C95.2284 69.635 87.6125 70.8168 79.734 75.2813C61.6134 85.7859 46.9069 111.128 47.0382 132.006V144.743L43.2303 146.976V134.239C43.099 110.997 59.5125 82.6345 79.734 70.9481Z" fill="#AFBAD4"/>
</g>
</g>
<defs>
<linearGradient id="paint0_linear_2002_12186" x1="108.875" y1="-5.4748e-07" x2="76.5753" y2="433.943" gradientUnits="userSpaceOnUse">
<stop stop-color="#0073CF"/>
<stop offset="1" stop-color="#073F92"/>
</linearGradient>
</defs>
</svg>
