<svg width="360" height="391" viewBox="0 0 360 391" fill="none" xmlns="http://www.w3.org/2000/svg">
<mask id="mask0_2002_12294" style="mask-type:alpha" maskUnits="userSpaceOnUse" x="0" y="0" width="360" height="391">
<rect y="0.296875" width="360" height="390" rx="5" fill="url(#paint0_linear_2002_12294)"/>
</mask>
<g mask="url(#mask0_2002_12294)">
<g opacity="0.7">
<path d="M56.9798 25.7539C90.0482 6.61538 116.939 21.9988 117.06 60.0336C117.06 63.0618 116.939 66.09 116.576 69.2394C120.694 64.9999 124.812 61.4871 129.052 59.0645C145.526 49.4953 158.971 57.2476 158.971 76.1438C159.092 104.609 139.59 138.162 115.607 152.092L-19.453 229.857C-41.2563 242.455 -59.3046 234.46 -62.5751 212.172C-63.7864 208.054 -64.3921 203.451 -64.3921 198.364C-64.5132 167.96 -43.0732 130.894 -16.5459 115.632C-10.9739 112.362 -5.52306 110.423 -0.556747 109.576C6.34764 76.386 29.4834 41.6218 56.9798 25.7539Z" stroke="#AFBAD4" stroke-miterlimit="10"/>
<g opacity="0.6">
<path opacity="0.6" d="M31.5423 14.8515C64.6107 -4.28697 91.5015 11.0965 91.6226 49.1312C91.6226 52.1594 91.5015 55.1877 91.1381 58.3371C95.2565 54.0975 99.3749 50.5848 103.614 48.1622C120.088 38.5929 133.533 46.3452 133.533 65.2415C133.655 93.7069 114.153 127.26 90.1691 141.19L-44.8905 218.955C-66.6938 231.552 -84.7421 223.558 -88.0126 201.27C-89.2239 197.152 -89.8296 192.549 -89.8296 187.461C-89.9507 157.058 -68.5107 119.992 -41.9834 104.73C-36.4114 101.459 -30.9606 99.5211 -25.9942 98.6732C-19.0899 65.4837 4.0459 30.7195 31.5423 14.8515Z" stroke="#AFBAD4" stroke-miterlimit="10"/>
</g>
<g opacity="0.3">
<path opacity="0.3" d="M13.3724 1.5273C46.4408 -17.6112 73.3316 -2.22772 73.4527 35.807C73.4527 38.8352 73.3316 41.8635 72.9682 45.0128C77.0866 40.7733 81.205 37.2605 85.4446 34.8379C101.918 25.2687 115.364 33.021 115.364 51.9172C115.485 80.3827 95.9828 113.936 71.9992 127.866L-63.0604 205.631C-84.8637 218.228 -102.912 210.234 -106.183 187.946C-107.394 183.827 -107.999 179.224 -107.999 174.137C-108.121 143.734 -86.6807 106.668 -60.1533 91.4055C-54.5813 88.135 -49.1305 86.1969 -44.1642 85.349C-37.2598 52.1595 -14.124 17.3953 13.3724 1.5273Z" stroke="#AFBAD4" stroke-miterlimit="10"/>
</g>
<path d="M175.445 66.3323L196.4 78.4453C190.949 75.2959 183.439 75.7804 175.202 80.5045C170.842 83.0482 166.844 86.4399 162.726 90.6794L141.771 78.5664C145.889 74.3269 150.007 70.8141 154.247 68.3915C162.484 63.6675 169.994 63.183 175.445 66.3323Z" fill="#AFBAD4"/>
<path d="M124.69 31.0832L145.646 43.1962C134.744 36.8975 119.724 37.7454 103.008 47.3146L82.0527 35.2016C98.7686 25.6324 113.789 24.6634 124.69 31.0832Z" fill="#AFBAD4"/>
<path d="M45.472 131.257L24.5166 119.144C31.421 85.9545 54.5567 51.1902 82.0532 35.3223L103.009 47.4352C75.5122 63.3032 52.3764 98.0674 45.472 131.257Z" fill="#AFBAD4"/>
<path d="M103.008 47.4355C136.077 28.297 162.967 43.6805 163.088 81.7152C163.088 84.7434 162.967 87.7717 162.604 90.921C166.722 86.6815 170.841 83.1687 175.08 80.7461C191.554 71.1769 204.999 78.9292 204.999 97.8254C205.12 126.291 185.619 159.844 161.635 173.774L26.5754 251.781C4.77202 264.379 -13.2763 256.384 -16.5468 234.096C-17.7581 229.978 -18.3637 225.375 -18.3637 220.287C-18.4849 189.884 2.95507 152.818 29.4825 137.556C35.0544 134.285 40.5053 132.347 45.4716 131.499C52.376 98.0677 75.5117 63.3035 103.008 47.4355Z" fill="#034FA9"/>
<path d="M-16.5465 233.854L-37.5019 221.741C-38.7132 217.623 -39.3188 213.02 -39.3188 207.933C-39.44 177.529 -18 140.463 8.52738 125.201C14.0993 121.931 19.5502 119.992 24.5165 119.145L45.4719 131.257C40.5056 132.105 35.0548 134.043 29.4828 137.314C2.95542 152.576 -18.3634 189.642 -18.3634 220.046C-18.3634 225.254 -17.6366 229.857 -16.5465 233.854Z" fill="#AFBAD4"/>
<path d="M135.35 96.1301L134.866 96.4935L135.35 96.1301V96.2512C135.35 97.5837 134.623 99.1583 133.533 100.006C133.412 100.127 133.17 100.249 133.049 100.37L132.927 100.491C132.806 100.612 132.564 100.612 132.443 100.733C131.353 101.096 130.505 100.491 130.505 99.2795V99.1583C130.505 97.7048 131.474 95.8878 132.806 95.0399L132.927 94.9188C134.139 94.0709 135.229 94.6765 135.35 96.1301ZM134.26 96.8569C134.26 96.009 133.654 95.6456 132.927 96.1301H132.806C132.08 96.6146 131.474 97.5837 131.474 98.4316V98.5527C131.474 99.4006 132.08 99.6429 132.806 99.2795H132.927C133.654 98.6738 134.26 97.7048 134.26 96.8569Z" fill="#AFBAD4"/>
<path d="M120.694 104.489L120.209 104.852L120.694 104.489V104.61C120.694 105.942 119.967 107.396 118.877 108.365C118.756 108.486 118.513 108.607 118.392 108.728L118.271 108.849C118.15 108.97 117.908 108.97 117.787 109.091C116.697 109.455 115.849 108.849 115.849 107.638V107.517C115.849 106.063 116.818 104.246 118.15 103.398L118.271 103.277C119.604 102.55 120.573 103.035 120.694 104.489ZM119.604 105.336C119.604 104.489 118.998 104.125 118.271 104.61H118.15C117.423 105.094 116.818 106.063 116.818 106.911V107.032C116.818 107.88 117.423 108.122 118.15 107.759H118.271C118.998 107.153 119.604 106.184 119.604 105.336Z" fill="#AFBAD4"/>
<path d="M118.876 108.363L119.119 141.795L130.747 143.37C130.868 143.37 130.989 143.491 130.989 143.733L131.11 186.613C131.11 186.976 130.868 187.34 130.626 187.582C130.384 187.824 130.141 187.582 130.141 187.219L130.02 144.702L118.392 143.127C118.271 143.127 118.149 143.006 118.149 142.764L117.907 109.09C118.028 109.09 118.149 108.969 118.392 108.848C118.513 108.727 118.755 108.606 118.876 108.363Z" fill="#AFBAD4"/>
<path d="M133.412 100.006L133.655 133.438L145.283 135.012C145.404 135.012 145.525 135.133 145.525 135.376L145.646 178.256C145.646 178.619 145.404 178.982 145.162 179.225C144.92 179.346 144.677 179.225 144.677 178.861L144.556 136.345L132.928 134.77C132.807 134.77 132.686 134.649 132.686 134.407L132.443 100.733C132.564 100.733 132.807 100.612 132.928 100.49C133.17 100.248 133.291 100.127 133.412 100.006Z" fill="#AFBAD4"/>
<path d="M93.197 117.812C94.5295 117.086 95.4985 117.812 95.4985 119.266V119.387C95.4985 120.72 94.6506 122.294 93.5604 123.142C93.4393 123.263 93.197 123.384 93.0759 123.506H92.9548C92.8336 123.627 92.5914 123.627 92.4703 123.748C91.3801 124.111 90.6533 123.384 90.6533 122.052V121.931C90.7744 120.477 91.7435 118.66 93.197 117.812ZM94.4083 119.993C94.4083 119.145 93.8027 118.781 93.0759 119.145H92.9548C92.228 119.508 91.6224 120.598 91.6224 121.446V121.567C91.6224 122.415 92.228 122.779 92.9548 122.415H93.0759C93.8027 121.81 94.4083 120.841 94.4083 119.993Z" fill="#AFBAD4"/>
<path d="M107.128 115.268C107.249 115.268 107.491 115.147 107.612 115.026C107.854 114.904 107.975 114.783 108.218 114.662L108.097 148.578C108.097 148.821 107.975 149.063 107.854 149.305L96.2259 164.325L96.347 206.842C96.347 207.205 96.1048 207.569 95.8625 207.811C95.6203 207.932 95.2569 207.811 95.2569 207.447L95.1357 164.568C95.1357 164.325 95.2569 164.083 95.378 163.841L107.006 148.942L107.128 115.268Z" fill="#AFBAD4"/>
<path d="M92.4713 123.748C92.5924 123.748 92.8347 123.627 92.9558 123.506C93.1981 123.385 93.4403 123.264 93.5615 123.143L93.4404 157.059C93.4404 157.301 93.3192 157.543 93.1981 157.786L81.5697 172.806L81.6908 215.322C81.6908 215.686 81.4485 216.049 81.2063 216.291C80.964 216.412 80.6006 216.291 80.6006 215.928L80.4795 173.048C80.4795 172.806 80.6006 172.563 80.7217 172.321L92.3502 157.301L92.4713 123.748Z" fill="#AFBAD4"/>
<path d="M107.854 109.453C109.187 108.726 110.156 109.453 110.156 110.907V111.028C110.156 112.36 109.308 113.935 108.218 114.783C108.097 114.904 107.975 115.025 107.733 115.146H107.612C107.491 115.267 107.249 115.267 107.127 115.388C106.037 115.631 105.311 115.025 105.311 113.693V113.571C105.311 111.997 106.401 110.18 107.854 109.453ZM109.066 111.512C109.066 110.664 108.46 110.301 107.733 110.664H107.612C106.885 111.028 106.28 112.118 106.28 112.966V113.087C106.28 113.935 106.885 114.298 107.612 113.935H107.733C108.46 113.45 109.066 112.36 109.066 111.512Z" fill="#AFBAD4"/>
</g>
</g>
<defs>
<linearGradient id="paint0_linear_2002_12294" x1="108.875" y1="0.296874" x2="76.5753" y2="434.24" gradientUnits="userSpaceOnUse">
<stop stop-color="#0073CF"/>
<stop offset="1" stop-color="#073F92"/>
</linearGradient>
</defs>
</svg>
