<svg width="18" height="24" viewBox="0 0 18 24" fill="none" xmlns="http://www.w3.org/2000/svg">
<path d="M17.2439 8.69613V8.67867C17.2439 6.58471 16.382 4.57082 14.8385 3.08166C13.2942 1.59168 11.194 0.750057 8.9988 0.75L17.2439 8.69613ZM17.2439 8.69613L17.2448 8.71357M17.2439 8.69613L17.2448 8.71357M17.2448 8.71357C17.3053 10.0125 16.8398 11.5772 16.0304 13.2489C15.228 14.9062 14.1244 16.5947 12.9981 18.1186C11.8739 19.6397 10.7393 20.9807 9.88473 21.9422C9.53643 22.3341 9.23532 22.6621 9.00127 22.9129M17.2448 8.71357L9.00127 22.9129M9.00127 22.9129C8.76714 22.6621 8.46592 22.334 8.11748 21.9421C7.26268 20.9806 6.12769 19.6396 5.00315 18.1185C3.87658 16.5946 2.77263 14.9062 1.96997 13.2488C1.16033 11.5771 0.694739 10.0125 0.755247 8.71357L0.756059 8.69613V8.67867C0.756059 6.58512 1.61761 4.57161 3.16055 3.08253C4.70434 1.59261 6.80381 0.750707 8.99858 0.75L9.00127 22.9129Z" stroke="#0073CF" stroke-width="1.5"/>
<circle cx="9" cy="9" r="3" fill="#0073CF"/>
</svg>
