<svg width="31" height="26" viewBox="0 0 31 26" fill="none" xmlns="http://www.w3.org/2000/svg">
<path d="M15.5674 19.493C18.3051 19.493 20.786 18.3908 22.581 16.6045C23.1818 16.0066 23.9304 15.9256 24.3657 16.2546C27.4032 18.5502 29.5185 22.0037 30.0544 25.9664C30.1333 26.5495 29.6502 27.1209 28.9267 27.1209H2.20818C1.48462 27.1209 1.0016 26.5495 1.08045 25.9664C1.61668 22.0011 3.7345 18.5455 6.77534 16.2499C7.2097 15.922 7.95468 16.002 8.55139 16.596C10.3496 18.3863 12.8241 19.493 15.5674 19.493Z" stroke="#0073CF" stroke-width="1.5"/>
<path d="M23.3917 8.91936C23.3917 13.2483 19.888 16.7557 15.5684 16.7557C11.2488 16.7557 7.74512 13.2483 7.74512 8.91936C7.74512 4.59039 11.2488 1.08301 15.5684 1.08301C19.888 1.08301 23.3917 4.59039 23.3917 8.91936Z" stroke="#0073CF" stroke-width="1.5"/>
</svg>
