<svg width="24" height="25" viewBox="0 0 24 25" fill="none" xmlns="http://www.w3.org/2000/svg">
<mask id="path-2" fill="white">
<path fill-rule="evenodd" clip-rule="evenodd" d="M19.2739 6.42676C19.6019 6.31885 19.9487 6.26099 20.3075 6.26099C22.3467 6.26099 23.9998 8.12966 23.9999 10.4348H24V15.8696C24 18.631 21.7614 20.8696 19 20.8696H5C2.23858 20.8696 0 18.631 0 15.8696V10.4348V10.4348C0 7.5533 2.06638 5.2174 4.61538 5.2174C5.05145 5.2174 5.47339 5.28576 5.87328 5.41352C6.77295 2.27188 9.38235 0 12.4612 0C15.8621 0 18.6903 2.77223 19.2739 6.42676Z"/>
</mask>
<path d="M19.2739 6.42676L17.7926 6.66328L18.0703 8.40184L19.7427 7.85163L19.2739 6.42676ZM23.9999 10.4348L22.4999 10.4348L22.4999 11.9348H23.9999V10.4348ZM24 10.4348H25.5V8.9348H24V10.4348ZM5.87328 5.41352L5.41677 6.84237L6.88963 7.31294L7.31531 5.82648L5.87328 5.41352ZM19.7427 7.85163C19.9226 7.79242 20.1114 7.76099 20.3075 7.76099V4.76099C19.7861 4.76099 19.2811 4.84527 18.8051 5.00189L19.7427 7.85163ZM20.3075 7.76099C21.3507 7.76099 22.4998 8.77998 22.4999 10.4348L25.4999 10.4348C25.4998 7.47934 23.3427 4.76099 20.3075 4.76099V7.76099ZM23.9999 11.9348H24V8.9348H23.9999V11.9348ZM22.5 10.4348V15.8696H25.5V10.4348H22.5ZM22.5 15.8696C22.5 17.8026 20.933 19.3696 19 19.3696V22.3696C22.5898 22.3696 25.5 19.4594 25.5 15.8696H22.5ZM19 19.3696H5V22.3696H19V19.3696ZM5 19.3696C3.067 19.3696 1.5 17.8026 1.5 15.8696H-1.5C-1.5 19.4594 1.41015 22.3696 5 22.3696V19.3696ZM1.5 15.8696V10.4348H-1.5V15.8696H1.5ZM1.5 10.4348V10.4348H-1.5V10.4348H1.5ZM1.5 10.4348C1.5 8.2036 3.06236 6.7174 4.61538 6.7174V3.7174C1.07039 3.7174 -1.5 6.90301 -1.5 10.4348H1.5ZM4.61538 6.7174C4.89341 6.7174 5.16147 6.7608 5.41677 6.84237L6.32978 3.98468C5.78531 3.81072 5.20949 3.7174 4.61538 3.7174V6.7174ZM7.31531 5.82648C8.06641 3.20366 10.1731 1.5 12.4612 1.5V-1.5C8.59162 -1.5 5.47949 1.34009 4.43124 5.00056L7.31531 5.82648ZM12.4612 1.5C14.9834 1.5 17.3015 3.58737 17.7926 6.66328L20.7551 6.19024C20.0792 1.9571 16.7409 -1.5 12.4612 -1.5V1.5Z" fill="#0073CF" mask="url(#path-1-inside-1_401:32007)"/>
<path d="M3.69238 14.609L7.28213 12.0003L12.4103 14.609L17.5385 9.3916" stroke="#0073CF" stroke-width="1.5"/>
<path d="M3.69238 24L20.3078 24" stroke="#0073CF" stroke-width="1.5"/>
</svg>
