<svg width="26" height="26" viewBox="0 0 26 26" fill="none" xmlns="http://www.w3.org/2000/svg">
<path d="M13.0087 1C12.6155 1.02825 12.3175 1.37252 12.338 1.77434V1.97107C12.3565 2.19395 12.3892 2.41474 12.4322 2.63344C12.495 3.05224 12.5177 3.4763 12.4998 3.8996C12.4609 4.03877 12.3831 4.16434 12.2766 4.26061L12.2612 4.55569C11.8465 4.59127 11.4349 4.65615 11.0294 4.75032C9.32353 5.14377 7.77021 6.04787 6.57117 7.35065L6.32543 7.17276C6.19026 7.21461 6.04486 7.19892 5.92097 7.1309C5.58861 6.87951 5.281 6.59564 5.00249 6.28331C4.86259 6.11248 4.71319 5.95002 4.55503 5.79673L4.40348 5.67326C4.26832 5.56234 4.10244 5.49851 3.9294 5.49013C3.82613 5.48454 3.72303 5.50399 3.62853 5.54691C3.53404 5.58984 3.45082 5.655 3.38568 5.73709C3.15427 6.0688 3.23004 6.52817 3.55361 6.7657L3.69491 6.88081C3.87681 7.00448 4.06553 7.11733 4.26013 7.2188C4.62261 7.42494 4.9646 7.66666 5.28203 7.95128C5.36323 8.06961 5.4104 8.2088 5.41821 8.3531L5.64143 8.56239C4.43625 10.4103 3.94169 12.6486 4.25092 14.8471L3.96421 14.9308C3.88946 15.0522 3.79014 15.1558 3.67136 15.2322C3.27136 15.3413 2.86189 15.4104 2.44878 15.4383C2.22953 15.4429 2.01073 15.4603 1.79345 15.4906L1.61221 15.5325H1.59174C1.46596 15.5503 1.3475 15.6035 1.24954 15.6861C1.15158 15.7686 1.07796 15.8774 1.03689 16.0001C0.995811 16.1229 0.988887 16.255 1.01688 16.3815C1.04488 16.5081 1.10671 16.6242 1.19547 16.717C1.28506 16.8094 1.39801 16.8744 1.52169 16.9049C1.64538 16.9354 1.77492 16.9301 1.89585 16.8897H1.90916L2.09347 16.8688C2.30133 16.806 2.50612 16.7285 2.70579 16.6407C3.08976 16.4837 3.48808 16.3634 3.89561 16.2849C4.03691 16.2932 4.17207 16.3424 4.28675 16.4261L4.59394 16.3738C5.2595 18.4844 6.65821 20.2727 8.52588 21.3997L8.40096 21.6665C8.4583 21.789 8.4798 21.925 8.46239 22.06C8.29344 22.4597 8.08661 22.8427 7.84496 23.2027C7.71239 23.3812 7.59 23.5675 7.47838 23.7604L7.39135 23.9488C7.3282 24.0607 7.29655 24.1883 7.2999 24.3175C7.30325 24.4466 7.34147 24.5724 7.41033 24.6807C7.47919 24.7891 7.57601 24.8759 7.69012 24.9316C7.80422 24.9873 7.93116 25.0096 8.05691 24.9962C8.18296 24.9817 8.30262 24.9318 8.40258 24.852C8.50254 24.7722 8.57889 24.6656 8.62315 24.5442L8.70814 24.3663C8.78596 24.157 8.85149 23.9435 8.90474 23.728C9.08598 23.2707 9.18427 22.7799 9.43207 22.4765C9.51306 22.3987 9.61511 22.3476 9.72492 22.33L9.87851 22.0443C11.9031 22.8395 14.1433 22.8451 16.1717 22.06L16.3078 22.3268C16.4471 22.3478 16.572 22.4262 16.656 22.5413C16.8485 22.916 17.0041 23.3084 17.1229 23.7133C17.1771 23.9302 17.2434 24.1436 17.3216 24.3527L17.4065 24.5306C17.4512 24.6516 17.5278 24.7576 17.6278 24.8369C17.7278 24.9162 17.8473 24.9657 17.9731 24.9799C18.0989 24.994 18.2261 24.9724 18.3406 24.9173C18.4552 24.8622 18.5525 24.7758 18.622 24.6676C18.6907 24.5588 18.7287 24.4327 18.7315 24.3032C18.7344 24.1738 18.7022 24.046 18.6383 23.9341L18.5493 23.7458C18.4376 23.5535 18.3152 23.368 18.1827 23.1901C17.9472 22.8427 17.7444 22.4723 17.5683 22.0841C17.5519 22.0131 17.5496 21.9395 17.5615 21.8676C17.5735 21.7957 17.5995 21.7269 17.638 21.6655C17.5943 21.5742 17.5563 21.4802 17.5243 21.384C19.3879 20.2487 20.7804 18.4541 21.4388 16.3403L21.7296 16.3927C21.8341 16.2953 21.9713 16.2441 22.1116 16.2482C22.5181 16.3278 22.9164 16.4575 23.3014 16.604C23.5011 16.6982 23.7058 16.7777 23.9137 16.8447C23.9628 16.8583 24.0345 16.8698 24.0898 16.8834H24.1031C24.224 16.9233 24.3533 16.9281 24.4767 16.8973C24.6001 16.8666 24.7127 16.8014 24.8019 16.7091C24.8912 16.6167 24.9536 16.5009 24.9823 16.3745C25.011 16.248 25.0047 16.116 24.9643 15.9929C24.9229 15.87 24.8489 15.7613 24.7505 15.6789C24.6521 15.5964 24.5333 15.5436 24.4072 15.5262L24.2086 15.4781C23.9913 15.4478 23.7725 15.4303 23.5533 15.4258C23.1396 15.3986 22.73 15.3295 22.3307 15.2196C22.2078 15.1495 22.1054 15.0449 22.0358 14.9183L21.7593 14.8346C22.0541 12.6371 21.5491 10.4055 20.3401 8.56343L20.5818 8.33532C20.5715 8.19196 20.6176 8.04965 20.7088 7.93977C21.0231 7.66352 21.3641 7.41971 21.7225 7.21147C21.917 7.10997 22.1058 6.99712 22.2877 6.87348L22.4372 6.75001C22.5472 6.68019 22.6357 6.57995 22.6924 6.46089C22.749 6.34183 22.7715 6.20881 22.7573 6.07722C22.743 5.94564 22.6926 5.82086 22.6119 5.71734C22.5311 5.61381 22.4233 5.53576 22.301 5.49223C22.1787 5.44874 22.047 5.44149 21.9209 5.4713C21.7947 5.50111 21.6795 5.56677 21.5883 5.6607L21.4368 5.78417C21.2786 5.9375 21.1293 6.09996 20.9893 6.27075C20.719 6.58677 20.42 6.87453 20.0954 7.13195C19.9644 7.18645 19.8211 7.20239 19.6817 7.17799L19.4227 7.36634C17.9277 5.76534 15.9136 4.77125 13.7552 4.57243C13.7552 4.46779 13.7418 4.31083 13.7398 4.26165C13.6241 4.18003 13.5432 4.05551 13.5166 3.91424C13.5024 3.49166 13.5284 3.06866 13.5944 2.65123C13.6384 2.43149 13.6691 2.21174 13.6886 1.98886V1.77957C13.7091 1.37775 13.4121 1.03349 13.0179 1.00523L13.0087 1ZM12.1547 6.40574L11.9499 10.0608H11.9346C11.9243 10.2869 11.7943 10.4794 11.5946 10.5882C11.395 10.6971 11.1584 10.6646 10.9803 10.5317L8.04667 8.40752C8.98041 7.47028 10.1518 6.81827 11.4288 6.52503C11.6684 6.47271 11.91 6.43295 12.1527 6.40574H12.1547ZM13.8627 6.40574C15.4037 6.60142 16.8383 7.30879 17.9482 8.41903L15.0423 10.5296C14.8631 10.6761 14.6173 10.7054 14.4095 10.605C14.2016 10.5045 14.0685 10.2911 14.0654 10.0567L13.8627 6.40574ZM6.98177 9.7825L9.6645 12.229V12.2447C9.83141 12.3933 9.90411 12.6245 9.85496 12.8453C9.80581 13.0661 9.63993 13.2409 9.42797 13.3005V13.311L5.98548 14.3229C5.81513 12.7379 6.16602 11.14 6.9828 9.78145L6.98177 9.7825ZM19.0162 9.7825C19.8312 11.1376 20.1917 12.7271 20.0422 14.3103L16.5946 13.2953V13.2817C16.3795 13.222 16.2157 13.0473 16.1676 12.8265C16.1194 12.6057 16.1911 12.3765 16.358 12.2259L19.0203 9.79087L19.0162 9.7825ZM12.4588 12.4194H13.5565L14.2272 13.2901L13.9835 14.3783L12.9974 14.8628L12.0093 14.3783L11.7769 13.2901L12.4588 12.4194ZM15.9751 15.3891C16.0211 15.3839 16.0775 15.3839 16.1133 15.3891L19.6633 16.0013C19.1513 17.5081 18.1407 18.7952 16.8219 19.6564L15.4498 16.2619C15.4121 16.1708 15.3963 16.0718 15.4038 15.9732C15.4113 15.8746 15.4419 15.7793 15.493 15.6953C15.5441 15.6113 15.6142 15.5411 15.6973 15.4905C15.7805 15.44 15.8744 15.4106 15.971 15.4048L15.9751 15.3891ZM10.0126 15.4048C10.2133 15.408 10.3987 15.5137 10.5082 15.6853C10.6178 15.8569 10.6352 16.0725 10.5564 16.2608V16.2744L9.19247 19.6417C7.88694 18.7868 6.89576 17.5154 6.36843 16.0243L9.88772 15.4143C9.92663 15.4101 9.96657 15.4101 10.0065 15.4143L10.0126 15.4048ZM12.9862 16.8698C13.098 16.8662 13.2087 16.8944 13.3058 16.9513C13.4029 17.0083 13.4826 17.0916 13.536 17.1921H13.5493L15.2839 20.391L14.5907 20.6003C13.3149 20.8985 11.9827 20.8284 10.7427 20.3973L12.4834 17.1984C12.5889 17.01 12.7834 16.8949 12.9954 16.8897L12.9862 16.8698Z" stroke="#0073CF"/>
</svg>
