<svg width="24" height="25" viewBox="0 0 24 25" fill="none" xmlns="http://www.w3.org/2000/svg">
<rect x="6.86719" y="6.86133" width="10.7791" height="10.7666" stroke="#0073CF" stroke-width="1.5"/>
<path d="M14.9167 12.5003C14.9167 13.867 13.8135 14.9703 12.4583 14.9703C11.1032 14.9703 10 13.867 10 12.5003C10 11.1336 11.1032 10.0303 12.4583 10.0303C13.8135 10.0303 14.9167 11.1336 14.9167 12.5003Z" stroke="#0073CF" stroke-width="1.5"/>
<path d="M15.3262 6.62196V4.06641" stroke="#0073CF" stroke-width="1.5"/>
<path d="M12.2568 6.62221V3.55555L14.3033 1H17.3731" stroke="#0073CF" stroke-width="1.5"/>
<path d="M9.18641 6.62221V3.04444L7.1399 1H3.04688" stroke="#0073CF" stroke-width="1.5"/>
<path d="M17.3725 15.3105L19.9307 15.3105" stroke="#0073CF" stroke-width="1.5"/>
<path d="M17.3721 12.2441L20.4419 12.2441L23 14.2886L23 17.3552" stroke="#0073CF" stroke-width="1.5"/>
<path d="M17.3721 9.17727L20.9535 9.17727L23 7.13283L23 3.04395" stroke="#0073CF" stroke-width="1.5"/>
<path d="M9.18555 18.378L9.18555 20.9336" stroke="#0073CF" stroke-width="1.5"/>
<path d="M12.2559 18.3778L12.2559 21.4444L10.2093 24L7.13958 24" stroke="#0073CF" stroke-width="1.5"/>
<path d="M15.3253 18.3778L15.3253 21.9556L17.3718 24L21.4648 24" stroke="#0073CF" stroke-width="1.5"/>
<path d="M6.62845 9.17773L4.07031 9.17773" stroke="#0073CF" stroke-width="1.5"/>
<path d="M6.62791 12.2441L3.55814 12.2441L1 10.1997L1 7.13304" stroke="#0073CF" stroke-width="1.5"/>
<path d="M6.62791 15.311L3.04651 15.311L1 17.3555L1 21.4443" stroke="#0073CF" stroke-width="1.5"/>
</svg>
